/* XPM */
static char *result[] = {
/* columns rows colors chars-per-pixel */
"64 64 158 2 ",
"   c #141B1B",
".  c #2E251F",
"X  c #272F1F",
"o  c #241F22",
"O  c #2D1F21",
"+  c #322329",
"@  c #3A2929",
"#  c #472227",
"$  c #482E22",
"%  c #452B2B",
"&  c #5D2F2C",
"*  c #453426",
"=  c #45352E",
"-  c #5F3F26",
";  c #5A372B",
":  c #422831",
">  c #4A2A34",
",  c #512C38",
"<  c #592E3C",
"1  c #533437",
"2  c #61262D",
"3  c #623A26",
"4  c #6D2830",
"5  c #7A2A33",
"6  c #693736",
"7  c #7A3837",
"8  c #3A4323",
"9  c #49472A",
"0  c #4D5726",
"q  c #4E562C",
"w  c #5D5C2E",
"e  c #594C31",
"r  c #5A5330",
"t  c #7C442A",
"y  c #754E2A",
"u  c #6A532E",
"i  c #675B2D",
"p  c #6E582A",
"a  c #72532A",
"s  c #7A483A",
"d  c #486028",
"f  c #5E632C",
"g  c #50702B",
"h  c #67622A",
"j  c #606B2A",
"k  c #6A782D",
"l  c #76772F",
"z  c #737F2E",
"x  c #706F31",
"c  c #727830",
"v  c #613140",
"b  c #683343",
"n  c #703547",
"m  c #77374B",
"M  c #753A48",
"N  c #7F3A4F",
"B  c #842D39",
"V  c #932E3A",
"C  c #943736",
"Z  c #AD313F",
"A  c #964E2E",
"S  c #92532E",
"D  c #8F473C",
"F  c #AF4938",
"G  c #A95332",
"H  c #B05932",
"J  c #BF5D39",
"K  c #C94F3D",
"L  c #D6583E",
"P  c #CA6336",
"I  c #D76539",
"U  c #E3643D",
"Y  c #E46D3A",
"T  c #803A4F",
"R  c #8A3F4B",
"E  c #873C52",
"W  c #8F3E56",
"Q  c #943E55",
"!  c #9B3D55",
"~  c #AD3240",
"^  c #BC3647",
"/  c #A33D54",
"(  c #AD3C52",
")  c #B53B52",
"_  c #BC3B50",
"`  c #C73546",
"'  c #C73A4F",
"]  c #CB3A4F",
"[  c #D33749",
"{  c #D53A4D",
"}  c #DC3B4D",
"|  c #C13A50",
" . c #E0394C",
".. c #9F4B44",
"X. c #994452",
"o. c #A44A4E",
"O. c #AE4F4C",
"+. c #B8454E",
"@. c #BF5847",
"#. c #B95548",
"$. c #B85D65",
"%. c #AA6773",
"&. c #C45B44",
"*. c #C95D44",
"=. c #DD4550",
"-. c #DB4A52",
";. c #DA5254",
":. c #D75C57",
">. c #E14647",
",. c #E14C45",
"<. c #E1414A",
"1. c #E25443",
"2. c #E35A41",
"3. c #CE6141",
"4. c #C76A56",
"5. c #D5635A",
"6. c #D36D5D",
"7. c #D1735F",
"8. c #CE7F63",
"9. c #63842F",
"0. c #74802E",
"q. c #698D30",
"w. c #7D8930",
"e. c #74A334",
"r. c #7BA635",
"t. c #879432",
"y. c #919E34",
"u. c #82A935",
"i. c #8AAC36",
"p. c #90AF37",
"a. c #9AA836",
"s. c #96B137",
"d. c #98B237",
"f. c #97B238",
"g. c #9EB539",
"h. c #A3B538",
"j. c #A6B939",
"k. c #ADBC3A",
"l. c #EA8A5E",
"z. c #C98363",
"x. c #CB8A67",
"c. c #D08A6B",
"v. c #C8966B",
"b. c #CFA077",
"n. c #B77B81",
"m. c #D5A982",
"M. c #DEB794",
"N. c #F0A782",
"B. c #E5B197",
"V. c #F3B694",
"C. c #E9C5A6",
"Z. c #E9C6A6",
"A. c #F6C5A6",
"S. c #EFCFB2",
"D. c #F9D3B8",
"F. c #F5D8BE",
"G. c #FADCC2",
"H. c #FCE2CA",
/* pixels */
"k.k.k.k.k.k.k.k.k.k.k.k.k.k.k.k.k.k.k.k.j.d.h.k.k.k.k.k.k.k.k.k.k.k.k.k.k.k.k.k.k.k.k.k.k.k.k.k.k.j.g.j.k.k.k.k.k.k.k.k.g.d.9.g ",
"k.k.k.k.k.k.k.k.k.k.k.k.k.k.k.k.k.k.k.k.k.k.k.k.k.k.k.k.k.k.k.k.k.k.k.k.k.k.k.k.k.k.k.k.k.k.k.k.k.k.k.k.k.k.k.k.k.k.k.k.k.k.u.e.",
"k.k.k.k.k.k.k.k.k.k.k.k.k.k.k.k.k.k.k.k.k.k.k.k.k.k.k.k.k.k.k.k.k.k.k.k.k.k.k.k.k.k.k.k.k.k.k.k.k.k.k.k.k.k.k.k.k.k.k.k.i.r.r.e.",
"k.j.j.k.k.k.k.k.k.k.k.k.k.k.k.k.k.k.k.k.k.k.k.k.k.k.k.k.k.k.j.k.k.k.k.k.k.k.k.k.k.k.k.k.k.k.k.k.k.k.k.k.k.k.k.k.k.k.k.j.i.r.e.e.",
"k.r.r.k.k.k.k.k.k.k.k.k.k.k.k.k.k.k.k.k.k.k.k.k.k.k.k.k.k.j.e.i.k.k.k.k.k.k.k.k.k.k.k.k.k.k.k.k.k.k.k.k.k.k.k.k.k.k.s.e.f.k.u.e.",
"f.i.i.k.k.k.k.k.k.k.k.k.k.k.k.k.k.k.k.k.8           0.k.d.d.i.d.k.k.k.k.k.              0 k.k.k.k.k.k.k.k.k.k.k.j.d.p.i.g.k.d.i.",
"e.j.k.k.k.k.k.k.k.k.k.k.k.k.k.k.k.z j j y t t t t 5 u j d q.k.k.k.k.j j j 5 7 t t t t t y j a.k.k.k.k.k.k.k.k.k.j.e.i.k.k.k.k.k.",
"f.j.k.k.k.k.k.k.k.k.k.k.k.k.k.k.k.8     H Y Y Y U  .2     k k.k.k.k.       .,.Y Y Y Y Y A   t.k.k.k.k.k.k.k.k.k.j.f.g.k.d.i.i.i.",
"k.k.k.k.k.k.k.k.k.k.k.k.k.k.k.t.  Z >.Y Y Y Y Y Y  .2.Y Y 3   k.j   Y Y Y  .,.Y Y Y Y Y 2. .# 8 k.k.k.k.k.k.k.k.k.k.k.k.i.e.e.e.",
"k.k.k.k.k.k.k.k.k.k.k.k.k.k.0.h t K 1.1.U Y Y Y U  .2.Y Y G t j p t Y Y Y  .,.Y Y Y Y 2.1.1.A t j a.k.k.k.k.k.k.k.k.k.k.j.g.r.e.",
"k.k.k.k.k.k.k.k.k.k.k.k.k.k.8 $ Y Y U  .U Y Y Y U  .2.Y Y Y Y   t Y Y Y Y  .,.Y Y Y Y  .,.Y Y H   t.k.k.k.k.k.k.k.k.k.k.k.k.u.e.",
"k.k.k.k.k.k.k.k.k.k.k.k.0.  H Y Y Y Y Y >.>.Y Y Y Y ,.} Y Y Y   t Y Y 2. .Y Y Y Y 2. .Y Y Y Y Y Y $ 8 k.k.k.k.k.k.k.k.k.k.k.k.k.",
"k.k.k.k.k.k.k.k.k.k.k.k.0.  F U Y Y Y Y 2.,.2.2.L A C C A A A 0 a A A C C A G 2.2.1.1.Y Y Y Y U 2.$ 8 k.k.k.k.k.k.k.k.k.k.k.j.g.",
"k.k.k.k.k.k.k.k.k.k.k.k.0.  ~ >.Y Y Y Y Y 2. . .`             k.f           2  . .,.Y Y Y Y Y U  .# 8 k.k.j.k.k.k.k.k.k.k.k.u.e.",
"k.k.k.k.k.k.k.k.k.k.k.8 e P I 2.<.<.<. . .>.} 4 * a.a.a.a.a.a.k.h.a.a.a.a.a.l O `  . . . . .>.>.U I A X a.j.k.k.k.k.k.k.k.k.f.p.",
"k.k.k.k.k.k.k.k.k.k.k.. 3 Y Y U ,.,.,.,.,.,.,.C & z a.k.k.k.k.k.k.k.k.k.k.z i 2 K >.1.,.1.>.1.1.Y Y H   t.k.k.k.k.k.k.k.k.k.k.k.",
"k.k.k.k.k.k.k.k.k.k.k.X 3 Y Y Y Y Y Y Y Y Y Y ,.`   z k.k.k.k.k.k.k.k.k.k.  2  .U Y Y Y Y Y Y Y Y Y H   t.k.k.k.k.k.k.k.k.k.p.i.",
"k.k.k.k.k.k.k.k.k.w.X ~ [  .U Y Y Y Y Y Y 2.<. . .` & X X w.k.k.k.k.X X X ` [  .<.,.Y Y Y Y Y Y Y ,. .` $ 0 k.k.k.k.k.k.k.k.u.e.",
"k.k.k.k.k.k.k.k.w.i 2 [  . .1.2.2.2.2.2.2.1. . . . .V 2 2 i z z z z 2 2 2  . . . .,.2.2.2.2.2.2.2.>. . .B ; z a.k.k.k.k.i.r.e.e.",
"k.k.k.k.k.k.k.k.X 2  . . . . . . . . . . . . . . . . . . .2          . . . . . . . . . . . . . . . . . . .~   z k.k.k.k.p.r.e.e.",
"k.k.k.k.k.k.k.k.X &  . . . . . . . . .}  . . . . . . . .} { ` ` ` `  . . . . . . . . . . . . . . . . . . .Z   0.k.k.k.k.k.k.u.e.",
"k.k.k.k.k.k.a.z % B  . . . . . . .,.,.1. . . . . . .<.,.,. . . . . .,.,.,. . . . . . . . . . . . . . . . .^ : w w.k.k.k.k.k.s.i.",
"k.k.k.k.k.k.z   N (  . . . . . . .2.Y Y ,. . . . . .2.Y Y ,.}  . . .Y Y Y }  . . . . . . . . . . . . . . .] Q : X k.k.k.k.k.k.k.",
"k.k.k.k.k.k.z   N (  . . . . . . .U Y Y <. . . .{ ! *.Y Y Y Y U U U Y Y Y ! )  . . . . . . . . . . . . . .] W : X k.k.k.s.i.i.i.",
"k.k.k.k.k.k.z   T (  . . . . . . .1.U U <. . . .} W &.Y Y Y Y Y Y Y Y Y Y W (  . . . . . . . . . . . . .} ] W : X k.k.k.i.e.e.e.",
"k.k.k.k.k.k.z   T )  . . . . . . . . . . . . . .} W &.Y Y Y Y Y Y Y Y Y Y W (  . . . . . . . . . . . . . .] W : X k.k.k.h.g.r.e.",
"k.k.k.k.k.k.z   T (  . . . . . . . . . . . . . .} ] +.o.o.*.Y Y Y Y o.o.o.] } }  . . . . . . . . . . . . .] W : X k.k.k.k.k.u.e.",
"k.k.k.k.k.k.z   T (  . . . . . . . . . . . . . .} -.$.%.%.4.3.3.3.3.%.%.%.-.-. . . . . . . . . . . . . . .] W : X k.k.k.k.k.k.k.",
"k.k.k.k.k.k.z   N (  . . . . . . . . . . . . . .=.v.Z.H.H.n.Q W W Q H.H.H.v.7. . . . . . . . . . . . . . .] Q : X k.k.k.k.k.j.g.",
"k.k.k.k.k.k.z   T (  . . . . . . . . . . . . .5.c.S.G.G.l.s + + + + l.V.H.S.B.z.=. . . . . . . . . . . . .] W : X k.k.k.k.k.u.e.",
"k.k.k.k.k.k.0.  N / ' }  . . . . . . . . .} ;.z.b.H.H.D.Y 3         Y N.H.H.Z.v.;.-. . . . . . . . . . .] _ Q : X k.k.k.k.k.f.p.",
"k.k.k.k.k.k.z   N X.W {  . . . . . . . . .-.v.v.b.H.H.D.Y 3         Y N.H.H.Z.v.v.7. . . . . . . . . . ./ W W : X k.k.k.k.k.k.k.",
"k.i.i.k.k.k.z   N W W {  . . . . . . . . .-.v.v.b.G.H.G.Z.8.H H H H A.D.H.H.Z.v.v.7. . . . . . . . . . ./ W W : X k.h.i.g.k.k.k.",
"k.r.r.k.k.t.f + n m W ' {  . . . . . . . .-.8.z.b.S.G.H.H.N.l.l.l.l.H.H.H.S.M.v.z.:. . . . . . . . . .] ! E n : = t.u.e.s.k.k.k.",
"r.j.j.k.k.  : W o : W W ( } }  . . . . . . . .8.v.v.C.G.H.H.H.H.H.H.H.H.H.v.v.v.=. . . . . . . . . .] W W n   v E   g k.j.k.u.r.",
"r.j.k.k.k.  : W n T W W ! / {  . . . . . . . .-.:.v.m.m.m.S.G.G.H.H.m.m.m.v.8.;. . . . . . . . . .) ! W W E n E N   k k.k.j.u.e.",
"k.k.k.h.a.o > W W W W Q W W _ }  . . . . . . . .=.x.x.x.v.C.G.G.F.F.v.v.x.x.6. . . . . . . .} } { / W W W W W W N o c a.i.e.e.e.",
"k.k.k.j   W W W W W W W W W W /  . . . . . . . . . . .=.v.v.v.v.v.v.v.5. . . . . . . . . . . .] W W W W W W W W W W : X f.i.r.e.",
"k.k.k.j   W W W W W W > v W W Q ( {  . . . . . . . . .} :.:.:.:.:.:.:.-. . . . . . . . . . .) ( W W m @ E W W W W W : X k.k.u.e.",
"k.k.k.j   W W W W W W + : N W W W | }  . . . . . . . . .{ { { { { { { }  . . . . . . . .{ { / W W E n o n W W W W W : X k.k.u.e.",
"k.k.k.j   W W W W W W W v   n W W W /  . . . . . . . .{ Q W W W W W W )  . . . . . . . .| W W W W + + W W W W W W W : X k.k.u.e.",
"k.k.k.j   Q W W W W W > e z = < W W Q ( ( _  . . . .| ( | | | | | | | ) (  . . . .] ( ( / W W m : x f : T W W W W W : X s.u.e.e.",
"k.k.k.j   W W W W W W o 0 k.0 @ N W W W W ! { { {  .( /  . . . . . . ._ ! } } { { _ W W W W N M X t.t.  n W W W W W : X i.e.e.e.",
"k.k.k.j   W W W W W W o 0 k.k.t.  n W W W W W Q !  . . . . . . . . . . . . .| W W W W W W W + 8 k.k.t.  n W E X.W W : X k.k.u.e.",
"k.k.k.y.z : v W @.D : c t.k.f e v T W W , < W W Q ( ( ( ( ( ( ( ) ( ( ( ( ( / W W n : E W W n 1 0 a.h.z = 6 &.o.E : w w.k.k.i.u.",
"k.k.k.k.k.  : X.J S X d.h.a.9 @ Q W W W : + T E W W W W W W W W W W W W W W W W T v o N W W W m o z h.k.0 * P o.R   0.k.k.k.k.k.",
"k.k.k.k.k.  3 Y + q k.k.0.  n W W W W W W n   v W W W W W W W W W W W W W W W W o : Q W W W W W W + 8 k.k.t.  A P   l k.k.k.d.p.",
"k.k.k.k.k.0.h 3 l t.k.k.0.  n W W W W W W E v , : : : , W W W W W W W b : : : : v n W W W W W W W + 8 k.k.h.z p - z a.k.k.k.u.e.",
"k.k.k.k.k.k.0.  a.k.k.k.0.  n Q W W W W W W W @       o W W W W W W W ,         N W W W W W W W W + 8 k.k.k.k.0 X k.k.k.k.k.h.d.",
"k.k.k.k.k.k.k.k.k.k.k.k.k.k.8 + W W W W W n   z k.k.k.a.              j k.k.k.k.X : W W W W W n   t.k.k.k.k.k.k.k.k.k.k.k.k.k.k.",
"k.k.k.k.k.k.k.k.k.k.k.k.k.k.8 + W W W W W n   z k.k.k.h.j j j j j j j t.k.k.k.k.k r , E W W W n   t.k.k.k.k.k.k.k.k.k.k.k.k.u.r.",
"k.k.k.k.k.k.k.k.k.k.k.k.k.k.8 + W W W W W n   z k.k.k.k.k.k.k.k.k.k.k.k.k.k.k.k.k.z   N W W W n   t.k.k.k.k.k.k.k.j.j.k.k.k.i.r.",
"k.k.k.k.k.k.k.k.k.k.k.k.0.  n W W W W W + 8 k.k.k.k.k.k.k.k.k.k.k.k.k.k.k.k.k.k.k.z   N W W W W W + 8 k.k.k.k.k.j.e.i.k.k.k.k.k.",
"k.k.k.k.k.k.k.k.k.k.k.k.0.  D O.W O..., q 0.k.k.k.k.k.k.k.k.k.k.k.k.k.k.k.k.k.k.k.y.j 1 7 #.X.X.#.@ 8 k.k.k.k.k.j.i.p.f.j.k.k.k.",
"k.k.k.k.k.k.k.k.k.k.k.k.0.  H 3.W 3.H   9.k.k.k.k.k.k.k.k.k.k.k.k.k.k.k.k.k.k.k.k.k.k.X - Y o.o.Y $ 8 k.k.k.k.k.k.k.f.e.d.k.k.k.",
"k.k.k.k.k.k.k.k.k.k.k.k.k.k.k.k.k.k.k.g.f.i.f.k.k.k.k.k.k.k.k.k.k.k.k.k.k.k.k.k.k.k.k.k.k.k.k.k.d.p.i.h.k.k.k.k.k.k.j.f.p.i.i.i.",
"k.k.k.k.k.k.k.k.k.k.k.k.k.k.k.k.k.k.k.k.j.e.i.k.k.k.k.k.k.k.k.k.k.k.k.k.k.k.k.k.k.k.k.k.k.k.k.k.k.f.e.f.k.k.k.k.k.k.k.k.i.e.e.e.",
"k.k.k.k.k.k.k.k.k.k.k.k.k.k.k.k.k.k.k.k.k.g.j.k.k.k.k.k.k.k.k.k.k.k.k.k.k.k.k.k.k.k.k.k.k.k.k.k.k.j.g.k.k.k.k.u.i.k.k.k.i.e.e.e.",
"k.k.k.k.k.k.k.k.k.k.k.k.k.k.k.k.k.k.k.k.k.k.k.k.k.k.k.k.k.k.k.k.k.k.k.k.k.k.k.k.k.k.k.k.k.k.k.k.k.k.k.k.k.k.k.e.r.k.k.k.i.e.e.e.",
"k.k.k.k.g.e.e.e.g.k.k.k.k.k.k.s.e.e.e.j.k.k.k.k.k.k.k.k.k.k.k.k.k.p.e.e.e.k.k.k.k.k.k.k.r.e.e.r.k.k.k.k.k.k.k.k.j.e.e.e.e.e.e.e.",
"k.j.g.g.f.e.r.u.j.k.k.k.k.k.k.f.r.r.e.g.g.k.k.k.j.g.g.g.k.k.g.g.g.i.e.r.u.k.k.k.k.k.k.k.i.u.e.r.g.j.k.k.k.j.g.g.f.e.e.e.e.e.e.e.",
"k.r.e.e.e.e.p.k.k.k.k.k.k.k.k.k.k.u.e.e.r.k.k.k.p.e.e.e.j.j.e.e.e.e.e.g.k.k.k.k.k.k.k.k.k.k.e.e.e.i.k.k.k.r.e.e.e.e.e.e.e.e.e.e.",
"p.p.i.e.e.e.r.p.j.k.s.p.p.p.p.p.p.r.e.e.r.k.h.s.u.e.e.e.p.p.p.u.e.e.e.i.p.p.s.p.g.k.g.p.p.p.e.e.e.u.k.g.p.r.e.e.e.e.e.e.e.e.e.e.",
"e.j.j.e.e.e.e.e.g.k.r.e.e.e.e.e.e.e.e.e.r.k.f.e.e.e.e.e.e.r.k.f.e.e.e.e.e.e.e.e.i.k.s.e.e.e.e.e.e.i.k.i.e.e.e.e.e.e.e.e.e.e.e.e."
};
