/* XPM */
static char *result[] = {
/* columns rows colors chars-per-pixel */
"32 314 49 1 ",
"  c #3D3957",
". c #4E4D5C",
"X c #515262",
"o c #5A526B",
"O c #5C6D77",
"+ c #4F698D",
"@ c #4D6A94",
"# c #5B7395",
"$ c #5C7E9A",
"% c #6E7A80",
"& c #687995",
"* c #7B888F",
"= c #728794",
"- c #5D8BB3",
"; c #6E85A1",
": c #6689A6",
"> c #7091AB",
", c #7A90AB",
"< c #7798B3",
"1 c #7E9CB3",
"2 c #79A4C5",
"3 c #8A98A0",
"4 c #9695AC",
"5 c #A698AA",
"6 c #84A3BD",
"7 c #8AA0B9",
"8 c #9BAAB3",
"9 c #A6AFB4",
"0 c #E6A3A3",
"q c #8FAAC0",
"w c #89ACC5",
"e c #93B4CB",
"r c #95B6CA",
"t c #A7B8C2",
"y c #A7B8C3",
"u c #A6B9C4",
"i c #A1BCCD",
"p c #A2BFD2",
"a c #BAC4CA",
"s c #ABC4D2",
"d c #B1D0DD",
"f c #BFD9E5",
"g c #C2D9DE",
"h c #C4DADE",
"j c #C6DBDE",
"k c #D8E9EC",
"l c #DCEBED",
"z c #DFEDED",
"x c None",
/* pixels */
"xxxxxxxxxxxxxxxxxxxxxxxxxxxxxxxx",
"xxxxxxxxxxxxxxxxxxxxxxxxxxxxxxxx",
"xxxxxxxxxxxxxxxxxxxxxxxxxxxxxxxx",
"xxxxxxxxxxxxxxxxxxxxxxxxxxxxxxxx",
"xxxxxxxxxxxxxxxxxxxxxxxxxxxxxxxx",
"xxxxxxxxxxxxxxxxxxxxxxxxxxxxxxxx",
"xxxxxxxxxxxxxxxxxxxxxxxxxxxxxxxx",
"xxxxxxxxxxxxxxxxxxxxxxxxxxxxxxxx",
"xxxxxxxxxxxxxxxxxxxxxxxxxxxxxxxx",
"xxxxxxxxxxxxxxxxxxxxxxxxxxxxxxxx",
"xxxxxxxxxxxxxxxxxxxxxxxxxxxxxxxx",
"xxxxxxxxxxxxxxxxxxxxxxxxxxxxxxxx",
"xxxxxxxxxxxxxxxxx8xxxxxxxxxxxxxx",
"xxxxxxxxxxxxxxxxxxxxxxxxxxxxxxxx",
"xxxxxxxxxxxxxxxxx8xxxxxxxxxxxxxx",
"xxxxxxxxxxx-xxxxxxxx-xxxxxxxxxxx",
"xxxxxxxxxxxx-xxxx8x-xxxxxxxxxxxx",
"xxxxxxxxxxxxxxxxx8xxxjxxxxjxxxxx",
"xxxxxxxxxxxxxxxxx8xxj0jxxj0jxxxx",
"xxxxxxxxxxxxxxxxxx-xj0zzzzzjxxxx",
"xxxxxxxxxxxxxxx-xxxwzzzzzzzzzxxx",
"xxxxxxxxxxxxxx-xx8iitz.zzzz.ztxx",
"xxxxxxxxxxxxxxx x  &fzzzz.zzzxxx",
"xxxxxxxxxxxxxxxxx==tizzz.0.zztxx",
"xxxxxxxxxxxxxxxxx==jzzzzzzzzzxxx",
"xxxxxxxxxxxxxxxxxx=xjzzzzzzzxxxx",
"xxxxxxxxxxxxxxxxxxzxx399399xxxxx",
"xxxxxxxxxxxxxxxxxxzx88aa9993xxxx",
"xxxxxxxxxxxxxxxxxxxz88**9%%3Oxxx",
"xxxxxxxxxxxxxxxxxxxz888a%933Oxxx",
"xxxxxxxxxxxxxxxxxxxxz888933xxxxx",
"xxxxxxxxxxxxxxxxxxxxxx*xxx%xxxxx",
"xxxxxxxxxxxxxxxxxxxxxxxxxxxxxxxx",
"xxxxxxxxxxxxxxxxxxxxxxxxxxxxxxxx",
"xxxxxxxxxxxxxxxxxxxxxxxxxxxxxxxx",
"xxxxxxxxxxxxxxxxxxxxxxxxxxxxxxxx",
"xxxxxxxxxxxxxxxxxxxxxxxxxxxxxxxx",
"xxxxxxxxxxxxxxxxxxxxxxxxxxxxxxxx",
"xxxxxxxxxxxxxxxxxxxxxxxxxxxxxxxx",
"xxxxxxxxxxxxxxxxxxxxxxxxxxxxxxxx",
"xxxxxxxxxxxxxxxxxxxxxxxxxxxxxxxx",
"xxxxxxxxxxxxxxxxxxxxxxxxxxxxxxxx",
"xxxxxxxxxxxxxxxxxxxxxxxxxxxxxxxx",
"xxxxxxxxxxxxxxxxxxxxxxxxxxxxxxxx",
"xxxxxxxxxxxxxxxxxxxxxxxxxxxxxxxx",
"xxxxxxxxxxxxxxxxxxxxxxxxxxxxxxxx",
"xxxxxxxxxxxxxxxxxxxxxxxxxxxxxxxx",
"xxxxxxxxxxxxxxxxxxxxxxxxxxxxxxxx",
"xxxxxxxxxxxxxxxxxxxxxxxxxxxxxxxx",
"xxxxxxxxxxxxxxxxxxxxxxxxxxxxxxxx",
"xxxxxxxxxxxxxxxxxxxxxxxxxxxxxxxx",
"xxxxxxxxxxxxxxxxxxxxxxxxxxxxxxxx",
"xxxxxxxxxxxxxxxxxxxxxxxxxxxxxxxx",
"xxxxxxxxxxxxxxxxxxxxxxxxxxxxxxxx",
"xxxxxxxxxxxxxxxxxxxxxxxxxxxxxxxx",
"xxxxxxxxxxxxxxxxx-xxxxxxxxxxxxxx",
"xxxxxxxxxxxxxxxxx-xxxxxxxxxxxxxx",
"xxxxxxxxxxxxxxxx2--xxxxxxxxxxxxx",
"xxxxxxxxxxxxxxxx-2xxxxxxxxxxxxxx",
"xxxxxxxxxxxxxxxx-x-xxjxxxxjxxxxx",
"xxxxxxxxxxxxxxxxx-2xj0jxxj0jxxxx",
"xxxxxxxxxxxxxxxxx2xxj0zzzzzjxxxx",
"xxxxxxxxxxxxxxxxxxxdfzzzzzzzzxxx",
"xxxxxxxxxxxxxxxxxxtttz.zzzz.ztxx",
"xxxxxxxxxxxxxxx     zzzzz.zzzxxx",
"xxxxxxxxxxxxxxxxx==ttzzz.0.zztxx",
"xxxxxxxxxxxxxxxxx==jzzzzzzzzzxxx",
"xxxxxxxxxxxxxxxxxx=xjzzzzzzzxxxx",
"xxxxxxxxxxxxxxxxxxxxx399399xxxxx",
"xxxxxxxxxxxxxxxxxxzx88aa9993xxxx",
"xxxxxxxxxxxxxxxxxxzx88**9%%3Oxxx",
"xxxxxxxxxxxxxxxxxxxz888a%933Oxxx",
"xxxxxxxxxxxxxxxxxxxxz888933xxxxx",
"xxxxxxxxxxxxxxxxxxxxxx*xxx%xxxxx",
"xxxxxxxxxxxxxxxxxxxxxxxxxxxxxxxx",
"xxxxxxxxxxxxxxxxxxxxxxxxxxxxxxxx",
"xxxxxxxxxxxxxxxxxxxxxxxxxxxxxxxx",
"xxxxxxxxxxxxxxxxxxxxxxxxxxxxxxxx",
"xxxxxxxxxxxxxxxxxxxxxxxxxxxxxxxx",
"xxxxxxxxxxxxxxxxxxxxxxxxxxxxxxxx",
"xxxxxxxxxxxxxxxxxxxxxxxxxxxxxxxx",
"xxxxxxxxxxxxxxxxxxxxxxxxxxxxxxxx",
"xxxxxxxxxxxxxxxxxxxxxxxxxxxxxxxx",
"xxxxxxxxxxxxxxxxxxxxxxxxxxxxxxxx",
"xxxxxxxxxxxxxxxxxxxxxxxxxxxxxxxx",
"xxxxxxxxxxxxxxxxxxxxxxxxxxxxxxxx",
"xxxxxxxxxxxxxxxxxxxxxxxxxxxxxxxx",
"xxxxxxxxxxxxxxxxxxxxxxxxxxxxxxxx",
"xxxxxxxxxxxxxxxxxxxxxxxxxxxxxxxx",
"xxxxxxxxxxxxxxxxxxxxxxxxxxxxxxxx",
"xxxxxxxxxxxxxxxxxxxxxxxxxxxxxxxx",
"xxxxxxxxxxxxxxxxxxxxxxxxxxxxxxxx",
"xxxxxxxxxxxxxxxxxxxxxxxxxxxxxxxx",
"xxxxxxxxxxxxxxxxxxxxxxxxxxxxxxxx",
"xxxxxxxxxxxxxxxxxxxxxxxxxxxxxxxx",
"xxxxxxxxxxxxxxxxx-xxxxxxxxxxxxxx",
"xxxxxxxxxxxxxxxx-2-xxxxxxxxxxxxx",
"xxxxxxxxxxxxxxxx---xxxxxxxxxxxxx",
"xxxxxxxxxxxxxxxx---xxxxxxxxxxxxx",
"xxxxxxxxxxxxxxxx---xxxxxxxxxxxxx",
"xxxxxxxxxxxxxxxx2--xxxxxxxxxxxxx",
"xxxxxxxxxxxxxxxx---xxjxxxxjxxxxx",
"xxxxxxxxxxxxxxxx---xj0jxxj0jxxxx",
"xxxxxxxxxxxxxxxx2-2xj0zzzzzjxxxx",
"xxxxxxxxxxxxxxx&    zzzzzzzzzxxx",
"xxxxxxxxxxxxxxxxx==ttz.zzzz.ztxx",
"xxxxxxxxxxxxxxxxx==jzzzzz.zzzxxx",
"xxxxxxxxxxxxxxxxxx=ttzzz.0.zztxx",
"xxxxxxxxxxxxxxxxxxxjzzzzzzzzzxxx",
"xxxxxxxxxxxxxxxxxxxxjzzzzzzzxxxx",
"xxxxxxxxxxxxxxxxxxxxx399399xxxxx",
"xxxxxxxxxxxxxxxxxxxx88aa9993xxxx",
"xxxxxxxxxxxxxxxxxxxx88**9%%3xxxx",
"xxxxxxxxxxxxxxxxzzxx888a%933Oxxx",
"xxxxxxxxxxxxxxxxxxzzz888933OOxxx",
"xxxxxxxxxxxxxxxxxxxxxx*xxx%xxxxx",
"xxxxxxxxxxxxxxxxxxxxxxxxxxxxxxxx",
"xxxxxxxxxxxxxxxxxxxxxxxxxxxxxxxx",
"xxxxxxxxxxxxxxxxxxxxxxxxxxxxxxxx",
"xxxxxxxxxxxxxxxxxxxxxxxxxxxxxxxx",
"xxxxxxxxxxxxxxxxxxxxxxxxxxxxxxxx",
"xxxxxxxxxxxxxxxxxxxxxxxxxxxxxxxx",
"xxxxxxxxxxxxxxxxxxxxxxxxxxxxxxxx",
"xxxxxxxxxxxxxxxxxxxxxxxxxxxxxxxx",
"xxxxxxxxxxxxxxxxxxxxxxxxxxxxxxxx",
"xxxxxxxxxxxxxxxxxxxxxxxxxxxxxxxx",
"xxxxxxxxxxxxxxxxxxxxxxxxxxxxxxxx",
"xxxxxxxxxxxxxxxxxxxxxxxxxxxxxxxx",
"xxxxxxxxxxxxxxxxxxxxxxxxxxxxxxxx",
"xxxxxxxxxxxxxxxxxxxxxxxxxxxxxxxx",
"xxxxxxxxxxxxxxxxxxxxxxxxxxxxxxxx",
"xxxxxxxxxxxxxxxxxxxxxxxxxxxxxxxx",
"xxxxxxxxxxxxxxxxxxxxxxxxxxxxxxxx",
"xxxxxxxxxxxxxxxxxxxxxxxxxxxxxxxx",
"xxxxxxxxxxxxxxxxxxxxxxxxxxxxxxxx",
"xxxxxxxxxxxxxxxxxxxxxxxxxxxxxxxx",
"xxxxxxxxxxxxxxxxxxxxxxxxxxxxxxxx",
"xxxxxxxxxxxxxxxxxxxxxxxxxxxxxxxx",
"xxxxxxxxxxxxxxxxxxxxxxxxxxxxxxxx",
"xxxxxxxxxxxxxxxxxxxxxxxxxxxxxxxx",
"xxxxxxxxxxxxxxxxxxxxxxxxxxxxxxxx",
"xxxxxxxxxxxxxxxxxxxxxxxxxxxxxxxx",
"xxxxxxxxxxxxxxxxxxxxxxxxxxxxxxxx",
"xxxxjxxxxrxxxxxxxxxxxxxxxxxxxxxx",
"xxxh0jxxj5jxxxxxxxxxxxxxxxxxxxxx",
"xxxh0zzzzzjxxxxxxxxxxxxxxxxxxxxx",
"xxhkzzzzzzzzxxxxxxxxxxxxxxxxxxxx",
"xuuulXzzzz.ztxxxxxxxxxxxxxxxxxxx",
"xxgkzzzz.zpzxxxxxxxxxxxxxxxxxxxx",
"xtytzzz.0.pztxaaaxxxxxxxxxxxxxxx",
"xxjzzzz zzzaaa881axxxxxxxxxxxxxx",
"xxxjz== aaaq1888aqxxxxxxxxxxxxxx",
"xxxxo== 18811qaaxxxxxxxxxxxxxxxx",
"xxxx8== qaaaaxxxxxxxxxxxxxxxxxxx",
"xxxx88* 9%%xxxxxxxxxxxxxxxxxxxxx",
"xxxx888a%93xxxxxxxxxxxxxxxxxxxxx",
"xxxzz888933%xxxxxxxxxxxxxxxxxxxx",
"zzzxxx*xxxxxxxxxxxxxxxxxxxxxxxxx",
"xxxxxxxxxxxxxxxxxxxxxxxxxxxxxxxx",
"xxxxxxxxxxxxxxxxxxxxxxxxxxxxxxxx",
"xxxxxxxxxxxxxxxxxxxxxxxxxxxxxxxx",
"xxxxxxxxxxxxxxxxxxxxxxxxxxxxxxxx",
"xxxxxxxxxxxxxxxxxxxxxxxxxxxxxxxx",
"xxxxxxxxxxxxxxxxxxxxxxxxxxxxxxxx",
"xxxxxxxxxxxxxxxxxxxxxxxxxxxxxxxx",
"xxxxxxxxxxxxxxxxxxxxxxxxxxxxxxxx",
"xxxxxxxxxxxxxxxxxxxxxxxxxxxxxxxx",
"xxxxxxxxxxxxxxxxxxxxxxxxxxxxxxxx",
"xxxxxxxxxx-xxxxxxxxxxxxxxxxxxxxx",
"xxxxxxjxxx-w---xxxxxxxxxxxxxxxxx",
"xxxxxj0j--w4w---xxxxxxxxxxxxxxxx",
"xxxxxxj0zzeeew-xxxxxxxxxxxxxxxxx",
"xxxxxjzzzzezzzxxxxxxxxxxxxxxxxxx",
"xxxxtttz.zzzz.xx-xxxxxxxxxxxxxxx",
"xxxxxjzzzzz.zz--------xxxxxxxxxx",
"xxxxtttzzz.0.zxx-xxxxxxxxxxxxxxx",
"xxxxxjzzzzzzzzxxxxx xxxxxxxxxxxx",
"xxxx-xjzzzzzzxxxx== aaaaaasssxxx",
"xxxx---->>99xxxxo== 888888888sxx",
"xx----$$<<6axxxxx== aaaaaasssxxx",
"xxxx--$$<<**xxxxxxx xxxxxxxxxxxx",
"xxzzezzz888a-xxxxxxxxxxxxxxxxxxx",
"xxxxxxxx988<-----xxxxxxxxxxxxxxx",
"xxxxxxx*xxx%-xxxxxxxxxxxxxxxxxxx",
"xxxxxxxxxxxxxxxxxxxxxxxxxxxxxxxx",
"xxxxxxxxxxxxxxxxxxxxxxxxxxxxxxxx",
"xxxxxxxxxxxxxxxxxxxxxxxxxxxxxxxx",
"xxxxxxxxxxxxxxxxxxxxxxxxxxxxxxxx",
"xxxxxxxxxxxxxxxxxxxxxxxxxxxxxxxx",
"xxxxxxxxxxxxxxxxxxxxxxxxxxxxxxxx",
"xxxxxxxxxxxxxxxxxxxxxxxxxxxxxxxx",
"xxxxxxxxxxxxxxxxxxxxxxxxxxxxxxxx",
"xxxxxxxxxxxxxxxxxxxxxxxxxxxxxxxx",
"xxxxxxxxxxxxxxxxxxxxxxxxxxxxxxxx",
"xxxxxxxxxxxxxxxxx-xxxxxxxxxxxxxx",
"xxxxxxxjxxxxjxxxx-----xxxxxxxxxx",
"xxxxxxj0jxxj0xx--------xxxxxxxxx",
"xxxxxxj0zzzzzzxxx-----xxxxxxxxxx",
"xxxxxjzzzzzzzzxxx-xxxxxxxxxxxxxx",
"xxxxtttz.zzzz.xxxxxxxx-xxxxxxxxx",
"xxxxxjzzzzz.zzxxxxxx-------xxxxx",
"xxxxtttzzz.0.zxxxxxxxx-xxxxxxxxx",
"xxxxxjzzzzzzzzxxxxx xxxxxxxxxxxx",
"xxxxxxjzzzzzzx-xx== aaaaaaaaaxxx",
"xxxxxxxx3399xx--#::+888888888axx",
"xxxxxxxx88aa-----::+6aaaaaaaaxxx",
"xxzzzxxO88**xx-----+xxxxxxxxxxxx",
"xxxxxzzz888axx-xxxxxxxx-xxxxxxxx",
"xxxxxxxx9888xxxxxxxxxx------xxxx",
"xxxxxxx*xxx%xxxxxxxxxxx-xxxxxxxx",
"xxxxxxxxxxxxxxxxxxxxxxxxxxxxxxxx",
"xxxxxxxxxxxxxxxxxxxxxxxxxxxxxxxx",
"xxxxxxxxxxxxxxxxxxxxxxxxxxxxxxxx",
"xxxxxxxxxxxxxxxxxxxxxxxxxxxxxxxx",
"xxxxxxxxxxxxxxxxxxxxxxxxxxxxxxxx",
"xxxxxxxxxxxxxxxxxxxxxxxxxxxxxxxx",
"xxxxxxxxxxxxxxxxxxxxxxxxxxxxxxxx",
"xxxxxxxxxxxxxxxxxxxxxxxxxxxxxxxx",
"xxxxxxxxxxxxxxxxxxxxxxxxxxxxxxxx",
"xxxxxxxxxxxxxxxxxxxxxxxxxxxxxxxx",
"xxxxxxxxxxxxxxxxxxxxxxxxxxxxxxxx",
"xxxxxxxjxxxxjxxxxxxxxxx-xxxxxxxx",
"xxxxxxj0jxxj0xxxxxxxxxxxxxxxxxxx",
"xxxxxxj0zzzzzzxxxxxxxxxxxxxxxxxx",
"xxxxxjzzzzzzzzxxxxxxx-xxxxxxxxxx",
"xxxxtttz.zzzz.xxxxxxxxxxxx-xxxxx",
"xxxxxjzzzzz.zzxxxxxxxxxxxxxx-xxx",
"xxxxtttzzz.0.zxxxxxxxxxxxxxxxxxx",
"xxxxxjzzzzzzzzxxxxx+-xxxxxxxxxxx",
"xxxxxxjzzzzzzxxxx== aaaaaaaaaxxx",
"xxxxxxxx3399xxxxo== 888888888axx",
"xxzzxxxx88aaxxxxx== a66aaaaaaxxx",
"xxxxzzxx88**xxxxxxx xxxxxxxxxxxx",
"xxxxxxzz888axxxxxx-xxxxxxxxxxxxx",
"xxxxxxxx9888xxxxxxxxxxxxxxxxxx-x",
"xxxxxxx*xxx%xxxxxxxxxxxxxxxx-xxx",
"xxxxxxxxxxxxxxxxxxxxxxxxxxxxxxxx",
"xxxxxxxxxxxxxxxxxxxxxxxxxxxxxxxx",
"xxxxxxxxxxxxxxxxxxxxxxxxxxxxxxxx",
"xxxxxxxxxxxxxxxxxxxxxxxxxxxxxxxx",
"xxxxxxxxxxxxxxxxxxxxxxxxxxxxxxxx",
"xxxxxxxxxxxxxxxxxxxxxxxxxxxxxxxx",
"xxxxxxxxxxxxxxxxxxxxxxxxxxxxxxxx",
"xxxxxxxxxxxxxxxxxxxxxxxxxxxxxxxx",
"xxxxxxxxxxxxxxxxxxxxxxxxxxxxxxxx",
"xxxxxxxxxxxxxxxxxxxxxxxxxxxxxxxx",
"xxxxxxxxxxxxxxxxxxxxxxxxxxxxxxxx",
"xxxxxxjxxxxjxxxxxxxxxxxxxxxxxxxx",
"xxxxxj0jxxj0jxxxxxxxxxxxxxxxxxxx",
"xxxxxj0zzzzzjxxxxxxxxxxxxxxxxxxx",
"xxxxjzzzzzzzzzxxxxxxxxxxxxxxxxxx",
"xxxtttz.zzzz.ztxxxxxxxxxxxxxxxxx",
"xxxxjzzzzz.zzzxxxxxxxxxxxxxxxxxx",
"xxxtttzzz.0.zztxxxxxxxxxxxxxxxxx",
"xxxxjzzzzzzzzzxxxxxxxxxxxxxxxxxx",
"xxxxxjzzzzzzzxxxxxxxxxxxxxxxxxxx",
"xxxxxx39 399xxxxxxxxxxxxxxxxxxxx",
"xxzzx88= 696aaxxxxxxxxxxxxxxxxxx",
"xxxxz=== 9<<<<<<xxxxxxxxxxxxxxxx",
"xxxxz=== %9666axxxxxxxxxxxxxxxxx",
"xxxxxz88 933xxxxxxxxxxxxxxxxxxxx",
"xxxxxx**xxx%xxxxxxxxxxxxxxxxxxxx",
"xxxxxxxxxxxxxxxxxxxxxxxxxxxxxxxx",
"xxxxxxxxxxxxxxxxxxxxxxxxxxxxxxxx",
"xxxxxxxxxxxxxxxxxxxxxxxxxxxxxxxx",
"xxxxxxxxxxxxxxxxxxxxxxxxxxxxxxxx",
"xxxxxxxxxxxxxxxxxxxxxxxxxxxxxxxx",
"xxxxxxxxxxxxxxxxxxxxxxxxxxxxxxxx",
"xxxxxxxxxxxxxxxxxxxxxxxxxxxxxxxx",
"xxxxxxxxxxxxxxxxxxxxxxxxxxxxxxxx",
"xxxxxxxxxxxxxxxxxxxxxxxxxxxxxxxx",
"xxxxxxxxxxxxxxxxxxxxxxxxxxxxxxxx",
"xxxxxxxxxxxxxxxxxxxxxxxxxxxxxxxx",
"xxxxxjxxxxjxxxxxxxxxxxxxxxxxxxxx",
"xxxxj0jxxj0jxxxxxxxxxxxxxxxxxxxx",
"xxxxj0zzzzzjxxxxxxxxxxxxxxxxxxxx",
"xxxjzzzzzzzzzxxxxxxxxxxxxxxxxxxx",
"xxtttz.zzzz.ztxxxxxxxxxxxxxxxxxx",
"xxxjzzzzz.zzzxxxxxxxxxxxxxxxxxxx",
"xxtttzzz.0.zztxxxxxxxxxxxxxxxxxx",
"xxxjzzzzzzzzzxxxxxxxxxxxxxxxxxxx",
"xxxxjzzzzzzzxxxxxxxxxxxxxxxxxxxx",
"xx@zx399399xxxxxxxxxxxxxxxxxxxxx",
"xxxe88a,9993xxxxxxxxxxxxxxxxxxxx",
"x==e<<**9%%3xxxxxxxxxxxxxxxxxxxx",
"x==7;88a%933xxxxxxxxxxxxxxxxxxxx",
"xx@xz8<8933xxxxxxxxxxxxxxxxxxxxx",
"xxxxxx*xxx%xxxxxxxxxxxxxxxxxxxxx",
"xxxxxxxxxxxxxxxxxxxxxxxxxxxxxxxx",
"xxxxxxxxxxxxxxxxxxxxxxxxxxxxxxxx",
"xxxxxxxxxxxxxxxxxxxxxxxxxxxxxxxx",
"xxxxxxxxxxxxxxxxxxxxxxxxxxxxxxxx",
"xxxxxxxxxxxxxxxxxxxxxxxxxxxxxxxx",
"xxxxxxxxxxxxxxxxxxxxxxxxxxxxxxxx",
"xxxxxxxxxxxxxxxxxxxxxxxxxxxxxxxx",
"xxxxxxxxxxxxxxxxxxxxxxxxxxxxxxxx",
"xxxxxxxxxxxxxxxxxxxxxxxxxxxxxxxx",
"xxxxxxxxxxxxxxxxxxxxxxxxxxxxxxxx",
"xxxxxxxxxxxxxxxxxxxxxxxxxxxxxxxx",
"xxxxxjxxxxjxxxxxxxxxxxxxxxxxxxxx",
"xxxxj0jxxj0jxxxxxxxxxxxxxxxxxxxx",
"xxxxj0zzzzzjxxxxxxxxxxxxxxxxxxxx",
"xxxjzzzzzzzzzxxxxxxxxxxxxxxxxxxx",
"xxtttz.zzzz.ztxxxxxxxxxxxxxxxxxx",
"xxxjzzzzz.zzzxxxxxxxxxxxxxxxxxxx",
"xxtttzzz.0.zztxxxxxxxxxxxxxxxxxx",
"xxxjzzzzzzzzzxxxxxxxxxxxxxxxxxxx",
"xxxxjzzzzzzzxxxxxxxxxxxxxxxxxxxx",
"xxxxz399399xxxxxxxxxxxxxxxxxxxxx",
"xxxx88aa9993xxxxxxxxxxxxxxxxxxxx",
"xxx==8**9%%3Oxxxxxxxxxxxxxxxxxxx",
"xxx==88a%933Oxxxxxxxxxxxxxxxxxxx",
"xxxxz888933xxxxxxxxxxxxxxxxxxxxx",
"xxxxxx*xxx%xxxxxxxxxxxxxxxxxxxxx"
};
