/* XPM */
static char *result[] = {
/* columns rows colors chars-per-pixel */
"64 64 6 1 ",
"  c #141B1B",
". c #46402E",
"X c #5F7160",
"o c #8D977F",
"O c #B8DCE5",
"+ c #F2EAF1",
/* pixels */
"ooooXXXXooooXXXXXXXXXXXX....XXXXXXXXXXXXXXXXXXXX....oooooooooooo",
"ooooXXXXooooXXXXXXXXXXXX....XXXXXXXXXXXXXXXXXXXX....oooooooooooo",
"ooooXXXXooooXXXXXXXXXXXX....XXXXXXXXXXXXXXXXXXXX....oooooooooooo",
"ooooXXXXooooXXXXXXXXXXXX....XXXXXXXXXXXXXXXXXXXX....oooooooooooo",
"oooo....XXXXXXXXXXXXXXXX....XXXXXXXXXXXXXXXXXXXX....XXXXoooooooo",
"oooo....XXXXXXXXXXXXXXXX....XXXXXXXXXXXXXXXXXXXX....XXXXoooooooo",
"oooo....XXXXXXXXXXXXXXXX....XXXXXXXXXXXXXXXXXXXX....XXXXoooooooo",
"oooo....XXXXXXXXXXXXXXXX....XXXXXXXXXXXXXXXXXXXX....XXXXoooooooo",
"ooooXXXX........                            ....XXXXXXXXXXXXoooo",
"ooooXXXX........                            ....XXXXXXXXXXXXoooo",
"ooooXXXX........                            ....XXXXXXXXXXXXoooo",
"ooooXXXX........                            ....XXXXXXXXXXXXoooo",
"XXXXXXXXXXXX                                        XXXXXXXXoooo",
"XXXXXXXXXXXX                                        XXXXXXXXoooo",
"XXXXXXXXXXXX                                        XXXXXXXXoooo",
"XXXXXXXXXXXX                                        XXXXXXXXoooo",
"XXXXXXXXXXXX                                        XXXXXXXXXXXX",
"XXXXXXXXXXXX                                        XXXXXXXXXXXX",
"XXXXXXXXXXXX                                        XXXXXXXXXXXX",
"XXXXXXXXXXXX                                        XXXXXXXXXXXX",
"XXXXXXXX                                                XXXXXXXX",
"XXXXXXXX                                                XXXXXXXX",
"XXXXXXXX                                                XXXXXXXX",
"XXXXXXXX                                                XXXXXXXX",
"XXXXXXXX                                                XXXXXXXX",
"XXXXXXXX                                                XXXXXXXX",
"XXXXXXXX                                                XXXXXXXX",
"XXXXXXXX                                                XXXXXXXX",
"XXXXXXXX                                                XXXXXXXX",
"XXXXXXXX                                                XXXXXXXX",
"XXXXXXXX                                                XXXXXXXX",
"XXXXXXXX                                                XXXXXXXX",
"XXXXXXXX                                                XXXXXXXX",
"XXXXXXXX                                                XXXXXXXX",
"XXXXXXXX                                                XXXXXXXX",
"XXXXXXXX                                                XXXXXXXX",
"XXXXXXXX                                                XXXXXXXX",
"XXXXXXXX                                                XXXXXXXX",
"XXXXXXXX                                                XXXXXXXX",
"XXXXXXXX                                                XXXXXXXX",
"XXXXXXXX....            oooooooooooooooo            ....XXXXXXXX",
"XXXXXXXX....            oooooooooooooooo            ....XXXXXXXX",
"XXXXXXXX....            oooooooooooooooo            ....XXXXXXXX",
"XXXXXXXX....            oooooooooooooooo            ....XXXXXXXX",
"XXXXXXXX....        oooooooooooooooooooooooo        ....XXXXXXXX",
"XXXXXXXX....        oooooooooooooooooooooooo        ....XXXXXXXX",
"XXXXXXXX....        oooooooooooooooooooooooo        ....XXXXXXXX",
"XXXXXXXX....        oooooooooooooooooooooooo        ....XXXXXXXX",
"XXXX........    ooooOOOOOOOOOOOOOOOOOOOOOOOOoooo    ........XXXX",
"XXXX........    ooooOOOOOOOOOOOOOOOOOOOOOOOOoooo    ........XXXX",
"XXXX........    ooooOOOOOOOOOOOOOOOOOOOOOOOOoooo    ........XXXX",
"XXXX........    ooooOOOOOOOOOOOOOOOOOOOOOOOOoooo    ........XXXX",
"................OOOOOOOOOOOOOOOOOOOOOOOOOOOOOOOO................",
"................OOOOOOOOOOOOOOOOOOOOOOOOOOOOOOOO................",
"................OOOOOOOOOOOOOOOOOOOOOOOOOOOOOOOO................",
"................OOOOOOOOOOOOOOOOOOOOOOOOOOOOOOOO................",
"............OOOOOOOO++++++++++++++++++++++++OOOOOOOO............",
"............OOOOOOOO++++++++++++++++++++++++OOOOOOOO............",
"............OOOOOOOO++++++++++++++++++++++++OOOOOOOO............",
"............OOOOOOOO++++++++++++++++++++++++OOOOOOOO............",
"++++++++++++++++++++++++++++++++++++++++++++++++++++++++++++++++",
"++++++++++++++++++++++++++++++++++++++++++++++++++++++++++++++++",
"++++++++++++++++++++++++++++++++++++++++++++++++++++++++++++++++",
"++++++++++++++++++++++++++++++++++++++++++++++++++++++++++++++++"
};
