/* XPM */
static char *result[] = {
/* columns rows colors chars-per-pixel */
"64 64 6 1 ",
"  c #141B1B",
". c #46402E",
"X c #5F7160",
"o c #8D977F",
"O c #B8DCE5",
"+ c #F2EAF1",
/* pixels */
"ooooXXXXooooXXXXXXXXXXXX....XXXXXXXXXXXXXXXXXXXX....oooooooooooo",
"ooooXXXXooooXXXXXXXXXXXX....XXXXXXXXXXXXXXXXXXXX....oooooooooooo",
"ooooXXXXooooXXXXXXXXXXXX....XXXXXXXXXXXXXXXXXXXX....oooooooooooo",
"ooooXXXXooooXXXXXXXXXXXX....XXXXXXXXXXXXXXXXXXXX....oooooooooooo",
"oooo....XXXXXXXXXXXXXXXX....XXXXXXXXXXXXXXXXXXXX....XXXXoooooooo",
"oooo....XXXXXXXXXXXXXXXX....XXXXXXXXXXXXXXXXXXXX....XXXXoooooooo",
"oooo....XXXXXXXXXXXXXXXX....XXXXXXXXXXXXXXXXXXXX....XXXXoooooooo",
"oooo....XXXXXXXXXXXXXXXX....XXXXXXXXXXXXXXXXXXXX....XXXXoooooooo",
"ooooXXXX........................................XXXXXXXXXXXXoooo",
"ooooXXXX........................................XXXXXXXXXXXXoooo",
"ooooXXXX........................................XXXXXXXXXXXXoooo",
"ooooXXXX........................................XXXXXXXXXXXXoooo",
"XXXXXXXXXXXX........................................XXXXXXXXoooo",
"XXXXXXXXXXXX........................................XXXXXXXXoooo",
"XXXXXXXXXXXX........................................XXXXXXXXoooo",
"XXXXXXXXXXXX........................................XXXXXXXXoooo",
"XXXXXXXX............XXXXXXXXXXXXXXXXXXXXXXXX........XXXXXXXXXXXX",
"XXXXXXXX............XXXXXXXXXXXXXXXXXXXXXXXX........XXXXXXXXXXXX",
"XXXXXXXX............XXXXXXXXXXXXXXXXXXXXXXXX........XXXXXXXXXXXX",
"XXXXXXXX............XXXXXXXXXXXXXXXXXXXXXXXX........XXXXXXXXXXXX",
"XXXXXXXX........XXXXXXXXXXXXXXXXXXXXXXXXXXXXXXXXXXXX    XXXXXXXX",
"XXXXXXXX........XXXXXXXXXXXXXXXXXXXXXXXXXXXXXXXXXXXX    XXXXXXXX",
"XXXXXXXX........XXXXXXXXXXXXXXXXXXXXXXXXXXXXXXXXXXXX    XXXXXXXX",
"XXXXXXXX........XXXXXXXXXXXXXXXXXXXXXXXXXXXXXXXXXXXX    XXXXXXXX",
"XXXXXXXX....XXXXXXXXXXXXXXXXXXXXXXXXXXXXooooooooXXXX    XXXXXXXX",
"XXXXXXXX....XXXXXXXXXXXXXXXXXXXXXXXXXXXXooooooooXXXX    XXXXXXXX",
"XXXXXXXX....XXXXXXXXXXXXXXXXXXXXXXXXXXXXooooooooXXXX    XXXXXXXX",
"XXXXXXXX....XXXXXXXXXXXXXXXXXXXXXXXXXXXXooooooooXXXX    XXXXXXXX",
"XXXXXXXX....XXXXXXXX        XXXXXXXX........oooooooo    XXXXXXXX",
"XXXXXXXX....XXXXXXXX        XXXXXXXX........oooooooo    XXXXXXXX",
"XXXXXXXX....XXXXXXXX        XXXXXXXX........oooooooo    XXXXXXXX",
"XXXXXXXX....XXXXXXXX        XXXXXXXX........oooooooo    XXXXXXXX",
"XXXXXXXX....XXXXXXXX        XXXXoooo........oooooooo    XXXXXXXX",
"XXXXXXXX....XXXXXXXX        XXXXoooo........oooooooo    XXXXXXXX",
"XXXXXXXX....XXXXXXXX        XXXXoooo........oooooooo    XXXXXXXX",
"XXXXXXXX....XXXXXXXX        XXXXoooo........oooooooo    XXXXXXXX",
"XXXXXXXX....XXXXXXXX    ....oooooooo........oooooooo    XXXXXXXX",
"XXXXXXXX....XXXXXXXX    ....oooooooo........oooooooo    XXXXXXXX",
"XXXXXXXX....XXXXXXXX    ....oooooooo........oooooooo    XXXXXXXX",
"XXXXXXXX....XXXXXXXX    ....oooooooo........oooooooo    XXXXXXXX",
"XXXXXXXX....XXXXXXXXXXXXoooooooooooooooooooooooooooo    XXXXXXXX",
"XXXXXXXX....XXXXXXXXXXXXoooooooooooooooooooooooooooo    XXXXXXXX",
"XXXXXXXX....XXXXXXXXXXXXoooooooooooooooooooooooooooo    XXXXXXXX",
"XXXXXXXX....XXXXXXXXXXXXoooooooooooooooooooooooooooo    XXXXXXXX",
"XXXXXXXX........XXXXoooooooooooooooooooooooooooo    ....XXXXXXXX",
"XXXXXXXX........XXXXoooooooooooooooooooooooooooo    ....XXXXXXXX",
"XXXXXXXX........XXXXoooooooooooooooooooooooooooo    ....XXXXXXXX",
"XXXXXXXX........XXXXoooooooooooooooooooooooooooo    ....XXXXXXXX",
"XXXX............oooooooo....oooo....oooo....oooo    ........XXXX",
"XXXX............oooooooo....oooo....oooo....oooo    ........XXXX",
"XXXX............oooooooo....oooo....oooo....oooo    ........XXXX",
"XXXX............oooooooo....oooo....oooo....oooo    ........XXXX",
"................oooooooo....oooo....oooo....oooo................",
"................oooooooo....oooo....oooo....oooo................",
"................oooooooo....oooo....oooo....oooo................",
"................oooooooo....oooo....oooo....oooo................",
"............OOOOOOOOOOOOOOOOOOOOOOOOOOOOOOOOOOOOOOOO............",
"............OOOOOOOOOOOOOOOOOOOOOOOOOOOOOOOOOOOOOOOO............",
"............OOOOOOOOOOOOOOOOOOOOOOOOOOOOOOOOOOOOOOOO............",
"............OOOOOOOOOOOOOOOOOOOOOOOOOOOOOOOOOOOOOOOO............",
"++++++++++++++++++++++++++++++++++++++++++++++++++++++++++++++++",
"++++++++++++++++++++++++++++++++++++++++++++++++++++++++++++++++",
"++++++++++++++++++++++++++++++++++++++++++++++++++++++++++++++++",
"++++++++++++++++++++++++++++++++++++++++++++++++++++++++++++++++"
};
