/* XPM */
static char *result[] = {
/* columns rows colors chars-per-pixel */
"64 64 41 1 ",
"  c #74A334",
". c #78A434",
"X c #7BA634",
"o c #7BA635",
"O c #7EA735",
"+ c #82A935",
"@ c #82A936",
"# c #85AA35",
"$ c #86AA36",
"% c #86AB36",
"& c #89AC36",
"* c #8CAD36",
"= c #8DAD36",
"- c #8CAE36",
"; c #8DAE36",
": c #8DAE37",
"> c #90AF37",
", c #94B037",
"< c #97B237",
"1 c #98B237",
"2 c #94B138",
"3 c #97B238",
"4 c #97B338",
"5 c #98B338",
"6 c #9AB338",
"7 c #9BB438",
"8 c #9BB538",
"9 c #9EB538",
"0 c #9FB538",
"q c #9EB539",
"w c #9FB638",
"e c #9FB639",
"r c #A2B738",
"t c #A2B739",
"y c #A3B739",
"u c #A3B839",
"i c #A6B839",
"p c #A6B939",
"a c #A9BA39",
"s c #A9BB39",
"d c #ADBC3A",
/* pixels */
"dddddddddddddddddddda4wddddddddddddddddddddddddddp4pddddddddw4. ",
"ddddddddddddddddddddddddddddddddddddddddddddddddddddddddddddddo ",
"dddddddddddddddddddddddddddddddddddddddddddddddddddddddddddd=o  ",
"diidddddddddddddddddddddddddddisddddddddddddddddddddddddddsi&o  ",
"dooddddddddddddddddddddddddddp &dddddddddddddddddddddddddd3 3d+ ",
"3&:ddddddddddddddddddddddddd63&5dddddddddddddddddddddddda3>&ed,&",
" pddddddddddddddddddddddddddooddddddddddddddddddddddddddp &ddddd",
"4sdddddddddddddddddddddddddd78dddddddddddddddddddddddddda4wd<&&&",
"dddddddddddddddddddddddddddddddddddddddddddddddddddddddddddd&   ",
"ddddddddddddddddddddddddddddddddddddddddddddddddddddddddddddrwO ",
"dddddddddddddddddddddddddddddddddddddddddddddddddddddddddddddd+ ",
"dddddddddddddddddddddddddddddddddddddddddddddddddddddddddddddddd",
"ddddddddddddddddddddddddddddddddddddddddddddddddddddddddddddddtq",
"dddddddddddddddddddddddddddddddddddddddddddddddddddddddddddddd+ ",
"dddddddddddddddddddddddddddddddddddddddddddddddddddddddddddddd<>",
"dddddddddddddddddddddddddddddddddddddddddddddddddddddddddddddddd",
"dddddddddddddddddddddddddddddddddddddddddddddddddddddddddddddd>&",
"dddddddddddddddddddddddddddddddddddddddddddddddddddddddddddddd+ ",
"dddddddddddddddddddddddddddddddddddddddddddddddddddddddddddd=o. ",
"dddddddddddddddddddddddddddddddddddddddddddddddddddddddddddd:o  ",
"dddddddddddddddddddddddddddddddddddddddddddddddddddddddddddddd+ ",
"dddddddddddddddddddddddddddddddddddddddddddddddddddddddddddddd,&",
"dddddddddddddddddddddddddddddddddddddddddddddddddddddddddddddddd",
"dddddddddddddddddddddddddddddddddddddddddddddddddddddddddddd<&&&",
"dddddddddddddddddddddddddddddddddddddddddddddddddddddddddddd&   ",
"ddddddddddddddddddd&%dddddddddddddddddddddddddda@>ddddddddddrwO ",
"dddddddddddddddddddooddddddddddddddddddddddddddp &dddddddddddd+ ",
"ddddddddddddddddddddp &dddddddddddddddddddddddddd3 3dddddddddddd",
"ddddddddddddddddddddp+2dddddddddddddddddddddddddd7+eddddddddddtq",
"dddddddddddddddddddddddddddddddddddddddddddddddddddddddddddddd+ ",
"dddddddddddddddddddddddddddddddddddddddddddddddddddddddddddddd<>",
"dddddddddddddddddddddddddddddddddddddddddddddddddddddddddddddddd",
"d;:dddddddddddddddddddddddddda&1dddddddddddddddddddddddddd9&0ddd",
"dooddddddddddddddddddddddddddp &dddddddddddddddddddddddddd3 3ddd",
"oepddddddddddddddddddddddddd+@psddddddddddddddddddddddddpo&psd#o",
"opdddddddddddddddddddddddddd+@ddddddddddddddddddddddddddpo:dsi+ ",
"dddddddddddddddddddddddddddddddddddddddddddddddddddddddddddd&   ",
"dddddddddddddddddddddddddddddddddddddddddddddddddddddddddddd4&. ",
"dddddddddddddddddddddddddddddddddddddddddddddddddddddddddddddd+ ",
"dddddddddddddddddddddddddddddddddddddddddddddddddddddddddddddd+ ",
"dddddddddddddddddddddddddddddddddddddddddddddddddddddddddddddd+ ",
"dddddddddddddddddddddddddddddddddddddddddddddddddddddddddddd,@. ",
"dddddddddddddddddddddddddddddddddddddddddddddddddddddddddddd&   ",
"dddddddddddddddddddddddddddddddddddddddddddddddddddddddddddddd+ ",
"dddddddddddddddddddddddddddddddddddddddddddddddddddddddddddddd=+",
"dddddddddddddddddddddddddddddddddddddddddddddddddddddddddddddddd",
"dddddddddddddddddddddddddddddddddddddddddddddddddddddddddddddd<>",
"dddddddddddddddddddddddddddddddddddddddddddddddddddddddddddddd+ ",
"ddddddddddddddddddddddddddddddddddddddddddddddddddddddddddddddw4",
"dddddddddddddddddddddddddddddddddddddddddddddddddddddddddddddddd",
"dddddddddddddddddddddddddddddddddddddddddddddddddddddddddddddd#o",
"dddddddddddddddddddddddddddddddddddddddddddddddddddddddddisddd&o",
"ddddddddddddddddddddddddddddddddddddddddddddddddddddddddp &ddddd",
"ddddddddddddddddddd67dddddddddddddddddddddddddda3wdddddda&>3pddd",
"dddddddddddddddddddooddddddddddddddddddddddddddp &dddddddd3 3ddd",
"ddddddddddddddddddd74&1dddddddddddddddddddddddda4>&0ddddddp4>&&&",
"ddddddddddddddddddddp &dddddddddddddddddddddddddd3 3dddddddd&   ",
"ddddddddddddddddddddawpddddddddddddddddddddddddddpwsddd@%ddd&   ",
"ddddddddddddddddddddddddddddddddddddddddddddddddddddddd oddd&   ",
"dddd9   edddddd>   pddddddddddddd>   ddddddd+  oddddddddp       ",
"dtqq, o+udddddd4+. 7qdddpqqqsdqqq& O+ddddddd=+ oqudddtqq3       ",
"do    >dddddddddd+  oddd>   pp     edddddddddd   &ddd+          ",
">>*   +>pd,>>>>>>X  ody>+   ->>$   &>>>>8dw>>>   &d7>X          ",
" pp     edo         od3      od3        &d>      &d&            "
};
