/* XPM */
static char *result[] = {
/* columns rows colors chars-per-pixel */
"64 64 93 2 ",
"   c #141B1B",
".  c #2C272F",
"X  c #2C3D21",
"o  c #342B36",
"O  c #383833",
"+  c #5B2D24",
"@  c #723327",
"#  c #3A4322",
"$  c #704A2B",
"%  c #687D3F",
"&  c #403240",
"*  c #543C52",
"=  c #963C2D",
"-  c #A2453F",
";  c #A6493E",
":  c #B2473B",
">  c #A4513D",
",  c #BF5E3F",
"<  c #C24D37",
"1  c #C64C36",
"2  c #C14938",
"3  c #D14B34",
"4  c #D24D35",
"5  c #D34F35",
"6  c #D5573D",
"7  c #D85B3E",
"8  c #D4653B",
"9  c #D0663C",
"0  c #DF6438",
"q  c #E26939",
"w  c #E46D3A",
"e  c #864D44",
"r  c #965340",
"t  c #B15C41",
"y  c #C06040",
"u  c #DB6A4A",
"i  c #DD6F4F",
"p  c #DD704F",
"a  c #DF7654",
"s  c #E17C58",
"d  c #74A334",
"f  c #7BA635",
"g  c #8CAD36",
"h  c #90AF37",
"j  c #9EB539",
"k  c #A2B739",
"l  c #A6B939",
"z  c #ADBC3A",
"x  c #818742",
"c  c #A3A74F",
"v  c #E8814F",
"b  c #EA8553",
"n  c #EB8D5B",
"m  c #E8885F",
"M  c #C7B653",
"N  c #DE9F78",
"B  c #E58861",
"V  c #E58962",
"C  c #E78E65",
"Z  c #E78E66",
"A  c #ED9563",
"S  c #EA916B",
"D  c #E9946A",
"F  c #EA956B",
"G  c #EB9A6F",
"H  c #EE9D6C",
"J  c #EF9D6C",
"K  c #D2AB6B",
"L  c #DAAB6F",
"P  c #E1B06C",
"I  c #EEA073",
"U  c #EEA174",
"Y  c #EAAF75",
"T  c #F0A575",
"R  c #F1A575",
"E  c #F0A778",
"W  c #F1A979",
"Q  c #F2AD7D",
"!  c #F0A984",
"~  c #F1AC85",
"^  c #F5C19D",
"/  c #F8DBCD",
"(  c #F8DACE",
")  c #F9DDCE",
"_  c #FAE0CE",
"`  c #FBE6DA",
"'  c #FBE7DB",
"]  c #FBEADE",
"[  c #FCEBDF",
"{  c #FBEDE6",
"}  c #FDF1EB",
"|  c #FEF5EF",
" . c white",
/* pixels */
"z z z z M Q Q Q Q Q Q Q Q H w w w w w w w w w w w w w w w w w w w w w w w w w w w w w w w w w w w w J Q Q Q Q Q Q Q Q c d d d d ",
"z z z z M Q Q Q Q Q Q Q Q H w w w w w w w w w w w w w w w w w w w w w w w w w w w w w w w w w w w w J Q Q Q Q Q Q Q Q c d d d d ",
"z z z z M Q Q Q Q Q Q Q Q H w w w w w w w w w w w w w w w w w w w w w w w w w w w w w w w w w w w w J Q Q Q Q Q Q Q Q c d d d d ",
"z z z z M Q Q Q Q Q Q Q Q H w w w w w w w w w w w w w w w w w w w w w w w w w w w w w w w w w w w w J Q Q Q Q Q Q Q Q c d d d d ",
"P P P P Y Q Q Q Q _ [ [ [ ' / / / / ~ J J J J J J J J J J J J J J J J J J J J J J J J J J J J J J J W Q Q Q Q Q Q Q Q L K K K K ",
"Q Q Q Q Q Q Q Q Q |  . . . . . . . .^ Q Q Q Q Q Q Q Q Q Q Q Q Q Q Q Q Q Q Q Q Q Q Q Q Q Q Q Q Q Q Q Q Q Q Q Q Q Q Q Q Q Q Q Q Q ",
"Q Q Q Q Q Q Q Q Q |  . . . . . . . .^ Q Q Q Q Q Q Q Q Q Q Q Q Q Q Q Q Q Q Q Q Q Q Q Q Q Q Q Q Q Q Q Q Q Q Q Q Q Q Q Q Q Q Q Q Q ",
"Q Q Q Q Q Q Q Q Q |  . . . . . . . .^ Q Q Q Q Q Q Q Q Q Q Q Q Q Q Q Q Q Q Q Q Q Q Q Q Q Q Q Q Q Q Q Q Q Q Q Q Q Q Q Q Q Q Q Q Q ",
"n n n n n n n n n }  . . . . . . . .! n n n n n n n n n n n n n n n n n n n n n n n n n n n n n n n T Q Q Q E s s s s s s s s s ",
"w w w w w w w w w {  . . . . . . . .S w w w w w w w w w w w w w w w w w w w w w w w w w w w w w w w J Q Q Q U 3 3 3 3 3 3 3 3 3 ",
"w w w w w w w w w {  . . . . . . . .S w w w w w w w w w w w w w w w w w w w w w w w w w w w w w w w J Q Q Q U 3 3 3 3 3 3 3 3 3 ",
"w w w w w w w w w {  . . . . . . . .S w w w w w w w w w w w w w w w w w w w w w w w w w w w w w w w J Q Q Q U 3 3 3 3 3 3 3 3 3 ",
"w w w w w w w w w ) ] ] ] ` ( ( ( ( m w w w w w w w w w w w w w w w w w w w w w w w w w w w w w w w J Q Q Q U 3 3 3 3 3 3 3 3 3 ",
"w w w w w w w w w R Q Q Q H w w w w w w w w w w w w w w w w w w w w w w w w w w w w w w w w w w w w J Q Q Q U 3 3 3 3 3 3 3 3 3 ",
"w w w w w w w w w R Q Q Q H w w w w w w w w w w w w w w w w w w w w w w w w w w w w w w w w w w w w J Q Q Q U 3 3 3 3 3 3 3 3 3 ",
"w w w w w w w w w R Q Q Q H w w w w w w w w w w w w w w w w w w w w w w w w w w w w w w w w w w w w J Q Q Q U 3 3 3 3 3 3 3 3 3 ",
"w w w w w w w w w R Q Q Q H w w w w w w w w w w w w w w w w w w w w w w w w w w w w w w w w w w w w J Q Q Q U 3 3 3 3 3 3 3 3 3 ",
"w w w w w w w w w R Q Q Q H w w w w w w w w w w w w w w w w w w w w w w w w w w w w w w w w w w w w J Q Q Q U 3 3 3 3 3 3 3 3 3 ",
"w w w w w w w w w R Q Q Q H w w w w w w w w w w w w w w w w w w w w w w w w w w w w w w w w w w w w J Q Q Q U 3 3 3 3 3 3 3 3 3 ",
"w w w w w w w w w R Q Q Q H w w w w w w w w w w w w w w w w w w w w w w w w w w w w w w w w w w w w J Q Q Q U 3 3 3 3 3 3 3 3 3 ",
"w w w w w w w w w R Q Q Q H w w w w w w w w w w w w w w w w w w w w w w w w w w w w w w w w w w w w J Q Q Q U 3 3 3 3 3 3 3 3 3 ",
"w w w w w w w w w R Q Q Q H w w w w w w w w w w w w w w w w w w w w w w w w w w w w w w w w w w w w J Q Q Q U 3 3 3 3 3 3 3 3 3 ",
"w w w w w w w w w R Q Q Q H w w w w w w w w w w w w w w w w w w w w w w w w w w w w w w w w w w w w J Q Q Q U 3 3 3 3 3 3 3 3 3 ",
"w w w w w w w w w R Q Q Q H w w w w w w w w w w w w w w w w w w w w w w w w w w w w w w w w w w w w J Q Q Q U 3 3 3 3 3 3 3 3 3 ",
"w w w w w w w w w R Q Q Q H w w w w w w w w w w w w w w w w w w w w w w w w w w w w w w w w w w w w J Q Q Q U 3 3 3 3 3 3 3 3 3 ",
"w w w w w w w w w R Q Q Q H w w w w w w w w w w w w w w w w w w w w w w w w w w w w w w w w w w w w J Q Q Q U 3 3 3 3 3 3 3 3 3 ",
"w w w w w w w w w R Q Q Q H w w w w w w w w w w w w w w w w w w w w w w w w w w w w w w w w w w w w J Q Q Q U 3 3 3 3 3 3 3 3 3 ",
"w w w w w w w w w R Q Q Q H w w w w w w w w w w w w w w w w w w w w w w w w w w w w w w w w w w w w J Q Q Q U 3 3 3 3 3 3 3 3 3 ",
"w w w w w w w w w R Q Q Q H w w w w w w w w w w w w w w w w w w w w w w w w w w w w w w w w w w w w J Q Q Q U 3 3 3 3 3 3 3 3 3 ",
"w w w w w w w w w R Q Q Q H w w w w w w w w w w w w w w w w w w w w w w w w w w w w w w w w w w w w J Q Q Q U 3 3 3 3 3 3 3 3 3 ",
"w w w w w w w w w R Q Q Q H w w w w w w w w w w w w w w w w w w w w w w w w w w w w w w w w w w w w J Q Q Q U 3 3 3 3 3 3 3 3 3 ",
"w w w w w w w w w R Q Q Q H w w w w w w w w w w w w w w w w w w w w w w w w w w w w w w w w w w w w J Q Q Q U 3 3 3 3 3 3 3 3 3 ",
"w w w w w w w w w R Q Q Q H w w w w w w w w w w w w w w w w w w w w w w w w w w w w w w w w w w w w J Q Q Q U 3 3 3 3 3 3 3 3 3 ",
"w w w w w w w w w R Q Q Q H w w w w w w w w w w w w w w w w w w w w w w w w w w w w w w w w w w w w J Q Q Q U 3 3 3 3 3 3 3 3 3 ",
"w w w w v R R R R Q Q Q Q Q R R R R R R R R R R R R R R R R R R R R R R R R R R R R R R R R R R R R W Q Q Q Q U U U U u 3 3 3 3 ",
"w w w w b Q Q Q Q Q Q Q Q Q Q Q Q Q Q Q Q Q Q Q Q Q Q Q Q Q Q Q Q Q Q Q Q Q Q Q Q Q Q Q Q Q Q Q Q Q Q Q Q Q Q Q Q Q Q p 3 3 3 3 ",
"w w w w b Q Q Q Q Q Q Q Q Q Q Q Q Q Q Q Q Q Q Q Q Q Q Q Q Q Q Q Q Q Q Q Q Q Q Q Q Q Q Q Q Q Q Q Q Q Q Q Q Q Q Q Q Q Q p 3 3 3 3 ",
"w w w w b Q Q Q Q Q Q Q Q Q Q Q Q Q Q Q Q Q Q Q Q Q Q Q Q Q Q Q Q Q Q Q Q Q Q Q Q Q Q Q Q Q Q Q Q Q Q Q Q Q Q Q Q Q Q p 3 3 3 3 ",
"A A A A H Q Q Q Q Q Q Q Q G i i i i i i i i i i i i i i i i i i i i i i i i i i i i i i i i i i i i U Q Q Q Q Q Q Q Q F V V V V ",
"Q Q Q Q Q Q Q Q Q Q Q Q Q D 3 3 3 3 3 3 3 3 3 3 3 3 3 3 3 3 3 3 3 3 3 3 3 3 3 3 3 3 3 3 3 3 3 3 3 3 F Q Q Q Q Q Q Q Q Q Q Q Q Q ",
"Q Q Q Q Q Q Q Q Q Q Q Q Q D 3 3 3 3 3 3 3 3 3 3 3 3 3 3 3 3 3 3 3 3 3 3 3 3 3 3 3 3 3 3 3 3 3 3 3 3 F Q Q Q Q Q Q Q Q Q Q Q Q Q ",
"Q Q Q Q Q Q Q Q Q Q Q Q Q D 3 3 3 3 3 3 3 3 3 3 3 3 3 3 3 3 3 3 3 3 3 3 3 3 3 3 3 3 3 3 3 3 3 3 3 3 F Q Q Q Q Q Q Q Q Q Q Q Q Q ",
"Q Q Q Q Q Q Q Q Q C B B B s 3 3 3 3 3 3 3 3 3 3 3 3 3 3 3 3 3 3 3 3 3 3 3 3 3 3 3 3 3 3 3 3 3 3 3 3 a B B B Z Q Q Q Q Q Q Q Q Q ",
"Q Q Q Q Q Q Q Q Q 6 3 3 3 3 3 3 3 3 3 3 3 3 3 3 3 3 3 3 3 3 3 3 3 3 3 3 3 3 3 3 3 3 3 3 3 3 3 3 3 3 3 3 3 3 6 Q Q Q Q Q Q Q Q Q ",
"Q Q Q Q Q Q Q Q Q 6 3 3 3 3 3 3 3 3 3 3 3 3 3 3 3 3 3 3 3 3 3 3 3 3 3 3 3 3 3 3 3 3 3 3 3 3 3 3 3 3 3 3 3 3 6 Q Q Q Q Q Q Q Q Q ",
"Q Q Q Q Q Q Q Q Q 6 3 3 3 3 3 3 3 3 3 3 3 3 3 3 3 3 3 3 3 3 3 3 3 3 3 3 3 3 3 3 3 3 3 3 3 3 3 3 3 3 3 3 3 3 6 Q Q Q Q Q Q Q Q Q ",
"I I I I I I I I I 7 5 5 5 4 3 3 3 3 3 3 3 3 3 3 3 3 3 3 3 3 3 3 3 3 3 3 3 3 3 3 3 3 3 3 3 3 3 3 3 3 3 3 3 3 6 N N N N N N N N N ",
"3 3 3 3 3 3 3 3 3 q w w w 0 3 3 3 3 3 3 3 3 3 3 3 3 3 3 3 3 3 3 3 3 3 3 3 3 3 3 3 3 3 3 3 3 3 3 3 3 3 3 3 3 2 * * * * * * * * * ",
"3 3 3 3 3 3 3 3 3 q w w w 0 3 3 3 3 3 3 3 3 3 3 3 3 3 3 3 3 3 3 3 3 3 3 3 3 3 3 3 3 3 3 3 3 3 3 3 3 3 3 3 3 2 * * * * * * * * * ",
"3 3 3 3 3 3 3 3 3 q w w w 0 3 3 3 3 3 3 3 3 3 3 3 3 3 3 3 3 3 3 3 3 3 3 3 3 3 3 3 3 3 3 3 3 3 3 3 3 3 3 3 3 2 * * * * * * * * * ",
"3 3 3 3 3 3 3 3 3 q w w w 0 3 3 3 3 3 3 3 3 3 3 3 3 3 3 3 3 3 3 3 3 3 3 3 3 3 3 3 3 3 3 3 3 3 3 3 3 3 3 3 3 2 * * * * * * * * * ",
"3 3 3 3 3 3 3 3 3 q w w w 8 > > > > > > > > > > > > > > > > > > > > > > > > > > > > > > > > > > > > 1 3 3 3 2 * * * * * * * * * ",
"3 3 3 3 3 3 3 3 3 q w w w 9 r r r r r r r r r r r r r r r r r r r r r r r r r r r r r r r r r r r r < 3 3 3 2 * * * * * * * * * ",
"3 3 3 3 3 3 3 3 3 q w w w 9 r r r r r r r r r r r r r r r r r r r r r r r r r r r r r r r r r r r r < 3 3 3 2 * * * * * * * * * ",
"3 3 3 3 3 3 3 3 3 q w w w 9 r r r r r r r r r r r r r r r r r r r r r r r r r r r r r r r r r r r r < 3 3 3 2 * * * * * * * * * ",
"@ @ @ @ = 3 3 3 3 q w w w 9 r r r r r r r r r r r r r r r r r r r r r r r r r r r r r r r r r r r r < 3 3 3 2 * * * * & o o o o ",
"        + 3 3 3 3 q w w w 9 r r r r r r r r r r r r r r r r r r r r r r r r r r r r r r r r r r r r < 3 3 3 2 * * * * .         ",
"        + 3 3 3 3 q w w w 9 r r r r r r r r r r r r r r r r r r r r r r r r r r r r r r r r r r r r < 3 3 3 2 * * * * .         ",
"        + 3 3 3 3 q w w w 9 r r r r r r r r r r r r r r r r r r r r r r r r r r r r r r r r r r r r < 3 3 3 2 * * * * .         ",
"# # # # $ : : : : , y y y t e e e e e e e e e e e e e e e e e e e e e e e e e e e e e e e e e e e e ; : : : - * * * * O X X X X ",
"z k j j x * * * * * * * * * * * * * * * * * * * * * * * * * * * * * * * * * * * * * * * * * * * * * * * * * * * * * * % d d d d ",
"z f d d % * * * * * * * * * * * * * * * * * * * * * * * * * * * * * * * * * * * * * * * * * * * * * * * * * * * * * * % d d d d ",
"h h g d % * * * * * * * * * * * * * * * * * * * * * * * * * * * * * * * * * * * * * * * * * * * * * * * * * * * * * * % d d d d ",
"d l l d % * * * * * * * * * * * * * * * * * * * * * * * * * * * * * * * * * * * * * * * * * * * * * * * * * * * * * * % d d d d "
};
