/* XPM */
static char *result[] = {
/* columns rows colors chars-per-pixel */
"64 64 176 2 ",
"   c #141B1B",
".  c #272F1F",
"X  c #2F2A22",
"o  c #2D2B24",
"O  c #2B2E27",
"+  c #2C2E27",
"@  c #2F322B",
"#  c #313737",
"$  c #423D25",
"%  c #334022",
"&  c #364222",
"*  c #3A4322",
"=  c #3A4323",
"-  c #4E402B",
";  c #4D5726",
":  c #52582D",
">  c #606B2A",
",  c #626A2E",
"<  c #64682C",
"1  c #6A6A2E",
"2  c #6A752C",
"3  c #737F2E",
"4  c #716130",
"5  c #7A6735",
"6  c #4A5048",
"7  c #4E5454",
"8  c #4F5454",
"9  c #665F4B",
"0  c #73674C",
"q  c #74664F",
"w  c #757149",
"e  c #616858",
"r  c #6C7070",
"t  c #787A77",
"y  c #815635",
"u  c #88623B",
"i  c #89643C",
"p  c #876843",
"a  c #81755B",
"s  c #A77644",
"d  c #B17C4D",
"f  c #60832E",
"g  c #63842E",
"h  c #73802E",
"j  c #7D8A30",
"k  c #79833B",
"l  c #74A334",
"z  c #78A434",
"x  c #7BA634",
"c  c #7BA635",
"v  c #7EA735",
"b  c #7A8068",
"n  c #879332",
"m  c #879432",
"M  c #82A935",
"N  c #82A936",
"B  c #85AA35",
"V  c #86AA36",
"C  c #86AB36",
"Z  c #89AC36",
"A  c #8CAD36",
"S  c #8DAD36",
"D  c #8CAE36",
"F  c #8DAE36",
"G  c #8DAE37",
"H  c #90AF37",
"J  c #9AA836",
"K  c #94B037",
"L  c #97B237",
"P  c #98B237",
"I  c #97B238",
"U  c #97B338",
"Y  c #98B338",
"T  c #9AB338",
"R  c #9BB438",
"E  c #9BB538",
"W  c #9EB538",
"Q  c #9FB538",
"!  c #9EB539",
"~  c #9FB638",
"^  c #9FB639",
"/  c #A3B238",
"(  c #A2B738",
")  c #A2B739",
"_  c #A3B739",
"`  c #A3B839",
"'  c #A6B839",
"]  c #A6B939",
"[  c #A9BA39",
"{  c #A9BB39",
"}  c #ADBC3A",
"|  c #9D8B6B",
" . c #9C8C6B",
".. c #8D977F",
"X. c #A59673",
"o. c #B89F72",
"O. c #A7A17E",
"+. c #AFA57E",
"@. c #B8A27B",
"#. c #BDA37A",
"$. c #C4894D",
"%. c #D38348",
"&. c #EF914F",
"*. c #ED9352",
"=. c #E99652",
"-. c #EB9555",
";. c #EF9554",
":. c #E29B55",
">. c #ED9F56",
",. c #E79A5B",
"<. c #EF9859",
"1. c #F19550",
"2. c #F29652",
"3. c #F09654",
"4. c #F39853",
"5. c #F79F56",
"6. c #F0985A",
"7. c #F9A357",
"8. c #F1A459",
"9. c #FBA659",
"0. c #FDA95B",
"q. c #FBAA5E",
"w. c #FDA95C",
"e. c #FFAD5D",
"r. c #F19E65",
"t. c #CAA36F",
"y. c #DCA66C",
"u. c #C9A677",
"i. c #C1AC7D",
"p. c #D9AB72",
"a. c #DDAD77",
"s. c #D2B37D",
"d. c #E2A063",
"f. c #E0A266",
"g. c #EEA162",
"h. c #EFA86B",
"j. c #F2AF6F",
"k. c #FBB56C",
"l. c #FBB66D",
"z. c #E2B07C",
"x. c #EEB77F",
"c. c #898D8D",
"v. c #B2AA85",
"b. c #B1AC89",
"n. c #B9AF89",
"m. c #ADA99F",
"M. c #A6A9A9",
"N. c #D2B182",
"B. c #D2B98B",
"V. c #D7BD8D",
"C. c #D8BD8D",
"Z. c #C9BA91",
"A. c #DDC69E",
"S. c #EEC088",
"D. c #EFC289",
"F. c #F4C284",
"G. c #F2C78C",
"H. c #EEC791",
"J. c #EECF9B",
"K. c #F0CB93",
"L. c #F0CB94",
"P. c #F4C69E",
"I. c #D3C6A6",
"U. c #D7C6A8",
"Y. c #E3CFAE",
"T. c #E8D9BE",
"R. c #F9D5BD",
"E. c #EEE3CE",
"W. c #F6E7CD",
"Q. c #E2E5DF",
"!. c #EBE8DF",
"~. c #F4ECDF",
"^. c #E1E2E2",
"/. c #E2E3E3",
"(. c #F0F1F1",
"). c white",
/* pixels */
"} } } } } } } } } } } } } } } } } } } } [ U ~ } } } } } } } } } } } } } } } } } } } } } } } } } } ] U ] } } } } } } } } ~ U z l ",
"} } } } } } } } } } } } } } } } } } } } } } } } } } } } } } } } } } } } } } } } } } } } } } } } } } } } } } } } } } } } } } c l ",
"} } } } } } } } } } } } } } } } } } } } } } } } } } } } } } } } } } } } } } } } } } } } } } } } } } } } } } } } } } } } S c l l ",
"} ' ' } } } } } } } } } } } } } } } } } } } } } } } } } } } ' { } } } } } } } } } } } } } } } } } } } } } } } } } } { ' Z c l l ",
"} c c } } } } } } } } } } } } } } } } } } } } } } } } } } ] l Z } } } } } } } } } } } } } } } } } } } } } } } } } } I l I } M l ",
"I Z G } } } } } } } } } } } } } } } } } } } } } } } } } T I Z Y } } } } } } } } } } } } } } } } } } } } } } } } [ I H Z ^ } K Z ",
"l ] } } } } } } } } } } } } } } } } } } } } } } } } } } c c } } } } } } } } } } } } } } } } } } } } } } } } } } ] l Z } } } } } ",
"U { } } } } } } } } } } } } } } } } } } } } } } } } } } R E } } } } } } } } } } } } } } } } } } } } } } } } } } [ U ~ } L Z Z Z ",
"} } } } } } } } } } } } } } } } } } } } } } } } } } } } } } } } } } } } } } } } } } } } } } } } } } } } } } } } } } } } Z l l l ",
"} } } } } } } } } } } } } } } } } } } } } } } } } } } } } } } } } } } } } } } } } } } } } } } } } } } } } } } } } } } } ( ~ v l ",
"} } } } } } } } } } } } } } } } } } } } } } } } } } } } } } } } } } } } } } } } } } } } } } } } } } } } } } } } } } } } } } M l ",
"} } } } } } } } } } } } } } } } } } } } } } } } } } } } } } } } } } } } } } } } } } } } } } } } } } } } } } } } } } } } } } } } ",
"} } } } } } } } } } } } } } } } } } } } } } } } } } } } } } } } } } } } } } } } } } } } } } } } } } } } } } } } } } } } } } ) ! ",
"} } } } } } } } } } } } } } } } } } } } } } } } } } } } } } } } } } } } } } } } } } } } } } } } } } } } } } } } } } } } } } M l ",
"} } } } } } } } } } } } } } } } } } } } } } } } } } } } } } } } } } } } } } } } } } } } } } } } } } } } } } } } } } } } } } L H ",
"} } } } } } } } } } } } } } } } } } } } } } } } } } } } } } } } } } } } } } } } } } } } } } } } } } } } } } } } } } } } } } } } ",
"} } } } } } } } } } } } } } } } } } } } } } } } } } } } } } } } } } } } } } } } } } } } } } } } } } } } } } } } } } } } } } H Z ",
"} } } } } } } } } } } } } } } } } } } } } } } } } } } } } } } } } } } } } } } } } } } } } } } } } } } } } } } } } } } } } } M l ",
"} } } } } } } } } } } } } } } } } } } } } } } } } } } } } / J J J J J J J J J J J J / } } } } } } } } } } } } } } } } } S c z l ",
"} } } } } } } } } } } } } } } } } } } } } } } } } } } } } ;                         > } } } } } } } } } } } } } } } } } G c l l ",
"} } } } } } } } } } } } } } } } } } } } } } } } } } } } } ;                         > } } } } } } } } } } } } } } } } } } } M l ",
"} } } } } } } } } } } } } } } } } } } } } } } } 2 > > > > 5 i i a a a a a p i u y y 4 > > / } } } } } } } } } } } } } } } } K Z ",
"} } } } } } } } } } } } } } } } } } } } } } } } .         s e.e.J.J.J.J.J.k.e.0.&.&.y     J } } } } } } } } } } } } } } } } } } ",
"} } } } } } } } } } } } } } } } } } } } } } } } .         s e.e.J.J.J.J.J.k.e.0.&.&.y     J } } } } } } } } } } } } } } L Z Z Z ",
"} } } } } } } } } } } } } } } } } } } } } 2 . . $.:.:.:.:.8.e.e.<.<.<.<.<.D.L.G.w.w.=.%.%.$ . ; } } } } } } } } } } } } Z l l l ",
"} } } } } } } } } } } } } } } } } } } Z C >     :.e.e.e.e.e.e.e.&.&.&.&.&.S.J.K.e.e.5.&.&.X   & N H } } } } } } } } } } ( ~ v l ",
"} } } } } } } } } } } } } } } } } } } f g 1 - - >.9.q.l.l.l.l.l.4.4.2.&.&.S.J.K.e.e.5.&.&.X   % l Z } } } } } } } } } } } } M l ",
"} } } } } } } } } } } } } } } } } } J     i e.e.1.&.g.J.J.J.J.J.e.e.7.&.&.S.J.K.e.e.5.&.&.X   = } I l I } } } } } } } } } } } } ",
"} } } } } } } } } } } } } } } } } } J     i e.e.1.&.g.J.J.J.J.J.e.e.7.&.&.S.J.K.e.e.5.&.&.X   = } R M ^ } } } } } } } } } } ) ! ",
"} } } } } } } } } } } } } } } } > ; : | | u.F.F.3.&.;.h.h.h.h.h.F.F.j.&.&.#.b.v.o.o.t.y.y.o   = } } } } } } } } } } } } } } M l ",
"} } } } } } } } } } } } } } } } *   @ J.J.J.J.J.<.&.&.&.&.&.&.&.J.J.x.&.&.X.........+.s.s.+   = } } } } } } } } } } } } } } L H ",
"} } } } } } } } } } } } } } } } *   @ J.J.J.J.J.<.&.&.&.&.&.&.&.J.J.x.&.&.X.........+.s.s.+   = } } } } } } } } } } } } } } } } ",
"} F G } } } } } } } } } } } } } *   @ J.J.W.).).r.&.&.&.&.&.&.&.J.J.Z.....i.s.C.).).c.    J } } } } } } } } } } } } W Z Q } } } ",
"} c c } } } } } } } } } } } } } *   @ J.J.W.).).r.&.&.&.&.&.&.&.J.J.Z.....i.s.C.).).c.    J } } } } } } } } } } } } I l I } } } ",
"c ^ ] } } } } } } } } } } J 3 3 w 9 q x.x.P.R.R.6.&.&.&.&.&.&.&.Z.Z.n.O.O.I.Y.U.M.M.b ; ; / } } } } } } } } } } ] c Z ] { } B c ",
"c ] } } } } } } } } } } } 3     @.J.H.&.&.&.&.&.&.&.&.&.&.&.&.&.....O.s.s.~.).^.    > } } } } } } } } } } } } } ] c G } { ' M l ",
"} } } } } } } } } } } } } 3     @.J.H.&.&.&.&.&.&.&.&.&.&.&.&.&.....O.s.s.~.).^.    > } } } } } } } } } } } } } } } } } Z l l l ",
"} } } } } } } } } } } } } 3     @.J.H.&.&.&.&.&.&.&.&.&.&.d.p.p.Q.Q.!.~.~.t 8 6 n n J } } } } } } } } } } } } } } } } } U Z z l ",
"} } } } } } } } } } } } } 3     @.J.H.&.&.&.&.&.&.&.&.&.&.y.s.s.).).).).).7   . } } } } } } } } } } } } } } } } } } } } } } M l ",
"} } } } } } } } } } } } } j . .  .B.N.&.&.&.&.&.&.&.*.-.-.a.V.V.).).(././.e . = } } } } } } } } } } } } } } } } } } } } } } M l ",
"} } } } } } } } } } } } } } } } *   X &.&.&.&.&.&.&.,.s.s.E.).).).).M.    m } } } } } } } } } } } } } } } } } } } } } } } } M l ",
"} } } } } } } } } } } } } } } } *   X &.&.&.&.&.&.&.,.s.s.E.).).).).M.    m } } } } } } } } } } } } } } } } } } } } } } K N z l ",
"} } } } } } } } } } } } } } } } 3 > < y y d f.f.f.f.z.T.T.m.c.c.c.c.b > > J } } } } } } } } } } } } } } } } } } } } } } Z l l l ",
"} } } } } } } } } } } } } } } } } } J     0 s.s.s.s.A.).).r         ; } } } } } } } } } } } } } } } } } } } } } } } } } } } M l ",
"} } } } } } } } } } } } } } } } } } J     0 s.s.s.s.A.).).r         ; } } } } } } } } } } } } } } } } } } } } } } } } } } } S M ",
"} } } } } } } } } } } } } } } } } } } J J , O O O O O # # k J J J J / } } } } } } } } } } } } } } } } } } } } } } } } } } } } } ",
"} } } } } } } } } } } } } } } } } } } } } >               3 } } } } } } } } } } } } } } } } } } } } } } } } } } } } } } } } L H ",
"} } } } } } } } } } } } } } } } } } } } } h * * * * * * * m } } } } } } } } } } } } } } } } } } } } } } } } } } } } } } } } M l ",
"} } } } } } } } } } } } } } } } } } } } } } } } } } } } } } } } } } } } } } } } } } } } } } } } } } } } } } } } } } } } } } ~ U ",
"} } } } } } } } } } } } } } } } } } } } } } } } } } } } } } } } } } } } } } } } } } } } } } } } } } } } } } } } } } } } } } } } ",
"} } } } } } } } } } } } } } } } } } } } } } } } } } } } } } } } } } } } } } } } } } } } } } } } } } } } } } } } } } } } } } B c ",
"} } } } } } } } } } } } } } } } } } } } } } } } } } } } } } } } } } } } } } } } } } } } } } } } } } } } } } } } } ' { } } } Z c ",
"} } } } } } } } } } } } } } } } } } } } } } } } } } } } } } } } } } } } } } } } } } } } } } } } } } } } } } } } ] l Z } } } } } ",
"} } } } } } } } } } } } } } } } } } } T R } } } } } } } } } } } } } } } } } } } } } } } } } } [ I ~ } } } } } } [ Z H I ] } } } ",
"} } } } } } } } } } } } } } } } } } } c c } } } } } } } } } } } } } } } } } } } } } } } } } } ] l Z } } } } } } } } I l I } } } ",
"} } } } } } } } } } } } } } } } } } } R U Z P } } } } } } } } } } } } } } } } } } } } } } } } [ U H Z Q } } } } } } ] U H Z Z Z ",
"} } } } } } } } } } } } } } } } } } } } ] l Z } } } } } } } } } } } } } } } } } } } } } } } } } } I l I } } } } } } } } Z l l l ",
"} } } } } } } } } } } } } } } } } } } } [ ~ ] } } } } } } } } } } } } } } } } } } } } } } } } } } ] ~ { } } } N C } } } Z l l l ",
"} } } } } } } } } } } } } } } } } } } } } } } } } } } } } } } } } } } } } } } } } } } } } } } } } } } } } } } l c } } } Z l l l ",
"} } } } W l l l ^ } } } } } } H l l l ] } } } } } } } } } } } } } H l l l } } } } } } } M l l c } } } } } } } } ] l l l l l l l ",
"} ) ! ! K l c M ` } } } } } } U M z l R ! } } } ] ! ! ! { } ! ! ! Z l v M } } } } } } } S M l c ! ` } } } ) ! ! I l l l l l l l ",
"} c l l l l H } } } } } } } } } } M l l c } } } H l l l ] ] l l l l l ^ } } } } } } } } } } l l l Z } } } M l l l l l l l l l l ",
"H H A l l l M H ] } K H H H H H H x l l c } _ H M l l l D H H V l l l Z H H H H E } ~ H H H l l l Z } R H x l l l l l l l l l l ",
"l ] ] l l l l l ^ } c l l l l l l l l l c } I l l l l l l c } I l l l l l l l l Z } H l l l l l l Z } Z l l l l l l l l l l l l "
};
