/* XPM */
static char *result[] = {
/* columns rows colors chars-per-pixel */
"64 64 128 2 ",
"   c black",
".  c #000001",
"X  c #1A0A08",
"o  c #1E1510",
"O  c #1E1611",
"+  c #1F1611",
"@  c #141B1B",
"#  c #34120D",
"$  c #391B0F",
"%  c #3A251C",
"&  c #202020",
"*  c #202021",
"=  c #2C272F",
"-  c #3C2B20",
";  c #3A2A28",
":  c #2C3D21",
">  c #342B36",
",  c gray19",
"<  c #383833",
"1  c #4E1C13",
"2  c #4E1C14",
"3  c #562916",
"4  c #5B2D24",
"5  c #4B3628",
"6  c #573223",
"7  c #593927",
"8  c #593A2B",
"9  c #593C2B",
"0  c #5A3D2C",
"q  c #723327",
"w  c #3A4322",
"e  c #5A402F",
"r  c #5B402F",
"t  c #704A2B",
"y  c #6A4C37",
"u  c #687D3F",
"i  c #3F3F40",
"p  c #403240",
"a  c #543C52",
"s  c gray25",
"d  c #404041",
"f  c #4F4F50",
"g  c #5F5F60",
"h  c #606061",
"j  c #963C2D",
"k  c #B7412D",
"l  c #A2453F",
"z  c #A6493E",
"x  c #B2473B",
"c  c #A4513D",
"v  c #BF5E3F",
"b  c #C24D37",
"n  c #C14938",
"m  c #D14B34",
"M  c #D24D35",
"N  c #D34F35",
"B  c #C75F33",
"V  c #D5573D",
"C  c #D85B3E",
"Z  c #D66636",
"A  c #D4653B",
"S  c #D0663C",
"D  c #DF6438",
"F  c #E26939",
"G  c #E46D3A",
"H  c #864D44",
"J  c #965340",
"K  c #B15C41",
"L  c #976C4F",
"P  c #C06040",
"I  c #DB6A4A",
"U  c #DD704F",
"Y  c #E17C58",
"T  c #74A334",
"R  c #7BA635",
"E  c #8CAD36",
"W  c #90AF37",
"Q  c #9EB539",
"!  c #A2B739",
"~  c #A6B939",
"^  c #ADBC3A",
"/  c #818742",
"(  c #B5825E",
")  c #A3A74F",
"_  c #E8814F",
"`  c #EA8553",
"'  c #EB8D5B",
"]  c #E8885F",
"[  c #C7B653",
"{  c #D28F65",
"}  c #DE9F78",
"|  c #E58962",
" . c #ED9563",
".. c #EA916B",
"X. c #EA956B",
"o. c #EE9D6C",
"O. c #EF9D6C",
"+. c #D2AB6B",
"@. c #DAAB6F",
"#. c #E1B06C",
"$. c #EEA073",
"%. c #EEA174",
"&. c #EAAF75",
"*. c #F1A575",
"=. c #F0A778",
"-. c #F1A979",
";. c #F2AD7D",
":. c #7F7F80",
">. c #9F9F9F",
",. c #9F9FA0",
"<. c gray75",
"1. c #F0A984",
"2. c #F1AC85",
"3. c #F5C19D",
"4. c #BFBFC0",
"5. c #DFDFDF",
"6. c #F8DBCD",
"7. c #F8DACE",
"8. c #F9DDCE",
"9. c #FAE0CE",
"0. c #FBE6DA",
"q. c #FBE7DB",
"w. c #FBEADE",
"e. c #FCEBDF",
"r. c #FBEDE6",
"t. c #FDF1EB",
"y. c #FEF5EF",
"u. c white",
/* pixels */
"^ ^ ^ ^ [ ;.;.;.;.;.;.;.;.o.G G G G G G G G G G G G G G G G G G G G G G G G G G G G G G G G G G G G O.;.;.;.;.;.;.;.;.) T T T T ",
"^ ^ ^ ^ [ ;.;.;.;.;.;.;.;.o.G G G G G G G G G G G G G G G G G G G G G G G G G G G G G G G G G G G G O.;.;.;.;.;.;.;.;.) T T T T ",
"^ ^ ^ ^ [ ;.;.;.;.;.;.;.;.o.G G G G G G G G G G G G G G G G G G G G G G G G G G G G G G G G G G G G O.;.;.;.;.;.;.;.;.) T T T T ",
"^ ^ ^ ^ [ ;.;.;.;.;.;.;.;.o.G G G G G G G G G G G G G G G G G G G G G G G G G G G G G G G G G G G G O.;.;.;.;.;.;.;.;.) T T T T ",
"#.#.#.#.&.;.;.;.;.9.e.e.e.q.6.6.6.6.2.O.O.O.O.O.O.O.O.O.O.O.O.O.O.O.O.O.O.O.O.O.O.O.O.O.O.O.O.O.O.O.-.;.;.;.;.;.;.;.;.@.+.+.+.+.",
";.;.;.;.;.;.;.;.;.y.u.u.u.u.u.u.u.u.3.;.;.;.;.;.;.;.;.;.;.;.;.;.;.;.;.;.;.;.;.;.;.;.;.;.;.;.;.;.;.;.;.;.;.;.;.;.;.;.;.;.;.;.;.;.",
";.;.;.;.;.;.;.;.;.y.u.u.u.u.u.u.u.u.3.;.;.;.;.;.;.;.;.;.;.;.;.;.;.;.;.;.;.;.;.;.;.;.;.;.;.;.;.;.;.;.;.;.;.;.;.;.;.;.;.;.;.;.;.;.",
";.;.;.;.;.;.;.;.;.y.u.u.u.u.u.u.u.u.3.;.;.;.O O O O O O O O O O O O O O O O O O O O O O O O O O O O y ;.;.;.;.;.;.;.;.;.;.;.;.;.",
"' ' ' ' ' ' ' ' ' t.u.u.u.u.u.u.u.u.1.' ' ' . . . . . . . . . . . . . . . . . . . . . . . . . . . . r ;.;.;.=.Y Y Y Y Y Y Y Y Y ",
"G G G G G G G G G r.u.u.u.u.u.u.u.u...G G G . . . . . . . . . . . . . . . . . . . . . . . . . . . . r ;.;.;.%.m m m m m m m m m ",
"G G G G G G G G G r.u.u.u.u.u.u.u.u...G G G . . . . . . . . . . . . . . . . . . . . . . . . . . . . r ;.;.;.%.m m m m m m m m m ",
"G G G G G G G G G r.u.u.u.u.u.u.u.u...G G G . . . . . . . . . . . . . . . . . . . . . . . . . . . . r ;.;.;.%.m m m m m m m m m ",
"G G G G G G G G G 8.w.w.w.0.7.7.7.7.] G G G . . . . . . . . . . . . . . . . . . . . . . . . . . . . r ;.;.;.%.m m m m m m m m m ",
"G G G G G G G G G *.;.;.;.o.G G G G G G G G . . . . . . . . . . . . . . . . . . . . . . . . . . . . r ;.;.;.%.m m m m m m m m m ",
"G G G G G G G G G *.;.;.;.o.Z $ $ $ $ $ $ $ 4.4.4.4.4.4.4.4.4.4.4.4.4.4., . . . . . . . . . . . . . o - - - % # # m m m m m m m ",
"G G G G G G G G G *.;.;.;.o.B . . . . . . . u.u.u.u.u.u.u.u.u.u.u.u.u.u.i . . . . . . . . . . . . . . . . . . . . m m m m m m m ",
"G G G G G G G G G *.;.;.;.o.B . . . . . . . u.u.u.u.u.u.u.u.u.u.u.u.u.u.i . . . . . . . . . . . . . . . . . . . . m m m m m m m ",
"G G G G G G G G G *.;.;.;.o.B . . . . . . . u.u.u.u.u.u.u.u.u.u.u.u.u.u.i . . . . . . . . . . . . . . . . . . . . m m m m m m m ",
"G G G G G G G G G *.;.;.;.o.B . . . . . . . u.u.u.u.u.u.u.u.u.u.u.u.u.u.i . . . . . . . . . . . . . . . . . . . . m m m m m m m ",
"G G G G G G G G G *.;.;.;.o.B . . . . . . . u.u.u.u.u.u.u.u.u.u.u.u.u.u.i . . . . . . . . . . . . . . . . . . . . m m m m m m m ",
"G G G G G G G G G *.;.;.;.o.B . . . . . . . u.u.u.u.u.u.u.u.u.u.u.u.u.u.i . . . . . . . . . . . . . . . . . . . . m m m m m m m ",
"G G G G G G G G 3 0 e e e 9 6 ,.,.,.,.,.,.,.g g g g g g g g g g g g g g ,.,.,.,.,.,.,.s . . . . . . . . . . . . . m m m m m m m ",
"G G G G G G G G . . . . . . * u.u.u.u.u.u.u.. . . . . . . . . . . . . . 4.u.u.u.u.u.u.g . . . . . . . . . . . . . m m m m m m m ",
"G G G G G G G G . . . . . . * u.u.u.u.u.u.u.. . . . . . . . . . . . . . 4.u.u.u.u.u.u.g . . . . . . . . . . . . . m m m m m m m ",
"G G G G G G G G . . . . . . * u.u.u.u.u.u.u.. . . . . . . . . . . . . . 4.u.u.u.u.u.u.g . . . . . . . . . . . . . m m m m m m m ",
"G G G G G G G G . . . . . . * u.u.u.u.u.u.u.. . . . . . . . . . . . . . 4.u.u.u.u.u.u.g . . . . . . . . . . . . . m m m m m m m ",
"G G G G G G G G . . . . . . * u.u.u.u.u.u.u.. . . . . . . . . . . . . . 4.u.u.u.u.u.u.g . . . . . . . . . . . . . m m m m m m m ",
"G G G G G G G G . . . . . . * u.u.u.u.u.u.u.. . . . . . . . . . . . . . 4.u.u.u.u.u.u.g . . . . . . . . . . . . . m m m m m m m ",
"G G G G G G G G 3 0 r r r 7 6 >.>.>.>.>.>.>.h h h h h h h h h h h h h h :.>.>.>.>.>.>.s . . . . . . O r r r 8 2 2 m m m m m m m ",
"G G G G G G G G G *.;.;.;.o.B . . . . . . . u.u.u.u.u.u.u.u.u.u.u.u.u.u.i . . . . . . . . . . . . . r ;.;.;.%.m m m m m m m m m ",
"G G G G G G G G G *.;.;.;.o.B . . . . . . . u.u.u.u.u.u.u.u.u.u.u.u.u.u.i . . . . . . . . . . . . . r ;.;.;.%.m m m m m m m m m ",
"G G G G G G G G G *.;.;.;.o.B . . . . . . . u.u.u.u.u.u.u.u.u.u.u.u.u.u.i . . . . . . . . . . . . . r ;.;.;.%.m m m m m m m m m ",
"G G G G G G G G G *.;.;.;.o.B . . . . . . . u.u.u.u.u.u.u.u.u.u.u.u.u.u.i . . . . . . . . . . . . . r ;.;.;.%.m m m m m m m m m ",
"G G G G G G G G G *.;.;.;.o.B . . . . . . . u.u.u.u.u.u.u.u.u.u.u.u.u.u.i . . . . . . . . . . . . . r ;.;.;.%.m m m m m m m m m ",
"G G G G _ *.*.*.*.;.;.;.;.;.{ . . . . . . . u.u.u.u.u.u.u.u.u.u.u.u.u.u.i . . . . . . . . . . . . . r ;.;.;.;.%.%.%.%.I m m m m ",
"G G G G ` ;.;.;.( ( ( ( ( ( L d d d d d d d <.<.<.<.<.<.<.<.<.<.<.<.<.<.g d d d d d d & . . . . . . 5 ( ( ( ( ( ( ;.;.U m m m m ",
"G G G G ` ;.;.;.. . . . . . * u.u.u.u.u.u.u.. . . . . . . . . . . . . . 4.u.u.u.u.u.u.g . . . . . . . . . . . . . ;.;.U m m m m ",
"G G G G ` ;.;.;.. . . . . . * u.u.u.u.u.u.u.. . . . . . . . . . . . . . 4.u.u.u.u.u.u.g . . . . . . . . . . . . . ;.;.U m m m m ",
" . . . .o.;.;.;.. . . . . . * u.u.u.u.u.u.u.. . . . . . . . . . . . . . 4.u.u.u.u.u.u.g . . . . . . . . . . . . . ;.;.X.| | | | ",
";.;.;.;.;.;.;.;.. . . . . . * u.u.u.u.u.u.u.. . . . . . . . . . . . . . 4.u.u.u.u.u.u.g . . . . . . . . . . . . . ;.;.;.;.;.;.;.",
";.;.;.;.;.;.;.;.. . . . . . * u.u.u.u.u.u.u.. . . . . . . . . . . . . . 4.u.u.u.u.u.u.g . . . . . . . . . . . . . ;.;.;.;.;.;.;.",
";.;.;.;.;.;.;.;.. . . . . . * u.u.u.u.u.u.u.. . . . . . . . . . . . . . 4.u.u.u.u.u.u.g . . . . . . . . . . . . . ;.;.;.;.;.;.;.",
";.;.;.;.;.;.;.;.+ X X X X X ; 5.5.5.5.5.5.5.* * * * * * * * * * * * * * ,.5.5.5.5.5.5.f . . . . . . . . . . . . . ;.;.;.;.;.;.;.",
";.;.;.;.;.;.;.;.;.V m m m m k . . . . . . . u.u.u.u.u.u.u.u.u.u.u.u.u.u.i . . . . . . . . . . . . . . . . . . . . ;.;.;.;.;.;.;.",
";.;.;.;.;.;.;.;.;.V m m m m k . . . . . . . u.u.u.u.u.u.u.u.u.u.u.u.u.u.i . . . . . . . . . . . . . . . . . . . . ;.;.;.;.;.;.;.",
";.;.;.;.;.;.;.;.;.V m m m m k . . . . . . . u.u.u.u.u.u.u.u.u.u.u.u.u.u.i . . . . . . . . . . . . . . . . . . . . ;.;.;.;.;.;.;.",
"$.$.$.$.$.$.$.$.$.C N N N M k . . . . . . . u.u.u.u.u.u.u.u.u.u.u.u.u.u.i . . . . . . . . . . . . . . . . . . . . } } } } } } } ",
"m m m m m m m m m F G G G D k . . . . . . . u.u.u.u.u.u.u.u.u.u.u.u.u.u.i . . . . . . . . . . . . . . . . . . . . a a a a a a a ",
"m m m m m m m m m F G G G D k . . . . . . . u.u.u.u.u.u.u.u.u.u.u.u.u.u.i . . . . . . . . . . . . . . . . . . . . a a a a a a a ",
"m m m m m m m m m F G G G D k . . . . . . . u.u.u.u.u.u.u.u.u.u.u.u.u.u.i . . . . . . . . . . . . . . . . . . . . a a a a a a a ",
"m m m m m m m m m F G G G D m m m m m m m m . . . . . . . . . . . . . . . . . . . . .               1 m m m n a a a a a a a a a ",
"m m m m m m m m m F G G G A c c c c c c c c . . . . . . . . . . . . . . . . . . . . .               1 m m m n a a a a a a a a a ",
"m m m m m m m m m F G G G S J J J J J J J J . . . . . . . . . . . . . . . . . . . . .               1 m m m n a a a a a a a a a ",
"m m m m m m m m m F G G G S J J J J J J J J . . . . . . . . . . . . . . . . . . . . .               1 m m m n a a a a a a a a a ",
"m m m m m m m m m F G G G S J J J J J J J J . . . . . . . . . . . . . . . . . . . . .               1 m m m n a a a a a a a a a ",
"q q q q j m m m m F G G G S J J J J J J J J . . . . . . . . . . . . . . . . . . . . .               1 m m m n a a a a p > > > > ",
"@ @ @ @ 4 m m m m F G G G S J J J J J J J J . . . . . . . . . . . . . . . . . . . . .               1 m m m n a a a a = @ @ @ @ ",
"@ @ @ @ 4 m m m m F G G G S J J J J J J J J J J J J J J J J J J J J J J J J J J J J J J J J J J J J b m m m n a a a a = @ @ @ @ ",
"@ @ @ @ 4 m m m m F G G G S J J J J J J J J J J J J J J J J J J J J J J J J J J J J J J J J J J J J b m m m n a a a a = @ @ @ @ ",
"w w w w t x x x x v P P P K H H H H H H H H H H H H H H H H H H H H H H H H H H H H H H H H H H H H z x x x l a a a a < : : : : ",
"^ ! Q Q / a a a a a a a a a a a a a a a a a a a a a a a a a a a a a a a a a a a a a a a a a a a a a a a a a a a a a a u T T T T ",
"^ R T T u a a a a a a a a a a a a a a a a a a a a a a a a a a a a a a a a a a a a a a a a a a a a a a a a a a a a a a u T T T T ",
"W W E T u a a a a a a a a a a a a a a a a a a a a a a a a a a a a a a a a a a a a a a a a a a a a a a a a a a a a a a u T T T T ",
"T ~ ~ T u a a a a a a a a a a a a a a a a a a a a a a a a a a a a a a a a a a a a a a a a a a a a a a a a a a a a a a u T T T T "
};
