/* XPM */
static char *result[] = {
/* columns rows colors chars-per-pixel */
"64 64 100 2 ",
"   c black",
".  c #0A070A",
"X  c #1A0A07",
"o  c #101010",
"O  c #141B1B",
"+  c gray12",
"@  c #2C272F",
"#  c #2C3D21",
"$  c #342B36",
"%  c #383833",
"&  c #3F3F3F",
"*  c #5B2D24",
"=  c #6B3027",
"-  c #723327",
";  c #3A4322",
":  c #5B402E",
">  c #704A2B",
",  c #6A4C37",
"<  c #687D3F",
"1  c #403240",
"2  c #543C52",
"3  c gray25",
"4  c gray31",
"5  c #505050",
"6  c #7C6B5F",
"7  c #606060",
"8  c #822F21",
"9  c #9C3827",
"0  c #9D3827",
"q  c #963C2D",
"w  c #8A4733",
"e  c #A2453F",
"r  c #A6493E",
"t  c #B2473B",
"y  c #BF5E3F",
"u  c #C24D37",
"i  c #C14938",
"p  c #D14B34",
"a  c #D0663C",
"s  c #E26939",
"d  c #E46D3A",
"f  c #864D44",
"g  c #965340",
"h  c #B15C41",
"j  c #886146",
"k  c #976C4E",
"l  c #AD694B",
"z  c #B17554",
"x  c #B47B59",
"c  c #C06040",
"v  c #DB6A4A",
"b  c #DD704F",
"n  c #E17C58",
"m  c #74A334",
"M  c #7BA635",
"N  c #8CAD36",
"B  c #90AF37",
"V  c #9EB539",
"C  c #A2B739",
"Z  c #A6B939",
"A  c #ADBC3A",
"S  c #818742",
"D  c #B6815D",
"F  c #B5825E",
"G  c #B6825E",
"H  c #A3A74F",
"J  c #E8814F",
"K  c #EA8553",
"L  c #EB8D5B",
"P  c #C7B653",
"I  c #DE9F78",
"U  c #E58962",
"Y  c #ED9563",
"T  c #E9946A",
"R  c #EA956B",
"E  c #EB9A6F",
"W  c #EE9D6C",
"Q  c #EF9D6C",
"!  c #D2AB6B",
"~  c #DAAB6F",
"^  c #E1B06C",
"/  c #EEA073",
"(  c #EEA174",
")  c #EAAF75",
"_  c #F1A575",
"`  c #F1A979",
"'  c #F2AD7D",
"]  c #9F9F9F",
"[  c gray75",
"{  c #F1AC85",
"}  c #F5C19D",
"|  c gray81",
" . c #DFDFDF",
".. c #F8DBCD",
"X. c #FAE0CE",
"o. c #FBE7DB",
"O. c #FCEBDF",
"+. c #EFEFEF",
"@. c #FEF5EF",
"#. c white",
/* pixels */
"A A A A P ' ' ' ' ' ' ' ' W d d d d d d d d d d d d d d d d d d d d d d d d d d d d d d d d d d d d Q ' ' ' ' ' ' ' ' H m m m m ",
"A A A A P ' ' ' ' ' ' ' ' W d d d d d d d d d d d d d d d d d d d d d d d d d d d d d d d d d d d d Q ' ' ' ' ' ' ' ' H m m m m ",
"A A A A P ' ' ' ' ' ' ' ' W d d d d d d d d d d d d d d d d d d d d d d d d d d d d d d d d d d d d Q ' ' ' ' ' ' ' ' H m m m m ",
"A A A A P ' ' ' ' ' ' ' ' W d d d d d d d d d d d d d d d d d d d d d d d d d d d d d d d d d d d d Q ' ' ' ' ' ' ' ' H m m m m ",
"^ ^ ^ ^ ) ' ' ' ' X.O.O.O.o.........{ Q Q Q Q Q Q Q Q Q Q Q Q Q Q Q Q Q Q Q Q Q Q Q Q Q Q Q Q Q Q Q ` ' ' ' ' ' ' ' ' ~ ! ! ! ! ",
"' ' ' ' ' ' ' ' ' @.#.#.#.#.#.#.#.#.} ' ' ' ' ' ' ' ' ' ' ' ' ' ' ' ' ' ' ' ' ' ' ' ' ' ' ' ' ' ' ' ' ' ' ' ' ' ' ' ' ' ' ' ' ' ",
"' ' ' ' ' ' ' ' ' @.#.#.#.#.#.#.#.#.} ' ' ' ' ' ' ' ' ' ' ' ' ' ' ' ' ' ' ' ' ' ' ' ' ' ' ' ' ' ' ' ' ' ' ' ' ' ' ' ' ' ' ' ' ' ",
"' ' ' ' ' ' ' '                                                                                                   ' ' ' ' ' ' ' ",
"L L L L L L L L                                                                                                   n n n n n n n ",
"d d d d d d d d                                                                                                   p p p p p p p ",
"d d d d d d d d                                                                                                   p p p p p p p ",
"d d d d d d d d                                                                                                   p p p p p p p ",
"d d d d d d d d                                                                                                   p p p p p p p ",
"d d d d d d d d                                                                                                   p p p p p p p ",
"d d d d d d d d             5  . . . . . . . . . . . . . . . . . . . . . . . . . . . .+                           p p p p p p p ",
"d d d d d d d d             7 #.#.#.#.#.#.#.#.#.#.#.#.#.#.#.#.#.#.#.#.#.#.#.#.#.#.#.#.+                           p p p p p p p ",
"d d d d d d d d             7 #.#.#.#.#.#.#.#.#.#.#.#.#.#.#.#.#.#.#.#.#.#.#.#.#.#.#.#.+                           p p p p p p p ",
"d d d d d d d d             7 #.#.#.#.#.#.#.#.#.#.#.#.#.#.#.#.#.#.#.#.#.#.#.#.#.#.#.#.+                           p p p p p p p ",
"d d d d d d d d             7 #.#.#.#.#.#.#.#.#.#.#.#.#.#.#.#.#.#.#.#.#.#.#.#.#.#.#.#.+                           p p p p p p p ",
"d d d d d d d d             7 #.#.#.#.#.#.#.#.#.#.#.#.#.#.#.#.#.#.#.#.#.#.#.#.#.#.#.#.+                           p p p p p p p ",
"d d d d d d d d             7 #.#.#.#.#.#.#.#.#.#.#.#.#.#.#.#.#.#.#.#.#.#.#.#.#.#.#.#.+                           p p p p p p p ",
"d d d d d d d d             7 #.#.#.#.#.#.| & & & & & & & & & & & & & & & & & & & & &               j D D D x 9 9 p p p p p p p ",
"d d d d d d d d             7 #.#.#.#.#.#.[                                                         G ' ' ' ( p p p p p p p p p ",
"d d d d d d d d             7 #.#.#.#.#.#.[                                                         G ' ' ' ( p p p p p p p p p ",
"d d d d d d d d             7 #.#.#.#.#.#.[                                                         G ' ' ' ( p p p p p p p p p ",
"d d d d d d d d             7 #.#.#.#.#.#.[                                                         G ' ' ' ( p p p p p p p p p ",
"d d d d d d d d             7 #.#.#.#.#.#.[                                                         G ' ' ' ( p p p p p p p p p ",
"d d d d d d d d             7 #.#.#.#.#.#.[                                                         G ' ' ' ( p p p p p p p p p ",
"d d d d d d d d             7 #.#.#.#.#.#.+.] ] ] ] ] ] ] ] ] ] ] ] ] ]                             G ' ' ' ( p p p p p p p p p ",
"d d d d d d d d             7 #.#.#.#.#.#.#.#.#.#.#.#.#.#.#.#.#.#.#.#.#.                            G ' ' ' ( p p p p p p p p p ",
"d d d d d d d d             7 #.#.#.#.#.#.#.#.#.#.#.#.#.#.#.#.#.#.#.#.#.                            G ' ' ' ( p p p p p p p p p ",
"d d d d d d d d             7 #.#.#.#.#.#.#.#.#.#.#.#.#.#.#.#.#.#.#.#.#.                            G ' ' ' ( p p p p p p p p p ",
"d d d d d d d d             7 #.#.#.#.#.#.#.#.#.#.#.#.#.#.#.#.#.#.#.#.#.                            G ' ' ' ( p p p p p p p p p ",
"d d d d d d d d             7 #.#.#.#.#.#.#.#.#.#.#.#.#.#.#.#.#.#.#.#.#.                            G ' ' ' ( p p p p p p p p p ",
"d d d d J _ _ _             7 #.#.#.#.#.#.#.#.#.#.#.#.#.#.#.#.#.#.#.#.#.                            G ' ' ' ' ( ( ( ( v p p p p ",
"d d d d K ' ' ' : : : : : : 6 ] ] ] ] ] ] ] ] ] ] ] ] ] ] ] ] ] ] ] ] ] 7 7 7 7 7 7 7 o             , k k k k k k ' ' b p p p p ",
"d d d d K ' ' ' ' ' ' ' ' ' k                                           #.#.#.#.#.#.#.+                           ' ' b p p p p ",
"d d d d K ' ' ' ' ' ' ' ' ' k                                           #.#.#.#.#.#.#.+                           ' ' b p p p p ",
"Y Y Y Y W ' ' ' ' ' ' ' ' E w                                           #.#.#.#.#.#.#.+                           ' ' R U U U U ",
"' ' ' ' ' ' ' ' ' ' ' ' ' T 8                                           #.#.#.#.#.#.#.+                           ' ' ' ' ' ' ' ",
"' ' ' ' ' ' ' ' ' ' ' ' ' T 8                                           #.#.#.#.#.#.#.+                           ' ' ' ' ' ' ' ",
"' ' ' ' ' ' ' ' ' ' ' ' ' T 8                                           #.#.#.#.#.#.#.+                           ' ' ' ' ' ' ' ",
"' ' ' ' ' ' ' ' F z z z z l = 3 3 3 3 3 3 3 3 3 3 3 3 3 3 3 3 3 3 3 3 3 [ [ [ [ [ [ [ o                           ' ' ' ' ' ' ' ",
"' ' ' ' ' ' ' '             7 #.#.#.#.#.#.#.#.#.#.#.#.#.#.#.#.#.#.#.#.#.                                          ' ' ' ' ' ' ' ",
"' ' ' ' ' ' ' '             7 #.#.#.#.#.#.#.#.#.#.#.#.#.#.#.#.#.#.#.#.#.                                          ' ' ' ' ' ' ' ",
"' ' ' ' ' ' ' '             7 #.#.#.#.#.#.#.#.#.#.#.#.#.#.#.#.#.#.#.#.#.                                          ' ' ' ' ' ' ' ",
"/ / / / / / / /             7 #.#.#.#.#.#.#.#.#.#.#.#.#.#.#.#.#.#.#.#.#.                                          I I I I I I I ",
"p p p p p p p p             7 #.#.#.#.#.#.#.#.#.#.#.#.#.#.#.#.#.#.#.#.#.                                          2 2 2 2 2 2 2 ",
"p p p p p p p p             7 #.#.#.#.#.#.#.#.#.#.#.#.#.#.#.#.#.#.#.#.#.                                          2 2 2 2 2 2 2 ",
"p p p p p p p p             4  . . . . . . . . . . . . . . . . . . . . .                            X X X X X . . 2 2 2 2 2 2 2 ",
"p p p p p p p p                                                                                     0 p p p i 2 2 2 2 2 2 2 2 2 ",
"p p p p p p p p                                                                                     0 p p p i 2 2 2 2 2 2 2 2 2 ",
"p p p p p p p p                                                                                     0 p p p i 2 2 2 2 2 2 2 2 2 ",
"p p p p p p p p                                                                                     0 p p p i 2 2 2 2 2 2 2 2 2 ",
"p p p p p p p p                                                                                     0 p p p i 2 2 2 2 2 2 2 2 2 ",
"- - - - q p p p                                                                                     0 p p p i 2 2 2 2 1 $ $ $ $ ",
"O O O O * p p p                                                                                     0 p p p i 2 2 2 2 @ O O O O ",
"O O O O * p p p p s d d d a g g g g g g g g g g g g g g g g g g g g g g g g g g g g g g g g g g g g u p p p i 2 2 2 2 @ O O O O ",
"O O O O * p p p p s d d d a g g g g g g g g g g g g g g g g g g g g g g g g g g g g g g g g g g g g u p p p i 2 2 2 2 @ O O O O ",
"; ; ; ; > t t t t y c c c h f f f f f f f f f f f f f f f f f f f f f f f f f f f f f f f f f f f f r t t t e 2 2 2 2 % # # # # ",
"A C V V S 2 2 2 2 2 2 2 2 2 2 2 2 2 2 2 2 2 2 2 2 2 2 2 2 2 2 2 2 2 2 2 2 2 2 2 2 2 2 2 2 2 2 2 2 2 2 2 2 2 2 2 2 2 2 < m m m m ",
"A M m m < 2 2 2 2 2 2 2 2 2 2 2 2 2 2 2 2 2 2 2 2 2 2 2 2 2 2 2 2 2 2 2 2 2 2 2 2 2 2 2 2 2 2 2 2 2 2 2 2 2 2 2 2 2 2 < m m m m ",
"B B N m < 2 2 2 2 2 2 2 2 2 2 2 2 2 2 2 2 2 2 2 2 2 2 2 2 2 2 2 2 2 2 2 2 2 2 2 2 2 2 2 2 2 2 2 2 2 2 2 2 2 2 2 2 2 2 < m m m m ",
"m Z Z m < 2 2 2 2 2 2 2 2 2 2 2 2 2 2 2 2 2 2 2 2 2 2 2 2 2 2 2 2 2 2 2 2 2 2 2 2 2 2 2 2 2 2 2 2 2 2 2 2 2 2 2 2 2 2 < m m m m "
};
