/* XPM */
static char *result[] = {
/* columns rows colors chars-per-pixel */
"64 64 128 2 ",
"   c black",
".  c #0D0504",
"X  c #1A0907",
"o  c #1A0A07",
"O  c #1C0D07",
"+  c #1D110B",
"@  c #1E1610",
"#  c #141B1B",
"$  c #34130D",
"%  c #391B0E",
"&  c #361911",
"*  c #3D2B1F",
"=  c #202020",
"-  c #2C272F",
";  c #2C3D21",
":  c #342B36",
">  c #383833",
",  c #3F3F3F",
"<  c #4E1C13",
"1  c #5B2117",
"2  c #552816",
"3  c #562916",
"4  c #5B2D24",
"5  c #593C2A",
"6  c #5A3D2B",
"7  c #723327",
"8  c #7C3D2D",
"9  c #703E30",
"0  c #3A4322",
"q  c #5A402E",
"w  c #704A2B",
"e  c #687D3F",
"r  c #403240",
"t  c #543C52",
"y  c gray25",
"u  c gray31",
"i  c #5D4E47",
"p  c #5F5F5F",
"a  c #606060",
"s  c #7C6D67",
"d  c gray44",
"f  c gray50",
"g  c #803D21",
"h  c #9C3827",
"j  c #963C2D",
"k  c #8E4324",
"l  c #9D4B27",
"z  c #AB512B",
"x  c #A2453F",
"c  c #A6493E",
"v  c #B2473B",
"b  c #A4513D",
"n  c #BF5E3F",
"m  c #C24D37",
"M  c #C14938",
"N  c #D14B34",
"B  c #D24D35",
"V  c #D34F35",
"C  c #D5573D",
"Z  c #D85B3E",
"A  c #D4653B",
"S  c #D0663C",
"D  c #DF6438",
"F  c #E26939",
"G  c #E46D3A",
"H  c #864D44",
"J  c #965340",
"K  c #B15C41",
"L  c #B06944",
"P  c #C06040",
"I  c #DB6A4A",
"U  c #DD704F",
"Y  c #E17C58",
"T  c #74A334",
"R  c #7BA635",
"E  c #8CAD36",
"W  c #90AF37",
"Q  c #9EB539",
"!  c #A2B739",
"~  c #A6B939",
"^  c #ADBC3A",
"/  c #818742",
"(  c #B5815D",
")  c #A3A74F",
"_  c #E8814F",
"`  c #EA8553",
"'  c #EB8D5B",
"]  c #E8885F",
"[  c #C7B653",
"{  c #D38F65",
"}  c #D3946A",
"|  c #D4976D",
" . c #DE9F78",
".. c #E58962",
"X. c #ED9563",
"o. c #EA916B",
"O. c #EA956B",
"+. c #EE9D6C",
"@. c #EF9D6C",
"#. c #D2AB6B",
"$. c #DAAB6F",
"%. c #E1B06C",
"&. c #EEA073",
"*. c #EEA174",
"=. c #EAAF75",
"-. c #F1A575",
";. c #F0A778",
":. c #F1A979",
">. c #F2AD7D",
",. c #998986",
"<. c #9F9F9F",
"1. c gray75",
"2. c #F0A984",
"3. c #F1AC85",
"4. c #F5C19D",
"5. c #DFDFDF",
"6. c #F8DBCD",
"7. c #F8DACE",
"8. c #F9DDCE",
"9. c #FAE0CE",
"0. c #FBE6DA",
"q. c #FBE7DB",
"w. c #FBEADE",
"e. c #FCEBDF",
"r. c #FBEDE6",
"t. c #FDF1EB",
"y. c #FEF5EF",
"u. c white",
/* pixels */
"^ ^ ^ ^ [ >.>.>.>.>.>.>.>.+.G G G G G G G G G G G G G G G G G G G G G G G G G G G G G G G G G G G G @.>.>.>.>.>.>.>.>.) T T T T ",
"^ ^ ^ ^ [ >.>.>.>.>.>.>.>.+.G G G G G G G G G G G G G G G G G G G G G G G G G G G G G G G G G G G G @.>.>.>.>.>.>.>.>.) T T T T ",
"^ ^ ^ ^ [ >.>.>.>.>.>.>.>.+.G G G G G G G G G G G G G G G G G G G G G G G G G G G G G G G G G G G G @.>.>.>.>.>.>.>.>.) T T T T ",
"^ ^ ^ ^ [ >.>.>.>.>.>.>.>.+.G G G G G G G G G G G G G G G G G G G G G G G G G G G G G G G G G G G G @.>.>.>.>.>.>.>.>.) T T T T ",
"%.%.%.%.=.>.>.>.>.9.e.e.e.q.6.6.6.6.3.@.@.@.@.@.@.@.@.@.@.@.@.@.@.@.@.@.@.@.@.@.@.@.@.@.@.@.@.@.@.@.:.>.>.>.>.>.>.>.>.$.#.#.#.#.",
">.>.>.>.>.>.>.>.>.y.u.u.u.u.u.u.u.u.4.>.>.>.>.>.>.>.>.>.>.>.>.>.>.>.>.>.>.>.>.>.>.>.>.>.>.>.>.>.>.>.>.>.>.>.>.>.>.>.>.>.>.>.>.>.",
">.>.>.>.>.>.>.>.>.y.u.u.u.u.u.u.u.u.4.>.>.>.>.>.>.>.>.>.>.>.>.>.>.>.>.>.>.>.>.>.>.>.>.>.>.>.>.>.>.>.>.>.>.>.>.>.>.>.>.>.>.>.>.>.",
">.>.>.>.>.>.>.>.>.y.u.u.u.u.u.u.u.u.4.>.>.>.>.>.>.>.>.>.(                                           | >.>.>.>.>.>.>.>.>.>.>.>.>.",
"' ' ' ' ' ' ' ' ' t.u.u.u.u.u.u.u.u.2.' ' ' ' ' ' ' ' ' L                                           } >.>.>.;.Y Y Y Y Y Y Y Y Y ",
"G G G G G G G G G r.u.u.u.u.u.u.u.u.o.G G G G G G G G G z                                           { >.>.>.*.N N N N N N N N N ",
"G G G G G G G G G r.u.u.u.u.u.u.u.u.o.G G G G G G G G G z                                           { >.>.>.*.N N N N N N N N N ",
"G G G G G G G G G r.u.u.u.u.u.u.u.u.o.G G G G G G G G G z                                           { >.>.>.*.N N N N N N N N N ",
"G G G G G G G G G 8.w.w.w.0.7.7.7.7.] G G G G G G G G G z                                           { >.>.>.*.N N N N N N N N N ",
"G G G G G G G G G -.>.>.>.+.G G G G G G G G G G G G G G z                                           { >.>.>.*.N N N N N N N N N ",
"G G G G G G G G G -.>.>.>.+.G G G G G G G l O O O O O O i 5.5.5.5.5.5.5.5.5.5.5.5.5.5.              + @ @ @ @ X X N N N N N N N ",
"G G G G G G G G G -.>.>.>.+.G G G G G G G k             y u.u.u.u.u.u.u.u.u.u.u.u.u.u.                            N N N N N N N ",
"G G G G G G G G G -.>.>.>.+.G G G G G G G k             y u.u.u.u.u.u.u.u.u.u.u.u.u.u.                            N N N N N N N ",
"G G G G G G G G G -.>.>.>.+.G G G G G G G k             y u.u.u.u.u.u.u.u.u.u.u.u.u.u.                            N N N N N N N ",
"G G G G G G G G G -.>.>.>.+.G G G G G G G k             y u.u.u.u.u.u.u.u.u.u.u.u.u.u.                            N N N N N N N ",
"G G G G G G G G G -.>.>.>.+.G G G G G G G k             y u.u.u.u.u.u.u.u.u.u.u.u.u.u.                            N N N N N N N ",
"G G G G G G G G G -.>.>.>.+.G G G G G G G k             y u.u.u.u.u.u.u.u.u.u.u.u.u.u.                            N N N N N N N ",
"G G G G G G G G G -.>.>.>.+.g % % % % % % i 1.1.1.1.1.1.<., , , , , , u u.u.u.u.u.u.u.                            N N N N N N N ",
"G G G G G G G G G -.>.>.>.+.2             a u.u.u.u.u.u.1.            = u.u.u.u.u.u.u.                            N N N N N N N ",
"G G G G G G G G G -.>.>.>.+.2             a u.u.u.u.u.u.1.            = u.u.u.u.u.u.u.                            N N N N N N N ",
"G G G G G G G G G -.>.>.>.+.2             a u.u.u.u.u.u.1.            = u.u.u.u.u.u.u.                            N N N N N N N ",
"G G G G G G G G G -.>.>.>.+.2             a u.u.u.u.u.u.1.            = u.u.u.u.u.u.u.                            N N N N N N N ",
"G G G G G G G G G -.>.>.>.+.2             a u.u.u.u.u.u.1.            = u.u.u.u.u.u.u.                            N N N N N N N ",
"G G G G G G G G G -.>.>.>.+.2             a u.u.u.u.u.u.1.            = u.u.u.u.u.u.u.                            N N N N N N N ",
"G G G G G G G G 3 6 q q q 5 s <.<.<.<.<.<.f p p p p p p u             = u.u.u.u.u.u.u.                            N N N N N N N ",
"G G G G G G G G             <.u.u.u.u.u.u.<.                          = u.u.u.u.u.u.u.                            N N N N N N N ",
"G G G G G G G G             <.u.u.u.u.u.u.<.                          = u.u.u.u.u.u.u.                            N N N N N N N ",
"G G G G G G G G             <.u.u.u.u.u.u.<.                          = u.u.u.u.u.u.u.                            N N N N N N N ",
"G G G G G G G G             <.u.u.u.u.u.u.<.                          = u.u.u.u.u.u.u.                            N N N N N N N ",
"G G G G G G G G             <.u.u.u.u.u.u.<.                          = u.u.u.u.u.u.u.                            N N N N N N N ",
"G G G G _ -.-.-.            <.u.u.u.u.u.u.<.                          = u.u.u.u.u.u.u.                            *.*.I N N N N ",
"G G G G ` >.>.>.            <.u.u.u.u.u.u.1.a a a a a a a a a a a a a d u.u.u.u.u.u.u.                            >.>.U N N N N ",
"G G G G ` >.>.>.            <.u.u.u.u.u.u.u.u.u.u.u.u.u.u.u.u.u.u.u.u.u.u.u.u.u.u.u.u.                            >.>.U N N N N ",
"G G G G ` >.>.>.            <.u.u.u.u.u.u.u.u.u.u.u.u.u.u.u.u.u.u.u.u.u.u.u.u.u.u.u.u.                            >.>.U N N N N ",
"X.X.X.X.+.>.>.>.            <.u.u.u.u.u.u.u.u.u.u.u.u.u.u.u.u.u.u.u.u.u.u.u.u.u.u.u.u.                            >.>.O.........",
">.>.>.>.>.>.>.>.            <.u.u.u.u.u.u.u.u.u.u.u.u.u.u.u.u.u.u.u.u.u.u.u.u.u.u.u.u.                            >.>.>.>.>.>.>.",
">.>.>.>.>.>.>.>.            <.u.u.u.u.u.u.u.u.u.u.u.u.u.u.u.u.u.u.u.u.u.u.u.u.u.u.u.u.                            >.>.>.>.>.>.>.",
">.>.>.>.>.>.>.>.            <.u.u.u.u.u.u.u.u.u.u.u.u.u.u.u.u.u.u.u.u.u.u.u.u.u.u.u.u.                            >.>.>.>.>.>.>.",
">.>.>.>.>.>.>.>.* & $ $ $ $ ,.1.1.1.1.1.1.1.1.1.1.1.1.1.1.1.1.1.1.1.1.1.u.u.u.u.u.u.u.                            >.>.>.>.>.>.>.",
">.>.>.>.>.>.>.>.>.C N N N N <                                         = u.u.u.u.u.u.u.                            >.>.>.>.>.>.>.",
">.>.>.>.>.>.>.>.>.C N N N N <                                         = u.u.u.u.u.u.u.                            >.>.>.>.>.>.>.",
">.>.>.>.>.>.>.>.>.C N N N N <                                         = u.u.u.u.u.u.u.                            >.>.>.>.>.>.>.",
"&.&.&.&.&.&.&.&.&.Z V V V B <                                         = u.u.u.u.u.u.u.                             . . . . . . .",
"N N N N N N N N N F G G G D <                                         = u.u.u.u.u.u.u.                            t t t t t t t ",
"N N N N N N N N N F G G G D <                                         = u.u.u.u.u.u.u.                            t t t t t t t ",
"N N N N N N N N N F G G G D 1 o o o o o o o o o o o o o .             = 5.5.5.5.5.5.5.                            t t t t t t t ",
"N N N N N N N N N F G G G D N N N N N N N N N N N N N N h                                                         t t t t t t t ",
"N N N N N N N N N F G G G A b b b b b b b b b b b b b b 8                                                         t t t t t t t ",
"N N N N N N N N N F G G G S J J J J J J J J J J J J J J 9                                                         t t t t t t t ",
"N N N N N N N N N F G G G S J J J J J J J J J J J J J J 9                                                         t t t t t t t ",
"N N N N N N N N N F G G G S J J J J J J J J J J J J J J 9                                                         t t t t t t t ",
"7 7 7 7 j N N N N F G G G S J J J J J J J J J J J J J J 9                                                         t t r : : : : ",
"# # # # 4 N N N N F G G G S J J J J J J J J J J J J J J 9                                                         t t - # # # # ",
"# # # # 4 N N N N F G G G S J J J J J J J J J J J J J J J J J J J J J J J J J J J J J J J J J J J J m N N N M t t t t - # # # # ",
"# # # # 4 N N N N F G G G S J J J J J J J J J J J J J J J J J J J J J J J J J J J J J J J J J J J J m N N N M t t t t - # # # # ",
"0 0 0 0 w v v v v n P P P K H H H H H H H H H H H H H H H H H H H H H H H H H H H H H H H H H H H H c v v v x t t t t > ; ; ; ; ",
"^ ! Q Q / t t t t t t t t t t t t t t t t t t t t t t t t t t t t t t t t t t t t t t t t t t t t t t t t t t t t t t e T T T T ",
"^ R T T e t t t t t t t t t t t t t t t t t t t t t t t t t t t t t t t t t t t t t t t t t t t t t t t t t t t t t t e T T T T ",
"W W E T e t t t t t t t t t t t t t t t t t t t t t t t t t t t t t t t t t t t t t t t t t t t t t t t t t t t t t t e T T T T ",
"T ~ ~ T e t t t t t t t t t t t t t t t t t t t t t t t t t t t t t t t t t t t t t t t t t t t t t t t t t t t t t t e T T T T "
};
