/* XPM */
static char *result[] = {
/* columns rows colors chars-per-pixel */
"64 64 137 2 ",
"   c #000001",
".  c #0D0505",
"X  c #0F0B09",
"o  c #1A0907",
"O  c #130A08",
"+  c #1A0A08",
"@  c #1C0D08",
"#  c #1D0E08",
"$  c #1C100C",
"%  c #1D110C",
"&  c #1E1611",
"*  c #1F1611",
"=  c #141B1B",
"-  c #34130E",
";  c #391B0F",
":  c #381F19",
">  c #1F1F20",
",  c #202021",
"<  c #2C272F",
"1  c #3C2B20",
"2  c #3D2B20",
"3  c #3A2927",
"4  c #2C3D21",
"5  c #342B36",
"6  c #383833",
"7  c #401E17",
"8  c #4E1B13",
"9  c #4E1C14",
"0  c #562916",
"q  c #5B2D24",
"w  c #583523",
"e  c #593927",
"r  c #583A2B",
"t  c #593C2B",
"y  c #5A3D2C",
"u  c #723327",
"i  c #3A4322",
"p  c #5A402F",
"a  c #5B402F",
"s  c #704A2B",
"d  c #694833",
"f  c #6A4C37",
"g  c #687D3F",
"h  c #403240",
"j  c #543C52",
"k  c #4F4F50",
"l  c #5F5F60",
"z  c #606061",
"x  c #963C2D",
"c  c #B7412D",
"v  c #A2453F",
"b  c #A6493E",
"n  c #B2473B",
"m  c #A4513D",
"M  c #BF5E3F",
"N  c #C24D37",
"B  c #C64C36",
"V  c #C14938",
"C  c #D14B34",
"Z  c #D24D35",
"A  c #D34F35",
"S  c #D5573D",
"D  c #D85B3E",
"F  c #D4653B",
"G  c #D0663C",
"H  c #DF6438",
"J  c #E26939",
"K  c #E46D3A",
"L  c #864D44",
"P  c #965340",
"I  c #B15C41",
"U  c #C06040",
"Y  c #DB6A4A",
"T  c #DD6F4F",
"R  c #DD704F",
"E  c #E17C58",
"W  c #74A334",
"Q  c #7BA635",
"!  c #8CAD36",
"~  c #90AF37",
"^  c #9EB539",
"/  c #A2B739",
"(  c #A6B939",
")  c #ADBC3A",
"_  c #818742",
"`  c #A3A74F",
"'  c #E8814F",
"]  c #EA8553",
"[  c #EB8D5B",
"{  c #E8885F",
"}  c #C7B653",
"|  c #DE9F78",
" . c #E58861",
".. c #E58962",
"X. c #E78E65",
"o. c #ED9563",
"O. c #EA916B",
"+. c #E9946A",
"@. c #EA956B",
"#. c #EB9A6F",
"$. c #EE9D6C",
"%. c #EF9D6C",
"&. c #D2AB6B",
"*. c #DAAB6F",
"=. c #E1B06C",
"-. c #EEA073",
";. c #EEA174",
":. c #EAAF75",
">. c #F0A575",
",. c #F1A575",
"<. c #F0A778",
"1. c #F1A979",
"2. c #F2AD7D",
"3. c #7F7F80",
"4. c #8F8F90",
"5. c #9F9F9F",
"6. c #9F9FA0",
"7. c #BFBAB7",
"8. c gray75",
"9. c #F0A984",
"0. c #F1AC85",
"q. c #F5C19D",
"w. c #BFBFC0",
"e. c #DFDFDF",
"r. c #F8DBCD",
"t. c #F8DACE",
"y. c #F9DDCE",
"u. c #FAE0CE",
"i. c #FBE6DA",
"p. c #FBE7DB",
"a. c #FBEADE",
"s. c #FCEBDF",
"d. c #DFDFE0",
"f. c #FBEDE6",
"g. c #FDF1EB",
"h. c #FEF5EF",
"j. c white",
/* pixels */
") ) ) ) } 2.2.2.2.2.2.2.2.$.K K K K K K K K K K K K K K K K K K K K K K K K K K K K K K K K K K K K %.2.2.2.2.2.2.2.2.` W W W W ",
") ) ) ) } 2.2.2.2.2.2.2.2.$.K K K K K K K K K K K K K K K K K K K K K K K K K K K K K K K K K K K K %.2.2.2.2.2.2.2.2.` W W W W ",
") ) ) ) } 2.2.2.2.2.2.2.2.$.K K K K K K K K K K K K K K K K K K K K K K K K K K K K K K K K K K K K %.2.2.2.2.2.2.2.2.` W W W W ",
") ) ) ) } 2.2.2.2.2.2.2.2.$.K K K K K K K K K K K K K K K K K K K K K K K K K K K K K K K K K K K K %.2.2.2.2.2.2.2.2.` W W W W ",
"=.=.=.=.:.2.2.2.2.u.s.s.s.p.r.r.r.r.0.%.%.%.%.%.%.%.%.%.%.%.%.%.%.%.%.%.%.%.%.%.%.%.%.%.%.%.%.%.%.%.1.2.2.2.2.2.2.2.2.*.&.&.&.&.",
"2.2.2.2.2.2.2.2.2.h.j.j.j.j.j.j.j.j.q.2.2.2.2.2.2.2.2.2.2.2.2.2.2.2.2.2.2.2.2.2.2.2.2.2.2.2.2.2.2.2.2.2.2.2.2.2.2.2.2.2.2.2.2.2.",
"2.2.2.2.2.2.2.2.2.h.j.j.j.j.j.j.j.j.q.2.2.2.2.2.2.2.2.2.2.2.2.2.2.2.2.2.2.2.2.2.2.2.2.2.2.2.2.2.2.2.2.2.2.2.2.2.2.2.2.2.2.2.2.2.",
"2.2.2.2.2.2.2.2.2.h.j.j.j.j.j.j.j.j.q.2.2.2.1 & & & & & & & & & & & & & & & & & & & & f 2.2.2.2.2.2.2.2.2.2.2.2.2.2.2.2.2.2.2.2.",
"[ [ [ [ [ [ [ [ [ g.j.j.j.j.j.j.j.j.9.[ [ [ %                                         w [ [ [ [ [ [ >.2.2.2.<.E E E E E E E E E ",
"K K K K K K K K K f.j.j.j.j.j.j.j.j.O.K K K @                                         0 K K K K K K %.2.2.2.;.C C C C C C C C C ",
"K K K K K K K K K f.j.j.j.j.j.j.j.j.O.K K K @                                         0 K K K K K K %.2.2.2.;.C C C C C C C C C ",
"K K K K K K K K K f.j.j.j.j.j.j.j.j.O.K K K @                                         0 K K K K K K %.2.2.2.;.C C C C C C C C C ",
"K K K K K K K K K y.a.a.a.i.t.t.t.t.{ K K K @                                         0 K K K K K K %.2.2.2.;.C C C C C C C C C ",
"K K K K K K K K K ,.2.2.2.$.K K K K K K K K @                                         0 K K K K K K %.2.2.2.;.C C C C C C C C C ",
"K K K K K K K K K ,.2.2.2.$.K ; ; ; ; ; ; ; 6.w.w.w.w.w.w.w.w.w.w.w.w.w.k             # ; ; ; ; ; ; d 2.2.2.;.C C C C C C C C C ",
"K K K K K K K K K ,.2.2.2.$.K               d.j.j.j.j.j.j.j.j.j.j.j.j.j.l                           2 2.2.2.;.C C C C C C C C C ",
"K K K K K K K K K ,.2.2.2.$.K               d.j.j.j.j.j.j.j.j.j.j.j.j.j.l                           2 2.2.2.;.C C C C C C C C C ",
"K K K K K K K K K ,.2.2.2.$.K               d.j.j.j.j.j.j.j.j.j.j.j.j.j.l                           2 2.2.2.;.C C C C C C C C C ",
"K K K K K K K K K ,.2.2.2.$.K               d.j.j.j.j.j.j.j.j.j.j.j.j.j.l                           2 2.2.2.;.C C C C C C C C C ",
"K K K K K K K K K ,.2.2.2.$.K               d.j.j.j.j.j.j.j.j.j.j.j.j.j.l                           2 2.2.2.;.C C C C C C C C C ",
"K K K K K K K K K ,.2.2.2.$.K               d.j.j.j.j.j.j.j.j.j.j.j.j.j.l                           2 2.2.2.;.C C C C C C C C C ",
"K K K K K K K K 0 y p p p t 0 6.6.6.6.6.6.6.l l l l l l l l l l l l l l 3.6.6.6.6.6.6.l             X p p p r 8 8 C C C C C C C ",
"K K K K K K K K               j.j.j.j.j.j.j.>                           6.j.j.j.j.j.j.5.                          C C C C C C C ",
"K K K K K K K K               j.j.j.j.j.j.j.>                           6.j.j.j.j.j.j.5.                          C C C C C C C ",
"K K K K K K K K               j.j.j.j.j.j.j.>                           6.j.j.j.j.j.j.5.                          C C C C C C C ",
"K K K K K K K K               j.j.j.j.j.j.j.>                           6.j.j.j.j.j.j.5.                          C C C C C C C ",
"K K K K K K K K               j.j.j.j.j.j.j.>                           6.j.j.j.j.j.j.5.                          C C C C C C C ",
"K K K K K K K K               j.j.j.j.j.j.j.>                           6.j.j.j.j.j.j.5.                          C C C C C C C ",
"K K K K K K K K 0 y a a a e 0 5.5.5.5.5.5.5.z z z z z z z z z z z z z z 8.j.j.j.j.j.j.5.                          C C C C C C C ",
"K K K K K K K K K ,.2.2.2.$.K               d.j.j.j.j.j.j.j.j.j.j.j.j.j.j.j.j.j.j.j.j.5.                          C C C C C C C ",
"K K K K K K K K K ,.2.2.2.$.K               d.j.j.j.j.j.j.j.j.j.j.j.j.j.j.j.j.j.j.j.j.5.                          C C C C C C C ",
"K K K K K K K K K ,.2.2.2.$.K               d.j.j.j.j.j.j.j.j.j.j.j.j.j.j.j.j.j.j.j.j.5.                          C C C C C C C ",
"K K K K K K K K K ,.2.2.2.$.K               d.j.j.j.j.j.j.j.j.j.j.j.j.j.j.j.j.j.j.j.j.5.                          C C C C C C C ",
"K K K K K K K K K ,.2.2.2.$.K               d.j.j.j.j.j.j.j.j.j.j.j.j.j.j.j.j.j.j.j.j.5.                          C C C C C C C ",
"K K K K ' ,.,.,.,.2.2.2.2.2.,.              d.j.j.j.j.j.j.j.j.j.j.j.j.j.j.j.j.j.j.j.j.5.                          ;.;.Y C C C C ",
"K K K K ] 2.2.2.2.2.2.2.2.2.2.2 2 2 2 2 2 2 7.8.8.8.8.8.8.8.8.8.8.8.8.8.e.j.j.j.j.j.j.5.                          2.2.R C C C C ",
"K K K K ] 2.2.2.2.2.2.2.2.2.2.2.2.2.2.2.2.2.&                           6.j.j.j.j.j.j.5.                          2.2.R C C C C ",
"K K K K ] 2.2.2.2.2.2.2.2.2.2.2.2.2.2.2.2.2.&                           6.j.j.j.j.j.j.5.                          2.2.R C C C C ",
"o.o.o.o.$.2.2.2.2.2.2.2.2.#.T T T T T T T T $                           6.j.j.j.j.j.j.5.                          2.2.@.........",
"2.2.2.2.2.2.2.2.2.2.2.2.2.+.C C C C C C C C o                           6.j.j.j.j.j.j.5.                          2.2.2.2.2.2.2.",
"2.2.2.2.2.2.2.2.2.2.2.2.2.+.C C C C C C C C o                           6.j.j.j.j.j.j.5.                          2.2.2.2.2.2.2.",
"2.2.2.2.2.2.2.2.2.2.2.2.2.+.C C C C C C C C o                           6.j.j.j.j.j.j.5.                          2.2.2.2.2.2.2.",
"2.2.2.2.2.2.2.2.2.X. . . .E C c c c c c c c 3 , , , , , , , , , , , , , 6.e.e.e.e.e.e.4.            . + + + + * * 2.2.2.2.2.2.2.",
"2.2.2.2.2.2.2.2.2.S C C C C C               d.j.j.j.j.j.j.j.j.j.j.j.j.j.l                           - C C C S 2.2.2.2.2.2.2.2.2.",
"2.2.2.2.2.2.2.2.2.S C C C C C               d.j.j.j.j.j.j.j.j.j.j.j.j.j.l                           - C C C S 2.2.2.2.2.2.2.2.2.",
"2.2.2.2.2.2.2.2.2.S C C C C C               d.j.j.j.j.j.j.j.j.j.j.j.j.j.l                           - C C C S 2.2.2.2.2.2.2.2.2.",
"-.-.-.-.-.-.-.-.-.D A A A Z C               d.j.j.j.j.j.j.j.j.j.j.j.j.j.l                           - C C C S | | | | | | | | | ",
"C C C C C C C C C J K K K H C               d.j.j.j.j.j.j.j.j.j.j.j.j.j.l                           - C C C V j j j j j j j j j ",
"C C C C C C C C C J K K K H C               d.j.j.j.j.j.j.j.j.j.j.j.j.j.l                           - C C C V j j j j j j j j j ",
"C C C C C C C C C J K K K H C               d.j.j.j.j.j.j.j.j.j.j.j.j.j.l                           - C C C V j j j j j j j j j ",
"C C C C C C C C C J K K K H C C C C C C C C o                                         9 C C C C C C C C C C V j j j j j j j j j ",
"C C C C C C C C C J K K K F m m m m m m m m O                                         7 m m m m m m B C C C V j j j j j j j j j ",
"C C C C C C C C C J K K K G P P P P P P P P O                                         : P P P P P P N C C C V j j j j j j j j j ",
"C C C C C C C C C J K K K G P P P P P P P P O                                         : P P P P P P N C C C V j j j j j j j j j ",
"C C C C C C C C C J K K K G P P P P P P P P O                                         : P P P P P P N C C C V j j j j j j j j j ",
"u u u u x C C C C J K K K G P P P P P P P P O                                         : P P P P P P N C C C V j j j j h 5 5 5 5 ",
"= = = = q C C C C J K K K G P P P P P P P P O                                         : P P P P P P N C C C V j j j j < = = = = ",
"= = = = q C C C C J K K K G P P P P P P P P P P P P P P P P P P P P P P P P P P P P P P P P P P P P N C C C V j j j j < = = = = ",
"= = = = q C C C C J K K K G P P P P P P P P P P P P P P P P P P P P P P P P P P P P P P P P P P P P N C C C V j j j j < = = = = ",
"i i i i s n n n n M U U U I L L L L L L L L L L L L L L L L L L L L L L L L L L L L L L L L L L L L b n n n v j j j j 6 4 4 4 4 ",
") / ^ ^ _ j j j j j j j j j j j j j j j j j j j j j j j j j j j j j j j j j j j j j j j j j j j j j j j j j j j j j j g W W W W ",
") Q W W g j j j j j j j j j j j j j j j j j j j j j j j j j j j j j j j j j j j j j j j j j j j j j j j j j j j j j j g W W W W ",
"~ ~ ! W g j j j j j j j j j j j j j j j j j j j j j j j j j j j j j j j j j j j j j j j j j j j j j j j j j j j j j j g W W W W ",
"W ( ( W g j j j j j j j j j j j j j j j j j j j j j j j j j j j j j j j j j j j j j j j j j j j j j j j j j j j j j j g W W W W "
};
