/* XPM */
static char *result[] = {
/* columns rows colors chars-per-pixel */
"64 64 121 2 ",
"   c black",
".  c #0F0A07",
"X  c #1A0907",
"o  c #1C0D07",
"O  c #1C100B",
"+  c #1E1610",
"@  c #141B1B",
"#  c #270F0A",
"$  c #34130D",
"%  c #391B0E",
"&  c #391B0F",
"*  c #371912",
"=  c #3A2317",
"-  c #3B2317",
";  c #3B271B",
":  c #3C2B1F",
">  c #3D2B1F",
",  c #2C272F",
"<  c #2C3D21",
"1  c #342B36",
"2  c gray19",
"3  c #3D3433",
"4  c #383833",
"5  c #5B2D24",
"6  c #723327",
"7  c #3A4322",
"8  c #5B402E",
"9  c #704A2B",
"0  c #687D3F",
"q  c #403240",
"w  c #543C52",
"e  c gray25",
"r  c gray31",
"t  c #5F5F5F",
"y  c gray50",
"u  c #9D3827",
"i  c #963C2D",
"p  c #A2453F",
"a  c #A6493E",
"s  c #B2473B",
"d  c #BF5E3F",
"f  c #C24D37",
"g  c #C14938",
"h  c #D14B34",
"j  c #D34F35",
"k  c #D5573D",
"l  c #D85B3E",
"z  c #D0663C",
"x  c #E26939",
"c  c #E46D3A",
"v  c #864D44",
"b  c #965340",
"n  c #B15C41",
"m  c #AB6347",
"M  c #AD694B",
"N  c #B17554",
"B  c #C06040",
"V  c #DB6A4A",
"C  c #DD6F4F",
"Z  c #DD704F",
"A  c #E17C58",
"S  c #74A334",
"D  c #7BA635",
"F  c #8CAD36",
"G  c #90AF37",
"H  c #9EB539",
"J  c #A2B739",
"K  c #A6B939",
"L  c #ADBC3A",
"P  c #818742",
"I  c #A3A74F",
"U  c #E8814F",
"Y  c #EA8553",
"T  c #EB8D5B",
"R  c #E8885F",
"E  c #C7B653",
"W  c #DE9F78",
"Q  c #E58861",
"!  c #E58962",
"~  c #E78E65",
"^  c #E78E66",
"/  c #ED9563",
"(  c #EA916B",
")  c #E9946A",
"_  c #EA956B",
"`  c #EB9A6F",
"'  c #EE9D6C",
"]  c #EF9D6C",
"[  c #D2AB6B",
"{  c #DAAB6F",
"}  c #E1B06C",
"|  c #EEA073",
" . c #EEA174",
".. c #EAAF75",
"X. c #F0A575",
"o. c #F1A575",
"O. c #F0A778",
"+. c #F1A979",
"@. c #F2AD7D",
"#. c gray56",
"$. c #9F9F9F",
"%. c #BEB6B3",
"&. c gray75",
"*. c #F0A984",
"=. c #F1AC85",
"-. c #F5C19D",
";. c gray81",
":. c #DFDFDF",
">. c #F8DBCD",
",. c #F8DACE",
"<. c #F9DDCE",
"1. c #FAE0CE",
"2. c #FBE6DA",
"3. c #FBE7DB",
"4. c #FBEADE",
"5. c #FCEBDF",
"6. c #EFEFEF",
"7. c #FBEDE6",
"8. c #FDF1EB",
"9. c #FEF5EF",
"0. c white",
/* pixels */
"L L L L E @.@.@.@.@.@.@.@.' c c c c c c c c c c c c c c c c c c c c c c c c c c c c c c c c c c c c ] @.@.@.@.@.@.@.@.I S S S S ",
"L L L L E @.@.@.@.@.@.@.@.' c c c c c c c c c c c c c c c c c c c c c c c c c c c c c c c c c c c c ] @.@.@.@.@.@.@.@.I S S S S ",
"L L L L E @.@.@.@.@.@.@.@.' c c c c c c c c c c c c c c c c c c c c c c c c c c c c c c c c c c c c ] @.@.@.@.@.@.@.@.I S S S S ",
"L L L L E @.@.@.@.@.@.@.@.' c c c c c c c c c c c c c c c c c c c c c c c c c c c c c c c c c c c c ] @.@.@.@.@.@.@.@.I S S S S ",
"} } } } ..@.@.@.@.1.5.5.5.3.>.>.>.>.=.] ] ] ] ] ] ] ] ] ] ] ] ] ] ] ] ] ] ] ] ] ] ] ] ] ] ] ] ] ] ] +.@.@.@.@.@.@.@.@.{ [ [ [ [ ",
"@.@.@.@.@.@.@.@.@.9.0.0.0.0.0.0.0.0.-.@.@.@.@.@.@.@.@.@.@.@.@.@.@.@.@.@.@.@.@.@.@.@.@.@.@.@.@.@.@.@.@.@.@.@.@.@.@.@.@.@.@.@.@.@.",
"@.@.@.@.@.@.@.@.@.9.0.0.0.0.0.0.0.0.-.@.@.@.@.@.@.@.@.@.@.@.@.@.@.@.@.@.@.@.@.@.@.@.@.@.@.@.@.@.@.@.@.@.@.@.@.@.@.@.@.@.@.@.@.@.",
"@.@.@.@.@.@.@.@.@.9.0.0.0.0.0.0.0.0.-.@.@.@.@.@.@.:                                         > @.@.@.@.@.@.@.@.@.@.@.@.@.@.@.@.@.",
"T T T T T T T T T 8.0.0.0.0.0.0.0.0.*.T T T T T T =                                         - T T T X.@.@.@.O.A A A A A A A A A ",
"c c c c c c c c c 7.0.0.0.0.0.0.0.0.( c c c c c c %                                         & c c c ] @.@.@. .h h h h h h h h h ",
"c c c c c c c c c 7.0.0.0.0.0.0.0.0.( c c c c c c %                                         & c c c ] @.@.@. .h h h h h h h h h ",
"c c c c c c c c c 7.0.0.0.0.0.0.0.0.( c c c c c c %                                         & c c c ] @.@.@. .h h h h h h h h h ",
"c c c c c c c c c <.4.4.4.2.,.,.,.,.R c c c c c c %                                         & c c c ] @.@.@. .h h h h h h h h h ",
"c c c c c c c c c o.@.@.@.' c c c c c c c c c c c %                                         & c c c ] @.@.@. .h h h h h h h h h ",
"c c c c c c c c c o.@.@.@.' c c c c % o o o o o o %.:.:.:.:.:.:.r                           & c c c ] @.@.@. .h h h h h h h h h ",
"c c c c c c c c c o.@.@.@.' c c c c o             &.0.0.0.0.0.0.t                           & c c c ] @.@.@. .h h h h h h h h h ",
"c c c c c c c c c o.@.@.@.' c c c c o             &.0.0.0.0.0.0.t                           & c c c ] @.@.@. .h h h h h h h h h ",
"c c c c c c c c c o.@.@.@.' c c c c o             &.0.0.0.0.0.0.t                           & c c c ] @.@.@. .h h h h h h h h h ",
"c c c c c c c c c o.@.@.@.' c c c c o             &.0.0.0.0.0.0.t                           & c c c ] @.@.@. .h h h h h h h h h ",
"c c c c c c c c c o.@.@.@.' c c c c o             &.0.0.0.0.0.0.t                           & c c c ] @.@.@. .h h h h h h h h h ",
"c c c c c c c c c o.@.@.@.' c c c c o             &.0.0.0.0.0.0.t                           & c c c ] @.@.@. .h h h h h h h h h ",
"c c c c c c c c c o.@.: : ; % % % % $.&.&.&.&.&.&.6.0.0.0.0.0.0.t                           & c c c ] @.@.@. .h h h h h h h h h ",
"c c c c c c c c c o.@.              :.0.0.0.0.0.0.0.0.0.0.0.0.0.t                           & c c c ] @.@.@. .h h h h h h h h h ",
"c c c c c c c c c o.@.              :.0.0.0.0.0.0.0.0.0.0.0.0.0.t                           & c c c ] @.@.@. .h h h h h h h h h ",
"c c c c c c c c c o.@.              :.0.0.0.0.0.0.0.0.0.0.0.0.0.t                           & c c c ] @.@.@. .h h h h h h h h h ",
"c c c c c c c c c o.@.              :.0.0.0.0.0.0.0.0.0.0.0.0.0.t                           & c c c ] @.@.@. .h h h h h h h h h ",
"c c c c c c c c c o.@.              :.0.0.0.0.0.0.0.0.0.0.0.0.0.t                           & c c c ] @.@.@. .h h h h h h h h h ",
"c c c c c c c c c o.@.              :.0.0.0.0.0.0.0.0.0.0.0.0.0.t                           & c c c ] @.@.@. .h h h h h h h h h ",
"c c c c c c c c c o.@.              r t t t t t t :.0.0.0.0.0.0.t                           & c c c ] @.@.@. .h h h h h h h h h ",
"c c c c c c c c c o.@.                            &.0.0.0.0.0.0.t                           & c c c ] @.@.@. .h h h h h h h h h ",
"c c c c c c c c c o.@.                            &.0.0.0.0.0.0.t                           & c c c ] @.@.@. .h h h h h h h h h ",
"c c c c c c c c c o.@.                            &.0.0.0.0.0.0.t                           & c c c ] @.@.@. .h h h h h h h h h ",
"c c c c c c c c c o.@.                            &.0.0.0.0.0.0.t                           & c c c ] @.@.@. .h h h h h h h h h ",
"c c c c c c c c c o.@.                            &.0.0.0.0.0.0.t                           & c c c ] @.@.@. .h h h h h h h h h ",
"c c c c U o.o.o.o.@.@.                            &.0.0.0.0.0.0.t                           > o.o.o.+.@.@.@.@. . . . .V h h h h ",
"c c c c Y @.@.@.@.@.@.8 8 8 8 8 8 8 .             &.0.0.0.0.0.0.t                           > @.@.@.@.@.@.@.@.@.@.@.@.Z h h h h ",
"c c c c Y @.@.@.@.@.@.@.@.@.@.@.@.@.+             &.0.0.0.0.0.0.t                           > @.@.@.@.@.@.@.@.@.@.@.@.Z h h h h ",
"c c c c Y @.@.@.@.@.@.@.@.@.@.@.@.@.+             &.0.0.0.0.0.0.t                           > @.@.@.@.@.@.@.@.@.@.@.@.Z h h h h ",
"/ / / / ' @.@.@.@.@.@.@.@.` C C C C O             &.0.0.0.0.0.0.t                           * C C C  .@.@.@.@.@.@.@.@._ ! ! ! ! ",
"@.@.@.@.@.@.@.@.@.@.@.@.@.) h h h h X             &.0.0.0.0.0.0.t                           $ h h h _ @.@.@.@.@.@.@.@.@.@.@.@.@.",
"@.@.@.@.@.@.@.@.@.@.@.@.@.) h h h h X             &.0.0.0.0.0.0.t                           $ h h h _ @.@.@.@.@.@.@.@.@.@.@.@.@.",
"@.@.@.@.@.@.@.@.@.@.@.@.@.) h h h h X             &.0.0.0.0.0.0.t                           $ h h h _ @.@.@.@.@.@.@.@.@.@.@.@.@.",
"@.@.@.@.@.@.@.@.@.~ Q N N M u u u u 3 e e e e e e ;.0.0.0.0.0.0.y e e e e e e 2             # u u u m N N N ^ @.@.@.@.@.@.@.@.@.",
"@.@.@.@.@.@.@.@.@.k h               :.0.0.0.0.0.0.0.0.0.0.0.0.0.0.0.0.0.0.0.0.$.                          X k @.@.@.@.@.@.@.@.@.",
"@.@.@.@.@.@.@.@.@.k h               :.0.0.0.0.0.0.0.0.0.0.0.0.0.0.0.0.0.0.0.0.$.                          X k @.@.@.@.@.@.@.@.@.",
"@.@.@.@.@.@.@.@.@.k h               :.0.0.0.0.0.0.0.0.0.0.0.0.0.0.0.0.0.0.0.0.$.                          X k @.@.@.@.@.@.@.@.@.",
"| | | | | | | | | l j               :.0.0.0.0.0.0.0.0.0.0.0.0.0.0.0.0.0.0.0.0.$.                          X k W W W W W W W W W ",
"h h h h h h h h h x c               :.0.0.0.0.0.0.0.0.0.0.0.0.0.0.0.0.0.0.0.0.$.                          X g w w w w w w w w w ",
"h h h h h h h h h x c               :.0.0.0.0.0.0.0.0.0.0.0.0.0.0.0.0.0.0.0.0.$.                          X g w w w w w w w w w ",
"h h h h h h h h h x c               &.:.:.:.:.:.:.:.:.:.:.:.:.:.:.:.:.:.:.:.:.#.                          X g w w w w w w w w w ",
"h h h h h h h h h x c                                                                                     X g w w w w w w w w w ",
"h h h h h h h h h x c                                                                                     X g w w w w w w w w w ",
"h h h h h h h h h x c                                                                                     X g w w w w w w w w w ",
"h h h h h h h h h x c                                                                                     X g w w w w w w w w w ",
"h h h h h h h h h x c                                                                                     X g w w w w w w w w w ",
"6 6 6 6 i h h h h x c                                                                                     X g w w w w q 1 1 1 1 ",
"@ @ @ @ 5 h h h h x c                                                                                     X g w w w w , @ @ @ @ ",
"@ @ @ @ 5 h h h h x c c c z b b b b b b b b b b b b b b b b b b b b b b b b b b b b b b b b b b b b f h h h g w w w w , @ @ @ @ ",
"@ @ @ @ 5 h h h h x c c c z b b b b b b b b b b b b b b b b b b b b b b b b b b b b b b b b b b b b f h h h g w w w w , @ @ @ @ ",
"7 7 7 7 9 s s s s d B B B n v v v v v v v v v v v v v v v v v v v v v v v v v v v v v v v v v v v v a s s s p w w w w 4 < < < < ",
"L J H H P w w w w w w w w w w w w w w w w w w w w w w w w w w w w w w w w w w w w w w w w w w w w w w w w w w w w w w 0 S S S S ",
"L D S S 0 w w w w w w w w w w w w w w w w w w w w w w w w w w w w w w w w w w w w w w w w w w w w w w w w w w w w w w 0 S S S S ",
"G G F S 0 w w w w w w w w w w w w w w w w w w w w w w w w w w w w w w w w w w w w w w w w w w w w w w w w w w w w w w 0 S S S S ",
"S K K S 0 w w w w w w w w w w w w w w w w w w w w w w w w w w w w w w w w w w w w w w w w w w w w w w w w w w w w w w 0 S S S S "
};
