/* XPM */
static char *result[] = {
/* columns rows colors chars-per-pixel */
"64 64 125 2 ",
"   c #000001",
".  c #101011",
"X  c #1E1611",
"o  c #141B1B",
"O  c #1F1A18",
"+  c #2E2018",
"@  c #1F1F20",
"#  c #202021",
"$  c #2C272F",
"%  c #3C2B20",
"&  c #3D2B20",
"*  c #2C3D21",
"=  c #2F2F30",
"-  c #342B36",
";  c gray19",
":  c #303031",
">  c #383833",
",  c #4E1C14",
"<  c #472213",
"1  c #562916",
"2  c #5B2D24",
"3  c #593927",
"4  c #593A2B",
"5  c #5A3D2C",
"6  c #723327",
"7  c #7C3D2D",
"8  c #7C3C2E",
"9  c #703E30",
"0  c #713E30",
"q  c #3A4322",
"w  c #5B402F",
"e  c #704A2B",
"r  c #687D3F",
"t  c #3F3F40",
"y  c #403240",
"u  c #543C52",
"i  c #404041",
"p  c #5F5F60",
"a  c #606061",
"s  c #9C3827",
"d  c #9D3827",
"f  c #963C2D",
"g  c #A2453F",
"h  c #A6493E",
"j  c #B2473B",
"k  c #A5513A",
"l  c #A4513D",
"z  c #A6573D",
"x  c #BF5E3F",
"c  c #C24D37",
"v  c #C64C36",
"b  c #C14938",
"n  c #D14B34",
"m  c #D24D35",
"M  c #D34F35",
"N  c #C75F33",
"B  c #D5573D",
"V  c #D85B3E",
"C  c #D4653B",
"Z  c #D0663C",
"A  c #DF6438",
"S  c #E26939",
"D  c #E46D3A",
"F  c #864D44",
"G  c #965340",
"H  c #B15C41",
"J  c #976C4F",
"K  c #C06040",
"L  c #DB6A4A",
"P  c #DD6F4F",
"I  c #DD704F",
"U  c #DF7654",
"Y  c #E17C58",
"T  c #74A334",
"R  c #7BA635",
"E  c #8CAD36",
"W  c #90AF37",
"Q  c #9EB539",
"!  c #A2B739",
"~  c #A6B939",
"^  c #ADBC3A",
"/  c #818742",
"(  c #B5815E",
")  c #B5825E",
"_  c #B6825E",
"`  c #A3A74F",
"'  c #E8814F",
"]  c #EA8553",
"[  c #EB8D5B",
"{  c #C7B653",
"}  c #D28F65",
"|  c #DE9F78",
" . c #E58861",
".. c #E58962",
"X. c #E78E65",
"o. c #E78E66",
"O. c #ED9563",
"+. c #E9946A",
"@. c #EA956B",
"#. c #EB9A6F",
"$. c #EE9D6C",
"%. c #EF9D6C",
"&. c #D2AB6B",
"*. c #DAAB6F",
"=. c #E1B06C",
"-. c #E2A275",
";. c #EEA073",
":. c #EEA174",
">. c #EAAF75",
",. c #F1A575",
"<. c #F1A979",
"1. c #F2AD7D",
"2. c #9F9F9F",
"3. c gray75",
"4. c #F1AC85",
"5. c #F5C19D",
"6. c #BFBFC0",
"7. c #F8DBCD",
"8. c #FAE0CE",
"9. c #FBE7DB",
"0. c #FCEBDF",
"q. c #DFDFE0",
"w. c #EFEFEF",
"e. c #FEF5EF",
"r. c white",
/* pixels */
"^ ^ ^ ^ { 1.1.1.1.1.1.1.1.$.D D D D D D D D D D D D D D D D D D D D D D D D D D D D D D D D D D D D %.1.1.1.1.1.1.1.1.` T T T T ",
"^ ^ ^ ^ { 1.1.1.1.1.1.1.1.$.D D D D D D D D D D D D D D D D D D D D D D D D D D D D D D D D D D D D %.1.1.1.1.1.1.1.1.` T T T T ",
"^ ^ ^ ^ { 1.1.1.1.1.1.1.1.$.D D D D D D D D D D D D D D D D D D D D D D D D D D D D D D D D D D D D %.1.1.1.1.1.1.1.1.` T T T T ",
"^ ^ ^ ^ { 1.1.1.1.1.1.1.1.$.D D D D D D D D D D D D D D D D D D D D D D D D D D D D D D D D D D D D %.1.1.1.1.1.1.1.1.` T T T T ",
"=.=.=.=.>.1.1.1.1.8.0.0.0.9.7.7.7.7.4.%.%.%.%.%.%.%.%.%.%.%.%.%.%.%.%.%.%.%.%.%.%.%.%.%.%.%.%.%.%.%.<.1.1.1.1.1.1.1.1.*.&.&.&.&.",
"1.1.1.1.1.1.1.1.1.e.r.r.r.r.r.r.r.r.5.1.1.1.1.1.1.1.1.1.1.1.1.1.1.1.1.1.1.1.1.1.1.1.1.1.1.1.1.1.1.1.1.1.1.1.1.1.1.1.1.1.1.1.1.1.",
"1.1.1.1.1.1.1.1.1.e.r.r.r.r.r.r.r.r.5.1.1.1.1.1.1.1.1.1.1.1.1.1.1.1.1.1.1.1.1.1.1.1.1.1.1.1.1.1.1.1.1.1.1.1.1.1.1.1.1.1.1.1.1.1.",
"1.1.1.1.1.1.1.1.X @ @ @ @ @ @ @ @ @ O X X X X X X X X X X X X X X X X X X X X X X X X X X X X X X X X X X X X X X 1.1.1.1.1.1.1.",
"[ [ [ [ [ [ [ [                                                                                                   Y Y Y Y Y Y Y ",
"D D D D D D D D                                                                                                   n n n n n n n ",
"D D D D D D D D                                                                                                   n n n n n n n ",
"D D D D D D D D                                                                                                   n n n n n n n ",
"D D D D D D D D                                                                                                   n n n n n n n ",
"D D D D D D D D                                                                                                   n n n n n n n ",
"D D D D D D D D             : 6.6.6.6.6.6.6.6.6.6.6.6.6.6.6.6.6.6.6.6.6.6.6.6.6.6.6.6.;                           n n n n n n n ",
"D D D D D D D D             i r.r.r.r.r.r.r.r.r.r.r.r.r.r.r.r.r.r.r.r.r.r.r.r.r.r.r.r.t                           n n n n n n n ",
"D D D D D D D D             i r.r.r.r.r.r.r.r.r.r.r.r.r.r.r.r.r.r.r.r.r.r.r.r.r.r.r.r.t                           n n n n n n n ",
"D D D D D D D D             i r.r.r.r.r.r.r.r.r.r.r.r.r.r.r.r.r.r.r.r.r.r.r.r.r.r.r.r.t                           n n n n n n n ",
"D D D D D D D D             i r.r.r.r.r.r.r.r.r.r.r.r.r.r.r.r.r.r.r.r.r.r.r.r.r.r.r.r.t                           n n n n n n n ",
"D D D D D D D D             i r.r.r.r.r.r.r.r.r.r.r.r.r.r.r.r.r.r.r.r.r.r.r.r.r.r.r.r.t                           n n n n n n n ",
"D D D D D D D D             i r.r.r.r.r.r.r.r.r.r.r.r.r.r.r.r.r.r.r.r.r.r.r.r.r.r.r.r.t                           n n n n n n n ",
"D D D D D D D D             . p p p p p p p p p p p p p p p p p p p p p w.r.r.r.r.r.r.t                           n n n n n n n ",
"D D D D D D D D                                                         q.r.r.r.r.r.r.t                           n n n n n n n ",
"D D D D D D D D                                                         q.r.r.r.r.r.r.t                           n n n n n n n ",
"D D D D D D D D                                                         q.r.r.r.r.r.r.t                           n n n n n n n ",
"D D D D D D D D                                                         q.r.r.r.r.r.r.t                           n n n n n n n ",
"D D D D D D D D                                                         q.r.r.r.r.r.r.t                           n n n n n n n ",
"D D D D D D D D                                                         q.r.r.r.r.r.r.t                           n n n n n n n ",
"D D D D D D D D 1 5 w w w 3 1 1 1 1 1 1 1 <               a a a a a a a 2.2.2.2.2.2.2.=             % w w w 4 , , n n n n n n n ",
"D D D D D D D D D ,.1.1.1.$.D D D D D D D N               r.r.r.r.r.r.r.@                           J 1.1.1.:.n n n n n n n n n ",
"D D D D D D D D D ,.1.1.1.$.D D D D D D D N               r.r.r.r.r.r.r.@                           J 1.1.1.:.n n n n n n n n n ",
"D D D D D D D D D ,.1.1.1.$.D D D D D D D N               r.r.r.r.r.r.r.@                           J 1.1.1.:.n n n n n n n n n ",
"D D D D D D D D D ,.1.1.1.$.D D D D D D D N               r.r.r.r.r.r.r.@                           J 1.1.1.:.n n n n n n n n n ",
"D D D D D D D D D ,.1.1.1.$.D D D D D D D N               r.r.r.r.r.r.r.@                           J 1.1.1.:.n n n n n n n n n ",
"D D D D ' ,.,.,.,.1.1.1.1.1.,.,.,.,.,.,.,.}               r.r.r.r.r.r.r.@                           J 1.1.1.1.:.:.:.:.L n n n n ",
"D D D D ] 1.1.1.1.1.1.1.1.1.-.) ) ) ) ) ) J i i i i i i i 3.3.3.3.3.3.3..             + & & & & & & ) 1.1.1.1.1.1.1.1.I n n n n ",
"D D D D ] 1.1.1.1.1.1.1.1.1.(             # r.r.r.r.r.r.r.                            _ 1.1.1.1.1.1.1.1.1.1.1.1.1.1.1.I n n n n ",
"D D D D ] 1.1.1.1.1.1.1.1.1.(             # r.r.r.r.r.r.r.                            _ 1.1.1.1.1.1.1.1.1.1.1.1.1.1.1.I n n n n ",
"O.O.O.O.$.1.1.1.1.1.1.1.1.#.z             # r.r.r.r.r.r.r.                            k P P P P P P :.1.1.1.1.1.1.1.1.@.........",
"1.1.1.1.1.1.1.1.1.1.1.1.1.+.s             # r.r.r.r.r.r.r.                            d n n n n n n @.1.1.1.1.1.1.1.1.1.1.1.1.1.",
"1.1.1.1.1.1.1.1.1.1.1.1.1.+.s             # r.r.r.r.r.r.r.                            d n n n n n n @.1.1.1.1.1.1.1.1.1.1.1.1.1.",
"1.1.1.1.1.1.1.1.1.1.1.1.1.+.s             # r.r.r.r.r.r.r.                            d n n n n n n @.1.1.1.1.1.1.1.1.1.1.1.1.1.",
"1.1.1.1.1.1.1.1.1.X. . . .Y s             # r.r.r.r.r.r.r.                            d n n n n n n U  . . .o.1.1.1.1.1.1.1.1.1.",
"1.1.1.1.1.1.1.1.1.B n n n n s             # r.r.r.r.r.r.r.                            d n n n n n n n n n n B 1.1.1.1.1.1.1.1.1.",
"1.1.1.1.1.1.1.1.1.B n n n n s             # r.r.r.r.r.r.r.                            d n n n n n n n n n n B 1.1.1.1.1.1.1.1.1.",
"1.1.1.1.1.1.1.1.1.B n n n n s             # r.r.r.r.r.r.r.                            d n n n n n n n n n n B 1.1.1.1.1.1.1.1.1.",
";.;.;.;.;.;.;.;.;.V M M M m s             # r.r.r.r.r.r.r.                            d n n n n n n n n n n B | | | | | | | | | ",
"n n n n n n n n n S D D D A s             # r.r.r.r.r.r.r.                            d n n n n n n n n n n b u u u u u u u u u ",
"n n n n n n n n n S D D D A s             # r.r.r.r.r.r.r.                            d n n n n n n n n n n b u u u u u u u u u ",
"n n n n n n n n n S D D D A s             # r.r.r.r.r.r.r.                            d n n n n n n n n n n b u u u u u u u u u ",
"n n n n n n n n n S D D D A s                                                         d n n n n n n n n n n b u u u u u u u u u ",
"n n n n n n n n n S D D D C 7                                                         8 l l l l l l v n n n b u u u u u u u u u ",
"n n n n n n n n n S D D D Z 9                                                         0 G G G G G G c n n n b u u u u u u u u u ",
"n n n n n n n n n S D D D Z 9                                                         0 G G G G G G c n n n b u u u u u u u u u ",
"n n n n n n n n n S D D D Z 9                                                         0 G G G G G G c n n n b u u u u u u u u u ",
"6 6 6 6 f n n n n S D D D Z 9                                                         0 G G G G G G c n n n b u u u u y - - - - ",
"o o o o 2 n n n n S D D D Z 9                                                         0 G G G G G G c n n n b u u u u $ o o o o ",
"o o o o 2 n n n n S D D D Z G G G G G G G G G G G G G G G G G G G G G G G G G G G G G G G G G G G G c n n n b u u u u $ o o o o ",
"o o o o 2 n n n n S D D D Z G G G G G G G G G G G G G G G G G G G G G G G G G G G G G G G G G G G G c n n n b u u u u $ o o o o ",
"q q q q e j j j j x K K K H F F F F F F F F F F F F F F F F F F F F F F F F F F F F F F F F F F F F h j j j g u u u u > * * * * ",
"^ ! Q Q / u u u u u u u u u u u u u u u u u u u u u u u u u u u u u u u u u u u u u u u u u u u u u u u u u u u u u u r T T T T ",
"^ R T T r u u u u u u u u u u u u u u u u u u u u u u u u u u u u u u u u u u u u u u u u u u u u u u u u u u u u u u r T T T T ",
"W W E T r u u u u u u u u u u u u u u u u u u u u u u u u u u u u u u u u u u u u u u u u u u u u u u u u u u u u u u r T T T T ",
"T ~ ~ T r u u u u u u u u u u u u u u u u u u u u u u u u u u u u u u u u u u u u u u u u u u u u u u u u u u u u u u r T T T T "
};
