/* XPM */
static char *result[] = {
/* columns rows colors chars-per-pixel */
"64 64 122 2 ",
"   c black",
".  c #1A0A07",
"X  c #101010",
"o  c #1E1610",
"O  c #1F1610",
"+  c #141B1B",
"@  c gray12",
"#  c #391B0E",
"$  c #202020",
"%  c #2C272F",
"&  c #2C3D21",
"*  c #342B36",
"=  c #383833",
"-  c #562916",
";  c #5B2D24",
":  c #593C2A",
">  c #5A3D2B",
",  c #723327",
"<  c #7C3D2D",
"1  c #703E30",
"2  c #3A4322",
"3  c #5A402E",
"4  c #5B453B",
"5  c #704A2B",
"6  c #6A4C37",
"7  c #687D3F",
"8  c #403240",
"9  c #543C52",
"0  c gray25",
"q  c #5D5453",
"w  c #5F5F5F",
"e  c #795B4E",
"r  c #606060",
"t  c gray50",
"y  c #822F21",
"u  c #9C3827",
"i  c #9D3827",
"p  c #963C2D",
"a  c #8E4324",
"s  c #AB512B",
"d  c #AB522B",
"f  c #A2453F",
"g  c #A6493E",
"h  c #B2473B",
"j  c #A4513D",
"k  c #BF5E3F",
"l  c #C24D37",
"z  c #C14938",
"x  c #D14B34",
"c  c #D24D35",
"v  c #D34F35",
"b  c #D5573D",
"n  c #D85B3E",
"m  c #D4653B",
"M  c #D0663C",
"N  c #DF6438",
"B  c #E26939",
"V  c #E46D3A",
"C  c #864D44",
"Z  c #965340",
"A  c #B15C41",
"S  c #956649",
"D  c #976C4E",
"F  c #B06944",
"G  c #C06040",
"H  c #DB6A4A",
"J  c #DD704F",
"K  c #E17C58",
"L  c #74A334",
"P  c #7BA635",
"I  c #8CAD36",
"U  c #90AF37",
"Y  c #9EB539",
"T  c #A2B739",
"R  c #A6B939",
"E  c #ADBC3A",
"W  c #818742",
"Q  c #B5815D",
"!  c #B6825E",
"~  c #A3A74F",
"^  c #E8814F",
"/  c #EA8553",
"(  c #EB8D5B",
")  c #E8885F",
"_  c #C7B653",
"`  c #C58D66",
"'  c #DE9F78",
"]  c #E58962",
"[  c #ED9563",
"{  c #EA916B",
"}  c #EA956B",
"|  c #EE9D6C",
" . c #EF9D6C",
".. c #D2AB6B",
"X. c #DAAB6F",
"o. c #E1B06C",
"O. c #EEA073",
"+. c #EEA174",
"@. c #EAAF75",
"#. c #F1A575",
"$. c #F0A778",
"%. c #F1A979",
"&. c #F2AD7D",
"*. c #9F9F9F",
"=. c gray75",
"-. c #F0A984",
";. c #F1AC85",
":. c #F5C19D",
">. c #DFDFDF",
",. c #F8DBCD",
"<. c #F8DACE",
"1. c #F9DDCE",
"2. c #FAE0CE",
"3. c #FBE6DA",
"4. c #FBE7DB",
"5. c #FBEADE",
"6. c #FCEBDF",
"7. c #EFEFEF",
"8. c #FBEDE6",
"9. c #FDF1EB",
"0. c #FEF5EF",
"q. c white",
/* pixels */
"E E E E _ &.&.&.&.&.&.&.&.| V V V V V V V V V V V V V V V V V V V V V V V V V V V V V V V V V V V V  .&.&.&.&.&.&.&.&.~ L L L L ",
"E E E E _ &.&.&.&.&.&.&.&.| V V V V V V V V V V V V V V V V V V V V V V V V V V V V V V V V V V V V  .&.&.&.&.&.&.&.&.~ L L L L ",
"E E E E _ &.&.&.&.&.&.&.&.| V V V V V V V V V V V V V V V V V V V V V V V V V V V V V V V V V V V V  .&.&.&.&.&.&.&.&.~ L L L L ",
"E E E E _ &.&.&.&.&.&.&.&.| V V V V V V V V V V V V V V V V V V V V V V V V V V V V V V V V V V V V  .&.&.&.&.&.&.&.&.~ L L L L ",
"o.o.o.o.@.&.&.&.&.2.6.6.6.4.,.,.,.,.;. . . . . . . . . . . . . . . . . . . . . . . . . . . . . . . .%.&.&.&.&.&.&.&.&.X.........",
"&.&.&.&.&.&.&.&.&.0.q.q.q.q.q.q.q.q.:.&.&.&.&.&.&.&.&.&.&.&.&.&.&.&.&.&.&.&.&.&.&.&.&.&.&.&.&.&.&.&.&.&.&.&.&.&.&.&.&.&.&.&.&.&.",
"&.&.&.&.&.&.&.&.&.0.q.q.q.q.q.q.q.q.:.&.&.&.&.&.&.&.&.&.&.&.&.&.&.&.&.&.&.&.&.&.&.&.&.&.&.&.&.&.&.&.&.&.&.&.&.&.&.&.&.&.&.&.&.&.",
"&.&.&.&.&.&.&.&.&.0.q.q.q.q.q.q.q.q.:.&.&.Q o o o o o o o o o o o o o o o o o o o o o o o o o o o o ` &.&.&.&.&.&.&.&.&.&.&.&.&.",
"( ( ( ( ( ( ( ( ( 9.q.q.q.q.q.q.q.q.-.( ( F                                                         ! &.&.&.$.K K K K K K K K K ",
"V V V V V V V V V 8.q.q.q.q.q.q.q.q.{ V V s                                                         ! &.&.&.+.x x x x x x x x x ",
"V V V V V V V V V 8.q.q.q.q.q.q.q.q.{ V V s                                                         ! &.&.&.+.x x x x x x x x x ",
"V V V V V V V V V 8.q.q.q.q.q.q.q.q.{ V V s                                                         ! &.&.&.+.x x x x x x x x x ",
"V V V V V V V V V 1.5.5.5.3.<.<.<.<.) V V s                                                         ! &.&.&.+.x x x x x x x x x ",
"V V V V V V V V V #.&.&.&.| V V V V V V V s                                                         ! &.&.&.+.x x x x x x x x x ",
"V V V V V V V V V #.&.&.&.| d # # # # # # 4 =.=.=.=.=.=.=.=.=.=.=.=.=.=.                            ! &.&.&.+.x x x x x x x x x ",
"V V V V V V V V V #.&.&.&.| a             0 q.q.q.q.q.q.q.q.q.q.q.q.q.q.                            ! &.&.&.+.x x x x x x x x x ",
"V V V V V V V V V #.&.&.&.| a             0 q.q.q.q.q.q.q.q.q.q.q.q.q.q.                            ! &.&.&.+.x x x x x x x x x ",
"V V V V V V V V V #.&.&.&.| a             0 q.q.q.q.q.q.q.q.q.q.q.q.q.q.                            ! &.&.&.+.x x x x x x x x x ",
"V V V V V V V V V #.&.&.&.| a             0 q.q.q.q.q.q.q.q.q.q.q.q.q.q.                            ! &.&.&.+.x x x x x x x x x ",
"V V V V V V V V V #.&.&.&.| a             0 q.q.q.q.q.q.q.q.q.q.q.q.q.q.                            ! &.&.&.+.x x x x x x x x x ",
"V V V V V V V V V #.&.&.&.| a             0 q.q.q.q.q.q.q.q.q.q.q.q.q.q.                            ! &.&.&.+.x x x x x x x x x ",
"V V V V V V V V - > 3 3 3 : e *.*.*.*.*.*.t w w w w w w w w w w w w w w                             ! &.&.&.+.x x x x x x x x x ",
"V V V V V V V V             r q.q.q.q.q.q.=.                                                        ! &.&.&.+.x x x x x x x x x ",
"V V V V V V V V             r q.q.q.q.q.q.=.                                                        ! &.&.&.+.x x x x x x x x x ",
"V V V V V V V V             r q.q.q.q.q.q.=.                                                        ! &.&.&.+.x x x x x x x x x ",
"V V V V V V V V             r q.q.q.q.q.q.=.                                                        ! &.&.&.+.x x x x x x x x x ",
"V V V V V V V V             r q.q.q.q.q.q.=.                                                        ! &.&.&.+.x x x x x x x x x ",
"V V V V V V V V             r q.q.q.q.q.q.=.                                                        ! &.&.&.+.x x x x x x x x x ",
"V V V V V V V V             r q.q.q.q.q.q.>.r r r r r r r r r r r r r r                             6 D D D S y y x x x x x x x ",
"V V V V V V V V             r q.q.q.q.q.q.q.q.q.q.q.q.q.q.q.q.q.q.q.q.q.                                          x x x x x x x ",
"V V V V V V V V             r q.q.q.q.q.q.q.q.q.q.q.q.q.q.q.q.q.q.q.q.q.                                          x x x x x x x ",
"V V V V V V V V             r q.q.q.q.q.q.q.q.q.q.q.q.q.q.q.q.q.q.q.q.q.                                          x x x x x x x ",
"V V V V V V V V             r q.q.q.q.q.q.q.q.q.q.q.q.q.q.q.q.q.q.q.q.q.                                          x x x x x x x ",
"V V V V V V V V             r q.q.q.q.q.q.q.q.q.q.q.q.q.q.q.q.q.q.q.q.q.                                          x x x x x x x ",
"V V V V ^ #.#.#.            r q.q.q.q.q.q.q.q.q.q.q.q.q.q.q.q.q.q.q.q.q.                                          +.+.H x x x x ",
"V V V V / &.&.&.            r q.q.q.q.q.q.7.=.=.=.=.=.=.=.=.=.=.=.=.=.=.0 0 0 0 0 0 0 X                           &.&.J x x x x ",
"V V V V / &.&.&.            r q.q.q.q.q.q.=.                            q.q.q.q.q.q.q.@                           &.&.J x x x x ",
"V V V V / &.&.&.            r q.q.q.q.q.q.=.                            q.q.q.q.q.q.q.@                           &.&.J x x x x ",
"[ [ [ [ | &.&.&.            r q.q.q.q.q.q.=.                            q.q.q.q.q.q.q.@                           &.&.} ] ] ] ] ",
"&.&.&.&.&.&.&.&.            r q.q.q.q.q.q.=.                            q.q.q.q.q.q.q.@                           &.&.&.&.&.&.&.",
"&.&.&.&.&.&.&.&.            r q.q.q.q.q.q.=.                            q.q.q.q.q.q.q.@                           &.&.&.&.&.&.&.",
"&.&.&.&.&.&.&.&.            r q.q.q.q.q.q.=.                            q.q.q.q.q.q.q.@                           &.&.&.&.&.&.&.",
"&.&.&.&.&.&.&.&.O . . . . . q >.>.>.>.>.>.=.$ $ $ $ $ $ $ $ $ $ $ $ $ $ >.>.>.>.>.>.>.@                           &.&.&.&.&.&.&.",
"&.&.&.&.&.&.&.&.&.b x x x x y             0 q.q.q.q.q.q.q.q.q.q.q.q.q.q.                                          &.&.&.&.&.&.&.",
"&.&.&.&.&.&.&.&.&.b x x x x y             0 q.q.q.q.q.q.q.q.q.q.q.q.q.q.                                          &.&.&.&.&.&.&.",
"&.&.&.&.&.&.&.&.&.b x x x x y             0 q.q.q.q.q.q.q.q.q.q.q.q.q.q.                                          &.&.&.&.&.&.&.",
"O.O.O.O.O.O.O.O.O.n v v v c y             0 q.q.q.q.q.q.q.q.q.q.q.q.q.q.                                          ' ' ' ' ' ' ' ",
"x x x x x x x x x B V V V N y             0 q.q.q.q.q.q.q.q.q.q.q.q.q.q.                                          9 9 9 9 9 9 9 ",
"x x x x x x x x x B V V V N y             0 q.q.q.q.q.q.q.q.q.q.q.q.q.q.                                          9 9 9 9 9 9 9 ",
"x x x x x x x x x B V V V N y             0 q.q.q.q.q.q.q.q.q.q.q.q.q.q.                                          9 9 9 9 9 9 9 ",
"x x x x x x x x x B V V V N x x x x x x x u                                                         i x x x z 9 9 9 9 9 9 9 9 9 ",
"x x x x x x x x x B V V V m j j j j j j j <                                                         i x x x z 9 9 9 9 9 9 9 9 9 ",
"x x x x x x x x x B V V V M Z Z Z Z Z Z Z 1                                                         i x x x z 9 9 9 9 9 9 9 9 9 ",
"x x x x x x x x x B V V V M Z Z Z Z Z Z Z 1                                                         i x x x z 9 9 9 9 9 9 9 9 9 ",
"x x x x x x x x x B V V V M Z Z Z Z Z Z Z 1                                                         i x x x z 9 9 9 9 9 9 9 9 9 ",
", , , , p x x x x B V V V M Z Z Z Z Z Z Z 1                                                         i x x x z 9 9 9 9 8 * * * * ",
"+ + + + ; x x x x B V V V M Z Z Z Z Z Z Z 1                                                         i x x x z 9 9 9 9 % + + + + ",
"+ + + + ; x x x x B V V V M Z Z Z Z Z Z Z Z Z Z Z Z Z Z Z Z Z Z Z Z Z Z Z Z Z Z Z Z Z Z Z Z Z Z Z Z l x x x z 9 9 9 9 % + + + + ",
"+ + + + ; x x x x B V V V M Z Z Z Z Z Z Z Z Z Z Z Z Z Z Z Z Z Z Z Z Z Z Z Z Z Z Z Z Z Z Z Z Z Z Z Z l x x x z 9 9 9 9 % + + + + ",
"2 2 2 2 5 h h h h k G G G A C C C C C C C C C C C C C C C C C C C C C C C C C C C C C C C C C C C C g h h h f 9 9 9 9 = & & & & ",
"E T Y Y W 9 9 9 9 9 9 9 9 9 9 9 9 9 9 9 9 9 9 9 9 9 9 9 9 9 9 9 9 9 9 9 9 9 9 9 9 9 9 9 9 9 9 9 9 9 9 9 9 9 9 9 9 9 9 7 L L L L ",
"E P L L 7 9 9 9 9 9 9 9 9 9 9 9 9 9 9 9 9 9 9 9 9 9 9 9 9 9 9 9 9 9 9 9 9 9 9 9 9 9 9 9 9 9 9 9 9 9 9 9 9 9 9 9 9 9 9 7 L L L L ",
"U U I L 7 9 9 9 9 9 9 9 9 9 9 9 9 9 9 9 9 9 9 9 9 9 9 9 9 9 9 9 9 9 9 9 9 9 9 9 9 9 9 9 9 9 9 9 9 9 9 9 9 9 9 9 9 9 9 7 L L L L ",
"L R R L 7 9 9 9 9 9 9 9 9 9 9 9 9 9 9 9 9 9 9 9 9 9 9 9 9 9 9 9 9 9 9 9 9 9 9 9 9 9 9 9 9 9 9 9 9 9 9 9 9 9 9 9 9 9 9 7 L L L L "
};
