/* XPM */
static char *result[] = {
/* columns rows colors chars-per-pixel */
"64 64 194 2 ",
"   c #000001",
".  c #0A0505",
"X  c #0D0404",
"o  c #0E0705",
"O  c #1A0907",
"+  c #130A09",
"@  c #130B09",
"#  c #1A0A08",
"$  c #1B0B08",
"%  c #1C0D08",
"&  c #1D0E08",
"*  c #101011",
"=  c #1E1510",
"-  c #1E1611",
";  c #141B1B",
":  c #270F0B",
">  c #34130E",
",  c #391B0F",
"<  c #2F1A15",
"1  c #381F18",
"2  c #381F19",
"3  c #2D2119",
"4  c #202020",
"5  c #202021",
"6  c #2C272F",
"7  c #3D2B20",
"8  c #2C3D21",
"9  c #342B36",
"0  c gray19",
"q  c #383833",
"w  c #411711",
"e  c #4E1C14",
"r  c #472213",
"t  c #41251D",
"y  c #47291E",
"u  c #552816",
"i  c #562916",
"p  c #68251A",
"a  c #69261B",
"s  c #642F19",
"d  c #643019",
"f  c #64301A",
"g  c #72361D",
"h  c #72371E",
"j  c #4A2A21",
"k  c #542F25",
"l  c #5B2D24",
"z  c #582F24",
"x  c #4B3628",
"c  c #723327",
"v  c #703E30",
"b  c #3A4322",
"n  c #704A2B",
"m  c #694B37",
"M  c #7A4334",
"N  c #78563F",
"B  c #78573F",
"V  c #79573F",
"C  c #687D3F",
"Z  c #3F3F40",
"A  c #403240",
"S  c #543C52",
"D  c #404041",
"F  c #505050",
"G  c #5F5F60",
"H  c #606060",
"J  c #6F6F6F",
"K  c gray44",
"L  c gray50",
"P  c #803D21",
"I  c #803E22",
"U  c #903324",
"Y  c #9D3827",
"T  c #963C2D",
"R  c #AA3D2B",
"E  c #8E4424",
"W  c #9D4B28",
"Q  c #834838",
"!  c #834938",
"~  c #8C4E3C",
"^  c #964632",
"/  c #85553A",
"(  c #B7412D",
")  c #B7422E",
"_  c #AB512B",
"`  c #A24631",
"'  c #A2453F",
"]  c #A6493E",
"[  c #B2473B",
"{  c #A4513D",
"}  c #B95930",
"|  c #B95B34",
" . c #BF5E3F",
".. c #C24D37",
"X. c #C64C36",
"o. c #C14938",
"O. c #D14B34",
"+. c #C55C32",
"@. c #C75F33",
"#. c #D5573D",
"$. c #C86033",
"%. c #D66636",
"&. c #D0663C",
"*. c #E26939",
"=. c #E46D3A",
"-. c #864D44",
";. c #965340",
":. c #B15C41",
">. c #876146",
",. c #96684B",
"<. c #976C4E",
"1. c #BE7A58",
"2. c #C06040",
"3. c #C36648",
"4. c #DB6A4A",
"5. c #DD6F4F",
"6. c #DD704F",
"7. c #DF7654",
"8. c #E17C58",
"9. c #74A334",
"0. c #7BA635",
"q. c #8CAD36",
"w. c #90AF37",
"e. c #9EB539",
"r. c #A2B739",
"t. c #A6B939",
"y. c #ADBC3A",
"u. c #818742",
"i. c #B6825E",
"p. c #A3A74F",
"a. c #CF8054",
"s. c #C2855D",
"d. c #E8814F",
"f. c #EA8553",
"g. c #EB8D5B",
"h. c #E8885F",
"j. c #C7B653",
"k. c #C48D66",
"l. c #CF8B64",
"z. c #D18B61",
"x. c #D08C65",
"c. c #D18F65",
"v. c #D3976D",
"b. c #D4986E",
"n. c #DE9F78",
"m. c #E58861",
"M. c #E58962",
"N. c #E78E65",
"B. c #E78E66",
"V. c #ED9563",
"C. c #EA916B",
"Z. c #E9946A",
"A. c #EA956B",
"S. c #EB9A6F",
"D. c #EE9D6C",
"F. c #EF9D6C",
"G. c #D2AB6B",
"H. c #DAAB6F",
"J. c #E1B06C",
"K. c #E2A275",
"L. c #EEA073",
"P. c #EEA174",
"I. c #EAAF75",
"U. c #F0A575",
"Y. c #F1A575",
"T. c #F0A778",
"R. c #F1A979",
"E. c #F2AD7D",
"W. c #808080",
"Q. c gray56",
"!. c #8F8F90",
"~. c #909090",
"^. c #9F9F9F",
"/. c #9F9FA0",
"(. c #AFAFAF",
"). c gray75",
"_. c #F0A984",
"`. c #F1AC85",
"'. c #F5C19D",
"]. c gray81",
"[. c #DFDFDF",
"{. c #F8DBCD",
"}. c #F8DACE",
"|. c #F9DDCE",
" X c #FAE0CE",
".X c #FBE6DA",
"XX c #FBE7DB",
"oX c #FBEADE",
"OX c #FCEBDF",
"+X c #EFEFEF",
"@X c #FBEDE6",
"#X c #FDF1EB",
"$X c #FEF5EF",
"%X c white",
/* pixels */
"y.y.y.y.j.E.E.E.E.E.E.E.E.D.=.=.=.=.=.=.=.=.=.=.=.=.=.=.=.=.=.=.=.=.=.=.=.=.=.=.=.=.=.=.=.=.=.=.=.=.F.E.E.E.E.E.E.E.E.p.9.9.9.9.",
"y.y.y.y.j.E.E.E.E.E.E.E.E.D.=.=.=.=.=.=.=.=.=.=.=.=.=.=.=.=.=.=.=.=.=.=.=.=.=.=.=.=.=.=.=.=.=.=.=.=.F.E.E.E.E.E.E.E.E.p.9.9.9.9.",
"y.y.y.y.j.E.E.E.E.E.E.E.E.D.=.=.=.=.=.=.=.=.=.=.=.=.=.=.=.=.=.=.=.=.=.=.=.=.=.=.=.=.=.=.=.=.=.=.=.=.F.E.E.E.E.E.E.E.E.p.9.9.9.9.",
"y.y.y.y.j.E.E.E.E.E.E.E.E.D.=.=.=.=.=.=.=.=.=.=.=.=.=.=.=.=.=.=.=.=.=.=.=.=.=.=.=.=.=.=.=.=.=.=.=.=.F.E.E.E.E.E.E.E.E.p.9.9.9.9.",
"J.J.J.J.I.E.E.E.E. XOXOXOXXX{.{.{.{.`.F.F.F.F.F.F.F.F.F.F.F.F.F.F.F.F.F.F.F.F.F.F.F.F.F.F.F.F.F.F.F.R.E.E.E.E.E.E.E.E.H.G.G.G.G.",
"E.E.E.E.E.E.E.E.E.$X%X%X%X%X%X%X%X%X'.E.E.E.E.E.E.E.E.E.E.E.E.E.E.E.E.E.E.E.E.E.v.3 v.E.E.E.E.E.E.E.E.E.E.E.E.E.E.E.E.E.E.E.E.E.",
"E.E.E.E.E.E.E.E.E.$X%X%X%X%X%X%X%X%X'.E.E.E.E.E.E.E.E.E.E.E.E.E.E.E.E.E.E.E.E.E.=   = <.E.E.E.E.E.E.E.E.E.E.E.E.E.E.E.E.E.E.E.E.",
"E.E.E.E.E.E.E.E.E.$X%X%X%X%X%X%X%X%X'.E.E.E.E.E.E.E.E.E.E.E.E.E.E.E.E.E.E.E.E.m         B E.E.E.E.E.E.E.E.E.E.E.E.E.E.E.E.E.E.E.",
"g.g.g.g.g.g.g.g.g.#X%X%X%X%X%X%X%X%X_.g.g.g.g.g.g.g.g.g.g.g.g.g.g.g.g.g.g.g./             3 a.g.g.g.U.E.E.E.T.8.8.8.8.8.8.8.8.8.",
"=.=.=.=.=.=.=.=.=.@X%X%X%X%X%X%X%X%XC.=.=.=.=.=.=.=.=.=.=.=.=.=.=.=.=.=.=.@.o               & W =.=.F.E.E.E.P.O.O.O.O.O.O.O.O.O.",
"=.=.=.=.=.=.=.=.=.@X%X%X%X%X%X%X%X%XC.=.=.=.=.=.=.=.=.=.=.=.=.=.=.=.=.=.%.%                     g =.F.E.E.E.P.O.O.O.O.O.O.O.O.O.",
"=.=.=.=.=.=.=.=.=.@X%X%X%X%X%X%X%X%XC.=.=.=.=.=.=.=.=.=.=.=.=.=.=.=.=.=.s                         , z.E.E.E.P.O.O.O.O.O.O.O.O.O.",
"=.=.=.=.=.=.=.=.=.|.oXoXoX.X}.}.}.}.h.=.=.=.=.=.=.=.=.=.=.=.=.=.=.=.=.P                             = k.E.E.P.O.O.O.O.O.O.O.O.O.",
"=.=.=.=.=.=.=.=.=.Y.E.E.E.D.=.=.=.=.=.=.=.=.=.=.=.=.=.=.=.=.=.=.=.=.@.                                  B E.P.O.O.O.O.O.O.O.O.O.",
"=.=.=.=.=.=.=.=.=.Y.E.E.E.D.=.=.=.=.=.=.=.=.=.=.=.=.=.=.=.=.=.=.=.@.%           5 W.                      x l.O.O.O.O.O.O.O.O.O.",
"=.=.=.=.=.=.=.=.=.Y.E.E.E.D.=.=.=.=.=.=.=.=.=.=.=.=.=.=.=.=.=.=.=.u           5 [.%X^.*                     y O.O.O.O.O.O.O.O.O.",
"=.=.=.=.=.=.=.=.=.Y.E.E.E.D.=.=.=.=.=.=.=.=.=.=.=.=.=.=.=.=.=.=.g             /.%X%X%X[.4                 - x.O.O.O.O.O.O.O.O.O.",
"=.=.=.=.=.=.=.=.=.Y.E.E.E.D.=.=.=.=.=.=.=.=.=.=.=.=.=.=.=.=.=.}             W.%X%X%X%X%X%XK               i.P.O.O.O.O.O.O.O.O.O.",
"=.=.=.=.=.=.=.=.=.Y.E.E.E.D.=.=.=.=.=.=.=.=.=.=.=.=.=.=.=.=.@.%           0 %X%X%X%X%X%X%XL             V E.P.O.O.O.O.O.O.O.O.O.",
"=.=.=.=.=.=.=.=.=.Y.E.E.E.D.=.=.=.=.=.=.=.=.=.=.=.=.=.=.=.=.r           5 [.%X%X%X%X%X%X^.            7 E.E.P.O.O.O.O.O.O.O.O.O.",
"=.=.=.=.=.=.=.=.=.Y.E.E.E.D.=.=.=.=.=.=.=.=.=.=.=.=.=.=.=.g             (.%X%X%X%X%X%X[.4           - b.E.E.P.O.O.O.O.O.O.O.O.O.",
"=.=.=.=.=.=.=.=.=.Y.E.E.E.D.=.=.=.=.=.=.=.=.=.=.=.=.=.=._             W.%X%X%X%X%X%X%X4             s.E.E.E.P.O.O.O.O.O.O.O.O.O.",
"=.=.=.=.=.=.=.=.=.Y.E.E.E.D.=.=.=.=.=.=.=.=.=.=.=.=.=.@.%           D %X%X%X%X%X%X%XJ             h F.E.E.E.P.O.O.O.O.O.O.O.O.O.",
"=.=.=.=.=.=.=.=.=.Y.E.E.E.D.=.=.=.=.=.=.=.=.=.=.=.=.=.,           5 [.%X%X%X%X%X%X^.            i =.F.E.E.E.P.O.O.O.O.O.O.O.O.O.",
"=.=.=.=.=.=.=.=.=.Y.E.E.E.D.=.=.=.=.=.=.=.=.=.=.=.=.g             ].%X%X%X%X%X%X[.*           & $.=.F.E.E.E.P.O.O.O.O.O.O.O.O.O.",
"=.=.=.=.=.=.=.=.=.Y.E.E.E.D.=.=.=.=.=.=.=.=.=.=.=.W             W.%X%X%X%X%X%X+X4             $.=.=.F.E.E.E.P.O.O.O.O.O.O.O.O.O.",
"=.=.=.=.=.=.=.=.=.Y.E.E.E.D.=.=.=.=.=.=.=.=.=.=.@.%           F %X%X%X%X%X%X%XJ             I =.=.=.F.E.E.E.P.O.O.O.O.O.O.O.O.O.",
"=.=.=.=.=.=.=.=.=.Y.E.E.E.D.=.=.=.=.=.=.=.=.=.=.%           5 [.%X%X%X%X%X%XQ.            i =.=.=.=.F.E.E.E.P.O.O.O.O.O.O.O.O.O.",
"=.=.=.=.=.=.=.=.=.Y.E.E.E.D.=.=.=.=.=.=.=.=.=.g             [.%X%X%X%X%X%X[.*           & %.=.=.=.=.F.E.E.E.P.O.O.O.O.O.O.O.O.O.",
"=.=.=.=.=.=.=.=.=.Y.E.E.E.D.=.=.=.=.=.=.=.=.E             W.%X%X%X%X%X%X+X4           o $.=.=.=.=.=.F.E.E.E.P.O.O.O.O.O.O.O.O.O.",
"=.=.=.=.=.=.=.=.=.Y.E.E.E.D.=.=.=.=.=.=.=.@.o           H %X%X%X%X%X%X%XG             I =.=.=.=.=.=.F.E.E.E.P.O.O.O.O.O.O.O.O.O.",
"=.=.=.=.=.=.=.=.=.Y.E.E.E.D.=.=.=.=.=.=.=.%           5 +X%X%X%X%X%X%XL             f =.=.=.=.=.=.=.F.E.E.E.P.O.O.O.O.O.O.O.O.O.",
"=.=.=.=.=.=.=.=.=.Y.E.E.E.D.=.=.=.=.=.=.s             [.%X%X%X%X%X%X[.            & %.=.=.=.=.=.=.=.F.E.E.E.P.O.O.O.O.O.O.O.O.O.",
"=.=.=.=.=.=.=.=.=.Y.E.E.E.D.=.=.=.=.=.P             ~.%X%X%X%X%X%X[.4           o $.=.=.=.=.=.=.=.=.F.E.E.E.P.O.O.O.O.O.O.O.O.O.",
"=.=.=.=.d.Y.Y.Y.Y.E.E.E.E.E.Y.Y.Y.Y.c.o           K %X%X%X%X%X%X%XF             ,.Y.Y.Y.Y.Y.Y.Y.Y.Y.R.E.E.E.E.P.P.P.P.4.O.O.O.O.",
"=.=.=.=.f.E.E.E.E.E.E.E.E.E.E.E.E.K.=           5 +X%X%X%X%X%X%XL             V E.E.E.E.E.E.E.E.E.E.E.E.E.E.E.E.E.E.E.6.O.O.O.O.",
"=.=.=.=.f.E.E.E.E.E.E.E.E.E.E.E.E.m           * [.%X%X%X%X%X%X].            - E.E.E.E.E.E.E.E.E.E.E.E.E.E.E.E.E.E.E.E.6.O.O.O.O.",
"=.=.=.=.f.E.E.E.E.E.E.E.E.E.E.E.>.            ~.%X%X%X%X%X%X[.4           - b.E.E.E.E.E.E.E.E.E.E.E.E.E.E.E.E.E.E.E.E.6.O.O.O.O.",
"V.V.V.V.D.E.E.E.E.E.E.E.E.S.5.3.            K %X%X%X%X%X%X%XZ             ^ 5.5.5.5.5.5.5.5.5.5.5.5.P.E.E.E.E.E.E.E.E.A.M.M.M.M.",
"E.E.E.E.E.E.E.E.E.E.E.E.E.Z.( O           5 %X%X%X%X%X%X%XL             a O.O.O.O.O.O.O.O.O.O.O.O.O.A.E.E.E.E.E.E.E.E.E.E.E.E.E.",
"E.E.E.E.E.E.E.E.E.E.E.E.E.Z.e           5 [.%X%X%X%X%X%X).            : O.O.O.O.O.O.O.O.O.O.O.O.O.O.A.E.E.E.E.E.E.E.E.E.E.E.E.E.",
"E.E.E.E.E.E.E.E.E.E.E.E.E.N             /.%X%X%X%X%X%X[.4           # ) O.O.O.O.O.O.O.O.O.O.O.O.O.O.A.E.E.E.E.E.E.E.E.E.E.E.E.E.",
"E.E.E.E.E.E.E.E.E.N.m.m.1.            W.%X%X%X%X%X%X%X0             Y O.O.O.O.O.O.O.O.O.O.O.O.O.O.O.7.m.m.m.B.E.E.E.E.E.E.E.E.E.",
"E.E.E.E.E.E.E.E.E.#.O.( O           0 %X%X%X%X%X%X%XL             a O.O.O.O.O.O.O.O.O.O.O.O.O.O.O.O.O.O.O.O.#.E.E.E.E.E.E.E.E.E.",
"E.E.E.E.E.E.E.E.E.#.O.w           5 [.%X%X%X%X%X%X^.            > O.O.O.O.O.O.O.O.O.O.O.O.O.O.O.O.O.O.O.O.O.#.E.E.E.E.E.E.E.E.E.",
"E.E.E.E.E.E.E.E.E.#.p             !.%X%X%X%X%X%X[.4           # ) O.O.O.O.O.O.O.O.O.O.O.O.O.O.O.O.O.O.O.O.O.#.E.E.E.E.E.E.E.E.E.",
"L.L.L.L.L.L.L.L.L.`               * Q.%X%X%X%X%X4             R O.O.O.O.O.O.O.O.O.O.O.O.O.O.O.O.O.O.O.O.O.O.#.n.n.n.n.n.n.n.n.n.",
"O.O.O.O.O.O.O.O.( $                   K +X%X%XJ             a O.O.O.O.O.O.O.O.O.O.O.O.O.O.O.O.O.O.O.O.O.O.O.o.S S S S S S S S S ",
"O.O.O.O.O.O.O.O.U X                     5 [.^.            e O.O.O.O.O.O.O.O.O.O.O.O.O.O.O.O.O.O.O.O.O.O.O.O.o.S S S S S S S S S ",
"O.O.O.O.O.O.O.O.O.+.%                     * *           # ) O.O.O.O.O.O.O.O.O.O.O.O.O.O.O.O.O.O.O.O.O.O.O.O.o.S S S S S S S S S ",
"O.O.O.O.O.O.O.O.O.*.%.d                                 ) O.O.O.O.O.O.O.O.O.O.O.O.O.O.O.O.O.O.O.O.O.O.O.O.O.o.S S S S S S S S S ",
"O.O.O.O.O.O.O.O.O.*.=.=.P                             z { { { { { { { { { { { { { { { { { { { { { { X.O.O.O.o.S S S S S S S S S ",
"O.O.O.O.O.O.O.O.O.*.=.=.=.| +                       2 ;.;.;.;.;.;.;.;.;.;.;.;.;.;.;.;.;.;.;.;.;.;.;...O.O.O.o.S S S S S S S S S ",
"O.O.O.O.O.O.O.O.O.*.=.=.=.&.Q 1                   @ ~ ;.;.;.;.;.;.;.;.;.;.;.;.;.;.;.;.;.;.;.;.;.;.;...O.O.O.o.S S S S S S S S S ",
"O.O.O.O.O.O.O.O.O.*.=.=.=.&.;.;.j               . ! ;.;.;.;.;.;.;.;.;.;.;.;.;.;.;.;.;.;.;.;.;.;.;.;...O.O.O.o.S S S S S S S S S ",
"c c c c T O.O.O.O.*.=.=.=.&.;.;.;.M +           k ;.;.;.;.;.;.;.;.;.;.;.;.;.;.;.;.;.;.;.;.;.;.;.;.;...O.O.O.o.S S S S A 9 9 9 9 ",
"; ; ; ; l O.O.O.O.*.=.=.=.&.;.;.;.;.Q <       t ;.;.;.;.;.;.;.;.;.;.;.;.;.;.;.;.;.;.;.;.;.;.;.;.;.;...O.O.O.o.S S S S 6 ; ; ; ; ",
"; ; ; ; l O.O.O.O.*.=.=.=.&.;.;.;.;.;.;.j   @ ~ ;.;.;.;.;.;.;.;.;.;.;.;.;.;.;.;.;.;.;.;.;.;.;.;.;.;...O.O.O.o.S S S S 6 ; ; ; ; ",
"; ; ; ; l O.O.O.O.*.=.=.=.&.;.;.;.;.;.;.;.v ! ;.;.;.;.;.;.;.;.;.;.;.;.;.;.;.;.;.;.;.;.;.;.;.;.;.;.;...O.O.O.o.S S S S 6 ; ; ; ; ",
"b b b b n [ [ [ [  .2.2.2.:.-.-.-.-.-.-.-.-.-.-.-.-.-.-.-.-.-.-.-.-.-.-.-.-.-.-.-.-.-.-.-.-.-.-.-.-.] [ [ [ ' S S S S q 8 8 8 8 ",
"y.r.e.e.u.S S S S S S S S S S S S S S S S S S S S S S S S S S S S S S S S S S S S S S S S S S S S S S S S S S S S S S C 9.9.9.9.",
"y.0.9.9.C S S S S S S S S S S S S S S S S S S S S S S S S S S S S S S S S S S S S S S S S S S S S S S S S S S S S S S C 9.9.9.9.",
"w.w.q.9.C S S S S S S S S S S S S S S S S S S S S S S S S S S S S S S S S S S S S S S S S S S S S S S S S S S S S S S C 9.9.9.9.",
"9.t.t.9.C S S S S S S S S S S S S S S S S S S S S S S S S S S S S S S S S S S S S S S S S S S S S S S S S S S S S S S C 9.9.9.9."
};
