/* XPM */
static char *result[] = {
/* columns rows colors chars-per-pixel */
"64 64 131 2 ",
"   c black",
".  c #0A070A",
"X  c #1A0907",
"o  c #1A0A07",
"O  c #1C0D07",
"+  c #1D110B",
"@  c #1E1610",
"#  c #141B1B",
"$  c #34120D",
"%  c #34130D",
"&  c #391B0E",
"*  c #361911",
"=  c #3C1E17",
"-  c #381F18",
";  c #3B271B",
":  c #3C2B1F",
">  c #3D2B1F",
",  c #202020",
"<  c #2C272F",
"1  c #2C3D21",
"2  c #342B36",
"3  c #383833",
"4  c #3F3F3F",
"5  c #4E1C13",
"6  c #472212",
"7  c #552816",
"8  c #5B2D24",
"9  c #583422",
"0  c #723327",
"q  c #3A4322",
"w  c #5B402E",
"e  c #704A2B",
"r  c #687D3F",
"t  c #403240",
"y  c #543C52",
"u  c gray25",
"i  c gray31",
"p  c #5C4D47",
"a  c #505050",
"s  c #5F5F5F",
"d  c #606060",
"f  c #7D7067",
"g  c gray50",
"h  c #822F21",
"j  c #963C2D",
"k  c #8E4424",
"l  c #A2453F",
"z  c #A6493E",
"x  c #B2473B",
"c  c #A4513D",
"v  c #BF5E3F",
"b  c #C24D37",
"n  c #C64C36",
"m  c #C14938",
"M  c #D14B34",
"N  c #D24D35",
"B  c #D34F35",
"V  c #D5573D",
"C  c #D85B3E",
"Z  c #D4653B",
"A  c #D0663C",
"S  c #DF6438",
"D  c #E26939",
"F  c #E46D3A",
"G  c #864D44",
"H  c #965340",
"J  c #B15C41",
"K  c #946041",
"L  c #956446",
"P  c #966649",
"I  c #96684A",
"U  c #976C4E",
"Y  c #986C4E",
"T  c #C06040",
"R  c #DB6A4A",
"E  c #DD704F",
"W  c #E17C58",
"Q  c #74A334",
"!  c #7BA635",
"~  c #8CAD36",
"^  c #90AF37",
"/  c #9EB539",
"(  c #A2B739",
")  c #A6B939",
"_  c #ADBC3A",
"`  c #818742",
"'  c #A3A74F",
"]  c #E8814F",
"[  c #EA8553",
"{  c #EB8D5B",
"}  c #E8885F",
"|  c #C7B653",
" . c #DE9F78",
".. c #E58962",
"X. c #ED9563",
"o. c #EA916B",
"O. c #EA956B",
"+. c #EE9D6C",
"@. c #EF9D6C",
"#. c #D2AB6B",
"$. c #DAAB6F",
"%. c #E1B06C",
"&. c #EEA073",
"*. c #EEA174",
"=. c #EAAF75",
"-. c #F0A575",
";. c #F1A575",
":. c #F0A778",
">. c #F1A979",
",. c #F2AD7D",
"<. c #9C9492",
"1. c #9E9693",
"2. c #9F9F9F",
"3. c #AFAFAF",
"4. c gray75",
"5. c #F0A984",
"6. c #F1AC85",
"7. c #F5C19D",
"8. c #DFDFDF",
"9. c #F8DBCD",
"0. c #F8DACE",
"q. c #F9DDCE",
"w. c #FAE0CE",
"e. c #FBE6DA",
"r. c #FBE7DB",
"t. c #FBEADE",
"y. c #FCEBDF",
"u. c #FBEDE6",
"i. c #FDF1EB",
"p. c #FEF5EF",
"a. c white",
/* pixels */
"_ _ _ _ | ,.,.,.,.,.,.,.,.+.F F F F F F F F F F F F F F F F F F F F F F F F F F F F F F F F F F F F @.,.,.,.,.,.,.,.,.' Q Q Q Q ",
"_ _ _ _ | ,.,.,.,.,.,.,.,.+.F F F F F F F F F F F F F F F F F F F F F F F F F F F F F F F F F F F F @.,.,.,.,.,.,.,.,.' Q Q Q Q ",
"_ _ _ _ | ,.,.,.,.,.,.,.,.+.F F F F F F F F F F F F F F F F F F F F F F F F F F F F F F F F F F F F @.,.,.,.,.,.,.,.,.' Q Q Q Q ",
"_ _ _ _ | ,.,.,.,.,.,.,.,.+.F F F F F F F F F F F F F F F F F F F F F F F F F F F F F F F F F F F F @.,.,.,.,.,.,.,.,.' Q Q Q Q ",
"%.%.%.%.=.,.,.,.,.w.y.y.y.r.9.9.9.9.6.@.@.@.@.@.@.@.@.@.@.@.@.@.@.@.@.@.@.@.@.@.@.@.@.@.@.@.@.@.@.@.>.,.,.,.,.,.,.,.,.$.#.#.#.#.",
",.,.,.,.,.,.,.,.,.p.a.a.a.a.a.a.a.a.7.,.,.,.,.,.,.,.,.,.,.,.,.,.,.,.,.,.,.,.,.,.,.,.,.,.,.,.,.,.,.,.,.,.,.,.,.,.,.,.,.,.,.,.,.,.",
",.,.,.,.,.,.,.,.,.p.a.a.a.a.a.a.a.a.7.,.,.,.,.,.,.,.,.,.,.,.,.,.,.,.,.,.,.,.,.,.,.,.,.,.,.,.,.,.,.,.,.,.,.,.,.,.,.,.,.,.,.,.,.,.",
",.,.,.,.,.,.,.,.,.p.a.a.a.a.a.a.a.a.7.,.,.w                                                         ,.,.,.,.,.,.,.,.,.,.,.,.,.,.",
"{ { { { { { { { { i.a.a.a.a.a.a.a.a.5.{ { 9                                                         -.,.,.,.:.W W W W W W W W W ",
"F F F F F F F F F u.a.a.a.a.a.a.a.a.o.F F 7                                                         @.,.,.,.*.M M M M M M M M M ",
"F F F F F F F F F u.a.a.a.a.a.a.a.a.o.F F 7                                                         @.,.,.,.*.M M M M M M M M M ",
"F F F F F F F F F u.a.a.a.a.a.a.a.a.o.F F 7                                                         @.,.,.,.*.M M M M M M M M M ",
"F F F F F F F F F q.t.t.t.e.0.0.0.0.} F F 7                                                         @.,.,.,.*.M M M M M M M M M ",
"F F F F F F F F F ;.,.,.,.+.F F F F F F F 7                                                         @.,.,.,.*.M M M M M M M M M ",
"F F F F F F F F F ;.,.,.,.+.6 O O O O O O 1.8.8.8.8.8.8.8.8.8.8.8.8.8.2.                            + @ @ @ @ X X M M M M M M M ",
"F F F F F F F F F ;.,.,.,.+.&             2.a.a.a.a.a.a.a.a.a.a.a.a.a.4.                                          M M M M M M M ",
"F F F F F F F F F ;.,.,.,.+.&             2.a.a.a.a.a.a.a.a.a.a.a.a.a.4.                                          M M M M M M M ",
"F F F F F F F F F ;.,.,.,.+.&             2.a.a.a.a.a.a.a.a.a.a.a.a.a.4.                                          M M M M M M M ",
"F F F F F F F F F ;.,.,.,.+.&             2.a.a.a.a.a.a.a.a.a.a.a.a.a.4.                                          M M M M M M M ",
"F F F F F F F F F ;.,.,.,.+.&             2.a.a.a.a.a.a.a.a.a.a.a.a.a.4.                                          M M M M M M M ",
"F F F F F F F F F ;.,.,.,.+.&             2.a.a.a.a.a.a.a.a.a.a.a.a.a.4.                                          M M M M M M M ",
"F F F F F F F F & : : : : ; 1.4.4.4.4.4.4.g 4 4 4 4 4 4 4 4 4 4 4 4 4 d 4.4.4.4.4.4.3.                            M M M M M M M ",
"F F F F F F F F             4.a.a.a.a.a.a.s                           u a.a.a.a.a.a.8.                            M M M M M M M ",
"F F F F F F F F             4.a.a.a.a.a.a.s                           u a.a.a.a.a.a.8.                            M M M M M M M ",
"F F F F F F F F             4.a.a.a.a.a.a.s                           u a.a.a.a.a.a.8.                            M M M M M M M ",
"F F F F F F F F             4.a.a.a.a.a.a.s                           u a.a.a.a.a.a.8.                            M M M M M M M ",
"F F F F F F F F             4.a.a.a.a.a.a.s                           u a.a.a.a.a.a.8.                            M M M M M M M ",
"F F F F F F F F             4.a.a.a.a.a.a.s                           u a.a.a.a.a.a.8.                            M M M M M M M ",
"F F F F F F F F k I Y Y Y K p s s s s s s ,             u 2.2.2.2.2.2.g s s s s s s i               L Y Y Y P h h M M M M M M M ",
"F F F F F F F F F ;.,.,.,.+.&                           d a.a.a.a.a.a.4.                            @.,.,.,.*.M M M M M M M M M ",
"F F F F F F F F F ;.,.,.,.+.&                           d a.a.a.a.a.a.4.                            @.,.,.,.*.M M M M M M M M M ",
"F F F F F F F F F ;.,.,.,.+.&                           d a.a.a.a.a.a.4.                            @.,.,.,.*.M M M M M M M M M ",
"F F F F F F F F F ;.,.,.,.+.&                           d a.a.a.a.a.a.4.                            @.,.,.,.*.M M M M M M M M M ",
"F F F F F F F F F ;.,.,.,.+.&                           d a.a.a.a.a.a.4.                            @.,.,.,.*.M M M M M M M M M ",
"F F F F ] ;.;.;.;.,.,.,.,.,.;                           d a.a.a.a.a.a.4.                            >.,.,.,.,.*.*.*.*.R M M M M ",
"F F F F [ ,.,.,.U U U U U U f d d d d d d ,             4 2.2.2.2.2.2.2.d d d d d d a               U U U U U U U ,.,.E M M M M ",
"F F F F [ ,.,.,.            4.a.a.a.a.a.a.s                           u a.a.a.a.a.a.8.                            ,.,.E M M M M ",
"F F F F [ ,.,.,.            4.a.a.a.a.a.a.s                           u a.a.a.a.a.a.8.                            ,.,.E M M M M ",
"X.X.X.X.+.,.,.,.            4.a.a.a.a.a.a.s                           u a.a.a.a.a.a.8.                            ,.,.O.........",
",.,.,.,.,.,.,.,.            4.a.a.a.a.a.a.s                           u a.a.a.a.a.a.8.                            ,.,.,.,.,.,.,.",
",.,.,.,.,.,.,.,.            4.a.a.a.a.a.a.s                           u a.a.a.a.a.a.8.                            ,.,.,.,.,.,.,.",
",.,.,.,.,.,.,.,.            4.a.a.a.a.a.a.s                           u a.a.a.a.a.a.8.                            ,.,.,.,.,.,.,.",
",.,.,.,.,.,.,.,.> * % % % % <.4.4.4.4.4.4.s u u u u u u u u u u u u u d 4.4.4.4.4.4.2.                            ,.,.,.,.,.,.,.",
",.,.,.,.,.,.,.,.,.V M M M M $             2.a.a.a.a.a.a.a.a.a.a.a.a.a.4.                                          ,.,.,.,.,.,.,.",
",.,.,.,.,.,.,.,.,.V M M M M $             2.a.a.a.a.a.a.a.a.a.a.a.a.a.4.                                          ,.,.,.,.,.,.,.",
",.,.,.,.,.,.,.,.,.V M M M M $             2.a.a.a.a.a.a.a.a.a.a.a.a.a.4.                                          ,.,.,.,.,.,.,.",
"&.&.&.&.&.&.&.&.&.C B B B N $             2.a.a.a.a.a.a.a.a.a.a.a.a.a.4.                                           . . . . . . .",
"M M M M M M M M M D F F F S $             2.a.a.a.a.a.a.a.a.a.a.a.a.a.4.                                          y y y y y y y ",
"M M M M M M M M M D F F F S $             2.a.a.a.a.a.a.a.a.a.a.a.a.a.4.                                          y y y y y y y ",
"M M M M M M M M M D F F F S 5 o o o o o o <.8.8.8.8.8.8.8.8.8.8.8.8.8.3.                            o o o o o . . y y y y y y y ",
"M M M M M M M M M D F F F S M M M M M M M 5                                                         M M M M m y y y y y y y y y ",
"M M M M M M M M M D F F F Z c c c c c c c =                                                         n M M M m y y y y y y y y y ",
"M M M M M M M M M D F F F A H H H H H H H -                                                         b M M M m y y y y y y y y y ",
"M M M M M M M M M D F F F A H H H H H H H -                                                         b M M M m y y y y y y y y y ",
"M M M M M M M M M D F F F A H H H H H H H -                                                         b M M M m y y y y y y y y y ",
"0 0 0 0 j M M M M D F F F A H H H H H H H -                                                         b M M M m y y y y t 2 2 2 2 ",
"# # # # 8 M M M M D F F F A H H H H H H H -                                                         b M M M m y y y y < # # # # ",
"# # # # 8 M M M M D F F F A H H H H H H H H H H H H H H H H H H H H H H H H H H H H H H H H H H H H b M M M m y y y y < # # # # ",
"# # # # 8 M M M M D F F F A H H H H H H H H H H H H H H H H H H H H H H H H H H H H H H H H H H H H b M M M m y y y y < # # # # ",
"q q q q e x x x x v T T T J G G G G G G G G G G G G G G G G G G G G G G G G G G G G G G G G G G G G z x x x l y y y y 3 1 1 1 1 ",
"_ ( / / ` y y y y y y y y y y y y y y y y y y y y y y y y y y y y y y y y y y y y y y y y y y y y y y y y y y y y y y r Q Q Q Q ",
"_ ! Q Q r y y y y y y y y y y y y y y y y y y y y y y y y y y y y y y y y y y y y y y y y y y y y y y y y y y y y y y r Q Q Q Q ",
"^ ^ ~ Q r y y y y y y y y y y y y y y y y y y y y y y y y y y y y y y y y y y y y y y y y y y y y y y y y y y y y y y r Q Q Q Q ",
"Q ) ) Q r y y y y y y y y y y y y y y y y y y y y y y y y y y y y y y y y y y y y y y y y y y y y y y y y y y y y y y r Q Q Q Q "
};
