/* XPM */
static char *result[] = {
/* columns rows colors chars-per-pixel */
"64 64 121 2 ",
"   c black",
".  c #0F0B08",
"X  c #1A0907",
"o  c #1C0D07",
"O  c #1D0E07",
"+  c #1C100B",
"@  c #1D110B",
"#  c #1D120C",
"$  c #1E1610",
"%  c #141B1B",
"&  c #391B0E",
"*  c #3A2317",
"=  c #3B271B",
"-  c #3C2B1F",
";  c #202020",
":  c #2C272F",
">  c #2C3D21",
",  c #342B36",
"<  c gray19",
"1  c #3D3433",
"2  c #383833",
"3  c #3F3F3F",
"4  c #5B2D24",
"5  c #723327",
"6  c #3A4322",
"7  c #5B402E",
"8  c #704A2B",
"9  c #687D3F",
"0  c #403240",
"q  c #543C52",
"w  c gray25",
"e  c gray31",
"r  c #505050",
"t  c #5D5653",
"y  c #5F5F5F",
"u  c #606060",
"i  c gray50",
"p  c #963C2D",
"a  c #8E4424",
"s  c #A2453F",
"d  c #A6493E",
"f  c #B2473B",
"g  c #BF5E3F",
"h  c #C24D37",
"j  c #C14938",
"k  c #D14B34",
"l  c #D0663C",
"z  c #E26939",
"x  c #E46D3A",
"c  c #864D44",
"v  c #965340",
"b  c #B15C41",
"n  c #946041",
"m  c #96684A",
"M  c #986C4E",
"N  c #AB6347",
"B  c #AD694B",
"V  c #B17554",
"C  c #B37B59",
"Z  c #C06040",
"A  c #DB6A4A",
"S  c #DD704F",
"D  c #E17C58",
"F  c #74A334",
"G  c #7BA635",
"H  c #8CAD36",
"J  c #90AF37",
"K  c #9EB539",
"L  c #A2B739",
"P  c #A6B939",
"I  c #ADBC3A",
"U  c #818742",
"Y  c #B5825E",
"T  c #A3A74F",
"R  c #E8814F",
"E  c #EA8553",
"W  c #EB8D5B",
"Q  c #E8885F",
"!  c #C7B653",
"~  c #DE9F78",
"^  c #E58962",
"/  c #ED9563",
"(  c #EA916B",
")  c #E9946A",
"_  c #EA956B",
"`  c #EB9A6F",
"'  c #EE9D6C",
"]  c #EF9D6C",
"[  c #D2AB6B",
"{  c #DAAB6F",
"}  c #E1B06C",
"|  c #EEA073",
" . c #EEA174",
".. c #EAAF75",
"X. c #F0A575",
"o. c #F1A575",
"O. c #F0A778",
"+. c #F1A979",
"@. c #F2AD7D",
"#. c gray56",
"$. c #9F9F9F",
"%. c #AFAFAF",
"&. c #BEB6B3",
"*. c gray75",
"=. c #F0A984",
"-. c #F1AC85",
";. c #F5C19D",
":. c gray81",
">. c #DFDFDF",
",. c #F8DBCD",
"<. c #F8DACE",
"1. c #F9DDCE",
"2. c #FAE0CE",
"3. c #FBE6DA",
"4. c #FBE7DB",
"5. c #FBEADE",
"6. c #FCEBDF",
"7. c #FBEDE6",
"8. c #FDF1EB",
"9. c #FEF5EF",
"0. c white",
/* pixels */
"I I I I ! @.@.@.@.@.@.@.@.' x x x x x x x x x x x x x x x x x x x x x x x x x x x x x x x x x x x x ] @.@.@.@.@.@.@.@.T F F F F ",
"I I I I ! @.@.@.@.@.@.@.@.' x x x x x x x x x x x x x x x x x x x x x x x x x x x x x x x x x x x x ] @.@.@.@.@.@.@.@.T F F F F ",
"I I I I ! @.@.@.@.@.@.@.@.' x x x x x x x x x x x x x x x x x x x x x x x x x x x x x x x x x x x x ] @.@.@.@.@.@.@.@.T F F F F ",
"I I I I ! @.@.@.@.@.@.@.@.' x x x x x x x x x x x x x x x x x x x x x x x x x x x x x x x x x x x x ] @.@.@.@.@.@.@.@.T F F F F ",
"} } } } ..@.@.@.@.2.6.6.6.4.,.,.,.,.-.] ] ] ] ] ] ] ] ] ] ] ] ] ] ] ] ] ] ] ] ] ] ] ] ] ] ] ] ] ] ] +.@.@.@.@.@.@.@.@.{ [ [ [ [ ",
"@.@.@.@.@.@.@.@.@.9.0.0.0.0.0.0.0.0.;.@.@.@.@.@.@.@.@.@.@.@.@.@.@.@.@.@.@.@.@.@.@.@.@.@.@.@.@.@.@.@.@.@.@.@.@.@.@.@.@.@.@.@.@.@.",
"@.@.@.@.@.@.@.@.@.9.0.0.0.0.0.0.0.0.;.@.@.@.@.@.@.@.@.@.@.@.@.@.@.@.@.@.@.@.@.@.@.@.@.@.@.@.@.@.@.@.@.@.@.@.@.@.@.@.@.@.@.@.@.@.",
"@.@.@.@.@.@.@.@.@.9.0.0.0.0.0.0.0.0.;.@.@.-                                                       $ @.@.@.@.@.@.@.@.@.@.@.@.@.@.",
"W W W W W W W W W 8.0.0.0.0.0.0.0.0.=.W W *                                                       # X.@.@.@.O.D D D D D D D D D ",
"x x x x x x x x x 7.0.0.0.0.0.0.0.0.( x x &                                                       O ] @.@.@. .k k k k k k k k k ",
"x x x x x x x x x 7.0.0.0.0.0.0.0.0.( x x &                                                       O ] @.@.@. .k k k k k k k k k ",
"x x x x x x x x x 7.0.0.0.0.0.0.0.0.( x x &                                                       O ] @.@.@. .k k k k k k k k k ",
"x x x x x x x x x 1.5.5.5.3.<.<.<.<.Q x x &                                                       O ] @.@.@. .k k k k k k k k k ",
"x x x x x x x x x o.@.@.@.' x x x x x x x &                                                       O ] @.@.@. .k k k k k k k k k ",
"x x x x x x x x x o.@.@.@.' & o o o o o o &.>.>.>.>.>.>.>.>.>.>.>.>.>.#.                            @ $ $ $ $ X X k k k k k k k ",
"x x x x x x x x x o.@.@.@.' o             *.0.0.0.0.0.0.0.0.0.0.0.0.0.$.                                          k k k k k k k ",
"x x x x x x x x x o.@.@.@.' o             *.0.0.0.0.0.0.0.0.0.0.0.0.0.$.                                          k k k k k k k ",
"x x x x x x x x x o.@.@.@.' o             *.0.0.0.0.0.0.0.0.0.0.0.0.0.$.                                          k k k k k k k ",
"x x x x x x x x x o.@.@.@.' o             *.0.0.0.0.0.0.0.0.0.0.0.0.0.$.                                          k k k k k k k ",
"x x x x x x x x x o.@.@.@.' o             *.0.0.0.0.0.0.0.0.0.0.0.0.0.$.                                          k k k k k k k ",
"x x x x x x x x x o.@.@.@.' o             *.0.0.0.0.0.0.0.0.0.0.0.0.0.$.                                          k k k k k k k ",
"x x x x x x x & & - - - - = $.*.*.*.*.*.*.y 3 3 3 3 3 3 3 3 3 3 3 3 3 u *.*.*.*.*.*.#.                            k k k k k k k ",
"x x x x x x x               >.0.0.0.0.0.0.3                           u 0.0.0.0.0.0.*.                            k k k k k k k ",
"x x x x x x x               >.0.0.0.0.0.0.3                           u 0.0.0.0.0.0.*.                            k k k k k k k ",
"x x x x x x x               >.0.0.0.0.0.0.3                           u 0.0.0.0.0.0.*.                            k k k k k k k ",
"x x x x x x x               >.0.0.0.0.0.0.3                           u 0.0.0.0.0.0.*.                            k k k k k k k ",
"x x x x x x x               >.0.0.0.0.0.0.3                           u 0.0.0.0.0.0.*.                            k k k k k k k ",
"x x x x x x x               >.0.0.0.0.0.0.3                           u 0.0.0.0.0.0.*.                            k k k k k k k ",
"x x x x x x x a a m M M M n t y y y y y y ;             u $.$.$.$.$.$.i y y y y y y e                             k k k k k k k ",
"x x x x x x x x x o.@.@.@.' o                           $.0.0.0.0.0.0.$.                                          k k k k k k k ",
"x x x x x x x x x o.@.@.@.' o                           $.0.0.0.0.0.0.$.                                          k k k k k k k ",
"x x x x x x x x x o.@.@.@.' o                           $.0.0.0.0.0.0.$.                                          k k k k k k k ",
"x x x x x x x x x o.@.@.@.' o                           $.0.0.0.0.0.0.$.                                          k k k k k k k ",
"x x x x x x x x x o.@.@.@.' o                           $.0.0.0.0.0.0.$.                                          k k k k k k k ",
"x x x x R o.o.o.o.@.@.@.@.@.$                           $.0.0.0.0.0.0.$.                                           . .A k k k k ",
"x x x x E @.@.@.@.@.@.@.@.@.$             r u u u u u u i $.$.$.$.$.$.y                           . 7 7 7 7 7 7 7 @.@.S k k k k ",
"x x x x E @.@.@.@.@.@.@.@.@.$             *.0.0.0.0.0.0.y                                         $ @.@.@.@.@.@.@.@.@.S k k k k ",
"x x x x E @.@.@.@.@.@.@.@.@.$             *.0.0.0.0.0.0.y                                         $ @.@.@.@.@.@.@.@.@.S k k k k ",
"/ / / / ' @.@.@.@.@.@.@.@.` +             *.0.0.0.0.0.0.y                                         +  .@.@.@.@.@.@.@.@._ ^ ^ ^ ^ ",
"@.@.@.@.@.@.@.@.@.@.@.@.@.) X             *.0.0.0.0.0.0.y                                         X _ @.@.@.@.@.@.@.@.@.@.@.@.@.",
"@.@.@.@.@.@.@.@.@.@.@.@.@.) X             *.0.0.0.0.0.0.y                                         X _ @.@.@.@.@.@.@.@.@.@.@.@.@.",
"@.@.@.@.@.@.@.@.@.@.@.@.@.) X             *.0.0.0.0.0.0.y                                         X _ @.@.@.@.@.@.@.@.@.@.@.@.@.",
"@.@.@.@.@.@.@.Y Y V V V V B 1 w w w w w w :.0.0.0.0.0.0.i w w w w w w w w w w w w w <             X N V V V C Y Y @.@.@.@.@.@.@.",
"@.@.@.@.@.@.@.              >.0.0.0.0.0.0.0.0.0.0.0.0.0.0.0.0.0.0.0.0.0.0.0.0.0.0.0.*.                            @.@.@.@.@.@.@.",
"@.@.@.@.@.@.@.              >.0.0.0.0.0.0.0.0.0.0.0.0.0.0.0.0.0.0.0.0.0.0.0.0.0.0.0.*.                            @.@.@.@.@.@.@.",
"@.@.@.@.@.@.@.              >.0.0.0.0.0.0.0.0.0.0.0.0.0.0.0.0.0.0.0.0.0.0.0.0.0.0.0.*.                            @.@.@.@.@.@.@.",
"| | | | | | |               >.0.0.0.0.0.0.0.0.0.0.0.0.0.0.0.0.0.0.0.0.0.0.0.0.0.0.0.*.                            ~ ~ ~ ~ ~ ~ ~ ",
"k k k k k k k               >.0.0.0.0.0.0.0.0.0.0.0.0.0.0.0.0.0.0.0.0.0.0.0.0.0.0.0.*.                            q q q q q q q ",
"k k k k k k k               >.0.0.0.0.0.0.0.0.0.0.0.0.0.0.0.0.0.0.0.0.0.0.0.0.0.0.0.*.                            q q q q q q q ",
"k k k k k k k               *.>.>.>.>.>.>.>.>.>.>.>.>.>.>.>.>.>.>.>.>.>.>.>.>.>.>.>.%.                            q q q q q q q ",
"k k k k k k k                                                                                                     q q q q q q q ",
"k k k k k k k                                                                                                     q q q q q q q ",
"k k k k k k k                                                                                                     q q q q q q q ",
"k k k k k k k                                                                                                     q q q q q q q ",
"k k k k k k k                                                                                                     q q q q q q q ",
"5 5 5 5 p k k                                                                                                     q q 0 , , , , ",
"% % % % 4 k k                                                                                                     q q : % % % % ",
"% % % % 4 k k k k z x x x l v v v v v v v v v v v v v v v v v v v v v v v v v v v v v v v v v v v v h k k k j q q q q : % % % % ",
"% % % % 4 k k k k z x x x l v v v v v v v v v v v v v v v v v v v v v v v v v v v v v v v v v v v v h k k k j q q q q : % % % % ",
"6 6 6 6 8 f f f f g Z Z Z b c c c c c c c c c c c c c c c c c c c c c c c c c c c c c c c c c c c c d f f f s q q q q 2 > > > > ",
"I L K K U q q q q q q q q q q q q q q q q q q q q q q q q q q q q q q q q q q q q q q q q q q q q q q q q q q q q q q 9 F F F F ",
"I G F F 9 q q q q q q q q q q q q q q q q q q q q q q q q q q q q q q q q q q q q q q q q q q q q q q q q q q q q q q 9 F F F F ",
"J J H F 9 q q q q q q q q q q q q q q q q q q q q q q q q q q q q q q q q q q q q q q q q q q q q q q q q q q q q q q 9 F F F F ",
"F P P F 9 q q q q q q q q q q q q q q q q q q q q q q q q q q q q q q q q q q q q q q q q q q q q q q q q q q q q q q 9 F F F F "
};
