/* XPM */
static char *result[] = {
/* columns rows colors chars-per-pixel */
"64 64 122 2 ",
"   c black",
".  c #0D0504",
"X  c #0E0704",
"o  c #1A0907",
"O  c #1A0A07",
"+  c #1C0D07",
"@  c #1D0E07",
"#  c #141B1B",
"$  c #29130F",
"%  c #34120D",
"&  c #34130D",
"*  c #391B0E",
"=  c #391B0F",
"-  c #251410",
";  c #261510",
":  c #291410",
">  c #361911",
",  c #3A2317",
"<  c #3B2317",
"1  c #3A251B",
"2  c #3B271B",
"3  c #3C271B",
"4  c #3C2B1F",
"5  c #3D2B1F",
"6  c #202020",
"7  c #2C272F",
"8  c #2C3D21",
"9  c #342B36",
"0  c #383833",
"q  c #3F3F3F",
"w  c #5B2D24",
"e  c #723327",
"r  c #3A4322",
"t  c #704A2B",
"y  c #687D3F",
"u  c #403240",
"i  c #543C52",
"p  c gray25",
"a  c #5F5F5F",
"s  c #606060",
"d  c gray50",
"f  c #963C2D",
"g  c #A2453F",
"h  c #A6493E",
"j  c #B2473B",
"k  c #A4513D",
"l  c #BF5E3F",
"z  c #C24D37",
"x  c #C64C36",
"c  c #C14938",
"v  c #D14B34",
"b  c #D24D35",
"n  c #D34F35",
"m  c #D5573D",
"M  c #D85B3E",
"N  c #D4653B",
"B  c #D0663C",
"V  c #DF6438",
"C  c #E26939",
"Z  c #E46D3A",
"A  c #864D44",
"S  c #965340",
"D  c #B15C41",
"F  c #C06040",
"G  c #DB6A4A",
"H  c #DD704F",
"J  c #E17C58",
"K  c #74A334",
"L  c #7BA635",
"P  c #8CAD36",
"I  c #90AF37",
"U  c #9EB539",
"Y  c #A2B739",
"T  c #A6B939",
"R  c #ADBC3A",
"E  c #818742",
"W  c #A3A74F",
"Q  c #E8814F",
"!  c #EA8553",
"~  c #EB8D5B",
"^  c #E8885F",
"/  c #C7B653",
"(  c #DE9F78",
")  c #E58962",
"_  c #ED9563",
"`  c #EA916B",
"'  c #EA956B",
"]  c #EE9D6C",
"[  c #EF9D6C",
"{  c #D2AB6B",
"}  c #DAAB6F",
"|  c #E1B06C",
" . c #EEA073",
".. c #EEA174",
"X. c #EAAF75",
"o. c #F0A575",
"O. c #F1A575",
"+. c #F0A778",
"@. c #F1A979",
"#. c #F2AD7D",
"$. c gray56",
"%. c #9F9F9F",
"&. c #BCB4B3",
"*. c #BEB6B3",
"=. c gray75",
"-. c #F0A984",
";. c #F1AC85",
":. c #F5C19D",
">. c #DFDFDF",
",. c #F8DBCD",
"<. c #F8DACE",
"1. c #F9DDCE",
"2. c #FAE0CE",
"3. c #FBE6DA",
"4. c #FBE7DB",
"5. c #FBEADE",
"6. c #FCEBDF",
"7. c #EFEFEF",
"8. c #FBEDE6",
"9. c #FDF1EB",
"0. c #FEF5EF",
"q. c white",
/* pixels */
"R R R R / #.#.#.#.#.#.#.#.] Z Z Z Z Z Z Z Z Z Z Z Z Z Z Z Z Z Z Z Z Z Z Z Z Z Z Z Z Z Z Z Z Z Z Z Z [ #.#.#.#.#.#.#.#.W K K K K ",
"R R R R / #.#.#.#.#.#.#.#.] Z Z Z Z Z Z Z Z Z Z Z Z Z Z Z Z Z Z Z Z Z Z Z Z Z Z Z Z Z Z Z Z Z Z Z Z [ #.#.#.#.#.#.#.#.W K K K K ",
"R R R R / #.#.#.#.#.#.#.#.] Z Z Z Z Z Z Z Z Z Z Z Z Z Z Z Z Z Z Z Z Z Z Z Z Z Z Z Z Z Z Z Z Z Z Z Z [ #.#.#.#.#.#.#.#.W K K K K ",
"R R R R / #.#.#.#.#.#.#.#.] Z Z Z Z Z Z Z Z Z Z Z Z Z Z Z Z Z Z Z Z Z Z Z Z Z Z Z Z Z Z Z Z Z Z Z Z [ #.#.#.#.#.#.#.#.W K K K K ",
"| | | | X.#.#.#.#.2.6.6.6.4.,.,.,.,.;.[ [ [ [ [ [ [ [ [ [ [ [ [ [ [ [ [ [ [ [ [ [ [ [ [ [ [ [ [ [ [ @.#.#.#.#.#.#.#.#.} { { { { ",
"#.#.#.#.#.#.#.#.#.0.q.q.q.q.q.q.q.q.:.#.#.#.#.#.#.#.#.#.#.#.#.#.#.#.#.#.#.#.#.#.#.#.#.#.#.#.#.#.#.#.#.#.#.#.#.#.#.#.#.#.#.#.#.#.",
"#.#.#.#.#.#.#.#.#.0.q.q.q.q.q.q.q.q.:.#.#.#.#.#.#.#.#.#.#.#.#.#.#.#.#.#.#.#.#.#.#.#.#.#.#.#.#.#.#.#.#.#.#.#.#.#.#.#.#.#.#.#.#.#.",
"#.#.#.#.#.#.#.#.#.0.q.q.q.q.q.q.q.q.:.#.#.4                                         5 #.#.#.#.#.#.#.#.#.#.#.#.#.#.#.#.#.#.#.#.#.",
"~ ~ ~ ~ ~ ~ ~ ~ ~ 9.q.q.q.q.q.q.q.q.-.~ ~ ,                                         < ~ ~ ~ ~ ~ ~ ~ o.#.#.#.+.J J J J J J J J J ",
"Z Z Z Z Z Z Z Z Z 8.q.q.q.q.q.q.q.q.` Z Z *                                         = Z Z Z Z Z Z Z [ #.#.#...v v v v v v v v v ",
"Z Z Z Z Z Z Z Z Z 8.q.q.q.q.q.q.q.q.` Z Z *                                         = Z Z Z Z Z Z Z [ #.#.#...v v v v v v v v v ",
"Z Z Z Z Z Z Z Z Z 8.q.q.q.q.q.q.q.q.` Z Z *                                         = Z Z Z Z Z Z Z [ #.#.#...v v v v v v v v v ",
"Z Z Z Z Z Z Z Z Z 1.5.5.5.3.<.<.<.<.^ Z Z *                                         = Z Z Z Z Z Z Z [ #.#.#...v v v v v v v v v ",
"Z Z Z Z Z Z Z Z Z O.#.#.#.] Z Z Z Z Z Z Z *                                         = Z Z Z Z Z Z Z [ #.#.#...v v v v v v v v v ",
"Z Z Z Z Z Z Z Z Z O.#.#.#.] * + + + + + + *.>.>.>.>.>.>.>.>.>.>.>.>.>.$.              + + + + + + * [ #.#.#...v v v v v v v v v ",
"Z Z Z Z Z Z Z Z Z O.#.#.#.] +             =.q.q.q.q.q.q.q.q.q.q.q.q.q.%.                          @ [ #.#.#...v v v v v v v v v ",
"Z Z Z Z Z Z Z Z Z O.#.#.#.] +             =.q.q.q.q.q.q.q.q.q.q.q.q.q.%.                          @ [ #.#.#...v v v v v v v v v ",
"Z Z Z Z Z Z Z Z Z O.#.#.#.] +             =.q.q.q.q.q.q.q.q.q.q.q.q.q.%.                          @ [ #.#.#...v v v v v v v v v ",
"Z Z Z Z Z Z Z Z Z O.#.#.#.] +             =.q.q.q.q.q.q.q.q.q.q.q.q.q.%.                          @ [ #.#.#...v v v v v v v v v ",
"Z Z Z Z Z Z Z Z Z O.#.#.#.] +             =.q.q.q.q.q.q.q.q.q.q.q.q.q.%.                          @ [ #.#.#...v v v v v v v v v ",
"Z Z Z Z Z Z Z Z Z O.#.#.#.] +             =.q.q.q.q.q.q.q.q.q.q.q.q.q.%.                          @ [ #.#.#...v v v v v v v v v ",
"Z Z Z Z Z Z Z * * 4 4 4 4 2 %.=.=.=.=.=.=.7.q.q.q.q.q.q.$.q q q q q q s =.=.=.=.=.=.$.            X 3 4 4 4 1 % % v v v v v v v ",
"Z Z Z Z Z Z Z               >.q.q.q.q.q.q.q.q.q.q.q.q.q.a             s q.q.q.q.q.q.=.                            v v v v v v v ",
"Z Z Z Z Z Z Z               >.q.q.q.q.q.q.q.q.q.q.q.q.q.a             s q.q.q.q.q.q.=.                            v v v v v v v ",
"Z Z Z Z Z Z Z               >.q.q.q.q.q.q.q.q.q.q.q.q.q.a             s q.q.q.q.q.q.=.                            v v v v v v v ",
"Z Z Z Z Z Z Z               >.q.q.q.q.q.q.q.q.q.q.q.q.q.a             s q.q.q.q.q.q.=.                            v v v v v v v ",
"Z Z Z Z Z Z Z               >.q.q.q.q.q.q.q.q.q.q.q.q.q.a             s q.q.q.q.q.q.=.                            v v v v v v v ",
"Z Z Z Z Z Z Z               >.q.q.q.q.q.q.q.q.q.q.q.q.q.a             s q.q.q.q.q.q.=.                            v v v v v v v ",
"Z Z Z Z Z Z Z               >.q.q.q.q.q.q.d a a a a a a 6             s q.q.q.q.q.q.=.                            v v v v v v v ",
"Z Z Z Z Z Z Z               >.q.q.q.q.q.q.q                           s q.q.q.q.q.q.=.                            v v v v v v v ",
"Z Z Z Z Z Z Z               >.q.q.q.q.q.q.q                           s q.q.q.q.q.q.=.                            v v v v v v v ",
"Z Z Z Z Z Z Z               >.q.q.q.q.q.q.q                           s q.q.q.q.q.q.=.                            v v v v v v v ",
"Z Z Z Z Z Z Z               >.q.q.q.q.q.q.q                           s q.q.q.q.q.q.=.                            v v v v v v v ",
"Z Z Z Z Z Z Z               >.q.q.q.q.q.q.q                           s q.q.q.q.q.q.=.                            v v v v v v v ",
"Z Z Z Z Q O.O.              >.q.q.q.q.q.q.q                           s q.q.q.q.q.q.=.                            ....G v v v v ",
"Z Z Z Z ! #.#.              >.q.q.q.q.q.q.q             p s s s s s s %.q.q.q.q.q.q.=.                            #.#.H v v v v ",
"Z Z Z Z ! #.#.              >.q.q.q.q.q.q.q             %.q.q.q.q.q.q.q.q.q.q.q.q.q.=.                            #.#.H v v v v ",
"Z Z Z Z ! #.#.              >.q.q.q.q.q.q.q             %.q.q.q.q.q.q.q.q.q.q.q.q.q.=.                            #.#.H v v v v ",
"_ _ _ _ ] #.#.              >.q.q.q.q.q.q.q             %.q.q.q.q.q.q.q.q.q.q.q.q.q.=.                            #.#.' ) ) ) ) ",
"#.#.#.#.#.#.#.              >.q.q.q.q.q.q.q             %.q.q.q.q.q.q.q.q.q.q.q.q.q.=.                            #.#.#.#.#.#.#.",
"#.#.#.#.#.#.#.              >.q.q.q.q.q.q.q             %.q.q.q.q.q.q.q.q.q.q.q.q.q.=.                            #.#.#.#.#.#.#.",
"#.#.#.#.#.#.#.              >.q.q.q.q.q.q.q             %.q.q.q.q.q.q.q.q.q.q.q.q.q.=.                            #.#.#.#.#.#.#.",
"#.#.#.#.#.#.#.5 5 > & & & & &.=.=.=.=.=.=.a p p p p p p =.q.q.q.q.q.q.7.=.=.=.=.=.=.$.              & & & & & 5 5 #.#.#.#.#.#.#.",
"#.#.#.#.#.#.#.#.#.m v v v v o             =.q.q.q.q.q.q.q.q.q.q.q.q.q.%.                          o v v v v m #.#.#.#.#.#.#.#.#.",
"#.#.#.#.#.#.#.#.#.m v v v v o             =.q.q.q.q.q.q.q.q.q.q.q.q.q.%.                          o v v v v m #.#.#.#.#.#.#.#.#.",
"#.#.#.#.#.#.#.#.#.m v v v v o             =.q.q.q.q.q.q.q.q.q.q.q.q.q.%.                          o v v v v m #.#.#.#.#.#.#.#.#.",
" . . . . . . . . .M n n n b o             =.q.q.q.q.q.q.q.q.q.q.q.q.q.%.                          o v v v v m ( ( ( ( ( ( ( ( ( ",
"v v v v v v v v v C Z Z Z V o             =.q.q.q.q.q.q.q.q.q.q.q.q.q.%.                          o v v v v c i i i i i i i i i ",
"v v v v v v v v v C Z Z Z V o             =.q.q.q.q.q.q.q.q.q.q.q.q.q.%.                          o v v v v c i i i i i i i i i ",
"v v v v v v v v v C Z Z Z V & O O O O O O %.>.>.>.>.>.>.>.>.>.>.>.>.>.$.            . O O O O O O & v v v v c i i i i i i i i i ",
"v v v v v v v v v C Z Z Z V v v v v v v v %                                         & v v v v v v v v v v v c i i i i i i i i i ",
"v v v v v v v v v C Z Z Z N k k k k k k k $                                         : k k k k k k k x v v v c i i i i i i i i i ",
"v v v v v v v v v C Z Z Z B S S S S S S S -                                         ; S S S S S S S z v v v c i i i i i i i i i ",
"v v v v v v v v v C Z Z Z B S S S S S S S -                                         ; S S S S S S S z v v v c i i i i i i i i i ",
"v v v v v v v v v C Z Z Z B S S S S S S S -                                         ; S S S S S S S z v v v c i i i i i i i i i ",
"e e e e f v v v v C Z Z Z B S S S S S S S -                                         ; S S S S S S S z v v v c i i i i u 9 9 9 9 ",
"# # # # w v v v v C Z Z Z B S S S S S S S -                                         ; S S S S S S S z v v v c i i i i 7 # # # # ",
"# # # # w v v v v C Z Z Z B S S S S S S S S S S S S S S S S S S S S S S S S S S S S S S S S S S S S z v v v c i i i i 7 # # # # ",
"# # # # w v v v v C Z Z Z B S S S S S S S S S S S S S S S S S S S S S S S S S S S S S S S S S S S S z v v v c i i i i 7 # # # # ",
"r r r r t j j j j l F F F D A A A A A A A A A A A A A A A A A A A A A A A A A A A A A A A A A A A A h j j j g i i i i 0 8 8 8 8 ",
"R Y U U E i i i i i i i i i i i i i i i i i i i i i i i i i i i i i i i i i i i i i i i i i i i i i i i i i i i i i i y K K K K ",
"R L K K y i i i i i i i i i i i i i i i i i i i i i i i i i i i i i i i i i i i i i i i i i i i i i i i i i i i i i i y K K K K ",
"I I P K y i i i i i i i i i i i i i i i i i i i i i i i i i i i i i i i i i i i i i i i i i i i i i i i i i i i i i i y K K K K ",
"K T T K y i i i i i i i i i i i i i i i i i i i i i i i i i i i i i i i i i i i i i i i i i i i i i i i i i i i i i i y K K K K "
};
