/* XPM */
static char *result[] = {
/* columns rows colors chars-per-pixel */
"64 64 158 2 ",
"   c #211F30",
".  c #281F31",
"X  c #301E34",
"o  c #3F1E37",
"O  c #24272F",
"+  c #222C2C",
"@  c #2B2F2E",
"#  c #2C362C",
"$  c #233928",
"%  c #353F2B",
"&  c #2B2C31",
"*  c #372133",
"=  c #3A2434",
"-  c #2F3131",
";  c #323231",
":  c #421F37",
">  c #4F1E3B",
",  c #5E1D3E",
"<  c #611E3E",
"1  c #4B2336",
"2  c #512A36",
"3  c #5E2C37",
"4  c #66283B",
"5  c #76273D",
"6  c #7D273D",
"7  c #255F1C",
"8  c #196A1D",
"9  c #17731C",
"0  c #1D7A18",
"q  c #266C17",
"w  c #266619",
"e  c #2D631E",
"r  c #266C18",
"t  c #277913",
"y  c #287218",
"u  c #317D15",
"i  c #0A582A",
"p  c #234524",
"a  c #2B4927",
"s  c #35402B",
"d  c #245220",
"f  c #3F5029",
"g  c #076029",
"h  c #146828",
"j  c #227026",
"k  c #257B2B",
"l  c #42761D",
"z  c #475B2A",
"x  c #444632",
"c  c #4E5730",
"v  c #555934",
"b  c #624A38",
"n  c #7C423B",
"m  c #496026",
"M  c #4E6825",
"N  c #54652C",
"B  c #537024",
"V  c #4C6232",
"C  c #5E6334",
"Z  c #5F6A32",
"A  c #557233",
"S  c #6B6636",
"D  c #676D35",
"F  c #697834",
"G  c #627539",
"H  c #737F35",
"J  c #6E1C42",
"K  c #7D1C45",
"L  c #296C45",
"P  c #267444",
"I  c #8C293F",
"U  c #82343D",
"Y  c #8A323E",
"T  c #98413F",
"R  c #8C1C49",
"E  c #921E49",
"W  c #9C1B4D",
"Q  c #A21E4C",
"!  c #952643",
"~  c #9B2448",
"^  c #A12447",
"/  c #A12C42",
"(  c #AD254C",
")  c #B62E45",
"_  c #B4254A",
"`  c #B6294B",
"'  c #BC2949",
"]  c #AB3743",
"[  c #A53B41",
"{  c #B33F44",
"}  c #C52D49",
"|  c #C92F48",
" . c #CC3048",
".. c #D23648",
"X. c #D83D49",
"o. c #DB4049",
"O. c #E1474A",
"+. c #E44A4A",
"@. c #28860F",
"#. c #248212",
"$. c #3A8017",
"%. c #318911",
"&. c #3B8D13",
"*. c #338419",
"=. c #398718",
"-. c #3C8023",
";. c #32823A",
":. c #428E15",
">. c #48871A",
",. c #5F8B1F",
"<. c #4D9316",
"1. c #579717",
"2. c #579718",
"3. c #5E9A19",
"4. c #68911F",
"5. c #629A1B",
"6. c #699D1C",
"7. c #6EA01C",
"8. c #72A11D",
"9. c #438422",
"0. c #498822",
"q. c #5E8122",
"w. c #63852A",
"e. c #788036",
"r. c #728E35",
"t. c #779935",
"y. c #76A025",
"u. c #79A622",
"i. c #7EAB26",
"p. c #74A334",
"a. c #7BA635",
"s. c #45885F",
"d. c #498060",
"f. c #828B37",
"g. c #879636",
"h. c #8A9537",
"j. c #8A9538",
"k. c #939F39",
"l. c #85B12B",
"z. c #83A935",
"x. c #8AAC36",
"c. c #83A13E",
"v. c #8DA238",
"b. c #90AF37",
"n. c #9CA939",
"m. c #8BB630",
"M. c #8EB932",
"N. c #96B137",
"B. c #97B238",
"V. c #9EB539",
"C. c #A3B639",
"Z. c #A6B939",
"A. c #ADBC3A",
"S. c #9BC43B",
"D. c #A4CC42",
"F. c #83AF94",
"G. c #E3E3E5",
"H. c white",
/* pixels */
"A.A.A.A.A.A.A.A.A.A.A.A.A.A.A.A.A.A.A.A.Z.B.V.A.A.A.A.A.A.A.A.A.A.A.A.A.A.A.A.A.A.A.A.A.A.A.A.A.A.Z.B.Z.A.A.A.A.A.A.A.A.C.B.w.B ",
"A.A.A.A.A.A.A.A.A.A.A.A.A.A.A.A.A.A.A.A.A.A.A.A.A.A.A.A.A.A.A.A.A.A.A.A.A.A.A.A.A.A.A.A.A.A.A.A.A.A.A.A.A.A.A.A.A.A.A.A.A.A.z.p.",
"A.A.A.A.A.A.x   O         j.A.A.A.A.A.A.;                           A.A.A.A.A.A.n.                  n.A.A.A.A.A.A.A.A.A.x.a.a.p.",
"A.Z.Z.A.A.A.x .           j.A.A.A.A.A.Z.; .                   O     A.A.A.A.A.A.n.                  n.A.A.A.A.A.A.A.A.Z.x.a.p.p.",
"A.a.a.A.x x T { { { { { { b x H A.C.2 f B ,.B w.q.q.B w.,.w.B ,.,.B x x k.A.h.x x q.q.q.q.w.,.B q.q.c x H A.A.A.A.A.N.p.B.A.z.p.",
"B.x.x.A.  O { +.+.+.+.+.+.2   S A.n.O   4.8.8.8.8.8.8.8.8.7.8.8.8.8.    h.A.H . @ 8.8.8.8.8.8.8.8.8.@   S A.A.A.A.B.m.x.V.A.N.x.",
"p.Z.A.A.    ] X.X.o.o.o.X.5 > b H H     M B B B B B B B B B B B B B     S H v   O B B B B B B B B B O   D A.A.A.C.p.x.A.A.A.A.A.",
"B.Z.A.A.    / |  . . . . .( W <           O   O O                 O                           O O       D A.A.A.A.B.V.A.N.x.x.x.",
"A.A.A.A.; - I ) ) ) ` } } E R < X X * * = = = = = = = * * = * * o * * * * * * * * = = * * * = = = = = = S n.C.A.A.A.A.A.x.p.p.p.",
"A.A.A.A.A.A.x     O X W W o   , W Q  . .O.+.+.+.+.+.+... .o.+.O. . . . . . . . . .+.+... .X.+.+.+.+.+.+.!   x A.A.A.A.A.C.V.a.p.",
"A.A.A.A.A.A.x O     X W W :   , W Q  .| O.+.+.+.+.+.+. . .o.+.o. . . . . . . .|  .+.+... .X.+.+.+.+.o.+.6 + x A.A.A.A.A.A.A.z.p.",
"A.A.A.A.x x Y / ! K K o o .   X : : 1 1 ~ ( ( ( ( ( _ }  .' ( '  . . . . . . . . .( ( |  .' ( ( ( ( 3 2 =   x A.A.A.A.A.A.A.A.A.",
"A.A.A.A.    !  .' W R                   R W W W W W W }  .( W Q  . . . . . . . .| W W } | _ W W Q W *       x A.A.A.A.A.A.A.C.V.",
"A.A.A.A.    ] o. ._ ^     > , , , < 5 5 ( _ _ _ ` _ _  . .' _ `  . . . . . . . .| _ _ } | } _ _ ` ` 5 5 1   x A.A.A.A.A.A.A.z.p.",
"A.A.A.A.    { +.o. .)     K W W W Q  . .|  . . . . . . . . . .|  . . . . . . . . . . . .|  . . . . . . .6   x A.A.A.A.A.A.A.B.b.",
"A.A.A.A.    { +.o. .)     J R R R E ) ) ) ) ) ) ) ) ) ) ) ) ) ) ) ) ) ) ) ) ) ) ) ) ) ) ) ) ) ) ) ) ) ) 4   x A.A.A.A.A.A.A.A.A.",
"A.A.A.A.    { +.o. .)                                                                                       x A.A.A.A.A.A.A.b.x.",
"A.A.A.A.    { +.o. .) O                                               O       O               O             x A.A.A.A.A.A.A.z.p.",
"A.A.A.A.    { +.[ * *     w t t t t t t t t 8 i d.G.G.G.G.G.G.G.G.G.i i y t 8 i L G.G.G.G.G.G.G.G.G.L i 8 t w ; ; n.A.A.b.a.p.p.",
"A.A.A.A.    { +.Y         q @.@.@.@.@.@.@.@.9 i s.H.H.H.H.H.H.H.H.H.g g 0 #.0 g P H.H.H.H.H.H.H.H.H.P g 9 #.r     n.A.A.b.a.p.p.",
"A.A.A.A.S D n U 3   + d d >.<.1.<.<.<.<.<.<.*.9 ;.F.F.F.F.F.F.F.F.F.9 9 &.<.=.9 k F.F.F.F.F.F.F.F.F.k 9 *.<.l     n.A.A.A.A.z.p.",
"A.A.A.A.A.A.x O     + @.@.5.7.8.8.8.8.8.8.8.<.@.#.g g g g g g g i g @.@.3.8.1.@.t g g g g g g g g g #.@.<.8.q.    n.A.A.A.A.b.x.",
"A.A.A.A.A.A.C x 2 + + &.&.5.8.8.8.8.8.8.8.8.1.&.=.j j j j j j j j j &.&.6.8.1.&.=.j j j j j j j j j =.&.1.8.q.    n.A.A.A.A.A.A.",
"A.A.A.A.A.A.A.A.H   @ 8.7.7.8.8.8.8.8.8.8.8.8.8.8.8.8.8.8.8.8.8.8.8.8.7.8.8.8.8.7.8.8.8.8.8.8.8.7.8.7.8.8.8.q.    n.A.A.B.x.x.x.",
"A.A.A.A.A.A.A.A.H   @ 8.8.8.8.8.8.8.8.8.8.8.8.8.8.8.8.8.8.8.8.8.8.8.8.8.8.8.8.8.8.8.8.8.8.8.8.8.8.8.8.8.8.8.w.    n.A.A.x.p.p.p.",
"A.A.A.A.A.A.A.A.H . @ 8.8.8.8.8.8.8.8.8.8.8.9.h h h h h h h h h h h h h h h h h h h h h h h h h h h 5.8.8.8.B     n.A.A.C.V.a.p.",
"A.A.A.A.A.A.A.A.e.  @ 8.8.8.8.8.8.8.8.8.8.8.-.g g g g g g g g g g g g g g g g g g g g g g g g g g g 6.8.8.8.,.    n.A.A.A.A.z.p.",
"A.A.A.A.A.A.A.A.e.  @ 8.8.8.8.8.8.8.8.8.<.:.>.>.0.0.0.0.0.0.0.0.0.0.0.0.0.0.0.0.0.0.0.>.0.0.0.0.0.>.:.:.5.8.B     n.A.A.A.A.A.A.",
"A.A.A.A.A.A.A.A.H . # 8.8.8.8.8.8.8.8.8.%.@.<.8.8.8.8.8.8.8.8.8.8.8.8.8.8.8.8.8.8.8.8.8.8.8.8.8.8.8.%.@.1.8.,.O O n.A.A.A.A.Z.V.",
"A.A.A.A.A.A.A.A.e.  # B B w.q.,.3.3.8.8.&.&.1.8.8.8.8.8.8.8.8.7.3.3.3.5.3.3.3.3.3.3.3.7.8.8.8.8.8.8.:.&.1.8.B O   n.A.A.A.A.z.p.",
"A.A.A.A.A.A.A.A.e.      O     p @.%.8.8.8.8.8.8.8.8.8.8.8.8.8.3.@.@.@.@.@.@.@.@.@.@.@.5.8.8.8.8.8.8.8.8.8.8.B     n.A.A.A.A.B.x.",
"A.A.A.A.A.A.A.A.e.      O     7 @.%.8.8.8.8.8.8.8.8.8.8.8.8.8.3.@.@.@.@.@.@.@.@.@.@.@.5.8.8.8.8.8.8.8.8.8.8.w.    n.A.A.A.A.A.A.",
"A.x.b.A.A.A.x   p @.%.8.8.8.8.m O + @.@.6.8.8.8.8.8.8.8.8.8.8.8.8.8.8.8.8.8.8.8.8.8.8.8.8.8.8.8.8.8.%.@.d   $ @.@.+   F V.A.A.A.",
"A.a.i.A.A.A.x   p @.%.8.8.8.8.m   + @.@.6.8.8.8.8.8.8.8.8.8.8.8.8.8.8.8.8.8.8.8.8.8.8.8.8.8.8.8.8.8.%.@.d   $ @.@.+   A N.A.A.A.",
"a.C.Z.A.A.A.x   p @.%.7.8.8.8.4.B w.3.3.8.8.8.8.8.8.8.8.8.8.8.8.8.8.8.8.8.8.8.8.8.8.8.8.8.2.&.&.&.&.p $ d w y @.@.+   H Z.A.z.a.",
"a.Z.A.A.A.A.x   p @.%.8.8.8.8.8.8.8.8.8.8.8.8.8.8.8.8.8.8.8.8.8.8.8.8.8.8.8.8.8.8.8.8.8.8.<.@.@.@.@.O   7 @.@.@.@.+   H Z.Z.z.p.",
"A.A.A.A.A.A.x   p @.%.8.8.8.8.8.8.8.8.8.8.8.8.8.8.8.8.8.8.8.8.8.8.8.8.8.8.8.8.8.8.8.8.8.8.>.7 7 7 7 p p w @.@.@.@.+   f.x.p.p.p.",
"A.A.A.A.A.A.x   p @.%.8.8.7.8.8.8.8.8.8.8.8.8.8.8.8.8.8.7.u.8.8.8.8.8.8.8.8.8.8.8.8.8.8.8.m         t @.@.@.@.@.@.O   H B.x.a.p.",
"A.A.A.A.A.A.v ; a t u 6.6.6.6.7.8.8.8.8.8.8.8.8.8.8.8.u.u.u.u.u.u.u.u.u.u.u.u.u.u.u.u.8.8.M @ @     t @.@.@.t t t % # f.A.A.z.p.",
"A.A.A.A.A.A.A.A.e.  + @.@.@.@.<.8.8.8.8.8.8.8.8.8.7.u.S.D.D.D.D.D.D.D.D.D.D.D.D.D.D.D.i.8.8.8.4.    t @.@.@.q     n.A.A.A.A.z.p.",
"A.A.A.A.A.A.A.A.H   O @.@.@.@.<.8.8.7.8.8.8.8.8.7.y.7.S.D.D.D.D.D.D.D.D.D.D.D.D.D.D.D.i.8.8.8.4.    t @.@.#.w O   n.A.A.A.A.z.p.",
"A.A.A.A.A.A.A.A.n.h.f.$ $ $ $ # s s % % % % B 8.i.V.S.D.D.D.D.D.D.D.D.D.D.D.D.D.D.D.D.S.S.l.8.4.    $ $ $ $ f h.h.A.A.A.b.z.a.p.",
"A.A.A.A.A.A.A.A.A.A.n.  O       O           z 8.i.D.D.D.D.D.D.D.D.D.D.D.D.D.D.D.D.D.D.D.D.m.8.4.        O   x A.A.A.A.A.x.p.t.p.",
"A.A.A.A.A.A.A.A.A.A.C.D D D D x O O 7 p z z ,.8.i.D.D.D.D.D.D.D.D.D.D.D.D.D.D.D.D.D.D.D.D.m.8.4.    C D D D e.A.A.A.A.A.A.A.z.p.",
"A.A.A.A.A.A.A.A.A.A.A.A.A.A.A.D O + @.@.6.8.8.8.i.D.D.D.D.D.D.D.D.D.D.D.D.D.D.D.D.D.D.D.D.M.8.4.    n.Z.A.A.A.A.A.A.A.A.A.A.x.z.",
"A.A.A.A.A.A.A.A.A.A.A.A.A.A.A.D   + @.@.6.7.8.8.i.D.D.D.D.D.D.D.D.D.D.D.D.D.D.D.D.D.D.D.D.m.8.4.    n.A.A.A.A.A.A.A.A.A.A.A.A.A.",
"A.A.A.A.A.A.A.A.A.A.A.A.A.A.A.D   + @.@.6.8.8.8.i.D.D.D.D.D.D.D.D.D.D.D.D.D.D.D.D.D.D.D.D.m.8.4.    n.A.A.A.A.A.A.A.A.A.A.A.B.N.",
"A.A.A.A.A.A.A.A.A.A.A.A.A.A.A.D   + @.@.6.8.8.8.i.D.D.D.D.D.D.D.D.D.D.D.D.D.D.D.D.D.D.D.D.m.8.4.  O n.A.A.A.A.A.A.A.A.A.A.A.z.p.",
"A.A.A.A.A.A.A.A.A.A.A.A.A.A.A.D   + #.@.6.8.8.8.8.u.u.u.u.z ; z u.8.D.D.D.D.D.D.D.D.D.D.D.m.7.4.    n.A.A.A.A.A.A.A.A.A.A.A.C.B.",
"A.A.A.A.A.A.A.A.A.A.A.A.A.A.A.D   + #.@.6.8.8.8.8.8.8.8.8.f O % 8.8.D.D.D.D.D.D.D.D.D.D.D.m.7.4.    n.A.A.A.A.A.A.A.A.A.A.A.A.A.",
"A.A.A.A.A.A.A.A.A.A.A.A.A.A.A.h.D D d d >.<.<.<.1.8.8.8.8.f   @ m m G G G G r.m.m.D.D.M.m.l.8.6.d 7 Z D h.A.A.A.A.A.A.A.A.A.x.p.",
"A.A.A.A.A.A.A.A.A.A.A.A.A.A.A.A.A.n.    t @.@.@.&.8.8.8.7.f       O         f 8.8.D.D.l.7.7.8.7.@.#.O   S A.A.A.A.Z.Z.A.A.A.x.a.",
"A.A.A.A.A.A.A.A.A.A.A.A.A.A.A.A.A.n.x x y r t @.&.8.8.8.8.f   & x x x x x x N q.w.g.c.u.8.8.8.7.&.&.O O D A.A.A.C.p.b.A.A.A.A.A.",
"A.A.A.A.A.A.A.A.A.A.A.A.A.A.A.A.A.A.A.B.- O d @.&.8.8.8.8.f O x A.A.A.A.A.A.e.  O   O q.8.8.8.8.8.8.&   D A.A.A.A.x.b.B.Z.A.A.A.",
"A.A.A.A.A.A.A.A.A.A.A.A.A.A.A.A.A.A.A.a.&   d @.&.8.8.8.8.f   x A.A.A.A.A.A.e.  . O   B 8.8.8.8.8.8.@   D A.A.A.A.A.B.p.B.A.A.A.",
"A.A.A.A.A.A.A.A.A.A.A.A.A.A.A.A.A.A.A.V.v.t.V + + @ @ @ @ e.n.n.A.A.A.A.A.A.e.  O t t 5.8.8.8.8.8.8.@   D A.A.A.A.A.C.B.m.x.x.x.",
"A.A.A.A.A.A.A.A.A.A.A.A.A.A.A.A.A.A.A.A.Z.p.V         . O e.A.A.A.A.A.A.A.A.e.  + #.@.3.8.8.8.8.8.8.@   D A.A.A.A.A.A.A.x.p.p.p.",
"A.A.A.A.A.A.A.A.A.A.A.A.A.A.A.A.A.A.A.A.A.V.j.e.e.e.e.H H n.A.A.A.A.A.A.A.A.n.e.H p p $.:.1.8.8.8.8.@   D A.A.z.z.A.A.A.x.p.p.p.",
"A.A.A.A.A.A.A.A.A.A.A.A.A.A.A.A.A.A.A.A.A.A.A.A.A.A.A.A.A.A.A.A.A.A.A.A.A.A.A.A.n.  O q @.<.8.8.8.8.&   D A.A.p.a.A.A.A.x.p.p.p.",
"A.A.A.A.V.p.p.p.C.A.A.A.A.A.A.b.p.p.p.Z.A.A.A.A.A.A.A.A.A.A.A.A.A.b.p.p.p.A.A.A.n.x x e r l w.B q.q.x x e.A.A.A.Z.p.p.p.p.p.p.p.",
"A.C.V.V.B.p.a.z.Z.A.A.A.A.A.A.B.z.p.p.V.V.A.A.A.Z.V.V.V.Z.A.C.V.V.x.p.a.z.A.A.A.A.A.A.x             n.A.A.C.V.V.B.p.p.p.p.p.p.p.",
"A.a.p.p.p.p.b.A.A.A.A.A.A.A.A.A.A.z.p.p.a.A.A.A.N.p.p.p.Z.Z.p.p.p.p.p.V.A.A.A.A.A.A.A.x             n.A.A.z.p.p.p.p.p.p.p.p.p.p.",
"b.b.x.p.p.p.z.b.Z.A.B.x.b.b.N.b.b.a.p.p.a.A.C.b.z.p.p.p.b.b.b.z.p.p.p.x.b.b.b.b.B.A.V.b.b.b.p.p.p.x.A.B.b.a.p.p.p.p.p.p.p.p.p.p.",
"p.Z.Z.p.p.p.p.p.V.A.a.p.p.p.p.p.p.p.p.p.a.A.B.p.p.p.p.p.p.a.A.B.p.p.p.p.p.p.p.p.x.A.b.p.p.p.p.p.p.x.A.x.p.p.p.p.p.p.p.p.p.p.p.p."
};
