/* XPM */
static char *result[] = {
/* columns rows colors chars-per-pixel */
"64 64 159 2 ",
"   c #211F30",
".  c #301E34",
"X  c #3E1E37",
"o  c #1D272F",
"O  c #22262E",
"+  c #222C2C",
"@  c #2B2F2E",
"#  c #233928",
"$  c #2B2E31",
"%  c #2F3131",
"&  c #2E313D",
"*  c #323331",
"=  c #4E1E3A",
"-  c #5E1D3E",
";  c #661D3F",
":  c #4B2336",
">  c #5E2838",
",  c #612539",
"<  c #6A293B",
"1  c #76273C",
"2  c #255F1C",
"3  c #2A581F",
"4  c #136E1F",
"5  c #1B7818",
"6  c #1D7A18",
"7  c #266C17",
"8  c #26661A",
"9  c #2D621D",
"0  c #266C18",
"q  c #2F6F1A",
"w  c #346B1C",
"e  c #277913",
"r  c #277A18",
"t  c #37721B",
"y  c #234524",
"u  c #2A4826",
"i  c #3A472A",
"p  c #3A4A29",
"a  c #245220",
"s  c #2C5523",
"d  c #355925",
"f  c #3F5029",
"g  c #0B6526",
"h  c #0F6A23",
"j  c #076029",
"k  c #146828",
"l  c #227026",
"z  c #2F7824",
"x  c #257B2B",
"c  c #357C24",
"v  c #427C1A",
"b  c #444633",
"n  c #405131",
"m  c #4D5332",
"M  c #555A34",
"N  c #6F4938",
"B  c #7C423B",
"V  c #6D5338",
"C  c #755039",
"Z  c #496026",
"A  c #4A6D22",
"S  c #51642A",
"D  c #58662E",
"F  c #537024",
"G  c #597923",
"H  c #5F6434",
"J  c #5E7B33",
"K  c #676D35",
"L  c #647B34",
"P  c #687A30",
"I  c #707736",
"U  c #3D3B4A",
"Y  c #6E1C42",
"T  c #7D1C46",
"R  c #8C293F",
"E  c #83343D",
"W  c #97413F",
"Q  c #831F45",
"!  c #8C1C49",
"~  c #9C1B4D",
"^  c #8F2344",
"/  c #932644",
"(  c #9B3940",
")  c #A12C42",
"_  c #A52249",
"`  c #B62E45",
"'  c #BF2E47",
"]  c #B4254A",
"[  c #BA2849",
"{  c #A73243",
"}  c #A73743",
"|  c #B33F44",
" . c #C62E49",
".. c #C92F48",
"X. c #CC3048",
"o. c #C9384B",
"O. c #D53A49",
"+. c #D83D49",
"@. c #CB4447",
"#. c #DE444A",
"$. c #E14649",
"%. c #E44A4A",
"&. c #28860F",
"*. c #298018",
"=. c #3E8716",
"-. c #318911",
";. c #3B8D13",
":. c #328419",
">. c #32823A",
",. c #438F14",
"<. c #44891B",
"1. c #449014",
"2. c #4C9316",
"3. c #569717",
"4. c #579718",
"5. c #5F9A19",
"6. c #68911F",
"7. c #619A1A",
"8. c #699D1C",
"9. c #6EA01C",
"0. c #72A11D",
"q. c #4A8821",
"w. c #5E8121",
"e. c #508C21",
"r. c #638628",
"t. c #668533",
"y. c #788136",
"u. c #739433",
"i. c #78A621",
"p. c #7FAC27",
"a. c #74A334",
"s. c #7BA635",
"d. c #45885F",
"f. c #649B79",
"g. c #818B36",
"h. c #8A9437",
"j. c #8A9538",
"k. c #939E38",
"l. c #82AF29",
"z. c #85B12C",
"x. c #88B42E",
"c. c #8DA237",
"v. c #83A935",
"b. c #8AAC36",
"n. c #83A13E",
"m. c #90AF37",
"M. c #9CA939",
"N. c #8BB630",
"B. c #96B137",
"V. c #97B238",
"C. c #9EB539",
"Z. c #92BB38",
"A. c #A3B539",
"S. c #A6B939",
"D. c #ADBC3A",
"F. c #97C139",
"G. c #9DC63D",
"H. c #A4CC42",
"J. c white",
/* pixels */
"D.D.D.D.D.D.D.D.D.D.D.D.D.D.D.D.D.D.D.D.D.B.A.D.D.D.D.D.D.D.D.D.D.D.D.D.D.D.D.D.D.D.D.D.D.D.D.D.D.D.B.S.D.D.D.D.D.D.D.D.A.B.r.F ",
"D.D.D.D.D.M O           M D.D.D.D.D.D.M.                            y.D.D.D.D.D.D.y.O                 y.D.D.D.D.D.D.D.D.D.D.v.a.",
"D.D.D.D.D.M O O         M D.D.D.D.D.D.M.                            y.D.D.D.D.D.D.I                   y.D.D.D.D.D.D.D.D.b.s.a.a.",
"D.S.S.M M B } R ( ( ( ( 1 M M A.D.g.M m F F F F F F F F F F F F F F D M K D.D.K M D F F F F F F F F F D M I D.D.D.D.D.S.b.s.a.a.",
"D.s.s.    ( %.%.%.%.%.%.W O O M.D.K   @ 0.0.0.0.0.0.0.0.0.0.0.0.0.0.n   % D.D.b   n 9.0.0.0.0.0.0.0.0.n   b D.D.D.D.B.a.B.D.v.a.",
"V.b.m.    ( $.$.$.$.$.$.} . . j.M.H   @ 6.6.6.6.6.6.6.6.6.6.6.6.6.6.i   % M.M.b   b 6.6.6.6.6.6.6.6.6.i   b D.D.D.B.m.b.A.D.B.b.",
"a.S.D.    R ..X.X.X.X.X.[ ~ ~ .                                                                           b D.D.S.a.b.D.D.D.D.D.",
"V.S.D.O   ^ X.X.X.X.X...[ ~ ~ .                                                               O           b D.D.D.B.C.D.B.b.b.b.",
"D.D.D.h.h.V : : : : ! _ Q = X Y T ! R { | | | | | | | { / { | | ) ) ) ) ) ) ) ) ) ) | | { / } | | | | | | W b b M.D.D.D.b.a.a.a.",
"D.D.D.D.D.M   O     T ~ Y     ! ~ ] X.X.%.%.%.%.%.%.%.X.X.O.%.%.X.X.X.X.X.X...X.X.O.%.%.X.X.+.%.%.%.%.%.%.|     M.D.D.D.A.C.s.a.",
"D.D.D.y.I N , > = = Y Y =     ; ; R R / O.o.o.o.o.o.o...X.O.o.o.X.X.X.X.X.X.X.X.X.X.X.X.X.X.X.o.o.o.O.} R E     M.D.D.D.D.D.v.a.",
"D.D.D.  O / X. .~ ~ X                 . ~ ~ ~ ~ ~ ~ ~  .X.[ ~ ~ X.X.X.X...X.X.X.X.' ~ ~  .X.] ~ ~ ~ ~ = O O     M.D.D.D.D.D.D.D.",
"D.D.D.    ^ X. .~ ~ =                 . ~ ~ ~ ~ ~ ~ ~  .X.[ ~ ~ X.X.X.X.X.X...X.X.[ ~ ~ ....] ~ ~ ~ ~ =         M.D.D.D.D.D.A.C.",
"D.D.D.    ( #.#. .' =   = Q ! ! ! _ ` `  . . . ... . .X.X. . . .X.X.X.X.X.X.X.X.X................. . . .` /     M.D.D.D.D.D.v.a.",
"D.D.D.  O ( %.#.X.X.:   = ~ ~ ~ ~ ] X.X.X.X.X.X.X.X.X.X.X.X.X.X.X.X.X.X.X.X.X.X.X.X.X.X.X.X.X.X.X.X.X.X...)     M.D.D.D.D.D.V.N.",
"D.D.D.  @ R %.#.X.X.:   . - - - - < 1 1 1 1 1 1 1 1 1 1 1 1 1 1 1 1 1 1 1 1 1 1 1 1 1 1 1 1 1 1 1 1 1 1 1 ,   O M.D.D.D.D.D.D.D.",
"D.D.D.    ( %.%...X.:                                                                                   O       M.D.D.D.D.D.m.b.",
"D.D.D.    ( %.$.` ` :   O + + + + + + + + + O o & U U U U U U U U U & o o + + o o & U U U U U U U U U & o + + + h.M.A.D.D.D.v.a.",
"D.D.D.    ( %.@.        y &.&.&.&.&.&.&.&.&.4 j d.J.J.J.J.J.J.J.J.J.f.j g &.&.h j f.J.J.J.J.J.J.J.J.J.f.j h &.&.+   M D.m.s.a.a.",
"D.D.D.    ( %.@.        y &.&.&.&.&.&.&.&.&.4 j d.J.J.J.J.J.J.J.J.J.f.j g &.&.h j f.J.J.J.J.J.J.J.J.J.f.j h &.&.+   M D.m.s.a.a.",
"D.D.D.y.y.C < >     3 2 t 3.3.3.4.3.3.3.3.3.:.6 x f.f.f.f.f.f.f.f.f.>.5 r 3.3.r 5 >.f.f.f.f.f.f.f.f.f.>.5 *.3.3.+   M D.D.D.v.u.",
"D.D.D.D.D.M O o     7 &.1.0.0.0.0.0.0.0.0.0.,.&.r j j j j j j j j j 5 &.-.0.i.;.&.5 j j j j j j j j j r &.;.0.0.%   M D.D.D.B.b.",
"D.D.D.D.D.K b b     t ;.3.0.0.0.0.0.0.0.0.0.2.;.:.l l l l l l l l l :.;.,.0.0.1.;.:.l l l l l l k l l :.;.2.0.0.@   M D.D.D.D.D.",
"D.D.D.D.D.D.D.M.    w.0.0.0.0.0.0.0.0.0.0.0.0.0.0.0.0.0.0.0.0.0.0.0.0.0.0.0.0.0.0.0.0.0.0.0.0.0.0.0.0.0.0.0.0.0.@   M D.V.b.b.b.",
"D.D.D.D.D.D.D.M.    G 0.0.0.0.0.0.0.0.0.0.0.0.0.0.0.0.0.0.0.0.0.0.0.0.0.0.0.0.0.0.0.0.0.0.0.0.0.0.0.0.0.0.0.0.0.@   M D.b.a.a.a.",
"D.D.D.D.D.D.D.M.    w.0.0.0.0.0.0.0.0.0.0.0.c k k k k k k k k k k k k k k k k k k k k k k k k k k k k e.0.0.0.0.@   M D.A.C.s.a.",
"D.D.D.D.D.D.D.M.    w.0.0.0.0.0.0.0.0.0.0.0.z j j j j j j j j j j j j j j j j j j j j j j j j j j j j q.0.0.0.0.@   M D.D.D.v.a.",
"D.D.D.D.D.D.D.M.  O w.0.0.0.0.0.0.0.0.0.3.3.<.z z z z z z z z z z z z z z z z z z z z z z z z z z z z <.3.7.0.0.@   M D.D.D.D.D.",
"D.D.D.D.D.D.D.M.    r.0.0.0.0.0.0.0.0.8.&.&.4.0.0.0.0.0.0.0.0.0.0.0.0.0.0.0.0.0.0.0.0.0.0.0.0.0.0.0.0.1.&.;.0.0.$   M D.D.D.A.C.",
"D.D.D.D.D.D.D.M.    G 0.0.0.0.0.0.0.0.8.&.&.3.0.0.0.0.0.0.0.0.0.0.0.0.0.0.0.0.0.0.0.0.0.0.0.0.0.0.0.0.1.&.;.0.0.$ O M D.D.D.v.a.",
"D.D.D.D.D.D.D.M.              e &.2.0.0.0.0.0.0.0.0.0.0.0.0.0.0.&.&.&.&.&.&.&.&.&.&.&.&.8.0.0.0.0.0.0.0.0.0.0.0.$   M D.D.D.V.N.",
"D.D.D.D.D.D.D.M.              e &.2.0.0.0.0.0.0.0.0.0.0.0.0.0.0.&.&.&.&.&.&.&.&.&.&.&.&.8.0.0.0.0.0.0.0.0.0.0.0.@   M D.D.D.D.D.",
"D.m.b.D.D.y.M m 2 2 A F F F F u y w 1.1.0.0.0.0.0.0.0.0.0.0.0.0.3.3.3.3.4.4.4.4.4.4.4.4.8.0.0.0.0.0.0.3.,.v p n 2 2 d M M D.D.D.",
"D.s.s.D.D.M   + &.&.7.0.0.0.0.@   3 &.-.0.0.0.0.0.0.0.0.0.0.0.0.0.0.0.0.0.0.0.0.0.0.0.0.0.0.0.0.0.0.0.,.&.0 O   e &.2     D.D.D.",
"s.A.S.D.D.M   + &.&.7.0.0.0.0.i @ 3 -.;.0.0.0.0.0.0.0.0.0.0.0.0.0.0.0.0.0.0.0.0.0.0.0.0.0.0.0.8.8.8.8.=.e 7 + + e &.2     D.b.s.",
"s.S.D.D.D.M   + &.&.7.0.0.0.0.0.0.0.0.0.0.0.0.0.0.0.0.0.0.0.0.0.0.0.0.0.0.0.0.0.0.0.0.0.0.0.2.&.&.&.&.y O # &.&.&.&.2     S.v.a.",
"D.D.D.D.D.M   + &.&.5.0.0.0.0.0.0.0.0.0.0.0.0.0.0.0.0.0.0.0.0.0.0.0.0.0.0.0.0.0.0.0.0.0.0.0.2.&.&.&.&.y   # &.&.&.&.2     a.a.a.",
"D.D.D.D.D.M   + &.&.7.0.0.0.0.0.0.0.0.0.0.0.0.0.0.0.0.0.0.0.0.0.0.0.0.0.0.0.0.0.0.0.0.0.0.0.A # # # # a 7 7 &.&.&.&.2     b.s.a.",
"D.D.D.D.D.M   + &.&.7.0.0.0.0.0.0.0.0.0.0.0.0.0.0.0.0.0.9.0.i.9.0.0.i.0.0.0.0.0.0.0.0.0.0.0.Z O       2 &.&.&.&.&.&.2     D.v.a.",
"D.D.D.D.D.y.M m 2 2 <.3.3.3.3.8.0.0.0.0.0.0.0.0.0.0.9.z.b.l.l.l.z.z.z.z.z.z.z.z.z.z.z.z.i.0.G p i     2 &.&.&.&.8 2 d M M D.v.a.",
"D.D.D.D.D.D.D.M.    q &.&.&.&.8.0.0.0.0.0.0.0.0.9.i.9.G.H.H.H.H.H.H.H.H.H.H.H.H.H.H.H.H.i.0.0.0.6.    2 &.&.&.&.+   M D.D.D.v.a.",
"D.D.D.D.D.D.D.M.  O 7 &.&.&.&.8.0.0.0.0.0.0.0.0.9.i.i.G.H.H.H.H.H.H.H.H.H.H.H.H.H.H.H.H.i.i.0.0.6.    2 &.&.&.&.+   M D.M.v.a.a.",
"D.D.D.D.D.D.D.D.M.M.* @ + + + @ @ @ @ @ @ @ G 0.p.G.G.H.H.H.H.H.H.H.H.H.H.H.H.H.H.H.H.H.G.G.z.0.6.    O + + + + h.M.A.D.b.a.a.a.",
"D.D.D.D.D.D.D.D.D.D.b O                     F 0.p.H.H.H.H.H.H.H.H.H.H.H.H.H.H.H.H.H.H.H.H.H.N.0.6.              M.D.D.D.D.D.v.a.",
"D.D.D.D.D.D.D.D.D.D.I K K K K $   # 3 3 Z Z r.0.p.H.H.H.H.H.H.H.H.H.H.H.H.H.H.H.H.H.H.H.H.H.N.0.6.    m K K K K A.D.D.D.D.D.b.v.",
"D.D.D.D.D.D.D.D.D.D.D.D.D.D.D.*   a &.-.0.0.0.0.p.H.H.H.H.H.H.H.H.H.H.H.H.H.H.H.H.H.H.H.H.H.N.0.6.  O I D.D.D.D.D.D.D.D.D.D.D.D.",
"D.D.D.D.D.D.D.D.D.D.D.D.D.D.D.*   a &.-.0.0.0.0.p.H.H.H.H.H.H.H.H.H.H.H.H.H.H.H.H.H.H.H.H.H.N.0.6.O   W D.D.D.D.D.D.D.D.D.D.B.m.",
"D.D.D.D.D.D.D.D.D.D.D.D.D.D.D.@   a &.-.0.0.0.0.p.H.H.H.H.H.H.H.H.H.H.H.H.H.H.H.H.H.H.H.H.H.N.0.6.o o a.D.D.D.D.D.D.D.D.D.D.v.a.",
"D.D.D.D.D.D.D.D.D.D.D.D.D.D.D.*   a &.-.i.9.0.0.p.H.H.H.H.H.H.H.H.H.H.H.H.H.H.H.H.H.H.H.H.H.x.0.6.    I D.D.D.D.D.D.D.D.D.D.A.B.",
"D.D.D.D.D.D.D.D.D.D.D.D.D.D.D.*   a &.-.i.9.0.0.i.z.z.z.l.u.M M z.z.F.H.H.H.H.H.H.H.H.H.H.H.N.0.6.o O y.D.D.D.D.D.D.D.D.D.D.D.D.",
"D.D.D.D.D.D.D.D.D.D.D.D.D.D.D.*   a &.-.8.0.0.0.0.0.9.0.0.F     0.0.Z.H.H.H.H.H.H.H.H.H.H.H.x.0.6.    y.D.D.D.D.D.D.D.D.D.D.v.s.",
"D.D.D.D.D.D.D.D.D.D.D.D.D.D.D.m b d 0 q 7.5.5.5.7.0.0.0.0.F     w.w.u.n.n.n.n.Z.Z.G.H.H.G.F.z.0.6.# # P h.k.D.D.D.S.S.D.D.D.b.s.",
"D.D.D.D.D.D.D.D.D.D.D.D.D.D.D.D.D.K   + &.&.&.&.;.0.0.0.0.F                   w.0.z.H.H.i.0.0.0.8.&.&.y   b D.D.S.a.b.D.D.D.D.D.",
"D.D.D.D.D.D.D.D.D.D.D.D.D.D.D.D.D.K   + &.&.&.&.;.0.0.0.0.F                   w.0.z.H.H.i.0.0.0.8.&.&.y   b D.D.S.b.B.B.S.D.D.D.",
"D.D.D.D.D.D.D.D.D.D.D.D.D.D.D.D.D.A.M.t.+ + 8 &.;.0.0.0.0.F O   M.M.M.M.M.M.M.b @ $ * * 6.0.0.0.0.8.8.f   b D.D.D.D.B.s.B.D.D.D.",
"D.D.D.D.D.D.D.D.D.D.D.D.D.D.D.D.D.D.D.c.    2 &.;.0.0.0.0.F     D.D.D.D.D.D.D.b     O O 6.0.0.0.0.0.0.n   b D.D.D.D.S.B.m.b.b.b.",
"D.D.D.D.D.D.D.D.D.D.D.D.D.D.D.D.D.D.D.A.M f s s 9 F F F F S M M D.D.D.D.D.D.D.b   + y y 6.0.0.0.0.0.0.n   b D.D.D.D.D.D.b.a.a.a.",
"D.D.D.D.D.D.D.D.D.D.D.D.D.D.D.D.D.D.D.D.S.C.M           O M D.D.D.D.D.D.D.D.D.b   y &.&.8.0.0.0.0.0.0.p   b D.v.v.D.D.D.b.a.a.a.",
"D.D.D.D.D.D.D.D.D.D.D.D.D.D.D.D.D.D.D.D.D.D.M             M D.D.D.D.D.D.D.D.D.b O u &.&.8.0.0.0.0.0.0.f   b D.a.s.D.D.D.v.a.a.a.",
"D.D.D.D.C.a.a.a.A.D.D.D.D.D.D.m.a.a.a.S.D.D.D.D.D.D.D.D.D.D.D.D.D.B.a.a.a.D.D.D.D.I     e &.3.0.0.0.9.f   b D.D.D.a.a.a.a.a.a.a.",
"D.A.C.C.B.a.s.v.A.D.D.D.D.D.D.B.v.a.a.C.C.D.D.D.D.C.C.C.S.D.C.C.C.b.a.s.v.D.D.D.D.I O   e &.2.0.0.0.0.f o b C.C.B.a.a.a.a.a.a.a.",
"D.s.a.a.a.a.m.D.D.D.D.D.D.D.D.D.D.v.a.a.s.D.D.D.m.a.a.a.S.A.a.a.a.a.a.C.D.D.D.D.D.M.I g.u y p n n f Z D y.L a.a.a.a.a.a.a.a.a.a.",
"m.m.m.a.a.a.v.N.S.D.B.B.b.B.B.b.m.s.a.a.s.D.A.m.v.a.a.a.b.B.B.v.a.a.a.b.m.m.b.B.C.D.C.B.%             P B.s.a.a.a.a.a.a.a.a.a.a.",
"a.S.S.a.a.a.a.a.C.D.s.a.a.a.a.a.a.a.a.a.s.D.B.a.a.a.a.a.a.s.D.V.a.a.a.a.a.a.a.a.b.D.N.s.* @ $ $ @ @ @ J a.a.a.a.a.a.a.a.a.a.a.a."
};
