/* XPM */
static char *result[] = {
/* columns rows colors chars-per-pixel */
"64 64 158 2 ",
"   c #181C22",
".  c #1D1E29",
"X  c #211F30",
"o  c #301E34",
"O  c #3E1E37",
"+  c #1B2A21",
"@  c #1D272F",
"#  c #22262E",
"$  c #222C2C",
"%  c #2B2D2E",
"&  c #233928",
"*  c #33302F",
"=  c #38342F",
"-  c #252330",
";  c #292834",
":  c #2E3230",
">  c #2E313D",
",  c #31343C",
"<  c #343A38",
"1  c #4E1E3A",
"2  c #5E1D3E",
"3  c #423C2E",
"4  c #4B2336",
"5  c #5E2838",
"6  c #65273A",
"7  c #76273C",
"8  c #72393F",
"9  c #255F1C",
"0  c #2A581F",
"q  c #136E1F",
"w  c #1B7818",
"e  c #1D7A18",
"r  c #266C17",
"t  c #2A661B",
"y  c #346B1C",
"u  c #277913",
"i  c #277A18",
"p  c #37721B",
"a  c #234524",
"s  c #2A4B27",
"d  c #37462A",
"f  c #3B4A2A",
"g  c #245220",
"h  c #2A5226",
"j  c #31552D",
"k  c #3F5029",
"l  c #35443A",
"z  c #365D3B",
"x  c #0B6526",
"c  c #0F6A23",
"v  c #076029",
"b  c #146828",
"n  c #227026",
"m  c #2F7824",
"M  c #257B2B",
"N  c #357C24",
"B  c #427C1A",
"V  c #46402E",
"C  c #455437",
"Z  c #525F37",
"A  c #496026",
"S  c #4A6D22",
"D  c #537024",
"F  c #597923",
"G  c #52683F",
"H  c #393E42",
"J  c #3C3A49",
"K  c #6E1C42",
"L  c #7D1C46",
"P  c #583A43",
"I  c #613E42",
"U  c #3C4345",
"Y  c #404748",
"T  c #474B4B",
"R  c #47524E",
"E  c #48524E",
"W  c #464E5D",
"Q  c #4E5A53",
"!  c #545C56",
"~  c #57675A",
"^  c #58675A",
"/  c #5B6C5D",
"(  c #555260",
")  c #5F7160",
"_  c #596674",
"`  c #72796B",
"'  c #8C293F",
"]  c #83343D",
"[  c #831F45",
"{  c #8C1C49",
"}  c #9C1B4D",
"|  c #8F2344",
" . c #932644",
".. c #9B3940",
"X. c #A12C42",
"o. c #A52249",
"O. c #B62E45",
"+. c #BF2E47",
"@. c #B4254A",
"#. c #BA2849",
"$. c #A73543",
"%. c #B33F44",
"&. c #C62E49",
"*. c #C92F48",
"=. c #CC3048",
"-. c #C9384B",
";. c #D63B49",
":. c #CB4447",
">. c #DE444A",
",. c #E14649",
"<. c #E44A4A",
"1. c #28860F",
"2. c #298018",
"3. c #3E8716",
"4. c #318911",
"5. c #3B8D13",
"6. c #328419",
"7. c #32823A",
"8. c #448B18",
"9. c #449014",
"0. c #4C9316",
"q. c #569717",
"w. c #579718",
"e. c #5F9A19",
"r. c #68911F",
"t. c #619A1A",
"y. c #699D1C",
"u. c #6EA01C",
"i. c #72A11D",
"p. c #4A8821",
"a. c #5E8121",
"s. c #508C21",
"d. c #638821",
"f. c #739433",
"g. c #78A621",
"h. c #7FAC27",
"j. c #45885F",
"k. c #7F8875",
"l. c #649B79",
"z. c #82AF29",
"x. c #85B12C",
"c. c #88B42E",
"v. c #83A13E",
"b. c #8BB630",
"n. c #92BB38",
"m. c #97C139",
"M. c #9DC63D",
"N. c #808875",
"B. c #86907A",
"V. c #8D977F",
"C. c #A4CC42",
"Z. c #A39DA9",
"A. c #B1AAB5",
"S. c #AED0DA",
"D. c #B8DCE5",
"F. c #D8D0D9",
"G. c #F2EAF1",
"H. c white",
/* pixels */
"V.V.V.V.) ) ) ) V.V.V.V.) ) ) ) ) ) ) ) ) ) ) ) 3 3 V V ) ) ) ) ) ) ) ) ) ) ) ) ) ) ) ) ) ) ) ) 3 3 V V V.V.V.V.V.V.V.V.V.V.V.V.",
"V.V.V.V.) H X X X X X X H ) ) ) ) ) ) ^ X X X X X X X X X X X X X X E ) ) ) ) ) ) R X X X X X X - X - = V.B.V.V.V.V.V.V.V.V.V.V.",
"B.B.V.V.) H - % X X X X H ) ) ) ) ) ) ^ X X X X X X X X X X X X X X E ) ) ) ) ) ) R - . X X X X X X X = Z.B.V.V.V.V.V.V.V.V.V.V.",
"V.B.Z.T H 8 ..' ........8 H H / ) Q H l D D D D D D D D D D D D D D C H U ) ) T H C D D D D D D D D D f T ^ V.V.V.V.V.V.V.V.V.V.",
"V.V.V.. X ' <.<.<.<.<.<...X X ~ ) Y X % i.i.i.i.i.i.i.i.i.i.i.i.i.i.f X ; ) ) , X k i.i.i.i.i.i.g.y.i.V @ , ) ) V.V.V.V.V.V.V.V.",
"V.V.V.. # $.,.,.,.,.,.,.$.o o Q ^ Y X % r.r.r.r.r.r.r.r.r.r.r.r.r.r.f X ; ^ ^ , - V r.r.r.r.r.r.r.r.r.f - , ) ) V.V.V.V.V.V.V.V.",
"V.V.V.# - ' =.=.=.=.=.=.#.} } ; X X X X X X X X X X X X X X X X X X X X X X X X X X X X X X X X X X X X X , ) ) V.V.V.V.V.V.V.V.",
"V.V.V.$ - ' =.=.=.=.=.*.#.} } o X X X X X X X X X X X X X X X X X X X X X X X X X X X X X X X X X X X X X > ) ) V.V.V.V.V.V.V.V.",
"V.V.V.` Q P 4 1 1 4 | o.[ 1 O K L | X.X.%.%.%.%.%.%.%.$.X.$.%.%.X.X.X.X.X.X.X.X.X.$.%.%.$.X.$.%.%.%.%.%.%.' , , ~ ) ) ) V.V.V.V.",
"V.V.V.V.) H . X X X L } K X X { } @.*.=.<.<.<.<.<.<.<.=.*.;.<.<.=.=.=.=.=.*.*.*.=.;.<.,.=.=.;.<.<.<.<.<.<.%.X X ~ ) ) ) V.V.V.V.",
"V.V.V.) R P 6 5 1 1 2 K 1 X X 2 K 7 '  .-.-.-.-.-.-.-.=.*.=.-.-.=.=.=.=.=.=.=.*.=.=.=.=.*.*.-.-.-.-.-.%...] X X ~ ) ) ) V.V.V.V.",
"V.V.V.X @ | =.&.} } 1 . X X X X X - - o } } } } } } } *.=.#.} } =.=.=.=.=.=.=.=.=.#.} } &.*.@.} } } } 4 - - X X ~ ) ) ) V.V.V.V.",
") ) ) X X ' =.&.} } O X X X X X X X X o } } } } } } } &.=.#.} } =.=.=.=.=.=.=.=.=.+.} } &.=.@.} } } } 1 . X X X ~ ) ) ) V.V.V.V.",
") ) ) X X ..,.>.&.&.1 X 1 { { { {  .#.O.&.&.&.*.&.&.&.*.=.&.&.&.=.=.=.=.=.=.=.=.=.=.&.&.=.=.&.&.&.&.&.&.O.' X X ~ ) ) ) V.V.V.V.",
") ) ) X X ..<.,.*.*.4 X 1 } } } } @.=.=.*.=.=.=.=.=.=.*.=.=.=.=.=.=.=.=.=.=.=.=.=.=.=.=.=.=.=.=.=.=.*.=.=.X.- . ~ ) ) ) V.V.V.V.",
") ) ) X X ..<.,.=.=.4 X o 2 2 2 K 6 7 7 7 7 7 7 7 7 7 7 7 7 7 7 7 7 7 7 7 7 7 7 7 7 7 7 7 7 7 7 7 7 7 7 7 6 . # ^ ) ) ) V.V.V.V.",
") ) ) X X ..<.<.*.*.4 X X X X X X X X X X X X X X X X - X X X X X X X X X X X X X X X X X - X X X X X X - X X X ~ ) ) ) ) ) ) ) ",
") ) ) X X ..<.,.O.O.4 X # $ $ $ $ $ $ $ $ $ @ @ > J J J J J J J J J > @ @ $ $ @ @ > J J J J J J J J J > @ $ $ $ Q ~ / ) ) ) ) ) ",
") ) ) X X ..<.:.X X X X a 1.1.1.1.1.1.1.1.1.q v j.H.H.H.H.H.H.H.H.H.l.v x 1.1.c v l.H.H.H.H.H.H.H.H.H.l.v c 1.1.$ X H ) ) ) ) ) ",
") ) ) X X ..<.:.X X X X a 1.1.1.1.1.1.1.1.1.q v j.H.H.H.H.H.H.H.H.H.l.v x 1.1.c v l.H.H.H.H.H.H.H.H.H.l.v c 1.1.$ X H ) ) ) ) ) ",
") ) ) E T I 6 5 X X 0 9 p w.w.w.w.w.w.w.w.w.6.e M l.l.l.l.l.l.l.l.l.7.w i w.w.2.w 7.l.l.l.l.l.l.l.l.l.7.w i w.w.$ X H ) ) ) ) ) ",
") ) ) ) ) H - - X X r 1.9.i.i.i.i.i.i.i.i.i.9.1.i v v v v v v v v v w 1.4.i.g.4.1.w v v v v v v v v v w 1.5.i.i.: X H ) ) ) ) ) ",
") ) ) ) ) Y , , X X p 5.q.i.i.i.i.i.i.i.i.i.0.5.6.n n n n n n n n n 6.5.9.i.i.9.5.6.n n n n n n n n n 6.5.0.i.i.% X H ) ) ) ) ) ",
") ) ) ) ) ) ) ~ X - F i.i.i.i.i.i.i.i.i.i.i.i.i.i.i.i.i.i.i.i.i.i.i.i.i.i.i.i.i.i.i.i.i.i.i.i.i.i.i.i.i.i.i.i.i.% X H ) ) ) ) ) ",
") ) ) ) ) ) ) ~ - X a.i.i.i.i.i.i.i.i.i.i.i.i.i.i.i.i.i.i.i.i.i.i.i.i.i.i.i.i.i.i.i.i.i.i.i.i.i.i.i.i.i.i.i.i.i.: X H ) ) ) ) ) ",
") ) ) ) ) ) ) ~ X X a.i.i.i.i.i.i.i.i.i.i.i.N b b b b b b b b b b b b b b b b b b b b b b b b b b b b s.i.i.i.i.% X H ) ) ) ) ) ",
") ) ) ) ) ) ) ~ X X a.i.i.i.i.i.i.i.i.i.g.y.m v v v v v v v v v v v v v v v v v v v v v v v v v v v v p.i.i.i.i.% @ H ) ) ) ) ) ",
") ) ) ) ) ) ) ~ X - a.i.i.i.i.i.i.i.i.y.w.w.3.m m m m m m m m m m m m m m m m m m m m m m m m m m m m 8.w.t.i.i.% - H / ) ) ) ) ",
") ) ) ) ) ) ) ~ X X a.i.i.i.i.i.i.i.i.y.1.1.w.u.i.i.i.i.i.i.i.i.i.i.i.i.i.i.i.i.i.i.i.i.i.i.i.i.i.i.i.9.1.5.i.i.% X H ) ) ) ) ) ",
") ) ) ) ) ) ) ~ X X a.u.i.i.i.u.i.i.i.y.1.1.w.i.i.i.i.i.i.i.i.i.i.i.i.i.i.i.i.i.i.i.i.i.i.i.i.i.i.i.i.9.1.5.i.i.: X H ) ) ) ) ) ",
") ) ) ) ) ) ) ~ X X X X - X X u 1.q.i.i.i.i.i.i.i.i.i.i.i.i.i.i.1.1.1.1.1.1.1.1.1.1.1.1.y.i.i.i.i.i.i.i.i.i.i.i.% X H ) ) ) ) ) ",
") ) ) ) ) ) ) ~ X X X X X X X u 1.0.i.i.i.i.i.i.i.i.i.i.i.i.i.i.1.1.1.1.1.1.1.1.1.1.1.1.y.i.i.i.i.i.i.i.i.i.i.i.% X H ) ) ) ) ) ",
") ) ) ) ) R H < 9 9 S D D D D a a y 9.0.i.i.i.i.i.i.i.i.i.i.i.i.w.w.w.w.w.w.w.w.w.w.w.w.y.i.i.i.i.i.i.q.9.B k k t 9 s H H ) ) ) ",
") ) ) ) ) H X $ 1.1.t.i.i.i.i.% X g 1.4.i.i.i.i.i.i.i.i.i.i.i.i.i.i.i.i.i.i.i.i.i.i.i.i.i.i.i.i.i.i.i.9.1.r X X u 1.9 X X ) ) ) ",
") ) ) ) ) H X $ 1.1.t.i.i.i.i.d % 0 4.5.i.i.i.i.i.i.i.i.i.i.i.i.i.i.i.i.i.i.i.i.i.i.i.i.i.i.i.y.y.y.y.3.u r $ $ u 1.9 X X ) ) ) ",
") ) ) ) ) H X $ 1.1.e.i.i.i.i.i.i.i.i.i.i.i.i.i.i.i.i.i.i.i.i.i.i.i.i.i.i.i.i.i.i.i.i.i.i.i.0.1.1.1.1.a - & 1.1.1.1.9 X X ) ) ) ",
") ) ) ) ) H @ $ 1.1.e.i.i.i.i.i.i.i.i.i.i.i.i.i.i.i.i.i.i.i.i.i.i.i.i.i.i.i.i.i.i.i.i.i.i.i.0.1.1.1.1.a X & 1.1.1.1.9 X X ) ) ) ",
") ) ) ) ) H X $ 1.1.t.i.i.i.i.i.i.i.i.i.i.i.i.i.i.i.i.i.i.i.i.i.i.i.i.i.i.i.i.i.i.i.i.i.i.i.S & & & & g r r 1.1.1.1.9 X X ) ) ) ",
") ) ) ) ) H - $ 1.1.e.i.i.i.i.i.i.i.i.i.i.i.i.i.i.i.i.i.i.i.i.i.i.i.i.i.i.i.i.i.i.i.i.i.i.i.A . . X X 9 1.1.1.1.1.1.t X X ) ) ) ",
") ) ) ) ) R J < 9 9 8.w.w.w.w.u.i.i.i.i.i.i.i.i.i.i.i.z.x.x.x.x.x.x.x.x.x.x.x.x.c.x.x.c.i.i.F C f X X 9 1.1.1.1.t 9 s H H ) ) ) ",
") ) ) ) ) ) ) ~ X X r 1.1.1.1.y.i.i.i.i.i.i.i.i.i.i.i.M.C.C.C.C.C.C.C.C.C.C.C.C.C.C.C.C.g.i.i.i.r.X X 9 1.1.1.1.@ X H ) ) ) ) ) ",
") ) ) ) ) ) ) ~ X - r 1.1.1.1.y.i.i.y.g.i.i.i.i.i.i.i.M.C.C.C.C.C.C.C.C.C.C.C.C.C.C.C.C.g.i.i.i.r.X X 9 1.1.1.1.$ X H ) ) ) ) ) ",
") ) ) ) ) ) ) ) 3 3 % $ $ $ $ % % % % % : % F i.h.M.M.C.C.C.C.C.C.C.C.C.C.C.C.C.C.C.C.C.M.M.c.i.r.X X # $ $ $ $ Q ~ / ) ) ) ) ) ",
") ) ) ) ) ) ) ) V 3 ; X X X X X - X - . X X D i.z.C.C.C.C.C.C.C.C.C.C.C.C.C.C.C.C.C.C.C.C.C.b.i.r.X X X X X X - ~ ) ) ) ) ) ) ) ",
") ) ) ) ) ) ) ) V V = * * * = - . & 0 h A A d.i.h.C.C.C.C.C.C.C.C.C.C.C.C.C.C.C.C.C.C.C.C.C.b.i.r.X X . = * * * / ) ) ) ) ) ) ) ",
") ) ) ) ) ) ) ) V V V V V V 3 - X g 1.4.i.i.i.i.h.C.C.C.C.C.C.C.C.C.C.C.C.C.C.C.C.C.C.C.C.C.b.i.r.X X   V V 3 V ) ) ) ) ) ) ) ) ",
") ) ) ) ) ) ) ) V V V V V V V - X g 1.4.i.i.i.i.h.C.C.C.C.C.C.C.C.C.C.C.C.C.C.C.C.C.C.C.C.C.b.i.r.X X   V V V V ) ) ) ) ) ) ) ) ",
") ) ) ) ) ) ) ) V V V V V V 3 - X g 1.4.i.i.i.i.h.C.C.C.C.C.C.C.C.C.C.C.C.C.C.C.C.C.C.C.C.C.b.i.r.X X   V V V V ) ) ) ) ) ) ) ) ",
") ) ) ) V V V V V V V V V V V - X g 1.4.i.i.i.i.h.C.C.C.C.C.C.C.C.C.C.C.C.C.C.C.C.C.C.C.C.C.b.i.r.X X   V V V V V V V V ) ) ) ) ",
") ) ) ) V V V V V V V V V V V - X g 1.4.i.i.i.i.i.z.x.z.z.f.Z Z z.c.m.C.C.C.C.C.C.C.C.C.C.C.b.i.r.X X   V V V V V V V V ) ) ) ) ",
") ) ) ) V V V V V V V V V V V - X 0 1.4.i.i.i.i.i.i.i.i.i.D X X i.i.n.C.C.C.C.C.C.C.C.C.C.C.b.i.r.X X   3 V V V V V V V ) ) ) ) ",
") ) ) ) V V V V V V V V V V 3 % H j r y t.t.e.e.y.i.i.i.i.D X X a.a.f.v.v.v.v.n.m.m.C.C.M.m.x.i.r.& & + 3 3 V V V V V V ) ) ) ) ",
"V V V V V V V V V V V V V V V V V.! X $ 1.1.1.1.5.i.i.i.i.D X X X X X X . . X d.i.x.C.C.g.i.i.i.y.1.1.a . % V V V V V V V V V V ",
"V V V V V V V V V V V V V V V V V.! X $ 1.1.1.1.5.i.i.i.i.D X X X X X X # $ X F i.x.C.C.g.i.i.i.y.1.1.a X - V V V V V V V V V V ",
"V V V V V V V V V V V V V V V V V.B.N.` $ $ t 1.5.i.i.i.i.D X X 3 3 3 3 k.k.N.< % : : : r.i.i.i.y.y.y.f X % 3 V V V V V V V V V ",
"V V V V V V V V V V V V V V V V V.V.V.N.X X 9 1.5.i.i.i.i.D X X V V V 3 B.B.Z.J X X - - r.i.i.i.i.i.i.C X % 3 3 V V V V V V V V ",
"V V V V V V V V V V V V D.D.D.D.D.D.D.S._ _ z 9 t D D D D G _ _ D.D.D.D.D.D.D.W X @ a a t.u.i.i.i.i.u.k - o V V V V V V V V V V ",
"V V V V V V V V V V V V D.D.D.D.D.D.D.D.D.D._ X X X X X - _ D.D.D.D.D.D.D.D.D.W X a 1.1.y.g.i.i.i.i.i.k X * V V V V V V V V V V ",
"V V V V V V V V V V V V D.D.D.D.D.D.D.D.D.D._ X X X X X X _ D.D.D.D.D.D.D.D.D.W . a 1.1.y.y.i.i.i.i.i.V X ; 3 V V V V V V V V V ",
"V V V V V V V V V V V V D.D.D.D.D.D.D.D.D.D.D.D.D.D.D.D.D.D.D.D.D.D.D.D.D.D.D.D.S.Z.X X i 1.0.i.i.i.u.C X % 3 3 V V V V V V V V ",
"G.G.G.G.G.G.G.G.G.G.G.G.G.G.G.G.G.G.G.G.G.G.G.G.G.G.G.G.G.G.G.G.G.G.G.G.G.G.G.G.G.Z.X X u 1.0.i.i.u.i.A X ! G.G.G.G.G.G.G.G.G.G.",
"G.G.G.G.G.G.G.G.G.G.G.G.G.G.G.G.G.G.G.G.G.G.G.G.G.G.G.G.G.G.G.G.G.G.G.G.G.G.G.G.G.F.Z.Z.s a d f k k k ` Z.A.G.G.G.G.G.G.G.G.G.G.",
"G.G.G.G.G.G.G.G.G.G.G.G.G.G.G.G.G.G.G.G.G.G.G.G.G.G.G.G.G.G.G.G.G.G.G.G.G.G.G.G.G.G.G.G.J X . X X X X Z.G.G.G.G.G.G.G.G.G.G.G.G.",
"G.G.G.G.G.G.G.G.G.G.G.G.G.G.G.G.G.G.G.G.G.G.G.G.G.G.G.G.G.G.G.G.G.G.G.G.G.G.G.G.G.G.G.G.( J J J J J J A.G.G.G.G.G.G.G.G.G.G.G.G."
};
