/* XPM */
static char *result[] = {
/* columns rows colors chars-per-pixel */
"64 64 190 2 ",
"   c #211F30",
".  c #301E34",
"X  c #22262E",
"o  c #222C2C",
"O  c #272E2D",
"+  c #2B2F2D",
"@  c #2B2F2E",
"#  c #233F26",
"$  c #223828",
"%  c #233928",
"&  c #2E3D29",
"*  c #33302F",
"=  c #31342D",
"-  c #36362E",
";  c #38342F",
":  c #232130",
">  c #252330",
",  c #2A2730",
"<  c #282936",
"1  c #292936",
"2  c #30333C",
"3  c #31343C",
"4  c #481E39",
"5  c #4F1E3A",
"6  c #5E1D3E",
"7  c #413C2E",
"8  c #423C2E",
"9  c #512936",
"0  c #513135",
"q  c #612539",
"w  c #67213D",
"e  c #6B263A",
"r  c #662A39",
"t  c #6A2F3A",
"y  c #76273C",
"u  c #7D273D",
"i  c #7E273E",
"p  c #77283C",
"a  c #792A3C",
"s  c #792B3C",
"d  c #7A2C3C",
"f  c #7F313D",
"g  c #255F1C",
"h  c #1F7C16",
"j  c #17731C",
"k  c #266C18",
"l  c #277913",
"z  c #1C4926",
"x  c #16422B",
"c  c #14402C",
"v  c #184529",
"b  c #234524",
"n  c #244C22",
"m  c #35402B",
"M  c #225022",
"N  c #245220",
"B  c #2D582D",
"V  c #375923",
"C  c #3F5029",
"Z  c #244A39",
"A  c #364C39",
"S  c #0B6426",
"D  c #0B6526",
"F  c #0F6A22",
"G  c #076029",
"H  c #3C6720",
"J  c #46402E",
"K  c #475A2E",
"L  c #485D2A",
"P  c #434E3F",
"I  c #44513B",
"U  c #496026",
"Y  c #4A6D22",
"T  c #4E6825",
"R  c #537024",
"E  c #343646",
"W  c #383E42",
"Q  c #3C3D44",
"!  c #3B3848",
"~  c #6E1C42",
"^  c #7D1C46",
"/  c #543C43",
"(  c #7E2042",
")  c #713940",
"_  c #335447",
"`  c #267344",
"'  c #414B44",
"]  c #404848",
"[  c #444D4B",
"{  c #594144",
"}  c #47524E",
"|  c #48524E",
" . c #4F5C54",
".. c #505453",
"X. c #575B57",
"o. c #505C54",
"O. c #546157",
"+. c #526762",
"@. c #516D62",
"#. c #5F7160",
"$. c #5A726F",
"%. c #596674",
"&. c #656A61",
"*. c #82343D",
"=. c #91303F",
"-. c #8C1C49",
";. c #9C1B4D",
":. c #A12447",
">. c #A52547",
",. c #A12B42",
"<. c #AE224B",
"1. c #AE234B",
"2. c #A8204C",
"3. c #B62E45",
"4. c #B4254A",
"5. c #BA2849",
"6. c #BD2B4A",
"7. c #B33F43",
"8. c #C02A49",
"9. c #C02B49",
"0. c #C32C49",
"q. c #C62D49",
"w. c #C62E48",
"e. c #C92F48",
"r. c #CC3048",
"t. c #CF3348",
"y. c #D23648",
"u. c #D23749",
"i. c #D53A49",
"p. c #D83D49",
"a. c #DE444A",
"s. c #E44A4A",
"d. c #28860F",
"f. c #248112",
"g. c #248212",
"h. c #318910",
"j. c #318911",
"k. c #3A8C12",
"l. c #3B8D13",
"z. c #3E8321",
"x. c #3C8023",
"c. c #4C861A",
"v. c #4C801C",
"b. c #458A1C",
"n. c #498E19",
"m. c #55841E",
"M. c #5F8E1D",
"N. c #4B9117",
"B. c #4D9316",
"V. c #4B9118",
"C. c #519417",
"Z. c #569617",
"A. c #569717",
"S. c #569718",
"D. c #579718",
"F. c #68911F",
"G. c #609A19",
"H. c #609A1A",
"J. c #649B1A",
"K. c #659C1A",
"L. c #65991E",
"P. c #64991F",
"I. c #699D1B",
"U. c #6D9F1C",
"Y. c #72A11D",
"T. c #5E8121",
"R. c #7EAC26",
"E. c #45885F",
"W. c #85B12B",
"Q. c #8BB630",
"!. c #94BE37",
"~. c #9EC73E",
"^. c #808875",
"/. c #8D977F",
"(. c #A1C940",
"). c #A4CC42",
"_. c #6C7D8A",
"`. c #768995",
"'. c #80858A",
"]. c #908F97",
"[. c #83AF94",
"{. c #A39DA8",
"}. c #88A1AD",
"|. c #92ADB8",
" X c #BDB7C0",
".X c #A5C4CF",
"XX c #B8DCE5",
"oX c #E0EBE4",
"OX c #F2EAF1",
"+X c white",
/* pixels */
"/./././.#.#.#.#././././.#.#.#.#.#.#.#.#.#.#.#.#.J J J J #.#.#.#.#.#.#.#.#.#.#.#.#.#.#.#.#.#.#.#.J J J J /./././././././././././.",
"/./././.#.#.#.#././././.#.#.#.#.#.#.#.#.#.#.#.#.J J J J #.#.#.#.#.#.#.#.#.#.#.#.#.#.#.#.#.#.#.#.J J J J /./././././././././././.",
"/./././.}               | #.#.#.#.#.#.#.2                             1 #.#.#.#.#.#.#. .                    ^./././././././././.",
"/./././.}               | #.#.#.#.#.#.#.2                             1 #.#.#.#.#.#.#. .                    ^./././././././././.",
"/./.X.X.0 *.*.*.*.*.*.*.{ ] ] #.#.O.] ] K U U U U U U U U U U U U U U L ] ] o.#.#.[ ] P U U U U U U U U U U ' ] &./././././././.",
"/./.    t s.s.s.s.s.s.s.t     #.#.}     T.Y.Y.Y.Y.Y.Y.Y.Y.Y.Y.Y.Y.Y.Y.F.    ] #.#.<   m Y.Y.Y.Y.Y.Y.Y.Y.Y.Y.@   Q /././././././.",
"/./.    t s.s.s.s.s.s.s.t     #.#.}     T.Y.Y.Y.Y.Y.Y.Y.Y.Y.Y.Y.Y.Y.Y.F.    ] #.#.<   m Y.Y.Y.Y.Y.Y.Y.Y.Y.Y.@   Q /././././././.",
"/./.    q r.r.r.r.r.r.r.<.;.;.                                                                                  Q /././././././.",
"/./.    q r.r.r.r.r.r.r.<.;.;.                                                                                  3 #.#.#././././.",
"/./.X.X./ y y y y i 4.4.( 6 6 6 6 w y y f *.*.*.*.*.*.*.p y s *.*.a y y y y y y y y y s *.*.d y y *.*.*.*.*.*.*.) ] ] O././././.",
"/./././.}         . ;.;.5     ;.;.1.r.r.a.s.s.s.s.s.s.s.t.r.u.s.s.y.r.r.r.r.r.r.r.r.r.u.s.s.i.r.r.s.s.s.s.s.s.s.7.    | /./././.",
"/./././.}         . ;.;.5     ;.;.1.r.r.a.s.s.s.s.s.s.s.t.r.u.s.s.y.r.r.r.r.r.r.r.r.r.u.s.s.i.r.r.s.s.s.s.s.s.s.7.    | /./././.",
"#.#.    q r.r.2.;.-.                    ^ ;.;.;.;.;.;.;.q.r.8.;.;.9.r.r.r.r.r.r.r.r.r.8.;.;.5.r.r.;.;.;.;.;..         | /./././.",
"#.#.    q r.r.2.;.-.                    ^ ;.;.;.;.;.;.;.q.r.8.;.;.9.r.r.r.r.r.r.r.r.r.8.;.;.5.r.r.;.;.;.;.;..         | /./././.",
"#.#.    r p.p.6.4.:.    4 6 6 6 6 w y y >.4.4.4.4.4.4.4.e.r.q.4.4.w.r.r.r.r.r.r.r.r.r.q.4.4.0.r.r.4.4.4.4.4.u y q     | /./././.",
"#.#.    t s.s.y.r.3.    ~ ;.;.;.;.1.r.r.r.r.r.r.r.r.r.r.r.r.r.r.r.r.r.r.r.r.r.r.r.r.r.r.r.r.r.r.r.r.r.r.r.r.r.r.,.    | /./././.",
"#.#.    t s.s.y.r.3.    ~ ;.;.;.;.1.r.r.r.r.r.r.r.r.r.r.r.r.r.r.r.r.r.r.r.r.r.r.r.r.r.r.r.r.r.r.r.r.r.r.r.r.r.r.,.    | #.#.#.#.",
"#.#.    t s.s.y.r.3.                                                                                                  | #.#.#.#.",
"#.#.    t s.s.y.r.3.                                                                                                  | #.#.#.#.",
"#.#.    t s.s.=.y e     # N N N N N N N N N M c c +.].].].].].].].].].'.c c z N N x c _ ].].].].].].].].].].Z c v N N A ] ] #.#.",
"#.#.    t s.s.9         g d.d.d.d.d.d.d.d.d.f.G G [.+X+X+X+X+X+X+X+X+XoXG G j d.d.S G E.+X+X+X+X+X+X+X+X+X+X` G F d.d.b     #.#.",
"#.#.    t s.s.9         g d.d.d.d.d.d.d.d.d.f.G G [.+X+X+X+X+X+X+X+X+XoXG G j d.d.S G E.+X+X+X+X+X+X+X+X+X+X` G F d.d.b     #.#.",
"#.#.#.#.}         o d.d.S.Y.Y.Y.Y.Y.Y.Y.Y.Y.I.d.d.j G G G G G G G G G D d.d.B.Y.Y.h.d.h G G G G G G G G G G g.d.l.Y.Y.C     #.#.",
"#.#.#.#.}         o d.d.S.Y.Y.Y.Y.Y.Y.Y.Y.Y.I.d.d.j G G G G G G G G G D d.d.B.Y.Y.h.d.h G G G G G G G G G G g.d.l.Y.Y.C     #.#.",
"#.#.#.#.O.] ] <   O B.B.K.Y.Y.Y.Y.Y.Y.Y.Y.Y.U.B.B.b.x.x.x.x.x.x.x.x.x.z.B.B.G.Y.Y.C.B.n.x.x.x.x.x.x.x.x.x.x.N.B.D.Y.Y.C     #.#.",
"#.#.#.#.#.#.#.2   + Y.Y.Y.Y.Y.Y.Y.Y.Y.Y.Y.Y.Y.Y.Y.Y.Y.Y.Y.Y.Y.Y.Y.Y.Y.Y.Y.Y.Y.Y.Y.Y.Y.Y.Y.Y.Y.Y.Y.Y.Y.Y.Y.Y.Y.Y.Y.Y.Y.C     #.#.",
"#.#.#.#.#.#.#.2   + Y.Y.Y.Y.Y.Y.Y.Y.Y.Y.Y.Y.Y.Y.Y.Y.Y.Y.Y.Y.Y.Y.Y.Y.Y.Y.Y.Y.Y.Y.Y.Y.Y.Y.Y.Y.Y.Y.Y.Y.Y.Y.Y.Y.Y.Y.Y.Y.Y.C     #.#.",
"#.#.#.#.#.#.#.2   + Y.Y.Y.Y.Y.Y.Y.Y.Y.Y.Y.Y.P.G G G G G G G G G G G G G G G G G G G G G G G G G G G G G G G L.Y.Y.Y.Y.C     #.#.",
"#.#.#.#.#.#.#.2   + Y.Y.Y.Y.Y.Y.Y.Y.Y.Y.Y.Y.P.G G G G G G G G G G G G G G G G G G G G G G G G G G G G G G G L.Y.Y.Y.Y.C     #.#.",
"#.#.#.#.#.#.#.2   + Y.Y.Y.Y.Y.Y.Y.Y.Y.Y.Z.B.V.x.x.x.x.x.x.x.x.x.x.x.x.x.x.x.x.x.x.x.x.x.x.x.x.x.x.x.x.x.x.x.N.B.D.Y.Y.C     #.#.",
"#.#.#.#.#.#.#.2   + Y.Y.Y.Y.Y.Y.Y.Y.Y.Y.k.d.j.Y.Y.Y.Y.Y.Y.Y.Y.Y.Y.Y.Y.Y.Y.Y.Y.Y.Y.Y.Y.Y.Y.Y.Y.Y.Y.Y.Y.Y.Y.Y.h.d.l.Y.Y.C     #.#.",
"#.#.#.#.#.#.#.2   + Y.Y.Y.Y.Y.Y.Y.Y.Y.Y.k.d.j.Y.Y.Y.Y.Y.Y.Y.Y.Y.Y.Y.Y.Y.Y.Y.Y.Y.Y.Y.Y.Y.Y.Y.Y.Y.Y.Y.Y.Y.Y.Y.h.d.l.Y.Y.C     #.#.",
"#.#.#.#.#.#.#.2   + Y.Y.Y.Y.Y.Y.Y.Y.Y.Y.Y.Y.Y.Y.Y.Y.Y.Y.Y.Y.Y.Y.Y.k.d.d.d.d.d.d.d.d.d.d.d.d.S.Y.Y.Y.Y.Y.Y.Y.Y.Y.Y.Y.Y.C     #.#.",
"#.#.#.#.#.#.#.2   + Y.Y.Y.Y.Y.Y.Y.Y.Y.Y.Y.Y.Y.Y.Y.Y.Y.Y.Y.Y.Y.Y.Y.k.d.d.d.d.d.d.d.d.d.d.d.d.S.Y.Y.Y.Y.Y.Y.Y.Y.Y.Y.Y.Y.C     #.#.",
"#.#.#.#.#.#.#.| * - U U v.B.B.Y.Y.Y.Y.Y.Y.Y.Y.Y.Y.Y.Y.Y.Y.Y.Y.Y.Y.Z.B.B.B.B.B.B.B.B.B.B.B.B.K.Y.Y.Y.Y.Y.Y.Y.C.B.c.U U I ] ] #.#.",
"#.#.#.#.#.#.#.#.J 7     g d.d.Y.Y.Y.Y.Y.Y.Y.Y.Y.Y.Y.Y.Y.Y.Y.Y.Y.Y.Y.Y.Y.Y.Y.Y.Y.Y.Y.Y.Y.Y.Y.Y.Y.Y.Y.Y.Y.Y.Y.h.d.k     | #.#.#.#.",
"#.#.#.#.#.#.#.#.J 7     g d.d.Y.Y.Y.Y.Y.Y.Y.Y.Y.Y.Y.Y.Y.Y.Y.Y.Y.Y.Y.Y.Y.Y.Y.Y.Y.Y.Y.Y.Y.Y.Y.Y.Y.Y.Y.Y.Y.Y.Y.h.d.k     | #.#.#.#.",
"#.#.#.#.#.#.#.#.J J J J W     d.d.d.d.d.H.Y.Y.Y.Y.Y.Y.Y.Y.Y.Y.Y.Y.Y.Y.Y.Y.Y.Y.Y.Y.Y.Y.Y.Y.Y.Y.Y.Y.d.d.d.d.d.o   3 #.#.#.#.#.#.#.",
"#.#.#.#.#.#.#.#.J J J J W     d.d.d.d.d.H.Y.Y.Y.Y.Y.Y.Y.Y.Y.Y.Y.Y.Y.Y.Y.Y.Y.Y.Y.Y.Y.Y.Y.Y.Y.Y.Y.Y.d.d.d.d.d.o   3 #.#.#.#.#.#.#.",
"#.#.#.#.#.#.#.#.J J J J W     N N N N N M.Y.Y.Y.Y.Y.Y.Y.Y.Y.Y.Y.Y.Y.Y.Y.Y.Y.Y.Y.Y.Y.Y.Y.Y.Y.Y.Y.Y.N N N N N X   3 #.#.#.#.#.#.#.",
"#.#.#.#.#.#.#.#.J J J J W               T.Y.Y.Y.Y.Y.Y.Y.Y.Y.Y.Y.Y.Y.Y.Y.Y.Y.Y.Y.Y.Y.Y.Y.Y.Y.Y.Y.Y.              3 #.#.#.#.#.#.#.",
"#.#.#.#.#.#.#.#.J J J J W               T.Y.Y.Y.Y.Y.Y.Y.Y.Y.Y.Y.Y.Y.Y.Y.Y.Y.Y.Y.Y.Y.Y.Y.Y.Y.Y.Y.Y.              3 #.#.#.#.#.#.#.",
"#.#.#.#.#.#.#.#.J 7     R Y.Y.Y.Y.Y.Y.Y.Y.Y.Y.Y.Y.Y.Y.Y.~.).).).).).).).).).).).).).).).).).W.Y.Y.Y.Y.R     l d.k     | #.#.#.#.",
"#.#.#.#.#.#.#.#.J 7     R Y.Y.Y.Y.Y.Y.Y.Y.Y.Y.Y.Y.Y.Y.Y.~.).).).).).).).).).).).).).).).).).W.Y.Y.Y.Y.R     l d.k     | #.#.#.#.",
"#.#.#.#.#.#.#.| * = N N m.Y.Y.Y.Y.J.B.B.Y U T Y.Y.R.Q.Q.(.).).).).).).).).).).).).).).).).).!.Q.Q.Y.Y.R     l d.l N N A ] ] #.#.",
"#.#.#.#.#.#.#.2   o d.d.S.Y.Y.Y.Y.A.d.d.$   + Y.Y.Q.).).).).).).).).).).).).).).).).).).).).).).).Y.Y.R     l d.d.d.d.b     #.#.",
"#.#.#.#.#.#.#.2   o d.d.S.Y.Y.Y.Y.A.d.d.$   + Y.Y.Q.).).).).).).).).).).).).).).).).).).).).).).).Y.Y.R     l d.d.d.d.b     #.#.",
"#.#.#.#.#.#.#.2   o d.d.d.d.d.d.d.g     T.Y.Y.Y.Y.Q.).).).).).).).).).).).).).).).).).).).).).).).Y.Y.R     l d.d.d.d.b     #.#.",
"#.#.#.#.J J J ,   o d.d.d.d.d.d.d.g     T.Y.Y.Y.Y.Q.).).).).).).).).).).).).).).).).).).).).).).).Y.Y.R     l d.d.d.d.b     #.#.",
"#.#.#.#.J J J ; * = N N N N N N N N N N M.Y.Y.Y.Y.R.Q.Q.(.).).).).).).).).).).).).).).).).).!.Q.Q.Y.Y.R     n N N N N & ] ] #.#.",
"#.#.#.#.J J J J J 7               b d.d.H.Y.Y.Y.Y.Y.Y.Y.~.).).).).).).).).).).).).).).).).).W.Y.Y.Y.Y.R               ; #.#.#.#.",
"#.#.#.#.J J J J J 7               b d.d.H.Y.Y.Y.Y.Y.Y.Y.~.).).).).).).).).).).).).).).).).).W.Y.Y.Y.Y.R               ; #.#.#.#.",
"J J J J J J J J J J J J J J J     b d.d.H.Y.Y.Y.Y.U                                         R Y.Y.Y.Y.R     8 J J J J J J J J J ",
"J J J J J J J J J J J J J J J     b d.d.H.Y.Y.Y.Y.U                                         R Y.Y.Y.Y.R     8 J J J J J J J J J ",
"J J J J J J J J J J J J J J J     b d.d.H.Y.U.B.B.V     ..X.X.X.* * * * X.X.X.X.* :   o N N m.Y.Y.B.B.H     8 J J J J J J J J J ",
"J J J J J J J J J J J J J J J     b d.d.H.Y.I.d.d.N     ^./././.J J J J /./././.J >   % d.d.S.Y.Y.d.d.g     8 J J J J J J J J J ",
"J J J J J J J J J J J J XXXXXX    b d.d.H.Y.I.d.d.N     .XXXXXXXXXXXXXXXXXXXXXXXXXE   % d.d.S.Y.Y.d.d.g     8 J J J J J J J J J ",
"J J J J J J J J J J J J XXXXXX    b d.d.d.d.l     _.XXXXXXXXXXXXXXXXXXXXXXXXXXXXXXE   % d.d.d.d.d.    %.J J J J J J J J J J J J ",
"J J J J J J J J J J J J XXXXXX    b d.d.d.d.l     _.XXXXXXXXXXXXXXXXXXXXXXXXXXXXXXE   % d.d.d.d.d.    %.J J J J J J J J J J J J ",
"J J J J J J J J J J J J XXXXXX_._.@.N N N N B _._.|.XXXXXXXXXXXXXXXXXXXXXXXXXXXXXX`._.$.N N N N N _._.}.J J J J J J J J J J J J ",
"OXOXOXOXOXOXOXOXOXOXOXOXOXOXOXOXOX{.        ! OXOXOXOXOXOXOXOXOXOXOXOXOXOXOXOXOXOXOXOX X          OXOXOXOXOXOXOXOXOXOXOXOXOXOXOX",
"OXOXOXOXOXOXOXOXOXOXOXOXOXOXOXOXOX{.        ! OXOXOXOXOXOXOXOXOXOXOXOXOXOXOXOXOXOXOXOX X          OXOXOXOXOXOXOXOXOXOXOXOXOXOXOX",
"OXOXOXOXOXOXOXOXOXOXOXOXOXOXOXOXOXOXOXOXOXOXOXOXOXOXOXOXOXOXOXOXOXOXOXOXOXOXOXOXOXOXOXOXOXOXOXOXOXOXOXOXOXOXOXOXOXOXOXOXOXOXOXOX",
"OXOXOXOXOXOXOXOXOXOXOXOXOXOXOXOXOXOXOXOXOXOXOXOXOXOXOXOXOXOXOXOXOXOXOXOXOXOXOXOXOXOXOXOXOXOXOXOXOXOXOXOXOXOXOXOXOXOXOXOXOXOXOXOX"
};
