/* XPM */
static char *result[] = {
/* columns rows colors chars-per-pixel */
"64 64 212 2 ",
"   c #211F30",
".  c #301E34",
"X  c #22262E",
"o  c #222C2C",
"O  c #272E2D",
"+  c #2B2F2D",
"@  c #2B2F2E",
"#  c #233F26",
"$  c #223828",
"%  c #233928",
"&  c #2A2931",
"*  c #323231",
"=  c #333331",
"-  c #481E39",
";  c #4F1E3A",
":  c #5E1D3E",
">  c #512936",
",  c #612539",
"<  c #67213D",
"1  c #6B263A",
"2  c #662A39",
"3  c #6A2F3A",
"4  c #76273C",
"5  c #7D273D",
"6  c #7E273E",
"7  c #77283C",
"8  c #792A3C",
"9  c #792B3C",
"0  c #7A2C3C",
"q  c #7F313D",
"w  c #255F1C",
"e  c #1F7C16",
"r  c #17731C",
"t  c #266C18",
"y  c #277913",
"u  c #1C4926",
"i  c #16422B",
"p  c #14402C",
"a  c #184529",
"s  c #234524",
"d  c #244C22",
"f  c #35402B",
"g  c #225022",
"h  c #245220",
"j  c #2D5623",
"k  c #375923",
"l  c #3F5029",
"z  c #3B5B2B",
"x  c #244A39",
"c  c #3D4332",
"v  c #0B6426",
"b  c #0B6526",
"n  c #0F6A22",
"m  c #076029",
"M  c #3C6720",
"N  c #404532",
"B  c #444632",
"V  c #444633",
"C  c #555934",
"Z  c #565A34",
"A  c #7B433B",
"S  c #6D5337",
"D  c #715838",
"F  c #496026",
"G  c #4A6D22",
"H  c #4E6825",
"J  c #4D6228",
"K  c #4E632D",
"L  c #50632A",
"P  c #56662F",
"I  c #537024",
"U  c #4A6132",
"Y  c #4E6332",
"T  c #556533",
"R  c #596733",
"E  c #5E6334",
"W  c #5C6930",
"Q  c #5F6A31",
"!  c #5F6A32",
"~  c #587333",
"^  c #636B33",
"/  c #636C34",
"(  c #676D35",
")  c #637733",
"_  c #707736",
"`  c #6E1C42",
"'  c #7D1C46",
"]  c #7E2042",
"[  c #335447",
"{  c #267344",
"}  c #526762",
"|  c #82343D",
" . c #91303F",
".. c #8C1C49",
"X. c #9C1B4D",
"o. c #A12447",
"O. c #A52547",
"+. c #A12B42",
"@. c #AE224B",
"#. c #AE234B",
"$. c #A8204C",
"%. c #B62E45",
"&. c #B4254A",
"*. c #BA2849",
"=. c #BD2B4A",
"-. c #B33F43",
";. c #C02A49",
":. c #C02B49",
">. c #C32C49",
",. c #C62D49",
"<. c #C62E48",
"1. c #C92F48",
"2. c #CC3048",
"3. c #CF3348",
"4. c #D23648",
"5. c #D23749",
"6. c #D53A49",
"7. c #D83D49",
"8. c #DE444A",
"9. c #E44A4A",
"0. c #28860F",
"q. c #248112",
"w. c #248212",
"e. c #318910",
"r. c #318911",
"t. c #3A8C12",
"y. c #3B8D13",
"u. c #3E8321",
"i. c #3C8023",
"p. c #4C861A",
"a. c #4C801C",
"s. c #458A1C",
"d. c #498E19",
"f. c #55841E",
"g. c #5F8E1D",
"h. c #4B9117",
"j. c #4D9316",
"k. c #4B9118",
"l. c #519417",
"z. c #569617",
"x. c #569717",
"c. c #569718",
"v. c #579718",
"b. c #68911F",
"n. c #609A19",
"m. c #609A1A",
"M. c #649B1A",
"N. c #659C1A",
"B. c #65991E",
"V. c #64991F",
"C. c #699D1B",
"Z. c #6D9F1C",
"A. c #72A11D",
"S. c #5E8121",
"D. c #788036",
"F. c #788136",
"G. c #798136",
"H. c #7EAC26",
"J. c #74A334",
"K. c #78A434",
"L. c #7BA634",
"P. c #7BA635",
"I. c #7EA735",
"U. c #45885F",
"Y. c #818B36",
"T. c #8A9437",
"R. c #8A9537",
"E. c #939F38",
"W. c #85B12B",
"Q. c #82A935",
"!. c #82A936",
"~. c #85AA35",
"^. c #86AA36",
"/. c #86AB36",
"(. c #89AC36",
"). c #8CAD36",
"_. c #8DAD36",
"`. c #8CAE36",
"'. c #8DAE36",
"]. c #8DAE37",
"[. c #90AF37",
"{. c #9BA839",
"}. c #9CA939",
"|. c #8BB630",
" X c #94B037",
".X c #97B237",
"XX c #94BE37",
"oX c #97B238",
"OX c #97B338",
"+X c #9BB438",
"@X c #9BB538",
"#X c #9EB538",
"$X c #9EB539",
"%X c #9FB638",
"&X c #9FB639",
"*X c #A2B738",
"=X c #A2B739",
"-X c #A3B739",
";X c #A3B839",
":X c #A6B839",
">X c #A6B939",
",X c #A9BA39",
"<X c #A9BB39",
"1X c #ADBC3A",
"2X c #9EC73E",
"3X c #A1C940",
"4X c #A4CC42",
"5X c #80858A",
"6X c #908F97",
"7X c #83AF94",
"8X c #E0EBE4",
"9X c white",
/* pixels */
"1X1X1X1X1X1X1X1X1X1X1X1X1X1X1X1X1X1X1X1X,XOX%X1X1X1X1X1X1X1X1X1X1X1X1X1X1X1X1X1X1X1X1X1X1X1X1X1X1X>XOX>X1X1X1X1X1X1X1X1X%XOXK.J.",
"1X1X1X1X1X1X1X1X1X1X1X1X1X1X1X1X1X1X1X1X1X1X1X1X1X1X1X1X1X1X1X1X1X1X1X1X1X1X1X1X1X1X1X1X1X1X1X1X1X1X1X1X1X1X1X1X1X1X1X1X1X1XP.J.",
"1X1X1X1XD.              G.1X1X1X1X1X1X1XB                             = 1X1X1X1X1X1X1XT.                    }.1X1X1X1X1X_.P.J.J.",
"1X:X:X1XD.              G.1X1X1X1X1X1X1XB                             = 1X1X1X1X1X1X1XT.                    }.1X1X1X<X:X(.P.J.J.",
"1XP.Y ( D | | | | | | | D ( ( 1X1XE.( ( L F F F F F F F F F F F F F F J ( ( R.1X1X_ ( Q F F F F F F F F F F / ( G.1XoXJ.oX1XQ.J.",
"oX(.    3 9.9.9.9.9.9.9.3     1X1XD.    S.A.A.A.A.A.A.A.A.A.A.A.A.A.A.b.    ( 1X1X*   f A.A.A.A.A.A.A.A.A.A.@   N oX[.(.&X1X X(.",
"J.>X    3 9.9.9.9.9.9.9.3     1X1XD.    S.A.A.A.A.A.A.A.A.A.A.A.A.A.A.b.    ( 1X1X*   f A.A.A.A.A.A.A.A.A.A.@   c J.(.1X1X1X1X1X",
"OX<X    , 2.2.2.2.2.2.2.@.X.X.                                                                                  N OX%X1X.X(.(.(.",
"1X1X    , 2.2.2.2.2.2.2.@.X.X.                                                                                  V 1X1X1X(.J.J.J.",
"1X1X( ( S 4 4 4 4 6 &.&.] : : : : < 4 4 q | | | | | | | 7 4 9 | | 8 4 4 4 4 4 4 4 4 4 9 | | 0 4 4 | | | | | | | A ( ( E.*X%XI.J.",
"1X1X1X1XD.        . X.X.;     X.X.#.2.2.8.9.9.9.9.9.9.9.3.2.5.9.9.4.2.2.2.2.2.2.2.2.2.5.9.9.6.2.2.9.9.9.9.9.9.9.-.    G.1X1XQ.J.",
"1X1X1X1XD.        . X.X.;     X.X.#.2.2.8.9.9.9.9.9.9.9.3.2.5.9.9.4.2.2.2.2.2.2.2.2.2.5.9.9.6.2.2.9.9.9.9.9.9.9.-.    G.1X1X1X1X",
"1X1X    , 2.2.$.X...                    ' X.X.X.X.X.X.X.,.2.;.X.X.:.2.2.2.2.2.2.2.2.2.;.X.X.*.2.2.X.X.X.X.X..         G.1X1X=X$X",
"1X1X    , 2.2.$.X...                    ' X.X.X.X.X.X.X.,.2.;.X.X.:.2.2.2.2.2.2.2.2.2.;.X.X.*.2.2.X.X.X.X.X..         G.1X1XQ.J.",
"1X1X    2 7.7.=.&.o.    - : : : : < 4 4 O.&.&.&.&.&.&.&.1.2.,.&.&.<.2.2.2.2.2.2.2.2.2.,.&.&.>.2.2.&.&.&.&.&.5 4 ,     G.1X1X.X[.",
"1X1X    3 9.9.4.2.%.    ` X.X.X.X.#.2.2.2.2.2.2.2.2.2.2.2.2.2.2.2.2.2.2.2.2.2.2.2.2.2.2.2.2.2.2.2.2.2.2.2.2.2.2.+.    G.1X1X1X1X",
"1X1X    3 9.9.4.2.%.    ` X.X.X.X.#.2.2.2.2.2.2.2.2.2.2.2.2.2.2.2.2.2.2.2.2.2.2.2.2.2.2.2.2.2.2.2.2.2.2.2.2.2.2.+.    G.1X1X[.(.",
"1X1X    3 9.9.4.2.%.                                                                                                  G.1X1XQ.J.",
"1X1X    3 9.9.4.2.%.                                                                                                  G._.P.K.J.",
"1X1X    3 9.9. .4 1     # h h h h h h h h h g p p } 6X6X6X6X6X6X6X6X6X5Xp p u h h i p [ 6X6X6X6X6X6X6X6X6X6Xx p a h h K T U J.J.",
"1X1X    3 9.9.>         w 0.0.0.0.0.0.0.0.0.q.m m 7X9X9X9X9X9X9X9X9X9X8Xm m r 0.0.v m U.9X9X9X9X9X9X9X9X9X9X{ m n 0.0.s     Q.J.",
"1X1X    3 9.9.>         w 0.0.0.0.0.0.0.0.0.q.m m 7X9X9X9X9X9X9X9X9X9X8Xm m r 0.0.v m U.9X9X9X9X9X9X9X9X9X9X{ m n 0.0.s      X(.",
"1X1X1X1XD.        o 0.0.c.A.A.A.A.A.A.A.A.A.C.0.0.r m m m m m m m m m b 0.0.j.A.A.e.0.e m m m m m m m m m m w.0.y.A.A.l     1X1X",
"1X1X1X1XD.        o 0.0.c.A.A.A.A.A.A.A.A.A.C.0.0.r m m m m m m m m m b 0.0.j.A.A.e.0.e m m m m m m m m m m w.0.y.A.A.l     (.(.",
"1X1X1X1XE.( ( *   O j.j.N.A.A.A.A.A.A.A.A.A.Z.j.j.s.i.i.i.i.i.i.i.i.i.u.j.j.n.A.A.l.j.d.i.i.i.i.i.i.i.i.i.i.h.j.v.A.A.l     J.J.",
"1X1X1X1X1X1X1XB   + A.A.A.A.A.A.A.A.A.A.A.A.A.A.A.A.A.A.A.A.A.A.A.A.A.A.A.A.A.A.A.A.A.A.A.A.A.A.A.A.A.A.A.A.A.A.A.A.A.l     I.J.",
"1X1X1X1X1X1X1XB   + A.A.A.A.A.A.A.A.A.A.A.A.A.A.A.A.A.A.A.A.A.A.A.A.A.A.A.A.A.A.A.A.A.A.A.A.A.A.A.A.A.A.A.A.A.A.A.A.A.l     Q.J.",
"1X1X1X1X1X1X1XB   + A.A.A.A.A.A.A.A.A.A.A.A.V.m m m m m m m m m m m m m m m m m m m m m m m m m m m m m m m B.A.A.A.A.l     1X1X",
"1X1X1X1X1X1X1XB   + A.A.A.A.A.A.A.A.A.A.A.A.V.m m m m m m m m m m m m m m m m m m m m m m m m m m m m m m m B.A.A.A.A.l     =X$X",
"1X1X1X1X1X1X1XB   + A.A.A.A.A.A.A.A.A.A.z.j.k.i.i.i.i.i.i.i.i.i.i.i.i.i.i.i.i.i.i.i.i.i.i.i.i.i.i.i.i.i.i.i.h.j.v.A.A.l     Q.J.",
"1X1X1X1X1X1X1XB   + A.A.A.A.A.A.A.A.A.A.t.0.r.A.A.A.A.A.A.A.A.A.A.A.A.A.A.A.A.A.A.A.A.A.A.A.A.A.A.A.A.A.A.A.e.0.y.A.A.l     .X[.",
"1X1X1X1X1X1X1XB   + A.A.A.A.A.A.A.A.A.A.t.0.r.A.A.A.A.A.A.A.A.A.A.A.A.A.A.A.A.A.A.A.A.A.A.A.A.A.A.A.A.A.A.A.e.0.y.A.A.l     1X1X",
"1X'.].1X1X1X1XB   + A.A.A.A.A.A.A.A.A.A.A.A.A.A.A.A.A.A.A.A.A.A.A.t.0.0.0.0.0.0.0.0.0.0.0.0.c.A.A.A.A.A.A.A.A.A.A.A.A.l     1X1X",
"1XP.P.1X1X1X1XB   + A.A.A.A.A.A.A.A.A.A.A.A.A.A.A.A.A.A.A.A.A.A.A.t.0.0.0.0.0.0.0.0.0.0.0.0.c.A.A.A.A.A.A.A.A.A.A.A.A.l     1X1X",
"P.&X>X1X1X1X1XF.( ^ F F a.j.j.A.A.A.A.A.A.A.A.A.A.A.A.A.A.A.A.A.A.z.j.j.j.j.j.j.j.j.j.j.j.j.N.A.A.A.A.A.A.A.l.j.p.F F W ( ( ~.P.",
"P.>X1X1X1X1X1X1X1X{.    w 0.0.A.A.A.A.A.A.A.A.A.A.A.A.A.A.A.A.A.A.A.A.A.A.A.A.A.A.A.A.A.A.A.A.A.A.A.A.A.A.A.e.0.t     G.<X:XQ.J.",
"1X1X1X1X1X1X1X1X1X{.    w 0.0.A.A.A.A.A.A.A.A.A.A.A.A.A.A.A.A.A.A.A.A.A.A.A.A.A.A.A.A.A.A.A.A.A.A.A.A.A.A.A.e.0.t     G.(.J.J.J.",
"1X1X1X1X1X1X1X1X1X1X1X1XC     0.0.0.0.0.m.A.A.A.A.A.A.A.A.A.A.A.A.A.A.A.A.A.A.A.A.A.A.A.A.A.A.A.A.0.0.0.0.0.o   V 1X1X1XOX(.K.J.",
"1X1X1X1X1X1X1X1X1X1X1X1XC     0.0.0.0.0.m.A.A.A.A.A.A.A.A.A.A.A.A.A.A.A.A.A.A.A.A.A.A.A.A.A.A.A.A.0.0.0.0.0.o   V 1X1X1X1X1XQ.J.",
"1X1X1X1X1X1X1X1X1X1X1X1XC     h h h h h g.A.A.A.A.A.A.A.A.A.A.A.A.A.A.A.A.A.A.A.A.A.A.A.A.A.A.A.A.h h h h h X   V 1X1X1X1X1XQ.J.",
"1X1X1X1X1X1X1X1X1X1X1X1XC               S.A.A.A.A.A.A.A.A.A.A.A.A.A.A.A.A.A.A.A.A.A.A.A.A.A.A.A.A.              V 1X1X1X1X1XQ.J.",
"1X1X1X1X1X1X1X1X1X1X1X1XC               S.A.A.A.A.A.A.A.A.A.A.A.A.A.A.A.A.A.A.A.A.A.A.A.A.A.A.A.A.              V 1X1X1X X!.K.J.",
"1X1X1X1X1X1X1X1X1X{.    I A.A.A.A.A.A.A.A.A.A.A.A.A.A.A.2X4X4X4X4X4X4X4X4X4X4X4X4X4X4X4X4X4XW.A.A.A.A.I     y 0.t     G.(.J.J.J.",
"1X1X1X1X1X1X1X1X1X{.    I A.A.A.A.A.A.A.A.A.A.A.A.A.A.A.2X4X4X4X4X4X4X4X4X4X4X4X4X4X4X4X4X4XW.A.A.A.A.I     y 0.t     G.1X1XQ.J.",
"1X1X1X1X1X1X1XF.( ! h h f.A.A.A.A.M.j.j.G F H A.A.H.|.|.3X4X4X4X4X4X4X4X4X4X4X4X4X4X4X4X4X4XXX|.|.A.A.I     y 0.y h h K ( ( _.Q.",
"1X1X1X1X1X1X1XB   o 0.0.c.A.A.A.A.x.0.0.$   + A.A.|.4X4X4X4X4X4X4X4X4X4X4X4X4X4X4X4X4X4X4X4X4X4X4XA.A.I     y 0.0.0.0.s     1X1X",
"1X1X1X1X1X1X1XB   o 0.0.c.A.A.A.A.x.0.0.$   + A.A.|.4X4X4X4X4X4X4X4X4X4X4X4X4X4X4X4X4X4X4X4X4X4X4XA.A.I     y 0.0.0.0.s     .X[.",
"1X1X1X1X1X1X1XB   o 0.0.0.0.0.0.0.w     S.A.A.A.A.|.4X4X4X4X4X4X4X4X4X4X4X4X4X4X4X4X4X4X4X4X4X4X4XA.A.I     y 0.0.0.0.s     Q.J.",
"1X1X1X1X1X1X1XB   o 0.0.0.0.0.0.0.w     S.A.A.A.A.|.4X4X4X4X4X4X4X4X4X4X4X4X4X4X4X4X4X4X4X4X4X4X4XA.A.I     y 0.0.0.0.s     %XOX",
"1X1X1X1X1X1X1XF.( ! h h h h h h h h h h g.A.A.A.A.H.|.|.3X4X4X4X4X4X4X4X4X4X4X4X4X4X4X4X4X4XXX|.|.A.A.I     d h h h h K ( ( 1X1X",
"1X1X1X1X1X1X1X1X1X{.              s 0.0.m.A.A.A.A.A.A.A.2X4X4X4X4X4X4X4X4X4X4X4X4X4X4X4X4X4XW.A.A.A.A.I               G.1X1X~.P.",
"1X1X1X1X1X1X1X1X1X{.              s 0.0.m.A.A.A.A.A.A.A.2X4X4X4X4X4X4X4X4X4X4X4X4X4X4X4X4X4XW.A.A.A.A.I               G.1X1X(.P.",
"1X1X1X1X1X1X1X1X1X1X1X1X1X1X1X    s 0.0.m.A.A.A.A.F                                         I A.A.A.A.I     }.1X>XJ.(.1X1X1X1X1X",
"1X1X1X1X1X1X1X1X1X1X1X1X1X1X1X    s 0.0.m.A.A.A.A.F                                         I A.A.A.A.I     }.1X,X(.[.oX>X1X1X1X",
"1X1X1X1X1X1X1X1X1X1X1X1X1X1X1X    s 0.0.m.A.Z.j.j.k     E ( ( ( ( ( ( ( ( ( ( ( ( &   o h h f.A.A.j.j.M     }.1X1X1XoXJ.oX1X1X1X",
"1X1X1X1X1X1X1X1X1X1X1X1X1X1X1X    s 0.0.m.A.C.0.0.h     }.1X1X1X1X1X1X1X1X1X1X1X1X*   % 0.0.c.A.A.0.0.w     }.1X1X1X>XOX[.(.(.(.",
"1X1X1X1X1X1X1X1X1X1X1X1X1X1X1X    s 0.0.m.A.C.0.0.h     }.1X1X1X1X1X1X1X1X1X1X1X1X*   % 0.0.c.A.A.0.0.w     }.1X1X1X1X1X(.J.J.J.",
"1X1X1X1X1X1X1X1X1X1X1X1X1X1X1X    s 0.0.0.0.y     ( 1X1X1X1X1X1X1X1X1X1X1X1X1X1X1X*   % 0.0.0.0.0.    Z 1X1X1X!./.1X1X1X(.J.J.J.",
"1X1X1X1X1X1X1X1X1X1X1X1X1X1X1X    s 0.0.0.0.y     ( 1X1X1X1X1X1X1X1X1X1X1X1X1X1X1X*   % 0.0.0.0.0.    Z 1X1X1XJ.P.1X1X1X(.J.J.J.",
"1X1X1X1X#XJ.J.J.&X1X1X1X1X1X1XR U z h h h h j ( ( R.1X1X1X1X1X1X1X[.J.J.J.1X1X1X1X_ ( P h h h h h ( ( Y.1X1X1X1X>XJ.J.J.J.J.J.J.",
"1X=X$X$X XJ.P.Q.;X1X1X1X1X1X1XOXQ.~         = 1X>X$X$X$X<X1X$X$X$X(.J.I.Q.1X1X1X1X1X1XT.          ;X1X1X1X=X$X$XoXJ.J.J.J.J.J.J.",
"1XP.J.J.J.J.[.1X1X1X1X1X1X1X1X1X1X)         = 1X[.J.J.J.>X>XJ.J.J.J.J.&X1X1X1X1X1X1X1XT.          (.1X1X1XQ.J.J.J.J.J.J.J.J.J.J.",
"[.[.).J.J.J.Q.[.>X1X X[.[.[.[.[.[.L.J.J.P.1X-X[.Q.J.J.J.`.[.[.^.J.J.J.(.[.[.[.[.@X1X%X[.[.[.J.J.J.(.1X+X[.L.J.J.J.J.J.J.J.J.J.J.",
"J.>X>XJ.J.J.J.J.&X1XP.J.J.J.J.J.J.J.J.J.P.1XoXJ.J.J.J.J.J.P.1XoXJ.J.J.J.J.J.J.J.(.1X[.J.J.J.J.J.J.(.1X(.J.J.J.J.J.J.J.J.J.J.J.J."
};
