/* XPM */
static char *result[] = {
/* columns rows colors chars-per-pixel */
"64 64 216 2 ",
"   c #211F30",
".  c #301E34",
"X  c #1A302E",
"o  c #17382D",
"O  c #222C2C",
"+  c #262D2D",
"@  c #272E2D",
"#  c #2B2F2D",
"$  c #2B2F2E",
"%  c #233F26",
"&  c #353F2B",
"*  c #323231",
"=  c #333331",
"-  c #471E38",
";  c #4F1E3A",
":  c #5E1D3E",
">  c #522A37",
",  c #612539",
"<  c #67213D",
"1  c #6C263B",
"2  c #652A39",
"3  c #6A2F3A",
"4  c #76273C",
"5  c #7D273D",
"6  c #7E273E",
"7  c #78293C",
"8  c #792A3C",
"9  c #792B3C",
"0  c #7B2D3C",
"q  c #7F313C",
"w  c #255F1C",
"e  c #17731C",
"r  c #266C17",
"t  c #277913",
"y  c #207D15",
"u  c #1C4926",
"i  c #16422A",
"p  c #14402C",
"a  c #184429",
"s  c #234524",
"d  c #314A26",
"f  c #225021",
"g  c #245220",
"h  c #2C5622",
"j  c #2D5624",
"k  c #3F5028",
"l  c #3F5029",
"z  c #3E5C28",
"x  c #244A3A",
"c  c #394131",
"v  c #0B6426",
"b  c #0B6526",
"n  c #0F6923",
"m  c #076029",
"M  c #2D6321",
"N  c #4B7A1E",
"B  c #444632",
"V  c #444633",
"C  c #414A34",
"Z  c #5F5136",
"A  c #565A34",
"S  c #7C423B",
"D  c #6D5337",
"F  c #715838",
"G  c #496026",
"H  c #466825",
"J  c #4D6128",
"K  c #4E632D",
"L  c #51642A",
"P  c #5C682F",
"I  c #537024",
"U  c #4A6132",
"Y  c #596733",
"T  c #566B30",
"R  c #5F6A32",
"E  c #5D6934",
"W  c #5F7237",
"Q  c #5A7A33",
"!  c #606A32",
"~  c #636B33",
"^  c #636C34",
"/  c #676D35",
"(  c #627539",
")  c #707736",
"_  c #717E35",
"`  c #757F36",
"'  c #6E1C42",
"]  c #7D1C45",
"[  c #7F2043",
"{  c #335347",
"}  c #267444",
"|  c #526762",
" . c #82343D",
".. c #8C1C49",
"X. c #9C1B4D",
"o. c #923040",
"O. c #A12447",
"+. c #A42646",
"@. c #A12C42",
"#. c #A8204B",
"$. c #AE224B",
"%. c #AE234B",
"&. c #B62E45",
"*. c #B4254A",
"=. c #BA2849",
"-. c #BD2B4A",
";. c #B33F44",
":. c #C02A49",
">. c #C02B49",
",. c #C32C49",
"<. c #C62D49",
"1. c #C62E48",
"2. c #C92F48",
"3. c #CC3048",
"4. c #CF3348",
"5. c #D23648",
"6. c #D23749",
"7. c #D53A49",
"8. c #D83D49",
"9. c #DE4349",
"0. c #E44A4A",
"q. c #28860F",
"w. c #248112",
"e. c #248212",
"r. c #318910",
"t. c #318911",
"y. c #3A8C12",
"u. c #3B8D13",
"i. c #3C8023",
"p. c #3E8222",
"a. c #4C871A",
"s. c #4C801C",
"d. c #458A1C",
"f. c #498F19",
"g. c #449014",
"h. c #4B9117",
"j. c #4D9316",
"k. c #4B9118",
"l. c #529517",
"z. c #569617",
"x. c #569717",
"c. c #579718",
"v. c #5B9818",
"b. c #68911F",
"n. c #609A19",
"m. c #649B1A",
"M. c #65991E",
"N. c #64991F",
"B. c #6D991E",
"V. c #699D1C",
"C. c #6EA01C",
"Z. c #72A11D",
"A. c #5E8121",
"S. c #5D8022",
"D. c #558823",
"F. c #638821",
"G. c #788036",
"H. c #788136",
"J. c #798136",
"K. c #74A334",
"L. c #78A434",
"P. c #7BA634",
"I. c #7BA635",
"U. c #7EA735",
"Y. c #45875E",
"T. c #818B36",
"R. c #8A9537",
"E. c #8C9B37",
"W. c #8A9538",
"Q. c #939F38",
"!. c #85B12C",
"~. c #82A935",
"^. c #82A936",
"/. c #85AA35",
"(. c #86AA36",
"). c #86AB36",
"_. c #89AC36",
"`. c #8CAD36",
"'. c #8DAD36",
"]. c #8CAE36",
"[. c #8DAE36",
"{. c #8DAE37",
"}. c #90AF37",
"|. c #9BA839",
" X c #9CA939",
".X c #8BB630",
"XX c #94B037",
"oX c #97B237",
"OX c #94BE37",
"+X c #97B238",
"@X c #97B338",
"#X c #9BB438",
"$X c #9BB538",
"%X c #9EB538",
"&X c #9FB538",
"*X c #9EB539",
"=X c #9FB638",
"-X c #9FB639",
";X c #A4B239",
":X c #A2B738",
">X c #A2B739",
",X c #A3B739",
"<X c #A6B839",
"1X c #A6B939",
"2X c #A9BA39",
"3X c #A9BB39",
"4X c #ADBC3A",
"5X c #9EC63D",
"6X c #93B640",
"7X c #9CC141",
"8X c #A4CC42",
"9X c #80858A",
"0X c #908F97",
"qX c #83AF94",
"wX c #E0EBE4",
"eX c white",
/* pixels */
"4X4X4X4X4X4X4X4X4X4X4X4X4X4X4X4X4X4X4X4X2X@X=X4X4X4X4X4X4X4X4X4X4X4X4X4X4X4X4X4X4X4X4X4X4X4X4X4X4X1X@X1X4X4X4X4X4X4X4X4X=X@XL.K.",
"4X4X4X4X4X4X4X4X4X4X4X4X4X4X4X4X4X4X4X4X4X4X4X4X4X4X4X4X4X4X4X4X4X4X4X4X4X4X4X4X4X4X4X4X4X4X4X4X4X4X4X4X4X4X4X4X4X4X4X4X4X4XI.K.",
"4X4X4X4X4X4X4X4X4X|.                    W.4X4X4X4X4X4X4X*                             V 4X4X4X4X4X4X4XG.              J.'.I.K.K.",
"4X<X<X4X4X4X4X4X4X|.                    W.4X4X4X4X4X4X4X*                             V 4X4X4X4X4X4X4XG.              ` _.I.K.K.",
"4XI.I.4X4X4X4XH./ ~ G G G G G G G G G G ! / ) 4X4XR./ / J G G G G G G G G G G G G G G L / / Q.4X4X/ / F  . . . . . . .Z E / ~.K.",
"+X_.{.4X4X4X4XB   # Z.Z.Z.Z.Z.Z.Z.Z.Z.Z.&   = 4X4X/     b.Z.Z.Z.Z.Z.Z.Z.Z.Z.Z.Z.Z.Z.Z.S.    J.4X4X    3 0.0.0.0.0.0.0.3     XX_.",
"K.1X4X4X4X4X4XB   # Z.Z.Z.Z.Z.Z.Z.Z.Z.Z.&   = 4X4X/     b.Z.Z.Z.Z.Z.Z.Z.Z.Z.Z.Z.Z.Z.Z.S.    J.4X4X    3 0.0.0.0.0.0.0.3     4X4X",
"@X3X4X4X4X4X4XB                                                                                   X.X.%.3.3.3.3.3.3.3.,     _._.",
"4X4X4X4X4X4X4XB                                                                                   X.X.%.3.3.3.3.3.3.3.,     K.K.",
"4X4X4X4XQ./ / S  . . . . . . .4 4 0  . .8 4 4 4 4 4 4 4 4 4 9  . .8 4 7  . . . . . . .q 4 4 < : : : : [ *.*.5 4 4 4 4 D / / U.K.",
"4X4X4X4XG.    ;.0.0.0.0.0.0.0.3.3.7.0.0.5.3.3.3.3.3.3.3.3.3.6.0.0.5.3.4.0.0.0.0.0.0.0.9.3.3.$.X.X.    ; X.X..         J.4X4X~.K.",
"4X4X4X4XG.    ;.0.0.0.0.0.0.0.3.3.7.0.0.5.3.3.3.3.3.3.3.3.3.6.0.0.5.3.4.0.0.0.0.0.0.0.9.3.3.$.X.X.    ; X.X..         J.4X4X4X4X",
"4X4X4X4XG.        . X.X.X.X.X.3.3.=.X.X.>.3.3.3.3.3.3.3.3.3.:.X.X.>.3.<.X.X.X.X.X.X.X.]                     ..X.#.3.3.,     >X*X",
"4X4X4X4XG.        . X.X.X.X.X.3.3.=.X.X.>.3.3.3.3.3.3.3.3.3.:.X.X.>.3.<.X.X.X.X.X.X.X.]                     ..X.#.3.3.,     ~.K.",
"4X4X4X4XG.    , 4 6 *.*.*.*.*.3.3.,.*.*.1.3.3.3.3.3.3.3.3.3.<.*.*.1.3.2.*.*.*.*.*.*.*.+.4 4 < : : : : -     O.*.-.8.8.2     oX}.",
"4X4X4X4XG.    @.3.3.3.3.3.3.3.3.3.3.3.3.3.3.3.3.3.3.3.3.3.3.3.3.3.3.3.3.3.3.3.3.3.3.3.3.3.3.$.X.X.X.X.'     &.3.6.0.0.3     4X4X",
"4X4X4X4XG.    @.3.3.3.3.3.3.3.3.3.3.3.3.3.3.3.3.3.3.3.3.3.3.3.3.3.3.3.3.3.3.3.3.3.3.3.3.3.3.$.X.X.X.X.'     &.3.6.0.0.3     }._.",
"4X4X4X4XG.                                                                                                  &.3.6.0.0.3     ~.K.",
"4X4X4X4XG.                                                                                                  &.3.6.0.0.3     L.K.",
"4X4X/ / K g g a p x 0X0X0X0X0X0X0X0X0X0X{ p i g g u p p 9X0X0X0X0X0X0X0X0X0X| p p f g g g g g g g g g %     1 4 o.0.0.3     K.K.",
"4X4X    s q.q.n m } eXeXeXeXeXeXeXeXeXeXY.m b q.q.e m m wXeXeXeXeXeXeXeXeXeXqXm m e.q.q.q.q.q.q.q.q.q.w         > 0.0.3     ~.K.",
"4X4X    s q.q.n m } eXeXeXeXeXeXeXeXeXeXY.m b q.q.e m m wXeXeXeXeXeXeXeXeXeXqXm m e.q.q.q.q.q.q.q.q.q.w         > 0.0.3     XX_.",
"4X4X    k Z.Z.y.q.w.m m m m m m m m m m y q.t.Z.Z.j.q.q.v m m m m m m m m m e q.q.V.Z.Z.Z.Z.Z.Z.Z.Z.Z.x.q.q.O         J.4X4X4X4X",
"4X4X    k Z.Z.y.q.w.m m m m m m m m m m y q.t.Z.Z.j.q.q.v m m m m m m m m m e q.q.V.Z.Z.Z.Z.Z.Z.Z.Z.Z.x.q.q.O         J.oX_._._.",
"4X4X    k Z.Z.z.j.k.i.i.i.i.i.i.i.i.i.i.f.j.l.Z.Z.n.j.j.p.i.i.i.i.i.i.i.i.i.d.j.j.C.Z.Z.Z.Z.Z.Z.Z.Z.Z.m.j.j.+   = / / Q._.K.K.K.",
"4X4X    k Z.Z.Z.Z.Z.Z.Z.Z.Z.Z.Z.Z.Z.Z.Z.Z.Z.Z.Z.Z.Z.Z.Z.Z.Z.Z.Z.Z.Z.Z.Z.Z.Z.Z.Z.Z.Z.Z.Z.Z.Z.Z.Z.Z.Z.Z.Z.Z.Z.$   V 4X4X4X:X=XU.K.",
"4X4X    k Z.Z.Z.Z.Z.Z.Z.Z.Z.Z.Z.Z.Z.Z.Z.Z.Z.Z.Z.Z.Z.Z.Z.Z.Z.Z.Z.Z.Z.Z.Z.Z.Z.Z.Z.Z.Z.Z.Z.Z.Z.Z.Z.Z.Z.Z.Z.Z.Z.$   V 4X4X4X4X4X~.K.",
"4X4X    k Z.Z.Z.Z.N.m m m m m m m m m m m m m m m m m m m m m m m m m m m m m m m M.Z.Z.Z.Z.Z.Z.Z.Z.Z.Z.Z.Z.$   V 4X4X4X4X4X4X4X",
"4X4X    k Z.Z.Z.Z.N.m m m m m m m m m m m m m m m m m m m m m m m m m m m m m m m M.Z.Z.Z.Z.Z.Z.Z.Z.Z.Z.Z.Z.$   V 4X4X4X4X4X>X*X",
"4X4X    k Z.Z.z.j.k.i.i.i.i.i.i.i.i.i.i.i.i.i.i.i.i.i.i.i.i.i.i.i.i.i.i.i.i.i.i.i.h.j.c.Z.Z.Z.Z.Z.Z.Z.Z.Z.Z.$   V 4X4X4X4X4X~.K.",
"4X4X    k Z.Z.y.q.t.Z.Z.Z.Z.Z.Z.Z.Z.Z.Z.Z.Z.Z.Z.Z.Z.Z.Z.Z.Z.Z.Z.Z.Z.Z.Z.Z.Z.Z.Z.Z.r.q.u.Z.Z.Z.Z.Z.Z.Z.Z.Z.Z.$   V 4X4X4X4X4XoX}.",
"4X4X    k Z.Z.y.q.t.Z.Z.Z.Z.Z.Z.Z.Z.Z.Z.Z.Z.Z.Z.Z.Z.Z.Z.Z.Z.Z.Z.Z.Z.Z.Z.Z.Z.Z.Z.Z.r.q.u.Z.Z.Z.Z.Z.Z.Z.Z.Z.Z.$   V 4X4X4X4X4X4X4X",
"4X[.    k Z.Z.Z.Z.Z.Z.Z.Z.Z.Z.Z.Z.x.q.q.q.q.q.q.q.q.q.q.q.q.u.Z.Z.Z.Z.Z.Z.Z.Z.Z.Z.Z.Z.Z.Z.Z.Z.Z.Z.Z.Z.Z.Z.Z.$   V 4X%X_.&X4X4X4X",
"4XI.    k Z.Z.Z.Z.Z.Z.Z.Z.Z.Z.Z.Z.x.q.q.q.q.q.q.q.q.q.q.q.q.u.Z.Z.Z.Z.Z.Z.Z.Z.Z.Z.Z.Z.Z.Z.Z.Z.Z.Z.Z.Z.Z.Z.Z.$   V 4X+XK.+X4X4X4X",
"I.-X/ / P G G a.j.l.Z.Z.Z.Z.Z.Z.Z.m.j.j.j.j.j.j.j.j.j.j.j.j.c.Z.Z.Z.Z.Z.Z.Z.Z.Z.Z.Z.Z.Z.Z.Z.Z.Z.Z.j.j.s.G G ^ / _ I._.1X3X4X/.I.",
"I.1X4X4XG.    r q.t.Z.Z.Z.Z.Z.Z.Z.Z.Z.Z.Z.Z.Z.Z.Z.Z.Z.Z.Z.Z.Z.Z.Z.Z.Z.Z.Z.Z.Z.Z.Z.Z.Z.Z.Z.Z.Z.Z.Z.q.q.w      X4X1XI.{.4X3X<X~.K.",
"4X4X4X4XG.    r q.t.Z.Z.Z.Z.Z.Z.Z.Z.Z.Z.Z.Z.Z.Z.Z.Z.Z.Z.Z.Z.Z.Z.Z.Z.Z.Z.Z.Z.Z.Z.Z.Z.Z.Z.Z.Z.Z.Z.Z.q.q.w      X4X4X4X4X4X_.K.K.K.",
"4X4X4X4X4X4X4XB   O q.q.q.q.q.Z.Z.Z.Z.Z.Z.Z.Z.Z.Z.Z.Z.Z.Z.Z.Z.Z.Z.Z.Z.Z.Z.Z.Z.Z.Z.Z.Z.Z.Z.Z.Z.Z.Z.    A 4X4X4X4X4X4X4X4X@X_.L.K.",
"4X4X4X4X4X4X4XB   O q.q.q.q.q.Z.Z.Z.Z.Z.Z.Z.Z.Z.Z.Z.Z.Z.Z.Z.Z.Z.Z.Z.Z.Z.Z.Z.Z.Z.Z.Z.Z.Z.Z.Z.Z.Z.Z.    A 4X4X4X4X4X4X4X4X4X4X~.K.",
"4X4X4X4X4X4X4XH./ R g g g g g Z.Z.Z.Z.Z.Z.Z.Z.Z.Z.Z.Z.Z.Z.Z.Z.Z.Z.Z.Z.B.G G N j.j.C.Z.Z.Z.Z.v.j.j.    A 4X4X4X4X4X4X4X4X4X4X~.K.",
"4X4X4X4X4X4X4X4X4X|.          Z.Z.Z.Z.Z.Z.Z.Z.Z.Z.Z.Z.Z.Z.Z.Z.Z.Z.Z.Z.b.    g q.q.V.Z.Z.Z.Z.g.q.q.    A 4X4X4X4X4X4X4X4X4X4X~.K.",
"4X4X4X4X4X4X4X4X4X|.          Z.Z.Z.Z.Z.Z.Z.Z.Z.Z.Z.Z.Z.Z.Z.Z.Z.Z.Z.Z.b.    g q.q.V.Z.Z.Z.Z.g.q.q.    A 4X4X4X4X4X4X4X4XXX^.L.K.",
"4X4X4X4X4X4X4X4X4X|.    I Z.Z.Z.Z.!.8X8X8X8X8X8X8X8X8X8X8X8X8X8X8XC   # Z.Z.Z.Z.Z.Z.Z.Z.Z.Z.l     4X4X4X4X4X4X4X4X4X4X4X_.K.K.K.",
"4X4X4X4X4X4X4X4X4X|.    I Z.Z.Z.Z.!.8X8X8X8X8X8X8X8X8X8X8X8X8X8X8XC   # Z.Z.Z.Z.Z.Z.Z.Z.Z.Z.l     4X4X4X4X4X4X4X4X4X4X4X4X4X~.K.",
"4X4X4X4X4X4X4X4X4X|.    I Z.Z..X.XOX8X8X8X8X8X8X8X8X8X8X8X8X8X8X8XC   @ j.j.j.j.j.j.j.j.j.j.d     4X4X4X4X4X4X4X4X4X4X4X4X4X'.~.",
"4X4X4X4X4X4X4X4X4X|.    I Z.Z.8X8X8X8X8X8X8X8X8X8X8X8X8X8X8X8X8X8XC   O q.q.q.q.q.q.q.q.q.q.s     4X4X4X4X4X4X4X4X4X4X4X4X4X4X4X",
"4X4X4X4X4X4X4X4X4X|.    I Z.Z.8X8X8X8X8X8X8X8X8X8X8X8X8X8X8X8X8X8XC   O q.q.q.q.q.q.q.q.q.q.s     4X4X4X4X4X4X4X4X4X4X4X4X4XoX}.",
"4X4X4X4X4X4X4X4X4X|.    I Z.Z.8X8X8X8X8X8X8X8X8X8X8X8X8X8X8X8X8X8X8X8X6X              X m m o     4X4X4X4X4X4X4X4X4X4X4X4X4X~.K.",
"4X4X4X4X4X4X4X4X4X|.    I Z.Z.8X8X8X8X8X8X8X8X8X8X8X8X8X8X8X8X8X8X8X8X6X              X m m o     4X4X4X4X4X4X4X4X4X4X4X4X4X=X@X",
"4X4X4X4X4X4X4XH./ ~ G G F.Z.Z.8X8X8X8X8X8X8X8X8X8X8X8X8X8X8X8X8X8X8X8X7X( ( T G G G G H i.i.M g g / / T.4X4X4X4X4X4X4X4X4X4X4X4X",
"4X4X4X4X4X4X4XB   # Z.Z.Z.Z.Z.8X8X8X8X8X8X8X8X8X8X8X8X8X8X8X8X8X8X8X8X8X8X8X.XZ.Z.Z.Z.Z.Z.Z.g.q.q.    A 4X4X4X4X4X4X4X4X4X4X/.I.",
"4X4X4X4X4X4X4XB   # Z.Z.Z.Z.Z.8X8X8X8X8X8X8X8X8X8X8X8X8X8X8X8X8X8X8X8X8X8X8X.XZ.Z.Z.Z.Z.Z.Z.g.q.q.    A 4X4X4X4X4X<X3X4X4X4X_.I.",
"4X4X4X4XG.    A.Z.Z.Z.Z.Z.Z.Z.Z.Z.!.8X8X8X8X8X8X8X8X8X8X8X8X8X8X8X8X8X5XZ.Z.Z.Z.Z.Z.Z.Z.Z.Z.g.q.q.    A 4X4X4X4X1XK._.4X4X4X4X4X",
"4X4X4X4XG.    A.Z.Z.Z.Z.Z.Z.Z.Z.Z.!.8X8X8X8X8X8X8X8X8X8X8X8X8X8X8X8X8X5XZ.Z.Z.Z.Z.Z.Z.Z.Z.Z.g.q.q.    A 4X4X4X4X2X_.}.+X1X4X4X4X",
"4X4X4X4XG.    A.Z.Z.Z.Z.Z.Z.Z.j.j.D.( ( ( ( ( ( ( ( ( ( ( ( ( ( ( ( ( W G G N j.j.C.Z.Z.Z.Z.v.j.j.g g z / / ;X4X4X4X+XK.+X4X4X4X",
"4X4X4X4XG.    A.Z.Z.Z.Z.Z.Z.Z.q.q.w                                         g q.q.V.Z.Z.Z.Z.Z.Z.Z.q.q.w      X4X4X4X1X@X}._._._.",
"4X4X4X4XG.    A.Z.Z.Z.Z.Z.Z.Z.q.q.w                                         g q.q.V.Z.Z.Z.Z.Z.Z.Z.q.q.w      X4X4X4X4X4X_.K.K.K.",
"4X4X4X4XG.    r q.q.q.q.q.q.q.    A 4X4X2X=X1X4X4X4X4X4X4X4X4X4X4X4X4X4X4X4X/     t q.q.q.q.q.q.q.q.q.w      X^.).4X4X4X_.K.K.K.",
"4X4X4X4XG.    r q.q.q.q.q.q.q.    A 4X4X4X4X4X4X4X4X4X4X4X4X4X4X4X4X4X4X4X4X/     t q.q.q.q.q.q.q.q.q.w      XK.I.4X4X4X_.K.K.K.",
"4X4X4X4XE.U U j g g g g g g g Y U Q K.1X4X4X4X4X4X4X4X4X4X4X4X4X4X}.K.K.K.4XR./ / h g g g g g g g g g z / / ;X4X1XK.K.K.K.K.K.K.",
"4X>X*X*XXXK.I.c               @X~.L.K.#X*X4X4X4X1X*X*X*X3X4X*X*X*X_.K.U.~.4X4X4X4X*                   A 4X>X*X*X+XK.K.K.K.K.K.K.",
"4XI.K.K.K.K.}.B               4X4X~.K.K.I.4X4X4X}.K.K.K.1X1XK.K.K.K.K.-X4X4X4X4X4X*                   A 4X~.K.K.K.K.K.K.K.K.K.K.",
"}.}.`.K.K.K.~.}.1X4XXX}.}.}.}.}.}.P.K.K.I.4X,X}.~.K.K.K.].}.}.(.K.K.K._.}.}.}.}.$X4X=X}.}.}.K.K.K._.4X#X}.P.K.K.K.K.K.K.K.K.K.K.",
"K.1X1XK.K.K.K.K.-X4XI.K.K.K.K.K.K.K.K.K.I.4X+XK.K.K.K.K.K.I.4X+XK.K.K.K.K.K.K.K._.4X}.K.K.K.K.K.K._.4X_.K.K.K.K.K.K.K.K.K.K.K.K."
};
