/* XPM */
static char *result[] = {
/* columns rows colors chars-per-pixel */
"64 64 198 2 ",
"   c #141B1B",
".  c #151C1D",
"X  c #181C21",
"o  c #1A1D25",
"O  c #1B1E28",
"+  c #211F30",
"@  c #301E34",
"#  c #1A302E",
"$  c #17382D",
"%  c #202525",
"&  c #222C2C",
"*  c #262D2D",
"=  c #272E2D",
"-  c #2B2F2D",
";  c #2B2F2E",
":  c #2F2C2F",
">  c #233F26",
",  c #33302F",
"<  c #31342D",
"1  c #37342F",
"2  c #36362E",
"3  c #38342F",
"4  c #353F2B",
"5  c #3D382E",
"6  c #3F3A2E",
"7  c #2A2730",
"8  c #282936",
"9  c #292936",
"0  c #30333C",
"q  c #31343C",
"w  c #471E38",
"e  c #4F1E3A",
"r  c #5E1D3E",
"t  c #413C2E",
"y  c #423C2E",
"u  c #443E2E",
"i  c #522A37",
"p  c #513135",
"a  c #612539",
"s  c #67213D",
"d  c #6C263B",
"f  c #652A39",
"g  c #6A2F3A",
"h  c #76273C",
"j  c #7D273D",
"k  c #7E273E",
"l  c #78293C",
"z  c #792A3C",
"x  c #792B3C",
"c  c #7B2D3C",
"v  c #7F313C",
"b  c #72393F",
"n  c #255F1C",
"m  c #17731C",
"M  c #266C17",
"N  c #277913",
"B  c #207D15",
"V  c #1C4926",
"C  c #16422A",
"Z  c #14402C",
"A  c #184429",
"S  c #234524",
"D  c #2A4526",
"F  c #284A23",
"G  c #314A26",
"H  c #225021",
"J  c #245220",
"K  c #2D572D",
"L  c #3F5028",
"P  c #3F5029",
"I  c #244A3A",
"U  c #364C39",
"Y  c #0B6426",
"T  c #0B6526",
"R  c #0F6923",
"E  c #076029",
"W  c #2D6321",
"Q  c #4B7A1E",
"!  c #46402E",
"~  c #475A2F",
"^  c #485D2A",
"/  c #414A34",
"(  c #44513B",
")  c #496026",
"_  c #466825",
"`  c #537024",
"'  c #566B30",
"]  c #5F7237",
"[  c #627539",
"{  c #3B3848",
"}  c #6E1C42",
"|  c #7D1C45",
" . c #543C44",
".. c #7F2043",
"X. c #335347",
"o. c #3F6348",
"O. c #267444",
"+. c #424E40",
"@. c #414B44",
"#. c #404848",
"$. c #444D4B",
"%. c #4A4C4D",
"&. c #47524E",
"*. c #48524E",
"=. c #575B57",
"-. c #505D54",
";. c #674D4D",
":. c #546157",
">. c #555160",
",. c #526762",
"<. c #5F7160",
"1. c #596674",
"2. c #656A61",
"3. c #6F6B78",
"4. c #82343D",
"5. c #8C1C49",
"6. c #9C1B4D",
"7. c #923040",
"8. c #A12447",
"9. c #A42646",
"0. c #A12C42",
"q. c #A8204B",
"w. c #AE224B",
"e. c #AE234B",
"r. c #B62E45",
"t. c #B4254A",
"y. c #BA2849",
"u. c #BD2B4A",
"i. c #B33F44",
"p. c #C02A49",
"a. c #C02B49",
"s. c #C32C49",
"d. c #C62D49",
"f. c #C62E48",
"g. c #C92F48",
"h. c #CC3048",
"j. c #CF3348",
"k. c #D23648",
"l. c #D23749",
"z. c #D53A49",
"x. c #D83D49",
"c. c #DE4349",
"v. c #E44A4A",
"b. c #28860F",
"n. c #248112",
"m. c #248212",
"M. c #318910",
"N. c #318911",
"B. c #3A8C12",
"V. c #3B8D13",
"C. c #3C8023",
"Z. c #3E8222",
"A. c #4C871A",
"S. c #4C801C",
"D. c #458A1C",
"F. c #498F19",
"G. c #449014",
"H. c #4B9117",
"J. c #4D9316",
"K. c #4B9118",
"L. c #529517",
"P. c #569617",
"I. c #569717",
"U. c #579718",
"Y. c #5B9818",
"T. c #68911F",
"R. c #609A19",
"E. c #649B1A",
"W. c #65991E",
"Q. c #64991F",
"!. c #6D991E",
"~. c #699D1C",
"^. c #6EA01C",
"/. c #72A11D",
"(. c #5E8121",
"). c #5D8022",
"_. c #558823",
"`. c #638821",
"'. c #45875E",
"]. c #7F8875",
"[. c #85B12C",
"{. c #8BB630",
"}. c #94BE37",
"|. c #9EC63D",
" X c #93B640",
".X c #8D977F",
"XX c #9CC141",
"oX c #A4CC42",
"OX c #6C7D8A",
"+X c #80858A",
"@X c #908F97",
"#X c #83AF94",
"$X c #88A1AD",
"%X c #92ADB8",
"&X c #B8DCE5",
"*X c #E0EBE4",
"=X c #F2EAF1",
"-X c white",
/* pixels */
".X.X.X.X<.<.<.<..X.X.X.X<.<.<.<.<.<.<.<.<.<.<.<.! ! ! ! <.<.<.<.<.<.<.<.<.<.<.<.<.<.<.<.<.<.<.<.! ! ! ! .X.X.X.X.X.X.X.X.X.X.X.X",
".X.X.X.X<.<.<.<..X.X.X.X<.<.<.<.<.<.<.<.<.<.<.<.! ! ! ! <.<.<.<.<.<.<.<.<.<.<.<.<.<.<.<.<.<.<.<.! ! ! ! .X.X.X.X.X.X.X.X.X.X.X.X",
".X.X.X.X<.<.<.<..X].+ + + + + + + + + + -.<.<.<.! ! ! ! 8 + + + + + + + + + + + + + + q <.<.<.<.! ! ! 1 + + + + + + + 2..X.X.X.X",
".X.X.X.X<.<.<.<..X].+ + + + + + + + + + -.<.<.<.! ! ! ! 8 + + + + + + + + + + + + + + q <.<.<.<.! ! ! 1 + + + + + + + 2..X.X.X.X",
".X.X.X.X! ! ! 3 #.@.) ) ) ) ) ) ) ) ) ) +.#.$.<.! 5 , , ^ ) ) ) ) ) ) ) ) ) ) ) ) ) ) ~ #.#.:.<.! , , p 4.4.4.4.4.4.4.;.=.=..X.X",
".X.X.X.X! ! ! 7 + - /./././././././././.4 + 9 <.! , + + T././././././././././././././.).+ + *.<.! + + g v.v.v.v.v.v.v.g + + .X.X",
".X.X.X.X! ! ! 7 + - /./././././././././.4 + 9 <.! , + + T././././././././././././././.).+ + *.<.! + + g v.v.v.v.v.v.v.g + + .X.X",
".X.X.X.X! ! ! 7 + + + + + + + + + + + + + + + + + + + + + + + + + + + + + + + + + + + + + + + + + 6.6.e.h.h.h.h.h.h.h.a + + .X.X",
".X.X.X.X<.<.<.0 + + + + + + + + + + + + + + + + + + + + + + + + + + + + + + + + + + + + + + + + + 6.6.e.h.h.h.h.h.h.h.a + + .X.X",
".X.X.X.X:.#.#.b 4.4.4.4.4.4.4.h h c 4.4.z h h h h h h h h h x 4.4.z h l 4.4.4.4.4.4.4.v h h s r r r r ..t.t.j h h h h  .=.=..X.X",
".X.X.X.X&.+ + i.v.v.v.v.v.v.v.h.h.z.v.v.k.h.h.h.h.h.h.h.h.h.l.v.v.k.h.j.v.v.v.v.v.v.v.c.h.h.w.6.6.+ + e 6.6.@ + + + + *..X.X.X.X",
".X.X.X.X&.+ + i.v.v.v.v.v.v.v.h.h.z.v.v.k.h.h.h.h.h.h.h.h.h.l.v.v.k.h.j.v.v.v.v.v.v.v.c.h.h.w.6.6.+ + e 6.6.@ + + + + *..X.X.X.X",
"<.<.<.<.&.+ + + + @ 6.6.6.6.6.h.h.y.6.6.a.h.h.h.h.h.h.h.h.h.p.6.6.a.h.d.6.6.6.6.6.6.6.| + + + + + + + + + + 5.6.q.h.h.a + + .X.X",
"<.<.<.<.&.+ + + + @ 6.6.6.6.6.h.h.y.6.6.a.h.h.h.h.h.h.h.h.h.p.6.6.a.h.d.6.6.6.6.6.6.6.| + + + + + + + + + + 5.6.q.h.h.a + + .X.X",
"<.<.<.<.&.+ + a h k t.t.t.t.t.h.h.s.t.t.f.h.h.h.h.h.h.h.h.h.d.t.t.f.h.g.t.t.t.t.t.t.t.9.h h s r r r r w + + 8.t.u.x.x.f + + .X.X",
"<.<.<.<.&.+ + 0.h.h.h.h.h.h.h.h.h.h.h.h.h.h.h.h.h.h.h.h.h.h.h.h.h.h.h.h.h.h.h.h.h.h.h.h.h.h.w.6.6.6.6.} + + r.h.l.v.v.g + + .X.X",
"<.<.<.<.&.+ + 0.h.h.h.h.h.h.h.h.h.h.h.h.h.h.h.h.h.h.h.h.h.h.h.h.h.h.h.h.h.h.h.h.h.h.h.h.h.h.w.6.6.6.6.} + + r.h.l.v.v.g + + <.<.",
"<.<.<.<.&.+ + + + + + + + + + + + + + + + + + + + + + + + + + + + + + + + + + + + + + + + + + + + + + + + + r.h.l.v.v.g + + <.<.",
"<.<.<.<.&.+ + + + + + + + + + + + + + + + + + + + + + + + + + + + + + + + + + + + + + + + + + + + + + + + + r.h.l.v.v.g + + <.<.",
"<.<.#.#.U J J A Z I @X@X@X@X@X@X@X@X@X@XX.Z C J J V Z Z +X@X@X@X@X@X@X@X@X@X,.Z Z H J J J J J J J J J > + + d h 7.v.v.g + + <.<.",
"<.<.+ + S b.b.R E O.-X-X-X-X-X-X-X-X-X-X'.E T b.b.m E E *X-X-X-X-X-X-X-X-X-X#XE E m.b.b.b.b.b.b.b.b.b.n + + + + i v.v.g + + <.<.",
"<.<.+ + S b.b.R E O.-X-X-X-X-X-X-X-X-X-X'.E T b.b.m E E *X-X-X-X-X-X-X-X-X-X#XE E m.b.b.b.b.b.b.b.b.b.n + + + + i v.v.g + + <.<.",
"<.<.+ + L /./.B.b.n.E E E E E E E E E E B b.N././.J.b.b.Y E E E E E E E E E m b.b.~./././././././././.I.b.b.& + + + + *.<.<.<.<.",
"<.<.+ + L /./.B.b.n.E E E E E E E E E E B b.N././.J.b.b.Y E E E E E E E E E m b.b.~./././././././././.I.b.b.& + + + + *.<.<.<.<.",
"<.<.+ + L /./.P.J.K.C.C.C.C.C.C.C.C.C.C.F.J.L././.R.J.J.Z.C.C.C.C.C.C.C.C.C.D.J.J.^./././././././././.E.J.J.* + 9 #.#.:.<.<.<.<.",
"<.<.+ + L /././././././././././././././././././././././././././././././././././././././././././././././././.; + q <.<.<.<.<.<.<.",
"<.<.+ + L /././././././././././././././././././././././././././././././././././././././././././././././././.; + q <.<.<.<.<.<.<.",
"<.<.+ + L /./././.Q.E E E E E E E E E E E E E E E E E E E E E E E E E E E E E E E W././././././././././././.; + q <.<.<.<.<.<.<.",
"<.<.+ + L /./././.Q.E E E E E E E E E E E E E E E E E E E E E E E E E E E E E E E W././././././././././././.; + q <.<.<.<.<.<.<.",
"<.<.+ + L /./.P.J.K.C.C.C.C.C.C.C.C.C.C.C.C.C.C.C.C.C.C.C.C.C.C.C.C.C.C.C.C.C.C.C.H.J.U././././././././././.; + q <.<.<.<.<.<.<.",
"<.<.+ + L /./.B.b.N./././././././././././././././././././././././././././././././.M.b.V././././././././././.; + q <.<.<.<.<.<.<.",
"<.<.+ + L /./.B.b.N./././././././././././././././././././././././././././././././.M.b.V././././././././././.; + q <.<.<.<.<.<.<.",
"<.<.+ + L /./././././././././././.I.b.b.b.b.b.b.b.b.b.b.b.b.V./././././././././././././././././././././././.; + q <.<.<.<.<.<.<.",
"<.<.+ + L /./././././././././././.I.b.b.b.b.b.b.b.b.b.b.b.b.V./././././././././././././././././././././././.; + q <.<.<.<.<.<.<.",
"<.<.#.#.( ) ) A.J.L./././././././.E.J.J.J.J.J.J.J.J.J.J.J.J.U././././././././././././././././././.J.J.S.) ) % o *.<.<.<.<.<.<.<.",
"<.<.<.<.&.+ + M b.N./././././././././././././././././././././././././././././././././././././././.b.b.n + + .   <.<.<.<.<.<.<.<.",
"<.<.<.<.&.+ + M b.N./././././././././././././././././././././././././././././././././././././././.b.b.n + + .   <.<.<.<.<.<.<.<.",
"<.<.<.<.<.<.<.0 + & b.b.b.b.b././././././././././././././././././././././././././././././././././.+ + %.        <.<.<.<.<.<.<.<.",
"<.<.<.<.<.<.<.0 + & b.b.b.b.b././././././././././././././././././././././././././././././././././.+ + %.        <.<.<.<.<.<.<.<.",
"<.<.<.<.<.<.<.*., < J J J J J /./././././././././././././././././././.!.) ) Q J.J.^././././.Y.J.J.+ + %.        <.<.<.<.<.<.<.<.",
"<.<.<.<.<.<.<.<.! t + + + + + /./././././././././././././././././././.T.+ + J b.b.~././././.G.b.b.+ + %.        <.<.<.<.<.<.<.<.",
"<.<.<.<.<.<.<.<.! t + + + + + /./././././././././././././././././././.T.+ + J b.b.~././././.G.b.b.+ + %.        <.<.<.<.<.<.<.<.",
"<.<.<.<.<.<.<.<.! t + + ` /./././.[.oXoXoXoXoXoXoXoXoXoXoXoXoXoXoX/ + - /./././././././././.P + + .X.X.X        <.<.<.<.<.<.<.<.",
"<.<.<.<.<.<.<.<.! t + + ` /./././.[.oXoXoXoXoXoXoXoXoXoXoXoXoXoXoX/ + - /./././././././././.P + + .X.X.X        <.<.<.<.<.<.<.<.",
"<.<.<.<.<.<.<.<.! t + + ` /./.{.{.}.oXoXoXoXoXoXoXoXoXoXoXoXoXoXoX/ + = J.J.J.J.J.J.J.J.J.J.G + +       ! ! ! ! <.<.<.<.<.<.<.<.",
"<.<.<.<.<.<.<.<.! t + + ` /./.oXoXoXoXoXoXoXoXoXoXoXoXoXoXoXoXoXoX/ + & b.b.b.b.b.b.b.b.b.b.S + +       ! ! ! ! <.<.<.<.<.<.<.<.",
"<.<.<.<.<.<.<.<.! t + + ` /./.oXoXoXoXoXoXoXoXoXoXoXoXoXoXoXoXoXoX/ + & b.b.b.b.b.b.b.b.b.b.S + +       ! ! ! ! <.<.<.<.<.<.<.<.",
"<.<.<.<.<.<.<.<.! t + + ` /./.oXoXoXoXoXoXoXoXoXoXoXoXoXoXoXoXoXoXoXoX X+ + + + + + + # E E $ + +       ! ! ! ! <.<.<.<.<.<.<.<.",
"<.<.<.<.! ! ! ! ! t + + ` /./.oXoXoXoXoXoXoXoXoXoXoXoXoXoXoXoXoXoXoXoX X+ + + + + + + # E E $ + +       ! ! ! ! ! ! ! ! <.<.<.<.",
"<.<.<.<.! ! ! 3 , 2 ) ) `././.oXoXoXoXoXoXoXoXoXoXoXoXoXoXoXoXoXoXoXoXXX[ [ ' ) ) ) ) _ C.C.W J J o o X ! ! ! ! ! ! ! ! <.<.<.<.",
"<.<.<.<.! ! ! 7 + - /././././.oXoXoXoXoXoXoXoXoXoXoXoXoXoXoXoXoXoXoXoXoXoXoX{./././././././.G.b.b.+ + O ! ! ! ! ! ! ! ! <.<.<.<.",
"<.<.<.<.! ! ! 7 + - /././././.oXoXoXoXoXoXoXoXoXoXoXoXoXoXoXoXoXoXoXoXoXoXoX{./././././././.G.b.b.+ + O ! ! ! ! ! ! ! ! <.<.<.<.",
"! ! ! ! 1 + + (./././././././././.[.oXoXoXoXoXoXoXoXoXoXoXoXoXoXoXoXoX|././././././././././.G.b.b.+ + : ! ! ! ! ! ! ! ! ! ! ! ! ",
"! ! ! ! 1 + + (./././././././././.[.oXoXoXoXoXoXoXoXoXoXoXoXoXoXoXoXoX|././././././././././.G.b.b.+ + : ! ! ! ! ! ! ! ! ! ! ! ! ",
"! ! ! ! 1 + + (./././././././.J.J._.[ [ [ [ [ [ [ [ [ [ [ [ [ [ [ [ [ ] ) ) Q J.J.^././././.Y.J.J.J J D , , u ! ! ! ! ! ! ! ! ! ",
"! ! ! ! 1 + + (./././././././.b.b.n + + + + + + + + + + + + + + + + + + + + J b.b.~./././././././.b.b.n + + y ! ! ! ! ! ! ! ! ! ",
"! ! ! ! 1 + + (./././././././.b.b.n + + + + + + + + + + + + + + + + + + + + J b.b.~./././././././.b.b.n + + y ! ! ! ! ! ! ! ! ! ",
"! ! ! ! 1 + + M b.b.b.b.b.b.b.+ + 1.&X&X&X&X&X&X&X&X&X&X&X&X&X&X&X&X&X&X&X&XOX+ + N b.b.b.b.b.b.b.b.b.n + + y ! ! ! ! ! ! ! ! ! ",
"! ! ! ! 1 + + M b.b.b.b.b.b.b.+ + 1.&X&X&X&X&X&X&X&X&X&X&X&X&X&X&X&X&X&X&X&XOX+ + N b.b.b.b.b.b.b.b.b.n + + y ! ! ! ! ! ! ! ! ! ",
"! ! ! ! 6 , , F J J J J J J J OXOX$X&X&X&X&X&X&X&X&X&X&X&X&X&X&X&X&X&X&X&X&X%XOXOXK J J J J J J J J J o., , u ! ! ! ! ! ! ! ! ! ",
"=X=X=X=X=X=X=X>.+ + + + + + + =X=X=X=X=X=X=X=X=X=X=X=X=X=X=X=X=X=X=X=X=X=X=X=X=X=X{ + + + + + + + + + 3.=X=X=X=X=X=X=X=X=X=X=X=X",
"=X=X=X=X=X=X=X>.+ + + + + + + =X=X=X=X=X=X=X=X=X=X=X=X=X=X=X=X=X=X=X=X=X=X=X=X=X=X{ + + + + + + + + + 3.=X=X=X=X=X=X=X=X=X=X=X=X",
"=X=X=X=X=X=X=X=X=X=X=X=X=X=X=X=X=X=X=X=X=X=X=X=X=X=X=X=X=X=X=X=X=X=X=X=X=X=X=X=X=X=X=X=X=X=X=X=X=X=X=X=X=X=X=X=X=X=X=X=X=X=X=X=X",
"=X=X=X=X=X=X=X=X=X=X=X=X=X=X=X=X=X=X=X=X=X=X=X=X=X=X=X=X=X=X=X=X=X=X=X=X=X=X=X=X=X=X=X=X=X=X=X=X=X=X=X=X=X=X=X=X=X=X=X=X=X=X=X=X"
};
