/* XPM */
static char *result[] = {
/* columns rows colors chars-per-pixel */
"64 64 176 2 ",
"   c #211F30",
".  c #301E34",
"X  c #22262E",
"o  c #222C2C",
"O  c #262D2D",
"+  c #2B2F2D",
"@  c #2B2F2E",
"#  c #233F26",
"$  c #223828",
"%  c #233928",
"&  c #353F2B",
"*  c #2A2931",
"=  c #323231",
"-  c #333331",
";  c #471E38",
":  c #4F1E3A",
">  c #5E1D3E",
",  c #522A37",
"<  c #612539",
"1  c #67213D",
"2  c #6C263B",
"3  c #652A39",
"4  c #6A2F3A",
"5  c #76273C",
"6  c #7D273D",
"7  c #7E273E",
"8  c #78293C",
"9  c #792A3C",
"0  c #792B3C",
"q  c #7B2D3C",
"w  c #7F313C",
"e  c #255F1C",
"r  c #266C17",
"t  c #277913",
"y  c #234524",
"u  c #244C22",
"i  c #245220",
"p  c #2C5622",
"a  c #375923",
"s  c #3F5028",
"d  c #3C5C2B",
"f  c #3D6820",
"g  c #444632",
"h  c #444633",
"j  c #5F5136",
"k  c #555934",
"l  c #565A34",
"z  c #7C423B",
"x  c #6D5337",
"c  c #715838",
"v  c #496026",
"b  c #4A6D22",
"n  c #4E6825",
"m  c #4D6128",
"M  c #4E632D",
"N  c #51642A",
"B  c #5C682F",
"V  c #537024",
"C  c #4E6332",
"Z  c #576730",
"A  c #5E6334",
"S  c #5F6A32",
"D  c #5D6934",
"F  c #557233",
"G  c #606A32",
"H  c #636B33",
"J  c #636C34",
"K  c #676D35",
"L  c #707736",
"P  c #717E35",
"I  c #757F36",
"U  c #6E1C42",
"Y  c #7D1C45",
"T  c #7F2043",
"R  c #82343D",
"E  c #8C1C49",
"W  c #9C1B4D",
"Q  c #923040",
"!  c #A12447",
"~  c #A42646",
"^  c #A12C42",
"/  c #A8204B",
"(  c #AE224B",
")  c #AE234B",
"_  c #B62E45",
"`  c #B4254A",
"'  c #BA2849",
"]  c #BD2B4A",
"[  c #B33F44",
"{  c #C02A49",
"}  c #C02B49",
"|  c #C32C49",
" . c #C62D49",
".. c #C62E48",
"X. c #C92F48",
"o. c #CC3048",
"O. c #CF3348",
"+. c #D23648",
"@. c #D23749",
"#. c #D53A49",
"$. c #D83D49",
"%. c #DE4349",
"&. c #E44A4A",
"*. c #28860F",
"=. c #318911",
"-. c #4C871A",
";. c #4C801C",
":. c #55841E",
">. c #5E8D1E",
",. c #4D9316",
"<. c #529517",
"1. c #569717",
"2. c #569718",
"3. c #5F9A19",
"4. c #68911F",
"5. c #649B1A",
"6. c #659C1A",
"7. c #699D1C",
"8. c #6EA01C",
"9. c #72A11D",
"0. c #5D8022",
"q. c #668534",
"w. c #788036",
"e. c #788136",
"r. c #798136",
"t. c #7F9036",
"y. c #7EAC26",
"u. c #74A334",
"i. c #78A434",
"p. c #7BA634",
"a. c #7BA635",
"s. c #7EA735",
"d. c #818B36",
"f. c #8A9537",
"g. c #8A9538",
"h. c #939F38",
"j. c #85B12C",
"k. c #82A935",
"l. c #82A936",
"z. c #85AA35",
"x. c #86AA36",
"c. c #86AB36",
"v. c #89AC36",
"b. c #8CAD36",
"n. c #8DAD36",
"m. c #8CAE36",
"M. c #8DAE36",
"N. c #8DAE37",
"B. c #90AF37",
"V. c #9BA839",
"C. c #9CA939",
"Z. c #8BB630",
"A. c #94B037",
"S. c #97B237",
"D. c #94BE37",
"F. c #97B238",
"G. c #97B338",
"H. c #9BB438",
"J. c #9BB538",
"K. c #9EB538",
"L. c #9FB538",
"P. c #9EB539",
"I. c #9FB638",
"U. c #9FB639",
"Y. c #A2B738",
"T. c #A2B739",
"R. c #A3B739",
"E. c #A3B839",
"W. c #A6B839",
"Q. c #A6B939",
"!. c #A9BA39",
"~. c #A9BB39",
"^. c #ADBC3A",
"/. c #9EC63D",
"(. c #A1C940",
"). c #A4CC42",
/* pixels */
"^.^.^.^.^.^.^.^.^.^.^.^.^.^.^.^.^.^.^.^.!.G.I.^.^.^.^.^.^.^.^.^.^.^.^.^.^.^.^.^.^.^.^.^.^.^.^.^.^.Q.G.Q.^.^.^.^.^.^.^.^.I.G.i.u.",
"^.^.^.^.^.^.^.^.^.^.^.^.^.^.^.^.^.^.^.^.^.^.^.^.^.^.^.^.^.^.^.^.^.^.^.^.^.^.^.^.^.^.^.^.^.^.^.^.^.^.^.^.^.^.^.^.^.^.^.^.^.^.a.u.",
"^.^.^.^.^.^.^.^.^.V.                    g.^.^.^.^.^.^.^.=                             h ^.^.^.^.^.^.^.w.              r.n.a.u.u.",
"^.W.W.^.^.^.^.^.^.V.                    g.^.^.^.^.^.^.^.=                             h ^.^.^.^.^.^.^.w.              I v.a.u.u.",
"^.a.a.^.^.^.^.e.K H v v v v v v v v v v G K L ^.^.f.K K m v v v v v v v v v v v v v v N K K h.^.^.K K c R R R R R R R j D K k.u.",
"F.v.N.^.^.^.^.g   + 9.9.9.9.9.9.9.9.9.9.&   - ^.^.K     4.9.9.9.9.9.9.9.9.9.9.9.9.9.9.0.    r.^.^.    4 &.&.&.&.&.&.&.4     A.v.",
"u.Q.^.^.^.^.^.g   + 9.9.9.9.9.9.9.9.9.9.&   - ^.^.K     4.9.9.9.9.9.9.9.9.9.9.9.9.9.9.0.    r.^.^.    4 &.&.&.&.&.&.&.4     ^.^.",
"G.~.^.^.^.^.^.g                                                                                   W W ) o.o.o.o.o.o.o.<     v.v.",
"^.^.^.^.^.^.^.g                                                                                   W W ) o.o.o.o.o.o.o.<     u.u.",
"^.^.^.^.h.K K z R R R R R R R 5 5 q R R 9 5 5 5 5 5 5 5 5 5 0 R R 9 5 8 R R R R R R R w 5 5 1 > > > > T ` ` 6 5 5 5 5 x K K s.u.",
"^.^.^.^.w.    [ &.&.&.&.&.&.&.o.o.#.&.&.+.o.o.o.o.o.o.o.o.o.@.&.&.+.o.O.&.&.&.&.&.&.&.%.o.o.( W W     : W W .         r.^.^.k.u.",
"^.^.^.^.w.    [ &.&.&.&.&.&.&.o.o.#.&.&.+.o.o.o.o.o.o.o.o.o.@.&.&.+.o.O.&.&.&.&.&.&.&.%.o.o.( W W     : W W .         r.^.^.^.^.",
"^.^.^.^.w.        . W W W W W o.o.' W W } o.o.o.o.o.o.o.o.o.{ W W } o. .W W W W W W W Y                     E W / o.o.<     T.P.",
"^.^.^.^.w.        . W W W W W o.o.' W W } o.o.o.o.o.o.o.o.o.{ W W } o. .W W W W W W W Y                     E W / o.o.<     k.u.",
"^.^.^.^.w.    < 5 7 ` ` ` ` ` o.o.| ` ` ..o.o.o.o.o.o.o.o.o. .` ` ..o.X.` ` ` ` ` ` ` ~ 5 5 1 > > > > ;     ! ` ] $.$.3     S.B.",
"^.^.^.^.w.    ^ o.o.o.o.o.o.o.o.o.o.o.o.o.o.o.o.o.o.o.o.o.o.o.o.o.o.o.o.o.o.o.o.o.o.o.o.o.o.( W W W W U     _ o.@.&.&.4     ^.^.",
"^.^.^.^.w.    ^ o.o.o.o.o.o.o.o.o.o.o.o.o.o.o.o.o.o.o.o.o.o.o.o.o.o.o.o.o.o.o.o.o.o.o.o.o.o.( W W W W U     _ o.@.&.&.4     B.v.",
"^.^.^.^.w.                                                                                                  _ o.@.&.&.4     k.u.",
"^.^.^.^.w.                                                                                                  _ o.@.&.&.4     i.u.",
"^.^.K K M i i i i i i i i i i i i i i i i i i i i i i i i i i i i i i i i i i i i i i i i i i i i i i #     2 5 Q &.&.4     u.u.",
"^.^.    y *.*.*.*.*.*.*.*.*.*.*.*.*.*.*.*.*.*.*.*.*.*.*.*.*.*.*.*.*.*.*.*.*.*.*.*.*.*.*.*.*.*.*.*.*.*.e         , &.&.4     k.u.",
"^.^.    y *.*.*.*.*.*.*.*.*.*.*.*.*.*.*.*.*.*.*.*.*.*.*.*.*.*.*.*.*.*.*.*.*.*.*.*.*.*.*.*.*.*.*.*.*.*.e         , &.&.4     A.v.",
"^.^.    s 9.9.9.9.9.9.9.9.9.9.9.9.9.9.9.9.9.9.9.9.9.9.9.9.9.9.9.9.9.9.9.9.9.9.9.9.9.9.9.9.9.9.9.9.9.9.1.*.*.o         r.^.^.^.^.",
"^.^.    s 9.9.9.9.9.9.9.9.9.9.9.9.9.9.9.9.9.9.9.9.9.9.9.9.9.9.9.9.9.9.9.9.9.9.9.9.9.9.9.9.9.9.9.9.9.9.1.*.*.o         r.S.v.v.v.",
"^.^.    s 9.9.9.9.9.9.9.9.9.9.9.9.9.9.9.9.9.9.9.9.9.9.9.9.9.9.9.9.9.9.9.9.9.9.9.9.9.9.9.9.9.9.9.9.9.9.5.,.,.O   - K K h.v.u.u.u.",
"^.^.    s 9.9.9.9.9.9.9.9.9.9.9.9.9.9.9.9.9.9.9.9.9.9.9.9.9.9.9.9.9.9.9.9.9.9.9.9.9.9.9.9.9.9.9.9.9.9.9.9.9.@   h ^.^.^.Y.I.s.u.",
"^.^.    s 9.9.9.9.9.9.9.9.9.9.9.9.9.9.9.9.9.9.9.9.9.9.9.9.9.9.9.9.9.9.9.9.9.9.9.9.9.9.9.9.9.9.9.9.9.9.9.9.9.@   h ^.^.^.^.^.k.u.",
"^.^.    s 9.9.9.9.9.9.9.9.9.9.9.9.9.9.9.9.9.9.9.9.9.9.9.9.9.9.9.9.9.9.9.9.9.9.9.9.9.9.9.9.9.9.9.9.9.9.9.9.9.@   h ^.^.^.^.^.^.^.",
"^.^.    s 9.9.9.9.9.9.9.9.9.9.9.9.9.9.9.9.9.9.9.9.9.9.9.9.9.9.9.9.9.9.9.9.9.9.9.9.9.9.9.9.9.9.9.9.9.9.9.9.9.@   h ^.^.^.^.^.T.P.",
"^.^.    s 9.9.9.9.9.9.9.9.9.9.9.9.9.9.9.9.9.9.9.9.9.9.9.9.9.9.9.9.9.9.9.9.9.9.9.9.9.9.9.9.9.9.9.9.9.9.9.9.9.@   h ^.^.^.^.^.k.u.",
"^.^.    s 9.9.9.9.9.9.9.9.9.9.9.9.9.9.9.9.9.9.9.9.9.9.9.9.9.9.9.9.9.9.9.9.9.9.9.9.9.9.9.9.9.9.9.9.9.9.9.9.9.@   h ^.^.^.^.^.S.B.",
"^.^.    s 9.9.9.9.9.9.9.9.9.9.9.9.9.9.9.9.9.9.9.9.9.9.9.9.9.9.9.9.9.9.9.9.9.9.9.9.9.9.9.9.9.9.9.9.9.9.9.9.9.@   h ^.^.^.^.^.^.^.",
"^.M.    s 9.9.9.9.9.9.9.9.9.9.9.9.9.9.9.9.9.9.9.9.9.9.9.9.9.9.9.9.9.9.9.9.9.9.9.9.9.9.9.9.9.9.9.9.9.9.9.9.9.@   h ^.K.v.L.^.^.^.",
"^.a.    s 9.9.9.9.9.9.9.9.9.9.9.9.9.9.9.9.9.9.9.9.9.9.9.9.9.9.9.9.9.9.9.9.9.9.9.9.9.9.9.9.9.9.9.9.9.9.9.9.9.@   h ^.F.u.F.^.^.^.",
"a.U.K K B v v -.,.<.9.9.9.9.9.9.9.9.9.9.9.9.9.9.9.9.9.9.9.9.9.9.9.9.9.9.9.9.9.9.9.9.9.9.9.9.9.9.9.,.,.;.v v J K P a.v.Q.~.^.z.a.",
"a.Q.^.^.w.    r *.=.9.9.9.9.9.9.9.9.9.9.9.9.9.9.9.9.9.9.9.9.9.9.9.9.9.9.9.9.9.9.9.9.9.9.9.9.9.9.9.*.*.e     C.^.Q.a.N.^.~.W.k.u.",
"^.^.^.^.w.    r *.=.9.9.9.9.9.9.9.9.9.9.9.9.9.9.9.9.9.9.9.9.9.9.9.9.9.9.9.9.9.9.9.9.9.9.9.9.9.9.9.*.*.e     C.^.^.^.^.^.v.u.u.u.",
"^.^.^.^.^.^.^.g   o *.*.*.*.*.9.9.9.9.9.9.9.9.9.9.9.9.9.9.9.9.9.9.9.9.9.9.9.9.9.9.9.9.3.*.*.*.*.*.    l ^.^.^.^.^.^.^.^.G.v.i.u.",
"^.^.^.^.^.^.^.g   o *.*.*.*.*.9.9.9.9.9.9.9.9.9.9.9.9.9.9.9.9.9.9.9.9.9.9.9.9.9.9.9.9.3.*.*.*.*.*.    l ^.^.^.^.^.^.^.^.^.^.k.u.",
"^.^.^.^.^.^.^.g   X i i i i i 9.9.9.9.9.9.9.9.9.9.9.9.9.9.9.9.9.9.9.9.9.9.9.9.9.9.9.9.>.i i i i i     l ^.^.^.^.^.^.^.^.^.^.k.u.",
"^.^.^.^.^.^.^.g               9.9.9.9.9.9.9.9.9.9.9.9.9.9.9.9.9.9.9.9.9.9.9.9.9.9.9.9.0.              l ^.^.^.^.^.^.^.^.^.^.k.u.",
"^.^.^.^.^.^.^.g               9.9.9.9.9.9.9.9.9.9.9.9.9.9.9.9.9.9.9.9.9.9.9.9.9.9.9.9.0.              l ^.^.^.^.^.^.^.^.A.l.i.u.",
"^.^.^.^.w.    r *.t     V 9.9.9.9.j.).).).).).).).).).).).).).).).).)./.9.9.9.9.9.9.9.9.9.9.9.9.9.9.9.V     C.^.^.^.^.^.v.u.u.u.",
"^.^.^.^.w.    r *.t     V 9.9.9.9.j.).).).).).).).).).).).).).).).).)./.9.9.9.9.9.9.9.9.9.9.9.9.9.9.9.V     C.^.^.^.^.^.^.^.k.u.",
"^.^.K K M i i t *.t     V 9.9.Z.Z.D.).).).).).).).).).).).).).).).).).(.Z.Z.y.9.9.n v b ,.,.6.9.9.9.9.:.i i S K r.^.^.^.^.^.n.k.",
"^.^.    y *.*.*.*.t     V 9.9.).).).).).).).).).).).).).).).).).).).).).).).Z.9.9.@   % *.*.2.9.9.9.9.1.*.*.o   h ^.^.^.^.^.^.^.",
"^.^.    y *.*.*.*.t     V 9.9.).).).).).).).).).).).).).).).).).).).).).).).Z.9.9.@   % *.*.2.9.9.9.9.1.*.*.o   h ^.^.^.^.^.S.B.",
"^.^.    y *.*.*.*.t     V 9.9.).).).).).).).).).).).).).).).).).).).).).).).Z.9.9.9.9.0.    e *.*.*.*.*.*.*.o   h ^.^.^.^.^.k.u.",
"^.^.    y *.*.*.*.t     V 9.9.).).).).).).).).).).).).).).).).).).).).).).).Z.9.9.9.9.0.    e *.*.*.*.*.*.*.o   h ^.^.^.^.^.I.G.",
"^.^.K K M i i i i u     V 9.9.Z.Z.D.).).).).).).).).).).).).).).).).).(.Z.Z.y.9.9.9.9.>.i i i i i i i i i i S K r.^.^.^.^.^.^.^.",
"^.^.^.^.w.              V 9.9.9.9.j.).).).).).).).).).).).).).).).).)./.9.9.9.9.9.9.9.3.*.*.y               C.^.^.^.^.^.^.^.z.a.",
"^.^.^.^.w.              V 9.9.9.9.j.).).).).).).).).).).).).).).).).)./.9.9.9.9.9.9.9.3.*.*.y               C.^.^.W.~.^.^.^.v.a.",
"^.^.^.^.^.^.^.^.^.V.    V 9.9.9.9.V                                         v 9.9.9.9.3.*.*.y     ^.^.^.^.^.^.^.Q.u.v.^.^.^.^.^.",
"^.^.^.^.^.^.^.^.^.V.    V 9.9.9.9.V                                         v 9.9.9.9.3.*.*.y     I.^.^.^.^.^.^.!.v.B.F.Q.^.^.^.",
"^.^.^.^.^.^.^.^.^.V.    f ,.,.9.9.:.i i o   * K K K K K K K K K K K K A     a ,.,.8.9.3.*.*.y     v.^.^.^.^.^.^.^.^.F.u.F.^.^.^.",
"^.^.^.^.^.^.^.^.^.V.    e *.*.9.9.1.*.*.$   - ^.^.^.^.^.^.^.^.^.^.^.^.V.    i *.*.7.9.3.*.*.y     B.v.L.^.^.^.^.^.^.Q.G.B.v.v.v.",
"^.^.^.^.^.^.^.^.^.V.    e *.*.9.9.1.*.*.$   - ^.^.^.^.^.^.^.^.^.^.^.^.V.    i *.*.7.9.3.*.*.y     F.u.F.^.^.^.^.^.^.^.^.v.u.u.u.",
"^.^.^.^.^.^.^.^.^.^.^.^.k     *.*.*.*.*.$   - ^.^.^.^.^.^.^.^.^.^.^.^.^.^.^.K     t *.*.*.*.y     Q.I.~.^.^.^.l.c.^.^.^.v.u.u.u.",
"^.^.^.^.^.^.^.^.^.^.^.^.k     *.*.*.*.*.$   - ^.^.^.^.^.^.^.^.^.^.^.^.^.^.^.K     t *.*.*.*.y     ^.^.^.^.^.^.u.a.^.^.^.v.u.u.u.",
"^.^.^.^.K.u.u.u.U.^.^.^.d.K K i i i i i Z K L ^.^.^.^.^.^.^.^.^.^.B.u.u.u.^.f.K K p i i i i d C K ^.^.^.^.^.^.^.Q.u.u.u.u.u.u.u.",
"^.T.P.P.A.u.a.k.E.^.^.^.^.^.^.          t.^.^.^.Q.P.P.P.~.^.P.P.P.v.u.s.k.^.^.^.^.=         F a.P.E.^.^.^.T.P.P.F.u.u.u.u.u.u.u.",
"^.a.u.u.u.u.B.^.^.^.^.^.^.^.^.          q.^.^.^.B.u.u.u.Q.Q.u.u.u.u.u.U.^.^.^.^.^.=         F u.u.v.^.^.^.k.u.u.u.u.u.u.u.u.u.u.",
"B.B.b.u.u.u.k.B.Q.^.A.B.B.B.B.B.B.p.u.u.a.^.R.B.k.u.u.u.m.B.B.x.u.u.u.v.B.B.B.B.J.^.I.B.B.B.u.u.u.v.^.H.B.p.u.u.u.u.u.u.u.u.u.u.",
"u.Q.Q.u.u.u.u.u.U.^.a.u.u.u.u.u.u.u.u.u.a.^.F.u.u.u.u.u.u.a.^.F.u.u.u.u.u.u.u.u.v.^.B.u.u.u.u.u.u.v.^.v.u.u.u.u.u.u.u.u.u.u.u.u."
};
