/* XPM */
static char *result[] = {
/* columns rows colors chars-per-pixel */
"64 64 171 2 ",
"   c #211F30",
".  c #301E34",
"X  c #22262E",
"o  c #222C2C",
"O  c #262D2D",
"+  c #2B2F2D",
"@  c #2B2F2E",
"#  c #223827",
"$  c #233F26",
"%  c #233928",
"&  c #2A2931",
"*  c #323231",
"=  c #323331",
"-  c #333331",
";  c #471E38",
":  c #4F1E3A",
">  c #5E1D3E",
",  c #512A36",
"<  c #612539",
"1  c #67213D",
"2  c #6C263B",
"3  c #652A39",
"4  c #6A2F3A",
"5  c #76273C",
"6  c #7D273D",
"7  c #7E273E",
"8  c #78293C",
"9  c #792A3C",
"0  c #792B3C",
"q  c #7B2D3C",
"w  c #7F313D",
"e  c #24521F",
"r  c #255F1B",
"t  c #266C17",
"y  c #277913",
"u  c #234523",
"i  c #244C21",
"p  c #35402B",
"a  c #2C5622",
"s  c #375923",
"d  c #3F5028",
"f  c #3C5C2B",
"g  c #3D6820",
"h  c #444632",
"j  c #444633",
"k  c #5F5136",
"l  c #555934",
"z  c #565A34",
"x  c #7B433B",
"c  c #6D5337",
"v  c #715838",
"b  c #496026",
"n  c #4A6D22",
"m  c #4E6825",
"M  c #4D6128",
"N  c #4E632D",
"B  c #51632A",
"V  c #57662F",
"C  c #5C682F",
"Z  c #537024",
"A  c #4E6332",
"S  c #5E6334",
"D  c #5F6A32",
"F  c #5D6934",
"G  c #557233",
"H  c #606A31",
"J  c #636B33",
"K  c #636C34",
"L  c #676D35",
"P  c #707736",
"I  c #717E35",
"U  c #757F36",
"Y  c #6E1C42",
"T  c #7D1C45",
"R  c #7F2043",
"E  c #82343D",
"W  c #91303F",
"Q  c #8C1C49",
"!  c #9C1B4D",
"~  c #A12447",
"^  c #A52547",
"/  c #A12C42",
"(  c #A8204B",
")  c #AE224B",
"_  c #AE234B",
"`  c #B62E45",
"'  c #B4254A",
"]  c #BA2849",
"[  c #BD2B4A",
"{  c #B33F43",
"}  c #C02A49",
"|  c #C02B49",
" . c #C32C49",
".. c #C62D49",
"X. c #C62E48",
"o. c #C92F48",
"O. c #CC3048",
"+. c #CF3348",
"@. c #D23648",
"#. c #D23749",
"$. c #D53A49",
"%. c #D83D49",
"&. c #DE444A",
"*. c #E44A4A",
"=. c #28860F",
"-. c #318911",
";. c #4C861A",
":. c #4C801C",
">. c #55841E",
",. c #5E8D1D",
"<. c #4D9316",
"1. c #529517",
"2. c #569717",
"3. c #569718",
"4. c #68911F",
"5. c #609A1A",
"6. c #639B1A",
"7. c #649C1A",
"8. c #699D1C",
"9. c #6EA01C",
"0. c #72A11D",
"q. c #5E8122",
"w. c #668534",
"e. c #788036",
"r. c #788136",
"t. c #798136",
"y. c #7F9036",
"u. c #74A334",
"i. c #78A434",
"p. c #78A435",
"a. c #7BA634",
"s. c #7BA635",
"d. c #7EA735",
"f. c #818B36",
"g. c #8A9437",
"h. c #8A9537",
"j. c #939F38",
"k. c #82A935",
"l. c #82A936",
"z. c #86AB35",
"x. c #86AA36",
"c. c #86AB36",
"v. c #89AC36",
"b. c #8CAD36",
"n. c #8DAD36",
"m. c #8CAE36",
"M. c #8DAE37",
"N. c #90AF37",
"B. c #9BA839",
"V. c #9CA939",
"C. c #91B037",
"Z. c #94B037",
"A. c #97B237",
"S. c #94B138",
"D. c #97B238",
"F. c #97B338",
"G. c #9BB438",
"H. c #9BB538",
"J. c #9EB538",
"K. c #9EB539",
"L. c #9FB638",
"P. c #9FB639",
"I. c #A2B738",
"U. c #A2B739",
"Y. c #A3B739",
"T. c #A3B839",
"R. c #A6B839",
"E. c #A6B939",
"W. c #A9BA39",
"Q. c #A9BB39",
"!. c #ADBC3A",
/* pixels */
"!.!.!.!.!.!.!.!.!.!.!.!.!.!.!.!.!.!.!.!.W.D.L.!.!.!.!.!.!.!.!.!.!.!.!.!.!.!.!.!.!.!.!.!.!.!.!.!.!.E.D.E.!.!.!.!.!.!.!.!.L.D.i.u.",
"!.!.!.!.!.!.!.!.!.!.!.!.!.!.!.!.!.!.!.!.!.!.!.!.!.!.!.!.!.!.!.!.!.!.!.!.!.!.!.!.!.!.!.!.!.!.!.!.!.!.!.!.!.!.!.!.!.!.!.!.!.!.s.u.",
"!.!.!.!.!.!.!.!.!.B.                    g.!.!.!.!.!.!.!.*                             h !.!.!.!.!.!.!.e.              t.M.s.u.u.",
"!.E.E.!.!.!.!.!.!.B.                    g.!.!.!.!.!.!.!.*                             h !.!.!.!.!.!.!.e.              U v.s.u.u.",
"!.s.s.!.!.!.!.t.L J b b b b b b b b b b H L P !.!.h.L L M b b b b b b b b b b b b b b B L L j.!.!.L L v E E E E E E E k F L k.u.",
"F.v.M.!.!.!.!.j   + 0.0.0.0.0.0.0.0.0.0.p   - !.!.L     4.0.0.0.0.0.0.0.0.0.0.0.0.0.0.q.    t.!.!.    4 *.*.*.*.*.*.*.4     Z.v.",
"u.E.!.!.!.!.!.j   + 0.0.0.0.0.0.0.0.0.0.p   - !.!.L     4.0.0.0.0.0.0.0.0.0.0.0.0.0.0.q.    t.!.!.    4 *.*.*.*.*.*.*.4     !.!.",
"D.Q.!.!.!.!.!.j                                                                                   ! ! _ O.O.O.O.O.O.O.<     v.v.",
"!.!.!.!.!.!.!.j                                                                                   ! ! _ O.O.O.O.O.O.O.<     u.u.",
"!.!.!.!.j.L L x E E E E E E E 5 5 q E E 0 5 5 5 5 5 5 5 5 5 9 E E 0 5 8 E E E E E E E w 5 5 1 > > > > R ' ' 6 5 5 5 5 c L L d.u.",
"!.!.!.!.e.    { *.*.*.*.*.*.*.O.O.$.*.*.#.O.O.O.O.O.O.O.O.O.@.*.*.#.O.+.*.*.*.*.*.*.*.&.O.O.) ! !     : ! ! .         t.!.!.k.u.",
"!.!.!.!.e.    { *.*.*.*.*.*.*.O.O.$.*.*.#.O.O.O.O.O.O.O.O.O.@.*.*.#.O.+.*.*.*.*.*.*.*.&.O.O.) ! !     : ! ! .         t.!.!.!.!.",
"!.!.!.!.e.        . ! ! ! ! ! O.O.] ! ! } O.O.O.O.O.O.O.O.O.| ! ! } O...! ! ! ! ! ! ! T                     Q ! ( O.O.<     T.P.",
"!.!.!.!.e.        . ! ! ! ! ! O.O.] ! ! } O.O.O.O.O.O.O.O.O.| ! ! } O...! ! ! ! ! ! ! T                     Q ! ( O.O.<     k.u.",
"!.!.!.!.e.    < 5 7 ' ' ' ' ' O.O. .' ' ..O.O.O.O.O.O.O.O.O.X.' ' ..O.o.' ' ' ' ' ' ' ^ 5 5 1 > > > > ;     ~ ' [ %.%.3     F.N.",
"!.!.!.!.e.    / O.O.O.O.O.O.O.O.O.O.O.O.O.O.O.O.O.O.O.O.O.O.O.O.O.O.O.O.O.O.O.O.O.O.O.O.O.O.) ! ! ! ! Y     ` O.@.*.*.4     !.!.",
"!.!.!.!.e.    / O.O.O.O.O.O.O.O.O.O.O.O.O.O.O.O.O.O.O.O.O.O.O.O.O.O.O.O.O.O.O.O.O.O.O.O.O.O.) ! ! ! ! Y     ` O.@.*.*.4     C.v.",
"!.!.!.!.e.                                                                                                  ` O.@.*.*.4     k.u.",
"!.!.!.!.e.                                                                                                  ` O.@.*.*.4     p.u.",
"!.!.L L N e e e e e e e e e e e e e e e e e e e e e e e e e e e e e e e e e e e e e e e e e e e e e e $     2 5 W *.*.4     u.u.",
"!.!.    u =.=.=.=.=.=.=.=.=.=.=.=.=.=.=.=.=.=.=.=.=.=.=.=.=.=.=.=.=.=.=.=.=.=.=.=.=.=.=.=.=.=.=.=.=.=.r         , *.*.4     k.u.",
"!.!.    u =.=.=.=.=.=.=.=.=.=.=.=.=.=.=.=.=.=.=.=.=.=.=.=.=.=.=.=.=.=.=.=.=.=.=.=.=.=.=.=.=.=.=.=.=.=.r         , *.*.4     Z.v.",
"!.!.    d 0.0.0.0.0.0.0.0.0.0.0.0.0.0.0.0.0.0.0.0.0.0.0.0.0.0.0.0.0.0.0.0.0.0.0.0.0.0.0.0.0.0.0.0.0.0.2.=.=.o         t.!.!.!.!.",
"!.!.    d 0.0.0.0.0.0.0.0.0.0.0.0.0.0.0.0.0.0.0.0.0.0.0.0.0.0.0.0.0.0.0.0.0.0.0.0.0.0.0.0.0.0.0.0.0.0.2.=.=.o         t.F.v.v.v.",
"!.!.    d 0.0.0.0.0.0.0.0.0.0.0.0.0.0.0.0.0.0.0.0.0.0.0.0.0.0.0.0.0.0.0.0.0.0.0.0.0.0.0.0.0.0.0.0.0.0.6.<.<.O   = L L j.v.u.u.u.",
"!.!.    d 0.0.0.0.0.0.0.0.0.0.0.0.0.0.0.0.0.0.0.0.0.0.0.0.0.0.0.0.0.0.0.0.0.0.0.0.0.0.0.0.0.0.0.0.0.0.0.0.0.@   h !.!.!.I.J.d.u.",
"!.!.    d 0.0.0.0.0.0.0.0.0.0.0.0.0.0.0.0.0.0.0.0.0.0.0.0.0.0.0.0.0.0.0.0.0.0.0.0.0.0.0.0.0.0.0.0.0.0.0.0.0.@   h !.!.!.!.!.k.u.",
"!.!.    d 0.0.0.0.0.0.0.0.0.0.0.0.0.0.0.0.0.0.0.0.0.0.0.0.0.0.0.0.0.0.0.0.0.0.0.0.0.0.0.0.0.0.0.0.0.0.0.0.0.@   h !.!.!.!.!.!.!.",
"!.!.    d 0.0.0.0.0.0.0.0.0.0.0.0.0.0.0.0.0.0.0.0.0.0.0.0.0.0.0.0.0.0.0.0.0.0.0.0.0.0.0.0.0.0.0.0.0.0.0.0.0.@   h !.!.!.!.!.T.P.",
"!.!.    d 0.0.0.0.0.0.0.0.0.0.0.0.0.0.0.0.0.0.0.0.0.0.0.0.0.0.0.0.0.0.0.0.0.0.0.0.0.0.0.0.0.0.0.0.0.0.0.0.0.@   h !.!.!.!.!.k.u.",
"!.!.    d 0.0.0.0.0.0.0.0.0.0.0.0.0.0.0.0.0.0.0.0.0.0.0.0.0.0.0.0.0.0.0.0.0.0.0.0.0.0.0.0.0.0.0.0.0.0.0.0.0.@   h !.!.!.!.!.F.N.",
"!.!.    d 0.0.0.0.0.0.0.0.0.0.0.0.0.0.0.0.0.0.0.0.0.0.0.0.0.0.0.0.0.0.0.0.0.0.0.0.0.0.0.0.0.0.0.0.0.0.0.0.0.@   h !.!.!.!.!.!.!.",
"!.M.    d 0.0.0.0.0.0.0.0.0.0.0.0.0.0.0.0.0.0.0.0.0.0.0.0.0.0.0.0.0.0.0.0.0.0.0.0.0.0.0.0.0.0.0.0.0.0.0.0.0.@   h !.P.v.P.!.!.!.",
"!.s.    d 0.0.0.0.0.0.0.0.0.0.0.0.0.0.0.0.0.0.0.0.0.0.0.0.0.0.0.0.0.0.0.0.0.0.0.0.0.0.0.0.0.0.0.0.0.0.0.0.0.@   h !.D.u.D.!.!.!.",
"s.K.L L C b b ;.<.1.0.0.0.0.0.0.0.0.0.0.0.0.0.0.0.0.0.0.0.0.0.0.0.0.0.0.0.0.0.0.0.0.0.0.0.0.0.0.0.<.<.:.b b K L I s.v.R.Q.!.z.s.",
"s.E.!.!.e.    t =.-.0.0.0.0.0.0.0.0.0.0.0.0.0.0.0.0.0.0.0.0.0.0.0.0.0.0.0.0.0.0.0.0.0.0.0.0.0.0.0.=.=.r     V.!.E.s.m.!.Q.E.k.u.",
"!.!.!.!.e.    t =.-.0.0.0.0.0.0.0.0.0.0.0.0.0.0.0.0.0.0.0.0.0.0.0.0.0.0.0.0.0.0.0.0.0.0.0.0.0.0.0.=.=.r     V.!.!.!.!.!.v.u.u.u.",
"!.!.!.!.!.!.!.j   o =.=.=.=.=.0.0.0.0.0.0.0.0.0.0.0.0.0.0.0.0.0.0.0.0.0.0.0.0.0.0.0.0.5.=.=.=.=.=.    z !.!.!.!.!.!.!.!.A.v.i.u.",
"!.!.!.!.!.!.!.j   o =.=.=.=.=.0.0.0.0.0.0.0.0.0.0.0.0.0.0.0.0.0.0.0.0.0.0.0.0.0.0.0.0.5.=.=.=.=.=.    z !.!.!.!.!.!.!.!.!.!.k.u.",
"!.!.!.!.!.!.!.j   X e e e e e 0.0.0.0.0.0.0.0.0.0.0.0.0.0.0.0.0.0.0.0.0.0.0.0.0.0.0.0.,.e e e e e     z !.!.!.!.!.!.!.!.!.!.k.u.",
"!.!.!.!.!.!.!.j               0.0.0.0.0.0.0.0.0.0.0.0.0.0.0.0.0.0.0.0.0.0.0.0.0.0.0.0.q.              z !.!.!.!.!.!.!.!.!.!.k.u.",
"!.!.!.!.!.!.!.j               0.0.0.0.0.0.0.0.0.0.0.0.0.0.0.0.0.0.0.0.0.0.0.0.0.0.0.0.q.              z !.!.!.!.!.!.!.!.S.l.p.u.",
"!.!.!.!.e.    t =.y     Z 0.0.0.0.0.0.0.0.0.0.0.0.0.0.0.0.0.0.0.0.0.0.0.0.0.0.0.0.0.0.0.0.0.0.0.0.0.0.Z     V.!.!.!.!.!.v.u.u.u.",
"!.!.!.!.e.    t =.y     Z 0.0.0.0.0.0.0.0.0.0.0.0.0.0.0.0.0.0.0.0.0.0.0.0.0.0.0.0.0.0.0.0.0.0.0.0.0.0.Z     V.!.!.!.!.!.!.!.k.u.",
"!.!.L L N e e y =.y     Z 0.0.0.0.0.0.0.0.0.0.0.0.0.0.0.0.0.0.0.0.0.0.0.0.0.0.0.0.m b n <.<.7.0.0.0.0.>.e e D L r.!.!.!.!.!.n.k.",
"!.!.    u =.=.=.=.y     Z 0.0.0.0.0.0.0.0.0.0.0.0.0.0.0.0.0.0.0.0.0.0.0.0.0.0.0.0.@   % =.=.3.0.0.0.0.2.=.=.o   h !.!.!.!.!.!.!.",
"!.!.    u =.=.=.=.y     Z 0.0.0.0.0.0.0.0.0.0.0.0.0.0.0.0.0.0.0.0.0.0.0.0.0.0.0.0.@   % =.=.3.0.0.0.0.2.=.=.o   h !.!.!.!.!.F.N.",
"!.!.    u =.=.=.=.y     Z 0.0.0.0.0.0.0.0.0.0.0.0.0.0.0.0.0.0.0.0.0.0.0.0.0.0.0.0.0.0.q.    r =.=.=.=.=.=.=.o   h !.!.!.!.!.k.u.",
"!.!.    u =.=.=.=.y     Z 0.0.0.0.0.0.0.0.0.0.0.0.0.0.0.0.0.0.0.0.0.0.0.0.0.0.0.0.0.0.q.    r =.=.=.=.=.=.=.o   h !.!.!.!.!.L.D.",
"!.!.L L N e e e e i     Z 0.0.0.0.0.0.0.0.0.0.0.0.0.0.0.0.0.0.0.0.0.0.0.0.0.0.0.0.0.0.,.e e e e e e e e e e D L r.!.!.!.!.!.!.!.",
"!.!.!.!.e.              Z 0.0.0.0.0.0.0.0.0.0.0.0.0.0.0.0.0.0.0.0.0.0.0.0.0.0.0.0.0.0.5.=.=.u               V.!.!.!.!.!.!.!.z.s.",
"!.!.!.!.e.              Z 0.0.0.0.0.0.0.0.0.0.0.0.0.0.0.0.0.0.0.0.0.0.0.0.0.0.0.0.0.0.5.=.=.u               V.!.!.E.Q.!.!.!.v.s.",
"!.!.!.!.!.!.!.!.!.B.    Z 0.0.0.0.Z                                         b 0.0.0.0.5.=.=.u     !.!.!.!.!.!.!.E.u.v.!.!.!.!.!.",
"!.!.!.!.!.!.!.!.!.B.    Z 0.0.0.0.Z                                         b 0.0.0.0.5.=.=.u     L.!.!.!.!.!.!.W.v.N.F.E.!.!.!.",
"!.!.!.!.!.!.!.!.!.B.    g <.<.0.0.>.e e o   & L L L L L L L L L L L L S     s <.<.9.0.5.=.=.u     v.!.!.!.!.!.!.!.!.D.u.D.!.!.!.",
"!.!.!.!.!.!.!.!.!.B.    r =.=.0.0.2.=.=.#   - !.!.!.!.!.!.!.!.!.!.!.!.B.    e =.=.8.0.5.=.=.u     N.v.P.!.!.!.!.!.!.E.D.N.v.v.v.",
"!.!.!.!.!.!.!.!.!.B.    r =.=.0.0.2.=.=.#   - !.!.!.!.!.!.!.!.!.!.!.!.B.    e =.=.8.0.5.=.=.u     D.u.D.!.!.!.!.!.!.!.!.v.u.u.u.",
"!.!.!.!.!.!.!.!.!.!.!.!.l     =.=.=.=.=.#   - !.!.!.!.!.!.!.!.!.!.!.!.!.!.!.L     y =.=.=.=.u     E.J.Q.!.!.!.l.c.!.!.!.v.u.u.u.",
"!.!.!.!.!.!.!.!.!.!.!.!.l     =.=.=.=.=.#   - !.!.!.!.!.!.!.!.!.!.!.!.!.!.!.L     y =.=.=.=.u     !.!.!.!.!.!.u.s.!.!.!.v.u.u.u.",
"!.!.!.!.L.u.u.u.K.!.!.!.f.L L e e e e e V L P !.!.!.!.!.!.!.!.!.!.N.u.u.u.!.h.L L a e e e e f A L !.!.!.!.!.!.!.E.u.u.u.u.u.u.u.",
"!.T.P.P.S.u.a.k.U.!.!.!.!.!.!.          y.!.!.!.E.P.P.P.Q.!.P.P.P.v.u.d.k.!.!.!.!.*         G s.P.T.!.!.!.T.P.P.F.u.u.u.u.u.u.u.",
"!.s.u.u.u.u.N.!.!.!.!.!.!.!.!.          w.!.!.!.N.u.u.u.E.E.u.u.u.u.u.K.!.!.!.!.!.*         G u.u.v.!.!.!.k.u.u.u.u.u.u.u.u.u.u.",
"N.N.b.u.u.u.k.N.E.!.Z.N.N.N.N.N.N.s.u.u.s.!.Y.N.k.u.u.u.m.N.N.x.u.u.u.v.N.N.N.N.H.!.L.N.N.N.u.u.u.v.!.G.N.s.u.u.u.u.u.u.u.u.u.u.",
"u.E.E.u.u.u.u.u.K.!.s.u.u.u.u.u.u.u.u.u.s.!.D.u.u.u.u.u.u.s.!.D.u.u.u.u.u.u.u.u.v.!.N.u.u.u.u.u.u.v.!.v.u.u.u.u.u.u.u.u.u.u.u.u."
};
