/* XPM */
static char *result[] = {
/* columns rows colors chars-per-pixel */
"64 64 158 2 ",
"   c #141B1B",
".  c #151C1D",
"X  c #1A1D25",
"o  c #211F30",
"O  c #301E34",
"+  c #202525",
"@  c #22262E",
"#  c #222C2C",
"$  c #262D2D",
"%  c #2A282F",
"&  c #2B2F2D",
"*  c #2B2F2E",
"=  c #312E2F",
"-  c #233F26",
";  c #223828",
":  c #233928",
">  c #2D3D29",
",  c #33302F",
"<  c #32342D",
"1  c #37342F",
"2  c #38342E",
"3  c #38342F",
"4  c #353F2B",
"5  c #3D382E",
"6  c #2A2730",
"7  c #282735",
"8  c #282936",
"9  c #292936",
"0  c #2F2E3A",
"q  c #30333C",
"w  c #31343C",
"e  c #471E38",
"r  c #4F1E3A",
"t  c #5E1D3E",
"y  c #413C2E",
"u  c #423C2E",
"i  c #522A37",
"p  c #513135",
"a  c #612539",
"s  c #67213D",
"d  c #6C263B",
"f  c #652A39",
"g  c #6A2F3A",
"h  c #76273C",
"j  c #7D273D",
"k  c #7E273E",
"l  c #78293C",
"z  c #792A3C",
"x  c #792B3C",
"c  c #7B2D3C",
"v  c #7F313C",
"b  c #72393F",
"n  c #255F1C",
"m  c #266C17",
"M  c #277913",
"N  c #234524",
"B  c #244C22",
"V  c #245220",
"C  c #2D572D",
"Z  c #375923",
"A  c #3F5028",
"S  c #364C39",
"D  c #3D6820",
"F  c #46402E",
"G  c #475A2F",
"H  c #485D2A",
"J  c #44513B",
"K  c #496026",
"L  c #4A6D22",
"P  c #4E6825",
"I  c #537024",
"U  c #343747",
"Y  c #3B3848",
"T  c #6E1C42",
"R  c #7D1C45",
"E  c #543C44",
"W  c #7F2043",
"Q  c #424E40",
"!  c #414B44",
"~  c #404848",
"^  c #444D4B",
"/  c #4A4C4D",
"(  c #47524E",
")  c #48524E",
"_  c #575B57",
"`  c #505D54",
"'  c #674D4D",
"]  c #546157",
"[  c #516D62",
"{  c #5F7160",
"}  c #596573",
"|  c #5A7370",
" . c #656A61",
".. c #82343D",
"X. c #8C1C49",
"o. c #9C1B4D",
"O. c #923040",
"+. c #A12447",
"@. c #A42646",
"#. c #A12C42",
"$. c #A8204B",
"%. c #AE224B",
"&. c #AE234B",
"*. c #B62E45",
"=. c #B4254A",
"-. c #BA2849",
";. c #BD2B4A",
":. c #B33F44",
">. c #C02A49",
",. c #C02B49",
"<. c #C32C49",
"1. c #C62D49",
"2. c #C62E48",
"3. c #C92F48",
"4. c #CC3048",
"5. c #CF3348",
"6. c #D23648",
"7. c #D23749",
"8. c #D53A49",
"9. c #D83D49",
"0. c #DE4349",
"q. c #E44A4A",
"w. c #28860F",
"e. c #318911",
"r. c #4C871A",
"t. c #4C801C",
"y. c #55841E",
"u. c #5E8D1E",
"i. c #4D9316",
"p. c #529517",
"a. c #569717",
"s. c #569718",
"d. c #5F9A19",
"f. c #68911F",
"g. c #649B1A",
"h. c #659C1A",
"j. c #699D1C",
"k. c #6EA01C",
"l. c #72A11D",
"z. c #5D8022",
"x. c #7EAC26",
"c. c #7F8875",
"v. c #85B12C",
"b. c #8BB630",
"n. c #94BE37",
"m. c #9EC63D",
"M. c #8D977F",
"N. c #A1C940",
"B. c #A4CC42",
"V. c #6C7D8A",
"C. c #768996",
"Z. c #A39EA8",
"A. c #88A1AC",
"S. c #92ADB8",
"D. c #BEB7C1",
"F. c #A5C4CE",
"G. c #B8DCE5",
"H. c #F2EAF1",
/* pixels */
"M.M.M.M.{ { { { M.M.M.M.{ { { { { { { { { { { { F F F F { { { { { { { { { { { { { { { { { { { { F F F F M.M.M.M.M.M.M.M.M.M.M.M.",
"M.M.M.M.{ { { { M.M.M.M.{ { { { { { { { { { { { F F F F { { { { { { { { { { { { { { { { { { { { F F F F M.M.M.M.M.M.M.M.M.M.M.M.",
"M.M.M.M.{ { { { M.c.o o o o o o o o o o ` { { { F F F F 8 o o o o o o o o o o o o o o w { { { { F F F 1 o o o o o o o  .M.M.M.M.",
"M.M.M.M.{ { { { M.c.o o o o o o o o o o ` { { { F F F F 8 o o o o o o o o o o o o o o w { { { { F F F 1 o o o o o o o  .M.M.M.M.",
"M.M.M.M.F F F 3 ~ ! K K K K K K K K K K Q ~ ^ { F 5 , , H K K K K K K K K K K K K K K G ~ ~ ] { F , , p ..............' _ _ M.M.",
"M.M.M.M.F F F 6 o & l.l.l.l.l.l.l.l.l.l.4 o 9 { F , o o f.l.l.l.l.l.l.l.l.l.l.l.l.l.l.z.o o ) { F o o g q.q.q.q.q.q.q.g o o M.M.",
"M.M.M.M.F F F 6 o & l.l.l.l.l.l.l.l.l.l.4 o 9 { F , o o f.l.l.l.l.l.l.l.l.l.l.l.l.l.l.z.o o ) { F o o g q.q.q.q.q.q.q.g o o M.M.",
"M.M.M.M.F F F 6 o o o o o o o o o o o o o o o o o o o o o o o o o o o o o o o o o o o o o o o o o o.o.&.4.4.4.4.4.4.4.a o o M.M.",
"M.M.M.M.{ { { q o o o o o o o o o o o o o o o o o o o o o o o o o o o o o o o o o o o o o o o o o o.o.&.4.4.4.4.4.4.4.a o o M.M.",
"M.M.M.M.] ~ ~ b ..............h h c ....z h h h h h h h h h x ....z h l ..............v h h s t t t t W =.=.j h h h h E _ _ M.M.",
"M.M.M.M.( o o :.q.q.q.q.q.q.q.4.4.8.q.q.6.4.4.4.4.4.4.4.4.4.7.q.q.6.4.5.q.q.q.q.q.q.q.0.4.4.%.o.o.o o r o.o.O o o o o ) M.M.M.M.",
"M.M.M.M.( o o :.q.q.q.q.q.q.q.4.4.8.q.q.6.4.4.4.4.4.4.4.4.4.7.q.q.6.4.5.q.q.q.q.q.q.q.0.4.4.%.o.o.o o r o.o.O o o o o ) M.M.M.M.",
"{ { { { ( o o o o O o.o.o.o.o.4.4.-.o.o.,.4.4.4.4.4.4.4.4.4.>.o.o.,.4.1.o.o.o.o.o.o.o.R o o o o o o o o o o X.o.$.4.4.a o o M.M.",
"{ { { { ( o o o o O o.o.o.o.o.4.4.-.o.o.,.4.4.4.4.4.4.4.4.4.>.o.o.,.4.1.o.o.o.o.o.o.o.R o o o o o o o o o o X.o.$.4.4.a o o M.M.",
"{ { { { ( o o a h k =.=.=.=.=.4.4.<.=.=.2.4.4.4.4.4.4.4.4.4.1.=.=.2.4.3.=.=.=.=.=.=.=.@.h h s t t t t e o o +.=.;.9.9.f o o M.M.",
"{ { { { ( o o #.4.4.4.4.4.4.4.4.4.4.4.4.4.4.4.4.4.4.4.4.4.4.4.4.4.4.4.4.4.4.4.4.4.4.4.4.4.4.%.o.o.o.o.T o o *.4.7.q.q.g o o M.M.",
"{ { { { ( o o #.4.4.4.4.4.4.4.4.4.4.4.4.4.4.4.4.4.4.4.4.4.4.4.4.4.4.4.4.4.4.4.4.4.4.4.4.4.4.%.o.o.o.o.T o o *.4.7.q.q.g o o { { ",
"{ { { { ( o o o o o o o o o o o o o o o o o o o o o o o o o o o o o o o o o o o o o o o o o o o o o o o o o *.4.7.q.q.g o o { { ",
"{ { { { ( o o o o o o o o o o o o o o o o o o o o o o o o o o o o o o o o o o o o o o o o o o o o o o o o o *.4.7.q.q.g o o { { ",
"{ { ~ ~ S V V V V V V V V V V V V V V V V V V V V V V V V V V V V V V V V V V V V V V V V V V V V V V - o o d h O.q.q.g o o { { ",
"{ { o o N w.w.w.w.w.w.w.w.w.w.w.w.w.w.w.w.w.w.w.w.w.w.w.w.w.w.w.w.w.w.w.w.w.w.w.w.w.w.w.w.w.w.w.w.w.w.n o o o o i q.q.g o o { { ",
"{ { o o N w.w.w.w.w.w.w.w.w.w.w.w.w.w.w.w.w.w.w.w.w.w.w.w.w.w.w.w.w.w.w.w.w.w.w.w.w.w.w.w.w.w.w.w.w.w.n o o o o i q.q.g o o { { ",
"{ { o o A l.l.l.l.l.l.l.l.l.l.l.l.l.l.l.l.l.l.l.l.l.l.l.l.l.l.l.l.l.l.l.l.l.l.l.l.l.l.l.l.l.l.l.l.l.l.a.w.w.# o o o o ) { { { { ",
"{ { o o A l.l.l.l.l.l.l.l.l.l.l.l.l.l.l.l.l.l.l.l.l.l.l.l.l.l.l.l.l.l.l.l.l.l.l.l.l.l.l.l.l.l.l.l.l.l.a.w.w.# o o o o ) { { { { ",
"{ { o o A l.l.l.l.l.l.l.l.l.l.l.l.l.l.l.l.l.l.l.l.l.l.l.l.l.l.l.l.l.l.l.l.l.l.l.l.l.l.l.l.l.l.l.l.l.l.g.i.i.$ o 9 ~ ~ ] { { { { ",
"{ { o o A l.l.l.l.l.l.l.l.l.l.l.l.l.l.l.l.l.l.l.l.l.l.l.l.l.l.l.l.l.l.l.l.l.l.l.l.l.l.l.l.l.l.l.l.l.l.l.l.l.* o w { { { { { { { ",
"{ { o o A l.l.l.l.l.l.l.l.l.l.l.l.l.l.l.l.l.l.l.l.l.l.l.l.l.l.l.l.l.l.l.l.l.l.l.l.l.l.l.l.l.l.l.l.l.l.l.l.l.* o w { { { { { { { ",
"{ { o o A l.l.l.l.l.l.l.l.l.l.l.l.l.l.l.l.l.l.l.l.l.l.l.l.l.l.l.l.l.l.l.l.l.l.l.l.l.l.l.l.l.l.l.l.l.l.l.l.l.* o w { { { { { { { ",
"{ { o o A l.l.l.l.l.l.l.l.l.l.l.l.l.l.l.l.l.l.l.l.l.l.l.l.l.l.l.l.l.l.l.l.l.l.l.l.l.l.l.l.l.l.l.l.l.l.l.l.l.* o w { { { { { { { ",
"{ { o o A l.l.l.l.l.l.l.l.l.l.l.l.l.l.l.l.l.l.l.l.l.l.l.l.l.l.l.l.l.l.l.l.l.l.l.l.l.l.l.l.l.l.l.l.l.l.l.l.l.* o w { { { { { { { ",
"{ { o o A l.l.l.l.l.l.l.l.l.l.l.l.l.l.l.l.l.l.l.l.l.l.l.l.l.l.l.l.l.l.l.l.l.l.l.l.l.l.l.l.l.l.l.l.l.l.l.l.l.* o w { { { { { { { ",
"{ { o o A l.l.l.l.l.l.l.l.l.l.l.l.l.l.l.l.l.l.l.l.l.l.l.l.l.l.l.l.l.l.l.l.l.l.l.l.l.l.l.l.l.l.l.l.l.l.l.l.l.* o w { { { { { { { ",
"{ { o o A l.l.l.l.l.l.l.l.l.l.l.l.l.l.l.l.l.l.l.l.l.l.l.l.l.l.l.l.l.l.l.l.l.l.l.l.l.l.l.l.l.l.l.l.l.l.l.l.l.* o w { { { { { { { ",
"{ { o o A l.l.l.l.l.l.l.l.l.l.l.l.l.l.l.l.l.l.l.l.l.l.l.l.l.l.l.l.l.l.l.l.l.l.l.l.l.l.l.l.l.l.l.l.l.l.l.l.l.* o w { { { { { { { ",
"{ { ~ ~ J K K r.i.p.l.l.l.l.l.l.l.l.l.l.l.l.l.l.l.l.l.l.l.l.l.l.l.l.l.l.l.l.l.l.l.l.l.l.l.l.l.l.l.i.i.t.K K + X ) { { { { { { { ",
"{ { { { ( o o m w.e.l.l.l.l.l.l.l.l.l.l.l.l.l.l.l.l.l.l.l.l.l.l.l.l.l.l.l.l.l.l.l.l.l.l.l.l.l.l.l.w.w.n o o .   { { { { { { { { ",
"{ { { { ( o o m w.e.l.l.l.l.l.l.l.l.l.l.l.l.l.l.l.l.l.l.l.l.l.l.l.l.l.l.l.l.l.l.l.l.l.l.l.l.l.l.l.w.w.n o o .   { { { { { { { { ",
"{ { { { { { { q o # w.w.w.w.w.l.l.l.l.l.l.l.l.l.l.l.l.l.l.l.l.l.l.l.l.l.l.l.l.l.l.l.l.d.w.w.w.w.w.o o /         { { { { { { { { ",
"{ { { { { { { q o # w.w.w.w.w.l.l.l.l.l.l.l.l.l.l.l.l.l.l.l.l.l.l.l.l.l.l.l.l.l.l.l.l.d.w.w.w.w.w.o o /         { { { { { { { { ",
"{ { { { { { { q o @ V V V V V l.l.l.l.l.l.l.l.l.l.l.l.l.l.l.l.l.l.l.l.l.l.l.l.l.l.l.l.u.V V V V V o o /         { { { { { { { { ",
"{ { { { { { { q o o o o o o o l.l.l.l.l.l.l.l.l.l.l.l.l.l.l.l.l.l.l.l.l.l.l.l.l.l.l.l.z.o o o o o o o /         { { { { { { { { ",
"{ { { { { { { q o o o o o o o l.l.l.l.l.l.l.l.l.l.l.l.l.l.l.l.l.l.l.l.l.l.l.l.l.l.l.l.z.o o o o o o o /         { { { { { { { { ",
"{ { { { ( o o m w.M o o I l.l.l.l.v.B.B.B.B.B.B.B.B.B.B.B.B.B.B.B.B.B.m.l.l.l.l.l.l.l.l.l.l.l.l.l.l.l.I o o .   { { { { { { { { ",
"{ { { { ( o o m w.M o o I l.l.l.l.v.B.B.B.B.B.B.B.B.B.B.B.B.B.B.B.B.B.m.l.l.l.l.l.l.l.l.l.l.l.l.l.l.l.I o o .   { { { { { { { { ",
"{ { ~ ~ S V V M w.M o o I l.l.b.b.n.B.B.B.B.B.B.B.B.B.B.B.B.B.B.B.B.B.N.b.b.x.l.l.P K L i.i.h.l.l.l.l.y.V V < , ) { { { { { { { ",
"{ { o o N w.w.w.w.M o o I l.l.B.B.B.B.B.B.B.B.B.B.B.B.B.B.B.B.B.B.B.B.B.B.B.b.l.l.* o : w.w.s.l.l.l.l.a.w.w.# o w { { { { { { { ",
"{ { o o N w.w.w.w.M o o I l.l.B.B.B.B.B.B.B.B.B.B.B.B.B.B.B.B.B.B.B.B.B.B.B.b.l.l.* o : w.w.s.l.l.l.l.a.w.w.# o w { { { { { { { ",
"{ { o o N w.w.w.w.M o o I l.l.B.B.B.B.B.B.B.B.B.B.B.B.B.B.B.B.B.B.B.B.B.B.B.b.l.l.l.l.z.o o n w.w.w.w.w.w.w.# o w { { { { { { { ",
"{ { o o N w.w.w.w.M o o I l.l.B.B.B.B.B.B.B.B.B.B.B.B.B.B.B.B.B.B.B.B.B.B.B.b.l.l.l.l.z.o o n w.w.w.w.w.w.w.# o % F F F { { { { ",
"{ { ~ ~ > V V V V B o o I l.l.b.b.n.B.B.B.B.B.B.B.B.B.B.B.B.B.B.B.B.B.N.b.b.x.l.l.l.l.u.V V V V V V V V V V < , 2 F F F { { { { ",
"{ { { { 1 o o o o o o o I l.l.l.l.v.B.B.B.B.B.B.B.B.B.B.B.B.B.B.B.B.B.m.l.l.l.l.l.l.l.d.w.w.N o o o o o o o u F F F F F { { { { ",
"{ { { { 1 o o o o o o o I l.l.l.l.v.B.B.B.B.B.B.B.B.B.B.B.B.B.B.B.B.B.m.l.l.l.l.l.l.l.d.w.w.N o o o o o o o u F F F F F { { { { ",
"F F F F F F F F F y o o I l.l.l.l.I o o o o o o o o o o o o o o o o o o o o K l.l.l.l.d.w.w.N o o F F F F F F F F F F F F F F F ",
"F F F F F F F F F y o o I l.l.l.l.I o o o o o o o o o o o o o o o o o o o o K l.l.l.l.d.w.w.N o o F F F F F F F F F F F F F F F ",
"F F F F F F F F F y o o D i.i.l.l.y.V V # o 7 _ , , , , _ _ _ _ , , , = o o Z i.i.k.l.d.w.w.N o o F F F F F F F F F F F F F F F ",
"F F F F F F F F F y o o n w.w.l.l.a.w.w.; o 0 M.F F F F M.M.M.M.F F F y o o V w.w.j.l.d.w.w.N o o F F F F F F F F F F F F F F F ",
"F F F F F F F F F y o o n w.w.l.l.a.w.w.; o U G.G.G.G.G.G.G.G.G.G.G.G.F.o o V w.w.j.l.d.w.w.N o o G.G.G.F F F F F F F F F F F F ",
"F F F F F F F F F F F F } o o w.w.w.w.w.; o U G.G.G.G.G.G.G.G.G.G.G.G.G.G.G.V.o o M w.w.w.w.N o o G.G.G.F F F F F F F F F F F F ",
"F F F F F F F F F F F F } o o w.w.w.w.w.; o U G.G.G.G.G.G.G.G.G.G.G.G.G.G.G.V.o o M w.w.w.w.N o o G.G.G.F F F F F F F F F F F F ",
"F F F F F F F F F F F F A.V.V.V V V V V | V.C.G.G.G.G.G.G.G.G.G.G.G.G.G.G.G.S.V.V.C V V V V [ V.V.G.G.G.F F F F F F F F F F F F ",
"H.H.H.H.H.H.H.H.H.H.H.H.H.H.H.o o o o o D.H.H.H.H.H.H.H.H.H.H.H.H.H.H.H.H.H.H.H.H.Y o o o o Z.H.H.H.H.H.H.H.H.H.H.H.H.H.H.H.H.H.",
"H.H.H.H.H.H.H.H.H.H.H.H.H.H.H.o o o o o D.H.H.H.H.H.H.H.H.H.H.H.H.H.H.H.H.H.H.H.H.Y o o o o Z.H.H.H.H.H.H.H.H.H.H.H.H.H.H.H.H.H.",
"H.H.H.H.H.H.H.H.H.H.H.H.H.H.H.H.H.H.H.H.H.H.H.H.H.H.H.H.H.H.H.H.H.H.H.H.H.H.H.H.H.H.H.H.H.H.H.H.H.H.H.H.H.H.H.H.H.H.H.H.H.H.H.H.",
"H.H.H.H.H.H.H.H.H.H.H.H.H.H.H.H.H.H.H.H.H.H.H.H.H.H.H.H.H.H.H.H.H.H.H.H.H.H.H.H.H.H.H.H.H.H.H.H.H.H.H.H.H.H.H.H.H.H.H.H.H.H.H.H."
};
