/* XPM */
static char *result[] = {
/* columns rows colors chars-per-pixel */
"64 64 151 2 ",
"   c #141B1B",
".  c #151C1D",
"X  c #1A1D25",
"o  c #211F30",
"O  c #301E34",
"+  c #202525",
"@  c #22262E",
"#  c #2A272F",
"$  c #222C2C",
"%  c #262D2D",
"&  c #2B2F2D",
"*  c #2B2F2E",
"=  c #312D2F",
"-  c #332F2F",
";  c #223827",
":  c #233F26",
">  c #233928",
",  c #2D3D29",
"<  c #32332D",
"1  c #37332F",
"2  c #38332E",
"3  c #38342F",
"4  c #3D382E",
"5  c #2A2730",
"6  c #282735",
"7  c #282936",
"8  c #292936",
"9  c #2F2E3A",
"0  c #30333C",
"q  c #31343C",
"w  c #471E38",
"e  c #4F1E3A",
"r  c #5E1D3E",
"t  c #413C2E",
"y  c #423C2E",
"u  c #512A36",
"i  c #513135",
"p  c #612539",
"a  c #67213D",
"s  c #6C263B",
"d  c #652A39",
"f  c #6A2F3A",
"g  c #76273C",
"h  c #7D273D",
"j  c #7E273E",
"k  c #78293C",
"l  c #792A3C",
"z  c #792B3C",
"x  c #7B2D3C",
"c  c #7F313D",
"v  c #24521F",
"b  c #255F1B",
"n  c #266C17",
"m  c #277913",
"M  c #234523",
"N  c #244C21",
"B  c #35402B",
"V  c #2D572C",
"C  c #375923",
"Z  c #3F5028",
"A  c #364C39",
"S  c #3D6820",
"D  c #46402E",
"F  c #475A2E",
"G  c #485D2A",
"H  c #434E3F",
"J  c #44513B",
"K  c #496026",
"L  c #4A6D22",
"P  c #4E6825",
"I  c #537024",
"U  c #343747",
"Y  c #3B3848",
"T  c #6E1C42",
"R  c #7D1C45",
"E  c #543C44",
"W  c #7F2043",
"Q  c #723940",
"!  c #414B44",
"~  c #404848",
"^  c #444D4B",
"/  c #4A4C4D",
"(  c #47524E",
")  c #48524E",
"_  c #4F5C54",
"`  c #575B57",
"'  c #674D4D",
"]  c #536157",
"[  c #516D62",
"{  c #5F7160",
"}  c #5A736F",
"|  c #596573",
" . c #656A61",
".. c #82343D",
"X. c #91303F",
"o. c #8C1C49",
"O. c #9C1B4D",
"+. c #A12447",
"@. c #A52547",
"#. c #A12C42",
"$. c #A8204B",
"%. c #AE224B",
"&. c #AE234B",
"*. c #B62E45",
"=. c #B4254A",
"-. c #BA2849",
";. c #BD2B4A",
":. c #B33F43",
">. c #C02A49",
",. c #C02B49",
"<. c #C32C49",
"1. c #C62D49",
"2. c #C62E48",
"3. c #C92F48",
"4. c #CC3048",
"5. c #CF3348",
"6. c #D23648",
"7. c #D23749",
"8. c #D53A49",
"9. c #D83D49",
"0. c #DE444A",
"q. c #E44A4A",
"w. c #28860F",
"e. c #318911",
"r. c #4C861A",
"t. c #4C801C",
"y. c #55841E",
"u. c #5E8D1D",
"i. c #4D9316",
"p. c #529517",
"a. c #569717",
"s. c #569718",
"d. c #68911F",
"f. c #609A1A",
"g. c #639B1A",
"h. c #649C1A",
"j. c #699D1C",
"k. c #6EA01C",
"l. c #72A11D",
"z. c #5E8122",
"x. c #7F8875",
"c. c #8D977F",
"v. c #6C7D8A",
"b. c #768996",
"n. c #A39EA8",
"m. c #88A1AC",
"M. c #92ADB8",
"N. c #BEB7C0",
"B. c #A5C4CE",
"V. c #B8DCE5",
"C. c #F2EAF1",
/* pixels */
"c.c.c.c.{ { { { c.c.c.c.{ { { { { { { { { { { { D D D D { { { { { { { { { { { { { { { { { { { { D D D D c.c.c.c.c.c.c.c.c.c.c.c.",
"c.c.c.c.{ { { { c.c.c.c.{ { { { { { { { { { { { D D D D { { { { { { { { { { { { { { { { { { { { D D D D c.c.c.c.c.c.c.c.c.c.c.c.",
"c.c.c.c.{ { { { c.x.o o o o o o o o o o _ { { { D D D D 7 o o o o o o o o o o o o o o 0 { { { { D D D 1 o o o o o o o  .c.c.c.c.",
"c.c.c.c.{ { { { c.x.o o o o o o o o o o _ { { { D D D D 7 o o o o o o o o o o o o o o 0 { { { { D D D 1 o o o o o o o  .c.c.c.c.",
"c.c.c.c.D D D 2 ~ ! K K K K K K K K K K H ~ ^ { D 4 - - G K K K K K K K K K K K K K K F ~ ~ ] { D - - i ..............' ` ` c.c.",
"c.c.c.c.D D D # o & l.l.l.l.l.l.l.l.l.l.B o 8 { D - o o d.l.l.l.l.l.l.l.l.l.l.l.l.l.l.z.o o ) { D o o f q.q.q.q.q.q.q.f o o c.c.",
"c.c.c.c.D D D # o & l.l.l.l.l.l.l.l.l.l.B o 8 { D - o o d.l.l.l.l.l.l.l.l.l.l.l.l.l.l.z.o o ) { D o o f q.q.q.q.q.q.q.f o o c.c.",
"c.c.c.c.D D D # o o o o o o o o o o o o o o o o o o o o o o o o o o o o o o o o o o o o o o o o o O.O.&.4.4.4.4.4.4.4.p o o c.c.",
"c.c.c.c.{ { { q o o o o o o o o o o o o o o o o o o o o o o o o o o o o o o o o o o o o o o o o o O.O.&.4.4.4.4.4.4.4.p o o c.c.",
"c.c.c.c.] ~ ~ Q ..............g g x ....z g g g g g g g g g l ....z g k ..............c g g a r r r r W =.=.h g g g g E ` ` c.c.",
"c.c.c.c.( o o :.q.q.q.q.q.q.q.4.4.8.q.q.7.4.4.4.4.4.4.4.4.4.6.q.q.7.4.5.q.q.q.q.q.q.q.0.4.4.%.O.O.o o e O.O.O o o o o ) c.c.c.c.",
"c.c.c.c.( o o :.q.q.q.q.q.q.q.4.4.8.q.q.7.4.4.4.4.4.4.4.4.4.6.q.q.7.4.5.q.q.q.q.q.q.q.0.4.4.%.O.O.o o e O.O.O o o o o ) c.c.c.c.",
"{ { { { ( o o o o O O.O.O.O.O.4.4.-.O.O.>.4.4.4.4.4.4.4.4.4.,.O.O.>.4.1.O.O.O.O.O.O.O.R o o o o o o o o o o o.O.$.4.4.p o o c.c.",
"{ { { { ( o o o o O O.O.O.O.O.4.4.-.O.O.>.4.4.4.4.4.4.4.4.4.,.O.O.>.4.1.O.O.O.O.O.O.O.R o o o o o o o o o o o.O.$.4.4.p o o c.c.",
"{ { { { ( o o p g j =.=.=.=.=.4.4.<.=.=.1.4.4.4.4.4.4.4.4.4.2.=.=.1.4.3.=.=.=.=.=.=.=.@.g g a r r r r w o o +.=.;.9.9.d o o c.c.",
"{ { { { ( o o #.4.4.4.4.4.4.4.4.4.4.4.4.4.4.4.4.4.4.4.4.4.4.4.4.4.4.4.4.4.4.4.4.4.4.4.4.4.4.%.O.O.O.O.T o o *.4.6.q.q.f o o c.c.",
"{ { { { ( o o #.4.4.4.4.4.4.4.4.4.4.4.4.4.4.4.4.4.4.4.4.4.4.4.4.4.4.4.4.4.4.4.4.4.4.4.4.4.4.%.O.O.O.O.T o o *.4.6.q.q.f o o { { ",
"{ { { { ( o o o o o o o o o o o o o o o o o o o o o o o o o o o o o o o o o o o o o o o o o o o o o o o o o *.4.6.q.q.f o o { { ",
"{ { { { ( o o o o o o o o o o o o o o o o o o o o o o o o o o o o o o o o o o o o o o o o o o o o o o o o o *.4.6.q.q.f o o { { ",
"{ { ~ ~ A v v v v v v v v v v v v v v v v v v v v v v v v v v v v v v v v v v v v v v v v v v v v v v : o o s g X.q.q.f o o { { ",
"{ { o o M w.w.w.w.w.w.w.w.w.w.w.w.w.w.w.w.w.w.w.w.w.w.w.w.w.w.w.w.w.w.w.w.w.w.w.w.w.w.w.w.w.w.w.w.w.w.b o o o o u q.q.f o o { { ",
"{ { o o M w.w.w.w.w.w.w.w.w.w.w.w.w.w.w.w.w.w.w.w.w.w.w.w.w.w.w.w.w.w.w.w.w.w.w.w.w.w.w.w.w.w.w.w.w.w.b o o o o u q.q.f o o { { ",
"{ { o o Z l.l.l.l.l.l.l.l.l.l.l.l.l.l.l.l.l.l.l.l.l.l.l.l.l.l.l.l.l.l.l.l.l.l.l.l.l.l.l.l.l.l.l.l.l.l.a.w.w.$ o o o o ) { { { { ",
"{ { o o Z l.l.l.l.l.l.l.l.l.l.l.l.l.l.l.l.l.l.l.l.l.l.l.l.l.l.l.l.l.l.l.l.l.l.l.l.l.l.l.l.l.l.l.l.l.l.a.w.w.$ o o o o ) { { { { ",
"{ { o o Z l.l.l.l.l.l.l.l.l.l.l.l.l.l.l.l.l.l.l.l.l.l.l.l.l.l.l.l.l.l.l.l.l.l.l.l.l.l.l.l.l.l.l.l.l.l.g.i.i.% o 8 ~ ~ ] { { { { ",
"{ { o o Z l.l.l.l.l.l.l.l.l.l.l.l.l.l.l.l.l.l.l.l.l.l.l.l.l.l.l.l.l.l.l.l.l.l.l.l.l.l.l.l.l.l.l.l.l.l.l.l.l.* o 0 { { { { { { { ",
"{ { o o Z l.l.l.l.l.l.l.l.l.l.l.l.l.l.l.l.l.l.l.l.l.l.l.l.l.l.l.l.l.l.l.l.l.l.l.l.l.l.l.l.l.l.l.l.l.l.l.l.l.* o 0 { { { { { { { ",
"{ { o o Z l.l.l.l.l.l.l.l.l.l.l.l.l.l.l.l.l.l.l.l.l.l.l.l.l.l.l.l.l.l.l.l.l.l.l.l.l.l.l.l.l.l.l.l.l.l.l.l.l.* o 0 { { { { { { { ",
"{ { o o Z l.l.l.l.l.l.l.l.l.l.l.l.l.l.l.l.l.l.l.l.l.l.l.l.l.l.l.l.l.l.l.l.l.l.l.l.l.l.l.l.l.l.l.l.l.l.l.l.l.* o 0 { { { { { { { ",
"{ { o o Z l.l.l.l.l.l.l.l.l.l.l.l.l.l.l.l.l.l.l.l.l.l.l.l.l.l.l.l.l.l.l.l.l.l.l.l.l.l.l.l.l.l.l.l.l.l.l.l.l.* o 0 { { { { { { { ",
"{ { o o Z l.l.l.l.l.l.l.l.l.l.l.l.l.l.l.l.l.l.l.l.l.l.l.l.l.l.l.l.l.l.l.l.l.l.l.l.l.l.l.l.l.l.l.l.l.l.l.l.l.* o 0 { { { { { { { ",
"{ { o o Z l.l.l.l.l.l.l.l.l.l.l.l.l.l.l.l.l.l.l.l.l.l.l.l.l.l.l.l.l.l.l.l.l.l.l.l.l.l.l.l.l.l.l.l.l.l.l.l.l.* o 0 { { { { { { { ",
"{ { o o Z l.l.l.l.l.l.l.l.l.l.l.l.l.l.l.l.l.l.l.l.l.l.l.l.l.l.l.l.l.l.l.l.l.l.l.l.l.l.l.l.l.l.l.l.l.l.l.l.l.* o 0 { { { { { { { ",
"{ { o o Z l.l.l.l.l.l.l.l.l.l.l.l.l.l.l.l.l.l.l.l.l.l.l.l.l.l.l.l.l.l.l.l.l.l.l.l.l.l.l.l.l.l.l.l.l.l.l.l.l.* o 0 { { { { { { { ",
"{ { ~ ~ J K K r.i.p.l.l.l.l.l.l.l.l.l.l.l.l.l.l.l.l.l.l.l.l.l.l.l.l.l.l.l.l.l.l.l.l.l.l.l.l.l.l.l.i.i.t.K K + X ) { { { { { { { ",
"{ { { { ( o o n w.e.l.l.l.l.l.l.l.l.l.l.l.l.l.l.l.l.l.l.l.l.l.l.l.l.l.l.l.l.l.l.l.l.l.l.l.l.l.l.l.w.w.b o o .   { { { { { { { { ",
"{ { { { ( o o n w.e.l.l.l.l.l.l.l.l.l.l.l.l.l.l.l.l.l.l.l.l.l.l.l.l.l.l.l.l.l.l.l.l.l.l.l.l.l.l.l.w.w.b o o .   { { { { { { { { ",
"{ { { { { { { q o $ w.w.w.w.w.l.l.l.l.l.l.l.l.l.l.l.l.l.l.l.l.l.l.l.l.l.l.l.l.l.l.l.l.f.w.w.w.w.w.o o /         { { { { { { { { ",
"{ { { { { { { q o $ w.w.w.w.w.l.l.l.l.l.l.l.l.l.l.l.l.l.l.l.l.l.l.l.l.l.l.l.l.l.l.l.l.f.w.w.w.w.w.o o /         { { { { { { { { ",
"{ { { { { { { q o @ v v v v v l.l.l.l.l.l.l.l.l.l.l.l.l.l.l.l.l.l.l.l.l.l.l.l.l.l.l.l.u.v v v v v o o /         { { { { { { { { ",
"{ { { { { { { q o o o o o o o l.l.l.l.l.l.l.l.l.l.l.l.l.l.l.l.l.l.l.l.l.l.l.l.l.l.l.l.z.o o o o o o o /         { { { { { { { { ",
"{ { { { { { { q o o o o o o o l.l.l.l.l.l.l.l.l.l.l.l.l.l.l.l.l.l.l.l.l.l.l.l.l.l.l.l.z.o o o o o o o /         { { { { { { { { ",
"{ { { { ( o o n w.m o o I l.l.l.l.l.l.l.l.l.l.l.l.l.l.l.l.l.l.l.l.l.l.l.l.l.l.l.l.l.l.l.l.l.l.l.l.l.l.I o o .   { { { { { { { { ",
"{ { { { ( o o n w.m o o I l.l.l.l.l.l.l.l.l.l.l.l.l.l.l.l.l.l.l.l.l.l.l.l.l.l.l.l.l.l.l.l.l.l.l.l.l.l.I o o .   { { { { { { { { ",
"{ { ~ ~ A v v m w.m o o I l.l.l.l.l.l.l.l.l.l.l.l.l.l.l.l.l.l.l.l.l.l.l.l.l.l.l.l.P K L i.i.h.l.l.l.l.y.v v < - ) { { { { { { { ",
"{ { o o M w.w.w.w.m o o I l.l.l.l.l.l.l.l.l.l.l.l.l.l.l.l.l.l.l.l.l.l.l.l.l.l.l.l.* o > w.w.s.l.l.l.l.a.w.w.$ o 0 { { { { { { { ",
"{ { o o M w.w.w.w.m o o I l.l.l.l.l.l.l.l.l.l.l.l.l.l.l.l.l.l.l.l.l.l.l.l.l.l.l.l.* o > w.w.s.l.l.l.l.a.w.w.$ o 0 { { { { { { { ",
"{ { o o M w.w.w.w.m o o I l.l.l.l.l.l.l.l.l.l.l.l.l.l.l.l.l.l.l.l.l.l.l.l.l.l.l.l.l.l.z.o o b w.w.w.w.w.w.w.$ o 0 { { { { { { { ",
"{ { o o M w.w.w.w.m o o I l.l.l.l.l.l.l.l.l.l.l.l.l.l.l.l.l.l.l.l.l.l.l.l.l.l.l.l.l.l.z.o o b w.w.w.w.w.w.w.$ o 5 D D D { { { { ",
"{ { ~ ~ , v v v v N o o I l.l.l.l.l.l.l.l.l.l.l.l.l.l.l.l.l.l.l.l.l.l.l.l.l.l.l.l.l.l.u.v v v v v v v v v v < - 3 D D D { { { { ",
"{ { { { 1 o o o o o o o I l.l.l.l.l.l.l.l.l.l.l.l.l.l.l.l.l.l.l.l.l.l.l.l.l.l.l.l.l.l.f.w.w.M o o o o o o o y D D D D D { { { { ",
"{ { { { 1 o o o o o o o I l.l.l.l.l.l.l.l.l.l.l.l.l.l.l.l.l.l.l.l.l.l.l.l.l.l.l.l.l.l.f.w.w.M o o o o o o o y D D D D D { { { { ",
"D D D D D D D D D t o o I l.l.l.l.I o o o o o o o o o o o o o o o o o o o o K l.l.l.l.f.w.w.M o o D D D D D D D D D D D D D D D ",
"D D D D D D D D D t o o I l.l.l.l.I o o o o o o o o o o o o o o o o o o o o K l.l.l.l.f.w.w.M o o D D D D D D D D D D D D D D D ",
"D D D D D D D D D t o o S i.i.l.l.y.v v $ o 6 ` - - - - ` ` ` ` - - - = o o C i.i.k.l.f.w.w.M o o D D D D D D D D D D D D D D D ",
"D D D D D D D D D t o o b w.w.l.l.a.w.w.; o 9 c.D D D D c.c.c.c.D D D t o o v w.w.j.l.f.w.w.M o o D D D D D D D D D D D D D D D ",
"D D D D D D D D D t o o b w.w.l.l.a.w.w.; o U V.V.V.V.V.V.V.V.V.V.V.V.B.o o v w.w.j.l.f.w.w.M o o V.V.V.D D D D D D D D D D D D ",
"D D D D D D D D D D D D | o o w.w.w.w.w.; o U V.V.V.V.V.V.V.V.V.V.V.V.V.V.V.v.o o m w.w.w.w.M o o V.V.V.D D D D D D D D D D D D ",
"D D D D D D D D D D D D | o o w.w.w.w.w.; o U V.V.V.V.V.V.V.V.V.V.V.V.V.V.V.v.o o m w.w.w.w.M o o V.V.V.D D D D D D D D D D D D ",
"D D D D D D D D D D D D m.v.v.v v v v v } v.b.V.V.V.V.V.V.V.V.V.V.V.V.V.V.V.M.v.v.V v v v v [ v.v.V.V.V.D D D D D D D D D D D D ",
"C.C.C.C.C.C.C.C.C.C.C.C.C.C.C.o o o o o N.C.C.C.C.C.C.C.C.C.C.C.C.C.C.C.C.C.C.C.C.Y o o o o n.C.C.C.C.C.C.C.C.C.C.C.C.C.C.C.C.C.",
"C.C.C.C.C.C.C.C.C.C.C.C.C.C.C.o o o o o N.C.C.C.C.C.C.C.C.C.C.C.C.C.C.C.C.C.C.C.C.Y o o o o n.C.C.C.C.C.C.C.C.C.C.C.C.C.C.C.C.C.",
"C.C.C.C.C.C.C.C.C.C.C.C.C.C.C.C.C.C.C.C.C.C.C.C.C.C.C.C.C.C.C.C.C.C.C.C.C.C.C.C.C.C.C.C.C.C.C.C.C.C.C.C.C.C.C.C.C.C.C.C.C.C.C.C.",
"C.C.C.C.C.C.C.C.C.C.C.C.C.C.C.C.C.C.C.C.C.C.C.C.C.C.C.C.C.C.C.C.C.C.C.C.C.C.C.C.C.C.C.C.C.C.C.C.C.C.C.C.C.C.C.C.C.C.C.C.C.C.C.C."
};
