/* XPM */
static char *result[] = {
/* columns rows colors chars-per-pixel */
"64 64 210 2 ",
"   c #141B1B",
".  c #151B1C",
"X  c #151C1D",
"o  c #161C1E",
"O  c #171C20",
"+  c #181C21",
"@  c #191C22",
"#  c #191C23",
"$  c #191D23",
"%  c #191D24",
"&  c #1A1D25",
"*  c #1B1D26",
"=  c #1B1D27",
"-  c #1B1E26",
";  c #1B1E27",
":  c #1B1E28",
">  c #1C1E28",
",  c #1D1E29",
"<  c #1D1D2A",
"1  c #1D1E2A",
"2  c #1E1E2B",
"3  c #1F1E2D",
"4  c #201E2D",
"5  c #201E2E",
"6  c #201F2F",
"7  c #211F30",
"8  c #301F33",
"9  c #381F35",
"0  c #1B2424",
"q  c #1E2A26",
"w  c #17382D",
"e  c #193A2B",
"r  c #1B3C2A",
"t  c #222628",
"y  c #26272F",
"u  c #222C2C",
"i  c #262D2D",
"p  c #292E2B",
"a  c #2A2F2B",
"s  c #2B2F2E",
"d  c #223F24",
"f  c #213328",
"g  c #22322A",
"h  c #223828",
"j  c #233928",
"k  c #2E2E3A",
"l  c #2F2E3A",
"z  c #2F3B36",
"x  c #35353F",
"c  c #401E37",
"v  c #471D39",
"b  c #4F1E3A",
"n  c #511F3A",
"m  c #5E1D3E",
"M  c #651C3F",
"N  c #452634",
"B  c #4A2333",
"V  c #4B2336",
"C  c #4C2336",
"Z  c #5D2C37",
"A  c #5B2339",
"S  c #612539",
"D  c #64203D",
"F  c #6B263A",
"G  c #6A263B",
"H  c #76273C",
"J  c #75323A",
"K  c #24581C",
"L  c #24581D",
"P  c #255F1C",
"I  c #2E5C1F",
"U  c #136F1F",
"Y  c #1A731E",
"T  c #2A671B",
"R  c #2F631D",
"E  c #266C18",
"W  c #2F6F19",
"Q  c #346B1C",
"!  c #277913",
"~  c #277F11",
"^  c #21761D",
"/  c #2C7C1D",
"(  c #224521",
")  c #234524",
"_  c #234B21",
"`  c #284E23",
"'  c #2D4F23",
"]  c #2C4328",
"[  c #2A472B",
"{  c #384626",
"}  c #3A482A",
"|  c #295421",
" . c #2B5327",
".. c #3F5028",
"X. c #146828",
"o. c #277720",
"O. c #227026",
"+. c #247325",
"@. c #327B22",
"#. c #46402E",
"$. c #405C25",
"%. c #406322",
"&. c #496026",
"*. c #4D6724",
"=. c #537024",
"-. c #587823",
";. c #597923",
":. c #3C3D43",
">. c #6E1C42",
",. c #731F41",
"<. c #741E41",
"1. c #772141",
"2. c #4A4C4D",
"3. c #505453",
"4. c #5E625C",
"5. c #565F63",
"6. c #5F7160",
"7. c #656A61",
"8. c #72796B",
"9. c #656970",
"0. c #74737E",
"q. c #80283C",
"w. c #8D373D",
"e. c #8E363D",
"r. c #812142",
"t. c #862044",
"y. c #942941",
"u. c #982D44",
"i. c #9C3140",
"p. c #A12B42",
"a. c #A22D42",
"s. c #AB2846",
"d. c #AE2749",
"f. c #B72C4C",
"g. c #BA2849",
"h. c #BD2949",
"j. c #B92C4B",
"k. c #A53142",
"l. c #AB3743",
"z. c #AD3943",
"x. c #B93145",
"c. c #B03B44",
"v. c #B33F44",
"b. c #C02B49",
"n. c #C32D49",
"m. c #C02E4A",
"M. c #C62E48",
"N. c #C43D46",
"B. c #C93049",
"V. c #CC3048",
"C. c #CF3348",
"Z. c #D23648",
"A. c #CB4547",
"S. c #28860F",
"D. c #3E8716",
"F. c #318910",
"G. c #318911",
"H. c #3A8C12",
"J. c #3A8D12",
"K. c #3B8D13",
"L. c #3E8118",
"P. c #438916",
"I. c #438319",
"U. c #4C811C",
"Y. c #5F881F",
"T. c #449015",
"R. c #489115",
"E. c #499215",
"W. c #4D9316",
"Q. c #569717",
"!. c #579717",
"~. c #569718",
"^. c #5A9818",
"/. c #5F9A19",
"(. c #68911F",
"). c #609A1A",
"_. c #649B1A",
"`. c #65991E",
"'. c #689D1B",
"]. c #699D1B",
"[. c #699D1C",
"{. c #6B9D1E",
"}. c #6E9F1C",
"|. c #6EA01C",
" X c #72A11D",
".X c #5E8121",
"XX c #5E8022",
"oX c #698235",
"OX c #728B3B",
"+X c #76A025",
"@X c #78A621",
"#X c #7EAB26",
"$X c #7FAB26",
"%X c #68A076",
"&X c #85B12B",
"*X c #8BB72F",
"=X c #8EB932",
"-X c #92BB34",
";X c #94BE37",
":X c #98C139",
">X c #9EC73E",
",X c #808875",
"<X c #8D977F",
"1X c #A1C940",
"2X c #A4CC42",
"3X c #87B490",
"4X c #94BC9F",
"5X c #A2C3AE",
"6X c #B8DCE5",
"7X c #F2EAF1",
/* pixels */
"<X<X<X<X6.6.6.6.<X<X<X<X6.6.6.6.6.6.6.6.6.6.6.6.#.#.#.#.6.6.6.6.6.6.6.6.6.6.6.6.6.6.6.6.6.6.6.6.#.#.#.#.<X<X<X<X<X<X<X<X<X<X<X<X",
"<X<X<X<X6.6.6.6.<X<X<X<X6.6.6.6.6.6.6.6.6.6.6.6.#.#.#.#.6.6.6.6.6.6.6.6.6.6.6.6.6.6.6.6.6.6.6.6.#.#.#.#.<X<X<X<X<X<X<X<X<X<X<X<X",
"<X<X<X<X6.6.6.6.<X<X<X<X6.6.6.6.6.6.6.6.6.6.6.6.#.#.#.#.6.6.6.6.6.6.6.6.6.6.6.6.6.6.6.6.6.6.6.6.#.#.#.#.<X<X<X<X<X<X<X<X<X<X<X<X",
"<X<X<X<X6.6.6.6.<X<X<X<X6.6.6.6.6.6.6.6.6.6.6.6.#.#.#.#.6.6.6.6.6.6.6.6.6.6.6.6.6.6.6.6.6.6.6.6.#.#.#.#.<X<X<X<X<X<X<X<X<X<X<X<X",
"<X<X<X<X#.#.#.#.6.6.6.6.6.6.6.6.6.6.6.6.6.6.6.6.#.#.#.#.6.6.6.6.6.6.6.6.6.6.6.6.6.6.6.6.6.6.6.6.#.#.#.#.6.6.6.6.<X<X<X<X<X<X<X<X",
"<X<X<X<X#.#.#.#.6.6.6.6.6.6.6.6.6.6.6.6.6.6.6.6.#.#.#.#.6.6.6.6.6.6.6.6.6.6.6.6.6.6.6.6.6.6.6.6.#.#.#.#.6.6.6.6.<X<X<X<X<X<X<X<X",
"<X<X<X<X#.#.#.#.6.6.6.6.6.6.6.6.6.6.6.6.6.6.6.6.#.#.#.#.6.6.6.6.6.6.6.6.6.6.6.6.6.6.6.6.6.6.6.6.#.#.#.#.6.6.6.6.<X<X<X<X<X<X<X<X",
"<X<X<X<X#.#.#.#.6.6.6.6.6.6.6.6.6.6.6.6.6.6.6.6.#.#.#.#.6.6.6.6.6.6.6.6.6.6.6.6.6.6.6.6.6.6.6.6.#.#.#.#.6.6.6.6.<X<X<X<X<X<X<X<X",
"<X<X<X<X6.6.6.6.#.#.#.#.#.#.#.#.                                                        #.#.#.#.6.6.6.6.6.6.6.6.6.6.6.6.<X<X<X<X",
"<X<X<X<X6.6.6.6.#.#.#.#.#.#.#.#.                                                        #.#.#.#.6.6.6.6.6.6.6.6.6.6.6.6.<X<X<X<X",
"<X<X<X<X6.6.6.6.#.#.#.#.#.#.#.#.                                                        #.#.#.#.6.6.6.6.6.6.6.6.6.6.6.6.<X<X<X<X",
"<X<X<X<X6.6.6.6.#.#.#.#.#.#.#.#.                                                        #.#.#.#.6.6.6.6.6.6.6.6.6.6.6.6.<X<X<X<X",
"6.6.6.6.6.6.6.6.6.6.6.6.                                                                                6.6.6.6.6.6.6.6.<X<X<X<X",
"6.6.6.6.6.6.6.6.6.6.6.6.                                                                                6.6.6.6.6.6.6.6.<X<X<X<X",
"6.6.6.6.6.6.6.6.6.6.6.6.                                                                                6.6.6.6.6.6.6.6.<X<X<X<X",
"6.6.6.6.6.6.6.6.6.6.6.6.                                                                                6.6.6.6.6.6.6.6.<X<X<X<X",
"6.6.6.6.6.6.6.6.6.6.6.6.                                                                                6.6.6.6.6.6.6.6.6.6.6.6.",
"6.6.6.6.6.6.6.6.6.6.6.6.                                                                                6.6.6.6.6.6.6.6.6.6.6.6.",
"6.6.6.6.6.6.6.6.6.6.6.6.                                                                                6.6.6.6.6.6.6.6.6.6.6.6.",
"6.6.6.6.6.6.6.6.6.6.6.6.            4 7 7 &     o 7 7 7 7 7 7 1       4 7 7 7 :                         6.6.6.6.6.6.6.6.6.6.6.6.",
"6.6.6.6.6.6.6.6.                  5 v.A.A.J - O a (.(.(.(.(.(.=.2   5 .X(.(.(.*.:                               6.6.6.6.6.6.6.6.",
"6.6.6.6.6.6.6.6.                  7 x.C.C.d.M 5 7 s s s s s s s 7 5 7 s s s s y 1                               6.6.6.6.6.6.6.6.",
"6.6.6.6.6.6.6.6.                  O B V r.,.b t.a.v.v.v.k.l.z.p.p.p.p.c.k.l.v.v.e.<                             6.6.6.6.6.6.6.6.",
"6.6.6.6.6.6.6.6.                  > q.<.m 9 8 n G f.f.f.B.m.m.V.V.V.V.j.B.m.f.u.Z 3                             6.6.6.6.6.6.6.6.",
"6.6.6.6.6.6.6.6.                  7 N.n.A v >.1.y.g.g.g.M.b.b.V.V.V.V.h.M.b.g.s.F 3                             6.6.6.6.6.6.6.6.",
"6.6.6.6.6.6.6.6.                  7 A.Z.S c m D H H H H H H H H H H H H H H H H S 3                             6.6.6.6.6.6.6.6.",
"6.6.6.6.6.6.6.6.                  7 A.i.C g ) ) ) ) w 9.0.0.0.5.e ) w 9.0.0.0.5.r d #                           6.6.6.6.6.6.6.6.",
"6.6.6.6.6.6.6.6.                  ; w.N j Q T.T.T.T.U 4X5X5X5X3XY T.U 4X5X5X5X%X^ L.7                           6.6.6.6.6.6.6.6.",
"6.6.6.6.6.6.6.6.                    , 6 R !. X X X XK.+.O.O.O.o.T. XK.+.O.O.O./ E.(.7                           6.6.6.6.6.6.6.6.",
"6.6.6.6.6.6.6.6.                      2 =. X X X X X`.`.`.`.`.`.`.`.`.`.`.`.`.{. X(.7                           6.6.6.6.6.6.6.6.",
"6.6.6.6.6.6.6.6.                      2 =. X X X X'.X.X.X.X.X.X.X.X.X.X.X.X.X.@.}.(.7                           6.6.6.6.6.6.6.6.",
"6.6.6.6.6.6.6.6.                      2 =. X X X].S. X X X X X X X X X X X X XQ.K.(.7                           6.6.6.6.6.6.6.6.",
"6.6.6.6.6.6.6.6.                      2 =. X X X X X X X X XQ.S.S.S.S.S.). X X X X(.7                           6.6.6.6.6.6.6.6.",
"6.6.6.6.6.6.6.6.                      . t I E. X X X X X X X|.[.[.[.[.[.|. X X^.W p X                           6.6.6.6.6.6.6.6.",
"6.6.6.6.6.6.6.6.                        . 0 ` F.H. X X X X X X X X X X X XR.F.T q X                             6.6.6.6.6.6.6.6.",
"6.6.6.6.6.6.6.6.                          & u j ]  X X X X X X X X X X X X%.j u 1                               6.6.6.6.6.6.6.6.",
"6.6.6.6.6.6.6.6.                        $ { =.=.;. X X X*X-X-X-X-X-X-X-X@XXX} j _ =                             6.6.6.6.6.6.6.6.",
"6.6.6.6.6.6.6.6.                      & ( U. X_.P... X=X>X2X2X2X2X2X2X2X:X$X&.) ~ K >                           6.6.6.6.6.6.6.6.",
"6.6.6.6.6.6.6.6.                      2 P J.W.I.| &. X>X2X2X2X2X2X2X2X2X2X&X&.) S.! 7                           6.6.6.6.6.6.6.6.",
"6.6.6.6.6.6.6.6.                      % ( P P P '  X X=X1X2X2X2X2X2X2X2X;X#X&.h P L ;                           6.6.6.6.6.6.6.6.",
"6.6.6.6.6.6.6.6.#.#.#.#.                @ ; 1 j G. X X-.oXOXOXOXOXOXOXOX+X X&.l ; *                     #.#.#.#.6.6.6.6.6.6.6.6.",
"6.6.6.6.6.6.6.6.#.#.#.#.                    # j G. X/.i x :.:.:.:.:.7 g Y.].$.2.                        #.#.#.#.6.6.6.6.6.6.6.6.",
"6.6.6.6.6.6.6.6.#.#.#.#.                    # j G.'.! z 8.<X<X<X<X<X7 ! ~.D. .3.                        #.#.#.#.6.6.6.6.6.6.6.6.",
"6.6.6.6.6.6.6.6.#.#.#.#.                    + f ! ! k ,X<X<X<X<X<X<Xk E ! [ 4.<X                        #.#.#.#.6.6.6.6.6.6.6.6.",
"6.6.6.6.6.6.6.6.#.#.#.#.                <X<X<X8.7 7 <X<X<X<X<X<X<X<X<Xk 7 7.<X<X<X<X<X<X                #.#.#.#.6.6.6.6.6.6.6.6.",
"6.6.6.6.6.6.6.6.#.#.#.#.                <X<X<X<X<X<X<X<X<X<X<X<X<X<X<X<X<X<X<X<X<X<X<X<X                #.#.#.#.6.6.6.6.6.6.6.6.",
"6.6.6.6.6.6.6.6.#.#.#.#.                <X<X<X<X<X<X<X<X<X<X<X<X<X<X<X<X<X<X<X<X<X<X<X<X                #.#.#.#.6.6.6.6.6.6.6.6.",
"6.6.6.6.6.6.6.6.#.#.#.#.                <X<X<X<X<X<X<X<X<X<X<X<X<X<X<X<X<X<X<X<X<X<X<X<X                #.#.#.#.6.6.6.6.6.6.6.6.",
"6.6.6.6.#.#.#.#.#.#.#.#.        <X<X<X<X6X6X6X6X6X6X6X6X6X6X6X6X6X6X6X6X6X6X6X6X6X6X6X6X<X<X<X<X        #.#.#.#.#.#.#.#.6.6.6.6.",
"6.6.6.6.#.#.#.#.#.#.#.#.        <X<X<X<X6X6X6X6X6X6X6X6X6X6X6X6X6X6X6X6X6X6X6X6X6X6X6X6X<X<X<X<X        #.#.#.#.#.#.#.#.6.6.6.6.",
"6.6.6.6.#.#.#.#.#.#.#.#.        <X<X<X<X6X6X6X6X6X6X6X6X6X6X6X6X6X6X6X6X6X6X6X6X6X6X6X6X<X<X<X<X        #.#.#.#.#.#.#.#.6.6.6.6.",
"6.6.6.6.#.#.#.#.#.#.#.#.        <X<X<X<X6X6X6X6X6X6X6X6X6X6X6X6X6X6X6X6X6X6X6X6X6X6X6X6X<X<X<X<X        #.#.#.#.#.#.#.#.6.6.6.6.",
"#.#.#.#.#.#.#.#.#.#.#.#.#.#.#.#.6X6X6X6X6X6X6X6X6X6X6X6X6X6X6X6X6X6X6X6X6X6X6X6X6X6X6X6X6X6X6X6X#.#.#.#.#.#.#.#.#.#.#.#.#.#.#.#.",
"#.#.#.#.#.#.#.#.#.#.#.#.#.#.#.#.6X6X6X6X6X6X6X6X6X6X6X6X6X6X6X6X6X6X6X6X6X6X6X6X6X6X6X6X6X6X6X6X#.#.#.#.#.#.#.#.#.#.#.#.#.#.#.#.",
"#.#.#.#.#.#.#.#.#.#.#.#.#.#.#.#.6X6X6X6X6X6X6X6X6X6X6X6X6X6X6X6X6X6X6X6X6X6X6X6X6X6X6X6X6X6X6X6X#.#.#.#.#.#.#.#.#.#.#.#.#.#.#.#.",
"#.#.#.#.#.#.#.#.#.#.#.#.#.#.#.#.6X6X6X6X6X6X6X6X6X6X6X6X6X6X6X6X6X6X6X6X6X6X6X6X6X6X6X6X6X6X6X6X#.#.#.#.#.#.#.#.#.#.#.#.#.#.#.#.",
"#.#.#.#.#.#.#.#.#.#.#.#.6X6X6X6X6X6X6X6X7X7X7X7X7X7X7X7X7X7X7X7X7X7X7X7X7X7X7X7X7X7X7X7X6X6X6X6X6X6X6X6X#.#.#.#.#.#.#.#.#.#.#.#.",
"#.#.#.#.#.#.#.#.#.#.#.#.6X6X6X6X6X6X6X6X7X7X7X7X7X7X7X7X7X7X7X7X7X7X7X7X7X7X7X7X7X7X7X7X6X6X6X6X6X6X6X6X#.#.#.#.#.#.#.#.#.#.#.#.",
"#.#.#.#.#.#.#.#.#.#.#.#.6X6X6X6X6X6X6X6X7X7X7X7X7X7X7X7X7X7X7X7X7X7X7X7X7X7X7X7X7X7X7X7X6X6X6X6X6X6X6X6X#.#.#.#.#.#.#.#.#.#.#.#.",
"#.#.#.#.#.#.#.#.#.#.#.#.6X6X6X6X6X6X6X6X7X7X7X7X7X7X7X7X7X7X7X7X7X7X7X7X7X7X7X7X7X7X7X7X6X6X6X6X6X6X6X6X#.#.#.#.#.#.#.#.#.#.#.#.",
"7X7X7X7X7X7X7X7X7X7X7X7X7X7X7X7X7X7X7X7X7X7X7X7X7X7X7X7X7X7X7X7X7X7X7X7X7X7X7X7X7X7X7X7X7X7X7X7X7X7X7X7X7X7X7X7X7X7X7X7X7X7X7X7X",
"7X7X7X7X7X7X7X7X7X7X7X7X7X7X7X7X7X7X7X7X7X7X7X7X7X7X7X7X7X7X7X7X7X7X7X7X7X7X7X7X7X7X7X7X7X7X7X7X7X7X7X7X7X7X7X7X7X7X7X7X7X7X7X7X",
"7X7X7X7X7X7X7X7X7X7X7X7X7X7X7X7X7X7X7X7X7X7X7X7X7X7X7X7X7X7X7X7X7X7X7X7X7X7X7X7X7X7X7X7X7X7X7X7X7X7X7X7X7X7X7X7X7X7X7X7X7X7X7X7X",
"7X7X7X7X7X7X7X7X7X7X7X7X7X7X7X7X7X7X7X7X7X7X7X7X7X7X7X7X7X7X7X7X7X7X7X7X7X7X7X7X7X7X7X7X7X7X7X7X7X7X7X7X7X7X7X7X7X7X7X7X7X7X7X7X"
};
